<?xml version="1.0" standalone="no"?>
<!DOCTYPE svg PUBLIC "-//W3C//DTD SVG 1.1//EN" "http://www.w3.org/Graphics/SVG/1.1/DTD/svg11.dtd">
<svg xmlns="http://www.w3.org/2000/svg">
<metadata></metadata>
<defs>
<font id="artifikamedium" horiz-adv-x="1333">
<font-face units-per-em="2048" ascent="1638" descent="-410">
<missing-glyph horiz-adv-x="560">
<glyph horiz-adv-x="2048">
<glyph horiz-adv-x="2048">
<glyph unicode="&#xd;" horiz-adv-x="0">
<glyph horiz-adv-x="532">
<glyph unicode=" "  horiz-adv-x="560">
<glyph unicode="&#x09;" horiz-adv-x="560">
<glyph unicode="&#xa0;" horiz-adv-x="560">
<glyph unicode="!" horiz-adv-x="636" d="M169 1397q14 8 34 14.5t41.5 11t42.5 7t39 2.5q51 0 85 -22t34 -77q-11 -185 -19 -318t-13.5 -227t-8 -155t-2.5 -101q0 -38 2.5 -62t7.5 -46q-12 -9 -34 -16t-42 -7q-45 0 -68 20t-26 68l-39 639q-4 62 -8.5 106.5t-9 75.5t-9 51.5t-7.5 35.5zM177 123q0 28 10.5 53 t29.5 44t46 29.5t59 10.5q33 0 60.5 -10.5t47.5 -29.5t31 -44t11 -53q0 -30 -11 -56t-31 -44.5t-47.5 -29.5t-60.5 -11q-32 0 -59 11t-46 29.5t-29.5 44.5t-10.5 56z">
<glyph unicode="&#x22;" horiz-adv-x="906" d="M154 1413h127q42 0 61 -16t19 -54v-12l-31 -434h-70q-44 0 -59 19.5t-18 62.5zM539 1413h127q42 0 61 -16t19 -54v-12l-31 -434h-70q-44 0 -59 19.5t-18 62.5z">
<glyph unicode="#" horiz-adv-x="1228" d="M111 442v58q0 45 19.5 61.5t62.5 16.5h125l45 251h-196v58q0 45 19 61.5t63 16.5h139l57 309h62q42 0 62 -8.5t20 -42.5q0 -4 -0.5 -11.5t-5 -32t-13.5 -74.5t-26 -140h239l58 309h57q42 0 62 -8.5t20 -42.5q0 -4 -0.5 -11.5t-4.5 -32t-13 -74.5t-25 -140h180v-56 q0 -45 -19.5 -62.5t-62.5 -17.5h-123l-47 -251h197v-56q0 -45 -19.5 -62.5t-62.5 -17.5h-139l-56 -313h-59q-42 0 -61 11.5t-19 45.5q0 3 0.5 9t4.5 31t38 216h-242l-57 -313h-59q-42 0 -61 11.5t-19 45.5q0 3 0.5 9t42.5 247h-183zM472 578h242l45 251h-240z">
<glyph unicode="$" horiz-adv-x="1229" d="M85 190q0 21 15 37l102 121q34 -32 71.5 -67.5t80.5 -69.5t91.5 -62t104.5 -43v519q-43 22 -91 46t-94 52t-88 61.5t-74 75.5t-50.5 93t-18.5 114q0 88 35 152.5t93 109t133 71t155 38.5v153h68q45 0 62.5 -19t17.5 -63v-59h12q28 0 66 -2.5t79 -7.5t81 -13.5t71.5 -21 t51 -29.5t19.5 -39q0 -17 -12 -39l-80 -137q-28 22 -59 44.5t-66 42t-75.5 35t-87.5 24.5v-529q83 -37 162 -81t141 -98.5t99.5 -121t37.5 -147.5q0 -85 -35 -151t-95 -112.5t-140 -73t-170 -30.5v-237h-70q-45 0 -61.5 19t-16.5 62v158q-105 9 -206.5 43.5t-194.5 95.5 q-22 14 -43 37t-21 49zM333 1106q0 -57 18 -98.5t48 -72t69.5 -53t81.5 -40.5v473q-40 -3 -79 -17.5t-69.5 -41t-49.5 -64t-19 -86.5zM698 90q49 4 89 21t68.5 44t44 64t15.5 82q0 44 -17 80.5t-46 67.5t-68.5 57.5t-85.5 50.5v-467z">
<glyph unicode="%" horiz-adv-x="1671" d="M80 1081q0 92 29 158.5t75 109t104 63t115 20.5q58 0 115.5 -20.5t104 -63t75.5 -109t29 -158.5q0 -61 -14.5 -110.5t-39.5 -88t-57.5 -66.5t-68.5 -46.5t-73 -27.5t-71 -9q-51 0 -107.5 20t-104.5 62.5t-79.5 108.5t-31.5 157zM239 1081q0 -142 43 -208t121 -66 q79 0 120.5 66t41.5 208q0 75 -11.5 128t-32.5 86t-51 48t-67 15t-67 -15t-51.5 -48t-33.5 -86t-12 -128zM342 70q0 11 10 28l836 1317l63 -31q29 -14 45 -26t16 -29q0 -14 -12 -33l-837 -1308l-50 22q-32 16 -51.5 28.5t-19.5 31.5zM940 330q0 92 29.5 158t76 109t104.5 63 t115 20q58 0 116 -20t104.5 -63t76 -109t29.5 -158t-32 -157.5t-80 -108t-105.5 -62.5t-108.5 -20t-108 20t-105 62.5t-80 108t-32 157.5zM1104 330q0 -142 41.5 -208.5t119.5 -66.5q79 0 121.5 66.5t42.5 208.5q0 75 -11.5 127.5t-33 85.5t-52 48t-67.5 15t-66.5 -15 t-50.5 -48t-32.5 -85.5t-11.5 -127.5z">
<glyph unicode="&#x26;" horiz-adv-x="1407" d="M104 360q0 72 26.5 129t71 102.5t103.5 83.5t124 73l-92 110q-51 62 -73.5 123t-22.5 117q0 74 34.5 138.5t91.5 112t131 74.5t154 27q84 0 151 -23.5t113.5 -66.5t71.5 -103.5t25 -134.5q0 -69 -25.5 -122t-70.5 -97t-106 -82.5t-132 -77.5q42 -48 86 -101t88.5 -107 l89 -108t86.5 -105q32 54 48 116.5t16 124.5q0 70 -19 127l125 55q27 13 49 13q35 0 54.5 -29.5t19.5 -77.5q0 -41 -13.5 -91.5t-40.5 -106t-66.5 -113.5t-90.5 -113q23 -27 47.5 -54.5t47.5 -52t43.5 -45.5t35.5 -34q-62 -80 -129 -80q-69 0 -131 74l-57 67 q-84 -65 -177.5 -103t-201.5 -38q-98 0 -186 24.5t-154.5 74.5t-105.5 124.5t-39 175.5zM294 371q0 -69 27 -121.5t70.5 -88t98 -53.5t109.5 -18q88 0 162 25.5t137 70.5l-385 461q-48 -32 -88.5 -64t-69.5 -66t-45 -70t-16 -76zM409 1126q0 -27 11.5 -55.5t34.5 -62.5 t59 -76.5t85 -97.5l14 8q50 27 95 56.5t78.5 64.5t53 76t19.5 91q0 42 -17 78.5t-47 64.5t-70 44t-85 16q-43 0 -84.5 -15t-74 -42t-52.5 -65t-20 -85z">
<glyph unicode="'" horiz-adv-x="521" d="M154 1413h127q42 0 61 -16t19 -54v-12l-31 -434h-70q-44 0 -59 19.5t-18 62.5z">
<glyph unicode="(" horiz-adv-x="662" d="M131 639q0 129 20 240t50 201.5t65 160t65.5 117t51 72t22.5 24.5q23 29 46.5 42t41.5 13q16 0 27 -8l39 -35q-64 -102 -115 -229q-22 -54 -43 -119t-37.5 -139t-27 -156.5t-11.5 -171.5q1 -90 11.5 -172.5t27 -156.5t37.5 -138.5t43 -118.5q51 -127 115 -229l-39 -35 q-13 -10 -27 -10q-18 0 -41.5 14t-46.5 43q-77 88 -137 207q-26 51 -50.5 113t-44 135.5t-31 157.5t-11.5 178z">
<glyph unicode=")" horiz-adv-x="663" d="M104 -164q64 102 115 229q22 54 42.5 118.5t37 138.5t27 156.5t11.5 172.5q-1 89 -11.5 171.5t-27 156.5t-37 139t-42.5 119q-51 127 -115 229l39 35q5 5 11.5 6.5t14.5 1.5q19 0 41.5 -13t46.5 -42q76 -88 137 -207q26 -51 50.5 -113.5t44 -136t31.5 -157.5t12 -178 q0 -129 -20 -239.5t-50 -201t-65 -160t-65.5 -117t-51.5 -72t-23 -24.5q-48 -57 -88 -57q-16 0 -26 10z">
<glyph unicode="*" horiz-adv-x="999" d="M130 1167l51 90q11 19 23 27t24 8q9 0 20.5 -2.5t22.5 -11.5l180 -145l-37 294h103q35 0 52.5 -15t12.5 -50l-33 -232l236 187l53 -88q8 -13 11.5 -22.5t3.5 -18.5q0 -14 -8.5 -27.5t-28.5 -21.5l-221 -86l274 -168l-66 -84q-21 -29 -45 -29q-12 0 -23 5t-22 18l-168 174 l39 -312h-102q-32 0 -49 12t-17 40q0 7 35 262l-233 -201l-56 88q-8 12 -13 23t-5 20q0 13 8.5 25.5t30.5 21.5l227 103z">
<glyph unicode="+" horiz-adv-x="1120" d="M89 563v63q0 45 19 61.5t63 16.5h317v399h61q45 0 62.5 -19.5t17.5 -62.5v-317h401v-62q0 -44 -19.5 -61.5t-62.5 -17.5h-319v-401h-64q-44 0 -60.5 19t-16.5 63v319h-399z">
<glyph unicode="," horiz-adv-x="599" d="M150 102q0 28 10.5 53.5t30 44t46.5 29.5t59 11q33 0 58.5 -11t44.5 -29.5t31 -44t17 -53.5q6 -30 6 -65q0 -50 -12.5 -105t-39.5 -105t-70.5 -91.5t-104.5 -63.5q-8 -4 -18 -4t-17.5 6t-7.5 25v55q24 15 43.5 37.5t35.5 50t27.5 58.5t18.5 63q-2 -2 -5.5 -2h-6.5 q-32 0 -59 11t-46.5 30t-30 44.5t-10.5 55.5z">
<glyph unicode="-" horiz-adv-x="923" d="M168 551v63q0 45 19.5 61.5t62.5 16.5h506v-61q0 -45 -19 -62.5t-63 -17.5h-506z">
<glyph unicode="." horiz-adv-x="594" d="M150 102q0 28 10.5 53.5t30 44t46.5 29.5t59 11q33 0 60.5 -11t47 -29.5t30.5 -44t11 -53.5q0 -30 -11 -55.5t-30.5 -44.5t-47 -30t-60.5 -11q-32 0 -59 11t-46.5 30t-30 44.5t-10.5 55.5z">
<glyph unicode="/" horiz-adv-x="1023" d="M63 -195q0 15 8 31l733 1700h68q38 0 63 -9.5t25 -37.5q0 -6 -1.5 -15t-6.5 -20l-733 -1700h-70q-38 0 -62 12.5t-24 38.5z">
<glyph unicode="0" horiz-adv-x="1394" d="M136 696q0 165 36 303t107 238.5t176 156.5t242 56q138 0 242.5 -56t175.5 -156.5t107 -238.5t36 -303q0 -164 -39 -299.5t-112 -232.5t-176.5 -150t-233.5 -53t-234 53t-176.5 150t-111.5 232.5t-39 299.5zM363 696q0 -128 17.5 -238t57.5 -191.5t103.5 -128 t155.5 -46.5t156 46.5t103.5 128t57 191.5t17.5 238q0 135 -17.5 249.5t-57 197.5t-103.5 129.5t-156 46.5t-155.5 -46.5t-103.5 -129.5t-57.5 -197.5t-17.5 -249.5z">
<glyph unicode="1" horiz-adv-x="740" d="M37 1278q34 23 86 50t110.5 50t118.5 38.5t111 15.5q23 0 36.5 -4.5t21 -13.5t10 -22.5t2.5 -31.5v-1045q0 -64 3.5 -113t8.5 -85.5t10 -61t8 -39.5q-60 -34 -118 -34q-53 0 -86 21.5t-33 78.5v1204l-256 -92z">
<glyph unicode="2" horiz-adv-x="1207" d="M81 86q0 -1 23 22.5t61.5 63.5t88 92.5t103.5 110t107.5 115.5t99 108.5t80 90t49.5 59.5q63 81 94 163.5t31 159.5q0 53 -14.5 98.5t-42 79.5t-67.5 53t-91 19t-102.5 -18t-101 -45.5t-95.5 -60t-86 -62.5l-78 106q-12 18 -12 35q0 23 21 45t55.5 41t79.5 35.5t93.5 28 t96 18t88.5 6.5q124 0 213.5 -33.5t146.5 -90t84 -129t27 -150.5q0 -94 -36.5 -184t-96.5 -175.5t-136.5 -164.5t-156.5 -151t-156.5 -135.5t-136.5 -117.5h189q67 0 141.5 9t150 23.5t149 33.5t138.5 40q7 -21 12 -41q5 -18 9 -38.5t4 -39.5q0 -47 -23.5 -71t-79 -34.5 t-146.5 -11.5t-226 -1q-74 0 -147.5 1t-137.5 2.5t-113.5 4t-74.5 4.5q-47 4 -62.5 23.5t-15.5 62.5z">
<glyph unicode="3" horiz-adv-x="1204" d="M103 137q0 18 15 45l63 109q47 -32 97.5 -67t103.5 -64t107 -47.5t108 -18.5q65 0 117 24.5t88.5 66.5t56 97t19.5 115q0 82 -40.5 139t-108 92t-156 49.5t-183.5 12.5v58q0 16 3.5 25.5t8 15t9 8t6.5 4.5q66 38 134 98t125.5 128.5t98 140t51.5 132.5h-229 q-108 0 -183.5 -18.5t-125.5 -41.5q-58 -26 -96 -60q-2 3 -14 22t-26 43t-25 48t-11 36q0 21 21 37t56 27.5t81 18.5t96.5 11t102 5.5t97.5 1.5q44 0 86 -1t85 -3.5t88 -5t94 -5.5q39 -2 60 -11t30.5 -23.5t11 -33.5t2.5 -42q-19 -66 -55.5 -128t-81 -117t-91.5 -101 t-86.5 -80t-66.5 -54t-31 -22q101 -14 185.5 -45t146 -82.5t95.5 -125t34 -171.5t-38.5 -175t-106 -130.5t-159 -82t-198.5 -28.5q-46 0 -98.5 6t-104.5 16.5t-100.5 26t-85.5 35t-59.5 42.5t-22.5 48z">
<glyph unicode="4" horiz-adv-x="1217" d="M40 414q0 12 3.5 23t8.5 18q178 265 323 475q62 90 122.5 176.5t111 156t85.5 114t46 50.5q9 2 20 3t21.5 1.5t20 0.5h14.5q42 0 61 -19t19 -53v-873h262v-43q0 -45 -19.5 -62t-62.5 -17h-180v-60q0 -64 3.5 -111.5t8.5 -82t10.5 -57.5t8.5 -38q-60 -34 -119 -34 q-5 0 -9.5 1t-9.5 1q-45 3 -72.5 25t-27.5 73v283h-578q-43 0 -57 14.5t-14 34.5zM240 492l7 -5h442v637l-4 17z">
<glyph unicode="5" horiz-adv-x="1196" d="M79 141q0 10 3.5 19.5t9.5 21.5l73 125q20 -12 50.5 -32.5t67.5 -44.5t77.5 -48.5t81.5 -44.5t80.5 -32.5t73.5 -12.5q57 0 100 17.5t73.5 46t50.5 63.5t31.5 70.5t16 68t4.5 54.5q0 63 -25.5 117.5t-76.5 94t-127.5 62.5t-178.5 23q-45 0 -93.5 -5t-102.5 -14 q-8 8 -14 15q-5 6 -9.5 11t-5.5 7v620q1 8 3 20t11 23t28.5 19t55.5 8q67 0 145 -1t165 0.5t183.5 8t201.5 21.5q3 -29 8.5 -60t5.5 -57q0 -43 -50 -58.5t-153 -15.5q-64 0 -138 7t-138 16q-75 11 -148 24v-479q44 9 84 14t80 5q108 0 198 -32.5t154.5 -89.5t100 -133.5 t35.5 -164.5q0 -105 -38.5 -189t-106 -143t-159.5 -91t-198 -32q-37 0 -88 6.5t-105.5 18t-107.5 28t-95 36t-68 42t-26 47.5z">
<glyph unicode="6" horiz-adv-x="1234" d="M140 639q0 65 5 136t17 140t31 133t47 115q39 70 93 123.5t119.5 90t140.5 55t155 18.5q27 0 70.5 -3.5t85.5 -12.5t72 -25.5t30 -42.5q0 -11 -6 -20l-78 -142q-68 56 -127.5 81.5t-113.5 25.5q-58 0 -105.5 -26.5t-84.5 -72t-64 -105.5t-45 -127t-26.5 -137t-8.5 -134 v-38.5t2 -35.5q64 75 120.5 120t105.5 69t91.5 32t79.5 8q93 0 165 -36.5t121.5 -96.5t75 -137t25.5 -158q0 -84 -29.5 -168.5t-90 -152.5t-152.5 -111t-217 -43q-136 0 -232 50.5t-156.5 141t-88 215t-27.5 271.5zM357 504q0 -33 4.5 -76t17 -89t33.5 -90t54 -79t79 -56.5 t109 -21.5q60 0 109.5 24t84.5 69t54.5 110t19.5 147q0 72 -14.5 126t-40.5 90t-62 54.5t-79 18.5q-38 0 -79 -16t-82 -40.5t-77.5 -53t-65.5 -54t-46.5 -43.5t-18.5 -20z">
<glyph unicode="7" horiz-adv-x="1067" d="M36 1325q0 22 22 38t60 27t87.5 18t105 10.5t112.5 5t109 1.5q94 0 192 -4t197 -10q39 -2 60 -10.5t32 -20.5t13 -39v-41l-494 -1132q-9 -18 -19 -41.5t-18.5 -47t-14.5 -45t-7 -34.5q-9 -5 -23.5 -8.5t-30.5 -5.5t-32 -3t-29 -1q-15 0 -31 2.5t-28.5 9t-20.5 18t-8 29.5 q0 13 10 35l524 1222l-229 -2q-107 -1 -192.5 -19.5t-145.5 -40.5t-92.5 -40.5t-32.5 -19.5q-2 3 -14 22t-25.5 43t-25 48t-11.5 36z">
<glyph unicode="8" horiz-adv-x="1238" d="M148 291q0 79 21.5 144t58.5 118t87.5 95t108.5 77q-81 45 -133.5 91.5t-83 93t-42 93.5t-11.5 93q0 86 36 152t98.5 111t145 68t175.5 23q88 0 168.5 -23t141.5 -68t97.5 -111t36.5 -152q0 -55 -19.5 -106t-54 -97t-80.5 -86.5t-100 -73.5q63 -35 119 -70.5t98.5 -79.5 t67 -99t24.5 -128q0 -108 -44 -183t-115 -122.5t-160.5 -68.5t-179.5 -21q-84 0 -166.5 20t-148 60.5t-106 103t-40.5 146.5zM334 332q0 -60 22.5 -105t61 -75t88 -45t103.5 -15q57 0 109.5 14.5t92 43.5t63 73.5t23.5 104.5q0 37 -17 70.5t-44.5 64.5t-64 58.5t-75 52 t-77 45.5t-70.5 38q-47 -32 -86.5 -68t-68 -77t-44.5 -86t-16 -94zM355 1098q0 -45 30 -87t77 -80t103.5 -72t110.5 -62q42 26 76 59t59 71t38.5 81t13.5 88q0 56 -20 98t-54.5 69.5t-81 41.5t-98.5 14q-53 0 -99.5 -14t-81 -42t-54 -69.5t-19.5 -95.5z">
<glyph unicode="9" horiz-adv-x="1238" d="M108 975q0 83 29.5 167.5t90 153t153 111.5t217.5 43q130 0 225 -48.5t156.5 -134.5t91 -205.5t29.5 -260.5q0 -69 -6 -142.5t-19.5 -144.5t-34.5 -136.5t-51 -119.5q-38 -70 -95.5 -125t-127.5 -93.5t-149.5 -58.5t-161.5 -20q-29 0 -74 3.5t-87 12.5t-72 25.5t-30 42.5 q0 8 7 21l77 141q68 -56 140 -81.5t131 -25.5q64 0 114 28.5t88 77t64.5 112.5t43.5 134.5t25 142.5t9 138q-62 -71 -121 -109t-110 -55.5t-93.5 -20.5t-71.5 -3q-93 0 -165 37t-121.5 97.5t-75 137.5t-25.5 158zM319 969q0 -72 14.5 -126.5t41 -91t62.5 -55t79 -18.5 q36 0 77 13.5t82 33.5t78 43.5t66 44.5t47 35t19 16q2 17 3 35.5t1 38.5q0 70 -15 138t-50.5 122t-93 87.5t-142.5 33.5q-60 0 -109.5 -24t-85 -69t-55 -110t-19.5 -147z">
<glyph unicode=":" horiz-adv-x="630" d="M168 102q0 28 10.5 53.5t30 44t46.5 29.5t59 11q33 0 60.5 -11t47 -29.5t30.5 -44t11 -53.5q0 -30 -11 -55.5t-30.5 -44.5t-47 -30t-60.5 -11q-32 0 -59 11t-46.5 30t-30 44.5t-10.5 55.5zM168 918q0 28 10.5 53t30 43.5t46.5 29.5t59 11q33 0 60.5 -11t47 -29.5 t30.5 -43.5t11 -53q0 -30 -11 -56t-30.5 -45t-47 -30t-60.5 -11q-32 0 -59 11t-46.5 30t-30 45t-10.5 56z">
<glyph unicode=";" horiz-adv-x="640" d="M170 102q0 28 10.5 53.5t30 44t46.5 29.5t59 11q33 0 58.5 -11t44.5 -29.5t31 -44t17 -53.5q6 -30 6 -65q0 -50 -12.5 -105t-39.5 -105t-70.5 -91.5t-104.5 -63.5q-8 -4 -18 -4t-17.5 6t-7.5 25v55q24 15 43.5 37.5t35.5 50t27.5 58.5t18.5 63q-2 -2 -5.5 -2h-6.5 q-32 0 -59 11t-46.5 30t-30 44.5t-10.5 55.5zM170 918q0 28 10.5 53t30 43.5t46.5 29.5t59 11q33 0 60.5 -11t47 -29.5t30.5 -43.5t11 -53q0 -30 -11 -56t-30.5 -45t-47 -30t-60.5 -11q-32 0 -59 11t-46.5 30t-30 45t-10.5 56z">
<glyph unicode="&#x3c;" horiz-adv-x="1312" d="M73 520v62q0 19 6 31.5t13.5 20t15 11.5t10.5 6l928 426q14 6 25 9.5t22 3.5q35 0 59 -50l33 -67l-879 -395v-5l875 -397l-29 -65q-24 -52 -59 -52q-11 0 -22 4.5t-25 10.5z">
<glyph unicode="=" horiz-adv-x="1290" d="M175 379v63q0 45 19 61.5t63 16.5h860v-61q0 -45 -19.5 -62.5t-62.5 -17.5h-860zM175 748v63q0 45 19 61.5t63 16.5h860v-62q0 -45 -19.5 -62t-62.5 -17h-860z">
<glyph unicode="&#x3e;" horiz-adv-x="1310" d="M123 971l33 67q12 25 25.5 37t33.5 12t47 -12l928 -426q3 -2 10.5 -6t15 -11.5t13.5 -20t6 -31.5v-62l-973 -446q-14 -7 -26 -11t-21 -4q-38 0 -59 52l-29 65l874 397v4z">
<glyph unicode="?" horiz-adv-x="974" d="M71 1341q0 23 18.5 40t48 29.5t67 20t75 12t71.5 6t58 1.5q102 0 190 -22.5t152.5 -67.5t101 -112.5t36.5 -157.5q0 -49 -16 -90t-42.5 -76t-62 -65t-74.5 -58.5t-79.5 -56t-76.5 -56.5q-28 -23 -43.5 -48t-15.5 -48q0 -26 19 -43t41.5 -27.5t41.5 -16.5t19 -11 q0 -16 -4 -35t-13 -35.5t-23 -27.5t-34 -11q-42 0 -83 15.5t-74 43t-53.5 66t-20.5 84.5q0 48 27 88.5t67 78t87 74.5t87 79t67 91.5t27 112.5q0 35 -12 67.5t-35 57t-56.5 39t-76.5 14.5q-32 0 -69.5 -9t-75 -22.5t-72 -29t-61 -29.5t-42.5 -24t-16 -11l-61 140 q-5 9 -7 16.5t-2 13.5zM303 102q0 28 10.5 53.5t29.5 44t46 29.5t59 11q33 0 60.5 -11t47.5 -29.5t31 -44t11 -53.5q0 -30 -11 -55.5t-31 -44.5t-47.5 -30t-60.5 -11q-32 0 -59 11t-46 30t-29.5 44.5t-10.5 55.5z">
<glyph unicode="@" horiz-adv-x="1874" d="M96 590q0 124 32 235.5t90.5 207.5t141.5 173t184.5 131t219.5 83.5t248 29.5q163 0 303 -49.5t243.5 -144t162.5 -230.5t59 -309q0 -88 -18.5 -164t-49.5 -138t-72.5 -110.5t-87.5 -81.5t-93.5 -50t-90.5 -17q-93 0 -152 49t-88 137h-10q-20 -40 -46.5 -74t-60.5 -59 t-75.5 -39t-91.5 -14q-61 0 -117 21t-99 64.5t-68.5 108.5t-25.5 154q0 54 12.5 117.5t39 127t68 122.5t99 104.5t132.5 72.5t168 27q51 0 92.5 -15.5t62.5 -35.5l17 74q37 -6 66 -20q25 -12 46 -33t21 -56v-11t-2 -11l-86 -428q-5 -25 -9 -54.5t-4 -58.5t5.5 -56.5 t19.5 -48.5t37.5 -34t60.5 -13q39 0 85.5 28t87 84.5t67.5 140.5t27 196q0 150 -50 264.5t-136 192t-203 116.5t-250 39q-91 0 -181.5 -22t-173 -65.5t-153.5 -107t-123.5 -146.5t-82.5 -184t-30 -220q0 -127 28.5 -232.5t79 -190t120 -147t152 -104.5t173.5 -63t186 -21 q141 0 282.5 43t272.5 131l48 -74q-150 -105 -312 -155.5t-323 -50.5q-114 0 -223.5 25.5t-206.5 75t-179 123t-141 169.5t-92 214t-33 257zM727 485q0 -60 12.5 -102t33.5 -68.5t48.5 -38.5t57.5 -12q51 0 88.5 22t63.5 58t42 81.5t25 92.5l84 406q-6 15 -19 27t-29.5 21 t-35.5 14t-37 5q-58 0 -105 -25.5t-84 -67.5t-64.5 -95.5t-45 -110t-26.5 -110.5t-9 -97z">
<glyph unicode="A" horiz-adv-x="1517" d="M87 39q0 5 1 8t1 8q9 75 37.5 173.5t69.5 208.5t90 225t99 223.5t97 204.5t83.5 168t58.5 114l22 41h102q25 0 43 -3.5t31.5 -12.5t24 -25t20.5 -41l461 -1171l176 69l33 -71q-25 -23 -63 -54.5t-82.5 -60t-92 -48.5t-90.5 -20q-28 0 -50 13t-36 45l-150 348h-610 q-15 -53 -23 -106.5t-8 -106.5q0 -37 4 -72t13 -67l-156 -43q-24 -6 -45 -6q-61 0 -61 59zM396 518h526l-241 666h-11q-44 -102 -85.5 -194.5t-78 -175.5t-65 -157.5t-45.5 -138.5z">
<glyph unicode="B" horiz-adv-x="1448" d="M65 1257v89q46 19 120.5 34.5t166 27t193 17.5t202.5 7q118 0 215.5 -20.5t167.5 -67.5t108 -124t38 -190q0 -25 -5.5 -56t-18.5 -64t-33.5 -64.5t-50.5 -58.5t-70.5 -46t-92.5 -26q85 -9 143.5 -37t95 -72t53 -101t16.5 -124q0 -119 -46.5 -196.5t-128.5 -122.5 t-192.5 -62.5t-237.5 -17.5q-102 0 -190.5 4.5t-181.5 15.5q-45 5 -61.5 24t-16.5 62v1184zM500 143q27 -9 63 -16q31 -6 75 -11t101 -5q106 0 172 23.5t102.5 60.5t49 82t12.5 88q0 59 -15.5 107.5t-50 84t-91 56.5t-138.5 26q-31 2 -60 2h-57q-35 0 -64.5 -0.5t-51.5 -1.5 q-26 -1 -47 -2v-494zM500 780q48 -9 86.5 -12.5t70.5 -3.5q108 0 182 21.5t120 58.5t66.5 86t20.5 104q0 60 -17 108t-53 81.5t-93 51.5t-138 19q-52 0 -97 -1.5t-78 -3.5t-51.5 -4t-18.5 -3v-502z">
<glyph unicode="C" horiz-adv-x="1439" d="M128 702q0 172 47.5 310.5t140.5 235.5t231.5 149.5t321.5 52.5q37 0 84.5 -3t97 -9t96.5 -16t83.5 -24.5t59 -34t22.5 -44.5q0 -18 -12 -39l-84 -141q-33 18 -78 48.5t-99.5 59t-117 49.5t-129.5 21q-79 0 -139.5 -25.5t-105.5 -69.5t-75.5 -102.5t-49 -124.5 t-26.5 -135.5t-8 -134.5q0 -80 14.5 -156.5t44 -144.5t73.5 -124.5t103 -97.5t133 -64t163 -23q75 0 148 13t133 29q69 18 132 42l41 -78q-56 -44 -118.5 -74.5t-130 -49.5t-138 -27.5t-141.5 -8.5q-164 0 -296.5 52t-226 148.5t-144 233.5t-50.5 307z">
<glyph unicode="D" horiz-adv-x="1632" d="M63 1270v80q58 19 141.5 34.5t180.5 26t201.5 16t203.5 5.5q175 0 307 -40.5t220.5 -128t133 -225.5t44.5 -333q0 -182 -51.5 -314.5t-143.5 -219.5t-218 -129t-275 -42h-473q-45 0 -61.5 19.5t-16.5 62.5l2 1192q-55 -1 -97 -2q-37 -1 -67 -1.5t-31 -0.5zM489 1286 l3 -1145q34 -4 73 -7q33 -3 74.5 -5t83.5 -2q124 0 220 32t161.5 101.5t99 179.5t33.5 265q0 144 -22 255.5t-75.5 187.5t-143.5 115.5t-226 39.5q-53 0 -103.5 -3t-90 -6.5t-63 -5.5t-24.5 -2z">
<glyph unicode="E" d="M65 1292v80q30 10 95.5 20.5t153.5 19.5t193 14.5t214 5.5q47 0 103.5 -1t113 -4.5t109.5 -9.5t94 -17t65.5 -27.5t24.5 -39.5q0 -10 -12.5 -36t-28.5 -54.5t-31 -53t-20 -30.5q0 1 -26.5 19t-80 39.5t-133.5 39.5t-186 19l-222 2v-473h529v-49q0 -53 -22.5 -72.5 t-71.5 -19.5h-435v-523h181q134 0 269 18t265 60q0 -1 3 -10.5t7 -25.5t7.5 -36.5t3.5 -40.5q0 -47 -24 -71t-77 -34.5t-139.5 -11.5t-210.5 -1q-68 0 -136.5 1t-128 2.5t-106 4t-71.5 4.5q-47 4 -62.5 23.5t-15.5 62.5v1206h-191z">
<glyph unicode="F" horiz-adv-x="1262" d="M66 1292v80q30 10 95.5 20.5t153.5 19.5t193 14.5t214 5.5q47 0 103.5 -1t113 -4.5t109.5 -9.5t94 -17t65.5 -27.5t24.5 -39.5q0 -10 -12.5 -36t-28.5 -54.5t-31 -53t-20 -30.5q0 1 -26.5 19t-80 39.5t-133.5 39.5t-186 19h-222v-471h529v-49q0 -53 -22.5 -72.5 t-71.5 -19.5h-435v-347q0 -64 4.5 -113.5t11 -86t12.5 -61.5t9 -40q-15 -8 -33.5 -14.5t-39 -11t-40.5 -6.5t-38 -2q-26 0 -48.5 5t-38.5 16.5t-25 30.5t-9 48v1210h-191z">
<glyph unicode="G" horiz-adv-x="1525" d="M123 698q0 174 55.5 313.5t158 237t248 149.5t325.5 52q34 0 77 -3t87 -9.5t86 -16.5t74.5 -24t52.5 -32.5t20 -41.5q0 -18 -12 -39l-84 -141q-33 18 -81.5 48t-106.5 58.5t-121.5 49t-127.5 20.5q-72 0 -128.5 -24t-100 -67t-74.5 -101.5t-50.5 -127t-28.5 -144.5 t-9 -153q0 -147 40.5 -259t107 -188.5t153 -115.5t178.5 -39q85 0 162 14.5t140 49.5v383h-207v80q15 7 49 15t76 15t87.5 11t84.5 4q40 0 66.5 -1t42.5 -5.5t22 -15t6 -29.5v-482q-42 -43 -105 -76t-137 -55.5t-153 -34.5t-152 -12q-157 0 -289 50.5t-228 146t-150 232 t-54 308.5z">
<glyph unicode="H" horiz-adv-x="1675" d="M64 1307v79q15 8 45 16t69.5 15t86.5 11t96 4h45h35t27.5 -4.5t17.5 -15t6 -32.5v-569h691v297q0 64 -3.5 112t-9 83t-10.5 58t-8 38q15 8 33 14.5t37.5 10.5t38.5 6t36 2q26 0 48.5 -5t38.5 -16t25 -30.5t9 -47.5v-1217h189v-87q-18 -9 -49.5 -17.5t-69.5 -15t-80 -10.5 t-82 -4q-31 0 -57 3.5t-45 14t-30 29t-11 49.5v592h-691v-355q0 -64 3.5 -113t9 -85.5t10.5 -61t8 -39.5q-15 -8 -33 -14.5t-37.5 -11t-38.5 -6.5t-36 -2q-26 0 -48.5 5t-38.5 16.5t-25 30.5t-9 48v1225h-193z">
<glyph unicode="I" horiz-adv-x="751" d="M64 1307v79q15 8 45 16t69.5 15t86.5 11t96 4q40 0 65.5 -1.5t40 -7t20 -15.5t5.5 -28v-1264h189v-87q-18 -9 -49 -17.5t-69 -15t-80.5 -10.5t-82.5 -4q-31 0 -57 3.5t-45 14t-30 29t-11 49.5v1229h-193z">
<glyph unicode="J" horiz-adv-x="699" d="M-200 -436q0 5 1 9t3 9l65 174q88 -35 156 -61.5t115 -26.5q40 0 63.5 29.5t35.5 73.5t15.5 95t3.5 95v74v1272h-192v79q15 8 45 16t69.5 15t86.5 11t96 4q38 0 63.5 -1t40.5 -5.5t21 -15.5t6 -30l-2 -1357q0 -128 -41 -224.5t-111.5 -161.5t-165 -98t-202.5 -33 q-16 0 -45 1t-57 6.5t-49 17t-21 33.5z">
<glyph unicode="K" horiz-adv-x="1441" d="M64 1307v79q15 8 45 16t69.5 15t86.5 11t96 4q39 0 64 -1t40 -5.5t21 -15.5t6 -30v-1065q0 -64 3.5 -113t9 -85.5t10.5 -61t8 -39.5q-15 -8 -33 -14.5t-37.5 -11t-38.5 -6.5t-36 -2q-26 0 -48.5 5t-38.5 16.5t-25 30.5t-9 48v1225h-193zM542 709q0 15 6.5 28t23.5 27 q28 23 68 57t84.5 74.5t88.5 85.5t78.5 91.5t56.5 92t22 86.5q0 17 -2.5 35.5t-10.5 38.5l197 94q29 13 51 13q31 0 50.5 -21.5t19.5 -56.5q0 -51 -37 -113t-93 -125.5t-121 -123.5t-121.5 -109t-135.5 -121l438 -602l148 98l47 -65q-20 -26 -52.5 -62t-74 -69t-89.5 -56.5 t-100 -23.5q-28 0 -48.5 10.5t-43.5 42.5l-426 612q-7 9 -12 19q-5 8 -8.5 19t-3.5 24z">
<glyph unicode="L" horiz-adv-x="1252" d="M64 1307v79q15 8 45 16t69.5 15t86.5 11t96 4q39 0 64 -1t40 -5.5t21 -15.5t6 -30v-1238h181q134 0 269 17.5t265 59.5q0 -1 3 -10.5t7 -25.5t7.5 -36.5t3.5 -40.5q0 -44 -22.5 -68t-75 -35t-139 -13t-214.5 -2q-68 0 -136.5 1t-128 2.5t-106 4t-71.5 4.5 q-47 4 -62.5 23.5t-15.5 62.5v1221h-193z">
<glyph unicode="M" horiz-adv-x="2110" d="M60 158q11 5 32.5 12t46.5 19t50.5 31t44.5 48q18 28 36 96.5t34 161t30.5 200.5t25 214t17 202t7.5 165h-195v79q13 7 43 15t66.5 15t75 11.5t69.5 4.5q41 0 70.5 -1.5t51.5 -7t37.5 -16.5t27.5 -29q37 -86 75 -180.5t74 -191.5t266 -775q205 619 260 771.5t96 255 t64 141.5q-1 1 15.5 6.5t40.5 11.5t51.5 10.5t50.5 4.5q24 0 39 -4.5t24 -14t14 -24t9 -33.5l162 -1221l190 29l18 -74q-21 -21 -60 -41.5t-85.5 -37.5t-96 -27.5t-91.5 -10.5q-17 0 -34.5 3.5t-32 12t-25 23t-13.5 37.5l-125 1026q-92 -265 -204.5 -567.5t-140 -368.5 t-43 -97t-20.5 -37t-5 -5h-109q-24 0 -42 3.5t-32 12.5t-25 25t-20 41q-98 262 -164 449t-106 307q-47 141 -74 233q-5 -85 -10.5 -175.5t-13 -181t-17.5 -177.5t-23 -164t-30 -141.5t-39 -108.5q-15 -30 -38.5 -56.5t-52.5 -46.5t-62.5 -31.5t-69.5 -11.5q-26 0 -44.5 13 t-29.5 45z">
<glyph unicode="N" horiz-adv-x="1577" d="M70 1307v79q14 7 42.5 15t67 15t84 11.5t93.5 4.5q31 0 51.5 -6.5t34.5 -24.5l785 -1073q-5 426 -23 694t-41 371q1 0 6 1.5t73 19.5t91 18q19 0 29.5 -10.5t16 -34t6.5 -61.5t1 -93q0 -78 -2.5 -179t-6.5 -213t-10 -230t-11.5 -231t-12 -215t-12.5 -183h-92 q-31 0 -45 8.5t-27 25.5l-751 1037q18 -224 25 -403t7 -298q0 -115 -5 -187.5t-10 -115.5q-7 -50 -15 -76l-123 23q-39 8 -59.5 29t-20.5 61q0 11 1.5 24t4.5 27q10 47 18.5 105.5t14.5 142.5t9 201.5t3 281.5q0 129 -2 234t-2 205h-193z">
<glyph unicode="O" horiz-adv-x="1612" d="M131 705q0 165 46.5 302t133.5 235.5t212.5 153t283.5 54.5t283 -54.5t212 -153t133 -235.5t46 -302t-46 -302t-133 -235.5t-212 -152.5t-283 -54t-283.5 54t-212.5 152.5t-133.5 235.5t-46.5 302zM391 705q0 -135 22 -248.5t71.5 -195.5t129 -127.5t193.5 -45.5 q113 0 191.5 46t128 128t72 195t22.5 248q0 127 -22 239.5t-71 196.5t-128 133t-193 49t-193.5 -50.5t-129 -135.5t-71.5 -197t-22 -235z">
<glyph unicode="P" d="M66 1268v88q19 7 65.5 19.5t123.5 25t186.5 22t255.5 9.5q114 0 214.5 -19.5t176.5 -70t120 -138t44 -223.5q0 -101 -34 -181t-98 -135.5t-156 -84.5t-207 -29h-38.5t-61.5 1t-77 3t-86 6v-246q0 -64 4.5 -113t11 -85.5t12.5 -61t9 -39.5q-15 -8 -33.5 -14.5t-39 -11 t-40.5 -6.5t-38 -2q-26 0 -48.5 5t-38.5 16.5t-25 30.5t-9 48v1198zM494 702q20 -7 47 -11q23 -5 57 -8t79 -3q103 0 168 25.5t102.5 67.5t51.5 96t14 112q0 64 -11 121.5t-47.5 101.5t-107 70t-189.5 26q-37 0 -79.5 -2t-84.5 -8v-588z">
<glyph unicode="Q" horiz-adv-x="1612" d="M133 705q0 182 52.5 321t143.5 233.5t214 142.5t264 48t264 -48t213.5 -142.5t142.5 -233.5t52 -321q0 -155 -37 -278.5t-102.5 -214t-156 -147.5t-198.5 -81q25 -35 56.5 -70.5t66 -64.5t72.5 -47.5t77 -18.5q34 0 75 13t77.5 29.5t63 31.5t32.5 18l49 -80l-13.5 -11.5 t-37.5 -28.5t-56.5 -36.5t-69.5 -36t-77 -27.5t-79 -11q-81 0 -148.5 19.5t-126 59.5t-111 100.5t-104.5 141.5q-128 14 -237 66t-189.5 144t-126 224t-45.5 306zM393 705q0 -147 25 -262.5t76 -195t129 -121.5t184 -42q105 0 182.5 42t128.5 121.5t76 195t25 262.5 q0 137 -24.5 251t-75.5 196t-128.5 127.5t-183.5 45.5t-184 -46.5t-129 -129t-76 -196.5t-25 -248z">
<glyph unicode="R" horiz-adv-x="1499" d="M66 1268v88q13 4 32 11.5t50 16t76.5 17t111 15.5t154.5 11.5t207 4.5q114 0 214.5 -19.5t176.5 -70t120 -138t44 -223.5q0 -147 -68 -247t-198 -146l289 -430l162 106l49 -67q-23 -32 -57 -69.5t-75 -69.5t-85.5 -54t-87.5 -22q-29 0 -58.5 14.5t-54.5 54.5l-311 500 h-38.5t-61.5 1t-77 3t-86 6v-246q0 -64 4.5 -113t11 -85.5t12.5 -61t9 -39.5q-15 -8 -33.5 -14.5t-39 -11t-40.5 -6.5t-38 -2q-26 0 -48.5 5t-38.5 16.5t-25 30.5t-9 48v1198zM494 702q20 -7 47 -11q23 -5 57 -8t79 -3q103 0 168 25.5t102.5 67.5t51.5 96t14 112 q0 64 -11 121.5t-47.5 101.5t-107 70t-189.5 26q-37 0 -79.5 -2t-84.5 -8v-588z">
<glyph unicode="S" horiz-adv-x="1267" d="M105 190q0 21 15 37l102 121q48 -38 106 -83t119.5 -84t122.5 -65t115 -26q45 0 88 15t76.5 42.5t54 67t20.5 88.5q0 63 -33 115t-87.5 95.5t-124 79.5t-142.5 66q-121 51 -196 102.5t-116.5 103t-56 102.5t-14.5 100q0 74 25 131t67.5 99.5t99.5 71.5t121 47t131.5 26 t131.5 8q28 0 66 -2.5t79 -7.5t81 -13.5t71.5 -21t51 -29.5t19.5 -39q0 -17 -12 -39l-80 -137q-44 25 -91 53t-98 50.5t-105.5 37.5t-114.5 15q-42 0 -81 -13t-68 -39.5t-46.5 -66t-17.5 -92.5q0 -45 21.5 -82t57 -68t81.5 -56t96 -46q60 -25 122 -52.5t119.5 -59t108 -68.5 t88 -82t59 -99t21.5 -120q0 -98 -39 -174.5t-105 -129t-154 -80.5t-185 -28q-130 0 -260.5 33t-245.5 110q-22 14 -43 37t-21 49z">
<glyph unicode="T" horiz-adv-x="1353" d="M22 1341q0 33 30 49q29 14 80 20q40 4 91 5q14 -1 28 -1q68 -2 146 -1h293h113t149.5 3t177 10t193.5 20q0 -1 3 -10.5t6 -25t6 -35t3 -40.5q0 -25 -17.5 -39t-46.5 -20.5t-66.5 -8t-78.5 -1.5q-114 0 -193 2t-136 4v-957q0 -64 3.5 -113t8.5 -85.5t10 -61t8 -39.5 q-15 -8 -33 -14.5t-37.5 -11t-38.5 -6.5t-36 -2q-26 0 -48.5 5t-38.5 16.5t-25 30.5t-9 48v1190q-94 0 -177.5 -7t-152 -16t-119 -17.5t-77.5 -12.5q0 1 -2.5 13t-6.5 31t-7 40.5t-3 37.5z">
<glyph unicode="U" horiz-adv-x="1613" d="M50 1307v79q15 6 45 14t69.5 15t86.5 12t96 5q41 0 66.5 -1t40 -5.5t19.5 -15.5t5 -30v-837q0 -52 8 -106t26.5 -104.5t47.5 -95.5t71 -78.5t98 -53t128 -19.5q74 0 131 19.5t99.5 53t71.5 78.5t46.5 96.5t25 106t7.5 107.5v567q0 62 -3.5 110t-8.5 83t-10 58.5t-7 37.5 q10 7 24.5 12.5t30 9.5t31.5 5.5t29 1.5q20 0 38.5 -4.5t32.5 -16t22.5 -30.5t8.5 -48v-788q0 -144 -45.5 -253t-123.5 -182.5t-181.5 -111t-218.5 -37.5q-145 0 -259 37.5t-192.5 111.5t-119.5 183.5t-41 253.5v760h-195z">
<glyph unicode="V" horiz-adv-x="1536" d="M-30 1247q25 23 67.5 55t90.5 61t95 49t81 20q26 0 47 -14.5t37 -49.5l487 -1155h13q57 124 108 232.5t89.5 209.5t61.5 199t23 203q0 69 -11 141.5t-36 153.5l162 69q14 7 25 9t22 2q37 0 58.5 -34t21.5 -91q0 -56 -17 -139t-48 -187t-76 -224t-100.5 -249 t-121.5 -262.5t-139 -263.5h-102q-24 0 -42 4t-31.5 13t-24.5 24.5t-21 39.5l-512 1192l-174 -79z">
<glyph unicode="W" horiz-adv-x="2263" d="M-21 1241q25 23 64 56t83.5 63t88.5 51t79 21q31 0 61 -16t44 -54l418 -1131h12q32 74 60.5 154.5t53.5 161.5t46 159.5t39 150.5t31.5 133.5t23.5 107.5l-8 26q-20 60 -37.5 103.5t-32.5 74t-26.5 49t-18.5 29.5q34 29 79 40.5t79 11.5q27 0 47.5 -3.5t36.5 -13.5 t28.5 -28.5t22.5 -47.5l395 -1108h13q56 171 95 295.5t65 212.5t40 145t21 93.5t8.5 58t1.5 37.5q0 45 -5.5 85.5t-13.5 76t-16.5 65t-15.5 52.5q176 76 187 78t22 2q37 0 57 -34.5t20 -92.5q0 -55 -15.5 -137.5t-43.5 -184.5t-67.5 -220t-88 -245t-104.5 -258.5 t-117 -259.5h-121q-24 0 -42 3.5t-32.5 12.5t-25 25t-18.5 41l-271 756q-12 -53 -31.5 -119t-44.5 -139t-54 -150t-60.5 -152.5t-63.5 -146.5t-63 -131h-127q-24 0 -42 3.5t-32 12.5t-25 25t-20 41l-430 1165l-176 -78z">
<glyph unicode="X" horiz-adv-x="1519" d="M42 1212q27 30 67 69t83 74t83.5 59t69.5 24q26 0 54 -16.5t59 -61.5l330 -498q48 70 83 121t59.5 89t40 65t24 47.5t11.5 37.5t3 35q0 20 -3.5 43.5t-13.5 49.5l160 69q31 13 51 13q18 0 31.5 -9t22.5 -24t13.5 -34t4.5 -38q0 -43 -23 -90.5t-61 -95.5 q-45 -56 -95.5 -114.5t-97 -111t-84.5 -94t-59 -63.5l416 -594l151 108l52 -65q-25 -36 -62 -75.5t-79 -73t-85.5 -55t-81.5 -21.5q-27 0 -56.5 15.5t-55.5 53.5l-369 531q-31 -45 -73.5 -99.5t-81.5 -114t-66 -122t-27 -123.5q0 -14 2 -28t7 -29l-160 -72q-16 -6 -28.5 -9 t-24.5 -3q-28 2 -48 22t-20 55q0 46 23 99.5t60.5 111t85.5 115.5t98.5 112.5t98 103.5t85.5 87l-375 565l-148 -104z">
<glyph unicode="Y" horiz-adv-x="1352" d="M-37 1247q24 22 64.5 54t87 61t92.5 49.5t80 20.5q23 0 45.5 -14t44.5 -48l424 -698h4l72 126t65 126.5t47 128t18 129.5q0 43 -11 85.5t-29 86.5l157 67q14 7 25 9t22 2q39 0 57.5 -31.5t18.5 -83.5q0 -72 -31 -160t-84 -188t-122.5 -210.5t-147.5 -226.5 q0 -97 0.5 -167.5t2 -122t4 -86t6 -59.5t8 -44t10.5 -37q-15 -8 -33 -14.5t-37.5 -11t-39 -6.5t-36.5 -2q-52 0 -86 21.5t-34 78.5v418l-455 753l-176 -77z">
<glyph unicode="Z" horiz-adv-x="1287" d="M92 86v35l790 1153h-237q-107 -1 -187 -19t-133 -39.5t-79 -39.5t-27 -19q-6 6 -21.5 30.5t-32 53t-29 54.5t-12.5 36q0 22 23 38.5t62 27.5t91.5 18t111.5 11t122 5t123 1q103 0 208 -4.5t204 -10.5q17 -1 35.5 -3.5t33.5 -10t25 -21t10 -34.5v-41l-813 -1166h147 q67 0 152 4.5t173.5 14t172 24t148.5 35.5q0 -1 2.5 -10.5t6.5 -25.5t7.5 -36.5t3.5 -40.5q0 -52 -35 -78q-36 -24 -106 -34q-63 -9 -153 -9h-19q-102 1 -238 1q-74 0 -145 1t-131.5 2.5t-106.5 4t-69 6.5t-38 10t-24 15.5t-12.5 24.5t-3.5 36z">
<glyph unicode="[" horiz-adv-x="642" d="M199 -238v1774h287q43 0 62.5 -17.5t19.5 -62.5v-14h-222v-1585h222v-15q0 -45 -19.5 -62.5t-62.5 -17.5h-287z">
<glyph unicode="\" horiz-adv-x="1072" d="M52 1575h123q24 0 40 -5.5t27 -16t20 -26t18 -34.5l735 -1493h-135q-23 0 -37 6t-24.5 16.5t-18 26t-16.5 33.5z">
<glyph unicode="]" horiz-adv-x="643" d="M75 -143h221v1585h-221v14q0 45 19 62.5t63 17.5h287v-1774h-287q-44 0 -63 17.5t-19 62.5v15z">
<glyph unicode="^" horiz-adv-x="1391" d="M164 246q0 9 3 21.5t11 25.5l447 731h61q19 0 32 -6t21 -13.5t12.5 -15t6.5 -10.5l424 -686q8 -13 10 -25.5t2 -21.5q0 -20 -12 -33.5t-37 -26.5l-68 -32l-401 637h-4l-391 -633l-66 28q-51 22 -51 60z">
<glyph unicode="_" horiz-adv-x="1141" d="M123 -319q0 45 19 61t63 16h805v-61q0 -45 -19.5 -62.5t-62.5 -17.5h-805v64z">
<glyph unicode="`" horiz-adv-x="985" d="M205 1534q0 39 63 39h148l139 -246q8 -14 14 -29.5t6 -27.5q0 -13 -8.5 -20t-29.5 -7h-72q-50 51 -94 97q-19 19 -38.5 39t-37 38t-32 32.5l-23.5 23.5q-19 17 -27 33t-8 28z">
<glyph unicode="a" horiz-adv-x="1216" d="M117 268q0 86 38.5 146t107 97.5t163.5 54t209 16.5h141v75q0 58 -4.5 111.5t-21 93.5t-48 64t-84.5 24q-51 0 -102 -18.5t-100 -46.5t-94 -61.5t-82 -63.5l-82 110q-15 18 -15 37q0 33 41.5 60t104 46.5t134.5 30.5t134 11q92 0 174 -22t143.5 -69.5t97.5 -123 t36 -183.5v-557h174v-75q-17 -9 -46.5 -17t-65.5 -14t-75.5 -9t-75.5 -3q-24 0 -49 3t-45.5 13.5t-34 29t-14.5 50.5v10l-14 -8q-13 -9 -36.5 -22t-55 -28.5t-69 -29t-78 -22.5t-81.5 -9q-65 0 -124 17.5t-103.5 54.5t-71 93t-26.5 134zM346 279q0 -36 11 -65.5t32 -51 t52 -33.5t71 -12q35 0 80.5 9.5t86.5 20.5q48 13 97 31v281h-168q-38 0 -83.5 -7t-85 -26.5t-66.5 -54.5t-27 -92z">
<glyph unicode="b" horiz-adv-x="1351" d="M32 1419v76q21 9 59.5 17t83.5 13t92.5 8t86.5 3q21 0 37 -1t27 -6t16.5 -15.5t5.5 -30.5v-551q37 24 80 46.5t89 39.5t93.5 27t93.5 10q114 0 196.5 -40.5t135.5 -110.5t78 -164t25 -201q0 -123 -41 -227.5t-114.5 -180.5t-177 -119t-227.5 -43q-70 0 -136 10 t-125.5 25.5t-110.5 34t-90 35.5v1345h-177zM440 113q0 -1 20 -6t52 -11t71.5 -11t79.5 -5q81 0 141 32.5t99.5 94t59.5 149.5t20 199q0 86 -11.5 156t-38 119.5t-68.5 76.5t-103 27q-84 0 -166 -29t-156 -69v-723z">
<glyph unicode="c" horiz-adv-x="1138" d="M113 494q0 131 46.5 235t128 176.5t193 111t242.5 38.5q10 0 35 -1.5t56.5 -5t65.5 -10t62 -16.5t46 -24t18 -33q0 -5 -0.5 -10.5t-4.5 -10.5l-71 -133q-33 19 -73 41t-83.5 40.5t-88.5 31t-89 12.5q-68 0 -115.5 -33.5t-78 -87t-44.5 -118.5t-14 -128q0 -98 26 -184 t80 -150t136 -100.5t194 -36.5q62 0 127.5 11t134.5 32l33 -67q-41 -28 -89 -48t-99 -32.5t-103 -18.5t-102 -6q-109 0 -211.5 34.5t-182 101t-127.5 164.5t-48 225z">
<glyph unicode="d" horiz-adv-x="1385" d="M122 508q0 122 27.5 223t84 173t141.5 111.5t199 39.5q88 0 174.5 -24.5t163.5 -80.5v469h-176v76q21 9 59 17t83.5 13t93 8t86.5 3q21 0 37 -1t27 -6t16.5 -15.5t5.5 -30.5v-1383h174v-75q-17 -9 -46.5 -17t-65.5 -14t-75 -9t-75 -3q-31 0 -57 3.5t-45.5 14t-30.5 29 t-11 49.5v16q-10 -7 -38 -27.5t-70.5 -42t-99 -38.5t-122.5 -17q-105 0 -190 42.5t-145 116t-92.5 171.5t-32.5 209zM369 500q0 -97 18 -172.5t52 -128t83.5 -80t113.5 -27.5q75 0 148.5 32.5t127.5 86.5v633q-30 16 -61 32t-65.5 28.5t-74.5 20t-88 7.5q-68 0 -116.5 -32 t-79 -89t-44.5 -136.5t-14 -174.5z">
<glyph unicode="e" horiz-adv-x="1221" d="M116 512q0 119 38.5 218.5t111 171.5t177.5 112.5t238 40.5q100 0 179 -32t134 -86t84 -125t29 -148q0 -36 -6 -72t-23 -65t-48 -47.5t-81 -18.5h-598q10 -90 47 -159t95 -116.5t134 -71.5t164 -24q60 0 124 10.5t132 32.5l33 -67q-41 -28 -88 -48t-97 -32.5t-102 -18.5 t-102 -6q-110 0 -213.5 34.5t-184 103.5t-129 172t-48.5 241zM349 584h518q6 20 8 40t2 42q0 49 -16.5 98.5t-48 89.5t-78 65t-106.5 25q-77 0 -128.5 -29.5t-84 -79t-47.5 -115t-19 -136.5z">
<glyph unicode="f" horiz-adv-x="846" d="M-160 -432q0 5 1 9t3 9l66 152q37 -16 75 -32t73 -29t66.5 -21t55.5 -8q42 0 65 31.5t33 80t11.5 107.5t1.5 115l-2 919h-238v45q0 45 19.5 61.5t62.5 16.5h156v66q0 120 37.5 204.5t100.5 138t144.5 78.5t169.5 25q19 0 55.5 -2t72.5 -9.5t62.5 -23t26.5 -41.5 q0 -8 -2.5 -14t-7.5 -14l-74 -134q-38 20 -73 40t-67 35.5t-61.5 25.5t-54.5 10q-34 0 -53.5 -17t-29.5 -49t-12.5 -78.5t-2.5 -105.5v-135h287v-43q0 -45 -19.5 -62.5t-62.5 -17.5h-205v-917q0 -122 -41.5 -212t-110 -148.5t-155.5 -87t-178 -28.5q-20 0 -53 2t-64.5 8 t-54.5 18t-23 32z">
<glyph unicode="g" horiz-adv-x="1370" d="M49 -252q0 15 10.5 28t33 26.5t58 29t85.5 33.5q37 -56 80.5 -99.5t96.5 -73.5t116.5 -45.5t138.5 -15.5q39 0 88.5 6t93.5 23t74 47.5t30 79.5q0 39 -33.5 62t-88 38t-124.5 24t-143 20t-143 27t-124.5 43.5t-88 70.5t-33.5 108q0 40 15 67.5t38 46.5t50 33t51 27 q-88 50 -138.5 130.5t-50.5 187.5q0 89 36 160t100 120.5t150 76t187 26.5q127 0 230 -42.5t166 -119.5l59 74q33 40 59.5 65.5t50.5 39.5t47.5 19t51.5 5q13 0 29.5 -3.5t30.5 -11.5t24 -20.5t10 -30.5v-135q-69 0 -117 -1t-83 -8.5t-62.5 -23.5t-54.5 -45q15 -34 23.5 -69 t8.5 -78q0 -89 -36 -159.5t-99.5 -120.5t-150 -76.5t-187.5 -26.5q-54 0 -102.5 7t-93.5 21q-38 -20 -60 -42.5t-22 -45.5q0 -40 35.5 -61.5t94 -33.5t133.5 -18t152.5 -15t152.5 -24t133.5 -45.5t94 -79.5t35.5 -126q0 -80 -45 -139.5t-119 -98.5t-169 -58.5t-195 -19.5 q-70 0 -140.5 9t-136.5 25t-123 38.5t-99 49t-66.5 56.5t-24.5 62zM377 672q0 -134 58 -209.5t179 -75.5t179.5 75.5t58.5 209.5t-58 208t-180 74q-121 0 -179 -74t-58 -208z">
<glyph unicode="h" horiz-adv-x="1374" d="M32 1419v76q21 9 59 17t83 13t92.5 8t86.5 3q21 0 37 -1t27 -6t16.5 -15.5t5.5 -30.5v-543q6 2 26.5 11t50.5 22t69 27.5t83 27.5t90.5 21t92.5 8q90 0 146 -23.5t87.5 -66t42.5 -101t11 -127.5v-639h174v-75q-17 -9 -46.5 -17t-65.5 -14t-75 -9t-75 -3q-31 0 -57 3.5 t-45.5 14t-30.5 29t-11 49.5v641q0 51 -5.5 87t-21 59t-42.5 33.5t-70 10.5q-42 0 -96 -8.5t-103 -19.5t-85.5 -20.5t-43.5 -10.5v-549q0 -62 3.5 -109t8 -82t9.5 -58.5t8 -37.5q-14 -8 -32 -13.5t-37.5 -10t-38.5 -6.5t-35 -2q-26 0 -47 4.5t-37 15.5t-24.5 29.5t-8.5 46.5 v1341h-176z">
<glyph unicode="i" horiz-adv-x="716" d="M66 926v75q21 9 59 17t83.5 13t93 8t86.5 3q21 0 37 -1t27 -6t16.5 -15.5t5.5 -30.5v-889h174v-75q-17 -9 -46.5 -17t-65.5 -14t-75 -9t-75 -3q-31 0 -57 3.5t-45.5 14t-30.5 29t-11 49.5v848h-176zM218 1372q0 28 11 53t30 43t45 28.5t55 10.5t55 -10.5t45 -28.5t30 -43 t11 -53t-11 -52t-30 -42t-45 -28.5t-55 -10.5t-55 10.5t-45 28.5t-30 42t-11 52z">
<glyph unicode="j" horiz-adv-x="659" d="M-211 -432q0 5 1 9t3 9l65 152q43 -15 81.5 -31t72.5 -29t63 -21.5t54 -8.5q18 0 34.5 5t30.5 19q14 13 22.5 46t13.5 74t7.5 84.5t3 78t0 55t0.5 15.5v901h-176v75q21 9 59 17t83.5 13t93 8t86.5 3q21 0 37 -1t27 -6t16.5 -15.5t5.5 -30.5v-1005q0 -122 -42 -212 t-111 -148.5t-157 -87t-180 -28.5q-20 0 -52.5 2t-64 8t-54.5 18t-23 32zM217 1372q0 28 11 53t30 43t45 28.5t55 10.5t55 -10.5t45 -28.5t30 -43t11 -53t-11 -52t-30 -42t-45 -28.5t-55 -10.5t-55 10.5t-45 28.5t-30 42t-11 52z">
<glyph unicode="k" horiz-adv-x="1235" d="M32 1419v76q21 9 59.5 17t83.5 13t92.5 8t86.5 3q21 0 37 -1t27 -6t16.5 -15.5t5.5 -30.5v-1182q0 -123 11 -191t18 -96q-14 -8 -32 -13.5t-37.5 -10t-39 -6.5t-35.5 -2q-25 0 -46.5 4.5t-37 15.5t-24 29.5t-8.5 46.5v1341h-177zM469 487q0 11 5 22.5t17 22.5 q21 19 54 46t69.5 59t73.5 68.5t66.5 73.5t48 74t18.5 71q0 27 -8 47q51 25 81.5 41.5t49.5 26t33 13t32 3.5q34 0 51 -21.5t17 -52.5q0 -32 -19.5 -68t-52 -73.5t-74 -75.5t-86 -73.5t-87.5 -68t-78 -59.5l317 -405l148 96l40 -61q-18 -34 -51.5 -71.5t-74 -68.5t-83.5 -51 t-79 -20q-23 0 -45.5 11t-40.5 36l-328 420q-4 5 -7 11q-7 12 -7 27z">
<glyph unicode="l" horiz-adv-x="681" d="M32 1419v76q21 9 59.5 17t83.5 13t92.5 8t86.5 3q21 0 37 -1t27 -6t16.5 -15.5t5.5 -30.5v-1383h174v-75q-17 -9 -46.5 -17t-65.5 -14t-75 -9t-75 -3q-31 0 -57 3.5t-45 14t-30 29t-11 49.5v1341h-177z">
<glyph unicode="m" horiz-adv-x="2036" d="M66 924v75q21 9 59 17t83.5 13t93 8t86.5 3q21 0 37 -1t27 -6t16.5 -15.5t5.5 -30.5v-49q0 -1 17.5 7.5t48 21.5t71 28t86 28.5t94 22.5t94.5 9q35 0 69 -5.5t63.5 -18.5t53 -36t36.5 -57q0 -1 18 7.5t49 21.5t72 28t87.5 28.5t95 22.5t95.5 9q88 0 142 -22.5t83 -63.5 t38.5 -98t9.5 -126v-645h174v-75q-17 -9 -46.5 -17t-65.5 -14t-75 -9t-75 -3q-31 0 -57 3.5t-45.5 14t-30.5 29t-11 49.5v653q0 41 -3 73t-14.5 54.5t-35 34.5t-63.5 12q-26 0 -71 -6.5t-93.5 -15t-91.5 -17.5t-64 -14q6 -50 6 -107v-444q0 -62 3.5 -109t8 -82t9.5 -58.5 t8 -37.5q-14 -8 -32 -13.5t-37.5 -10t-38.5 -6.5t-35 -2q-26 0 -47 4.5t-37 15.5t-24.5 29.5t-8.5 46.5v653q0 41 -3 73t-14.5 54.5t-35 34.5t-64.5 12q-27 0 -61 -4t-69 -10.5t-68 -14t-59 -14t-41.5 -10.5t-14.5 -4v-547q0 -62 3 -109t7.5 -82t9.5 -58.5t8 -37.5 q-14 -8 -31.5 -13.5t-37 -10t-39 -6.5t-35.5 -2q-26 0 -47 4.5t-37 15.5t-24.5 29.5t-8.5 46.5v846h-176z">
<glyph unicode="n" horiz-adv-x="1410" d="M66 924v75q21 9 59 17t83.5 13t93 8t86.5 3q21 0 37 -1t27 -6t16.5 -15.5t5.5 -30.5v-49q15 5 55.5 24t98.5 39.5t127 37t141 16.5q87 0 141 -24t84 -66.5t40.5 -100.5t10.5 -127v-637h174v-75q-17 -9 -46.5 -17t-65.5 -14t-75 -9t-75 -3q-31 0 -57 3.5t-45 14t-30 29 t-11 49.5v639q0 51 -5.5 87t-21 59t-43 33.5t-70.5 10.5q-28 0 -61.5 -4t-69 -10.5t-69 -13.5t-61 -13.5t-45.5 -11.5t-21 -6v-547q0 -62 3 -109t7.5 -82t9.5 -58.5t8 -37.5q-14 -8 -31.5 -13.5t-37 -10t-39 -6.5t-35.5 -2q-26 0 -47 4.5t-37 15.5t-24.5 29.5t-8.5 46.5v846 h-176z">
<glyph unicode="o" d="M117 510q0 123 43 223.5t117 172t174.5 110.5t216.5 39q115 0 215 -39t174 -110.5t116.5 -172t42.5 -223.5q0 -122 -42.5 -222t-117 -171t-174.5 -109.5t-214 -38.5q-116 0 -216.5 39t-174.5 110t-117 170.5t-43 221.5zM364 512q0 -85 13 -164t47.5 -139.5t93 -96.5 t150.5 -36q91 0 149.5 36t92 96.5t46.5 139.5t13 164t-13 164t-46.5 139.5t-92 96.5t-149.5 36q-92 0 -150.5 -36t-93 -96.5t-47.5 -139.5t-13 -164z">
<glyph unicode="p" horiz-adv-x="1386" d="M64 924v75q21 9 59 17t84 13t94 8t87 3q21 0 37 -1t27 -6t16.5 -15.5t5.5 -30.5v-47q29 21 68.5 42t85.5 37t97 26t105 10q123 0 206 -47t134 -123.5t72.5 -173t21.5 -195.5q0 -67 -12.5 -134t-38 -128t-64 -113t-90 -90t-116 -60t-142.5 -22q-71 0 -131 15t-103.5 33.5 t-68 34t-24.5 16.5v-242q0 -62 3 -109t7.5 -82t9.5 -58.5t8 -37.5q-14 -8 -31.5 -14t-37 -10t-39 -6.5t-35.5 -2.5q-51 0 -84 22.5t-33 78.5v1317h-178zM474 188q28 -16 59.5 -33.5t65.5 -31.5t70.5 -23.5t74.5 -9.5q70 0 121 34t84 92.5t49 136.5t16 165q0 97 -10 174.5 t-35 131.5t-66.5 83t-105.5 29q-54 0 -110 -15t-104 -33q-55 -21 -109 -48v-652z">
<glyph unicode="q" horiz-adv-x="1322" d="M120 483q0 132 41 238t115 180.5t176.5 114t226.5 39.5q70 0 136 -10t125.5 -25.5t111 -34t90.5 -35.5v-1323h174v-76q-17 -9 -46.5 -17t-65.5 -13.5t-75 -9t-75 -3.5q-31 0 -57 3.5t-45.5 14t-30.5 29.5t-11 50v471q-29 -18 -67.5 -37t-83 -34.5t-93 -25.5t-98.5 -10 q-120 0 -205 43.5t-139 115.5t-79 164.5t-25 190.5zM367 504q0 -92 18.5 -168t52.5 -130.5t83 -85t111 -30.5q40 0 75 7.5t68 21.5t66 32.5t69 41.5v718q0 1 -20 6t-52 11t-71.5 11t-79.5 5q-155 0 -237.5 -113t-82.5 -327z">
<glyph unicode="r" horiz-adv-x="992" d="M66 922v75q21 9 59 17t83.5 13t93 8t86.5 3q21 0 37 -1t27 -6t16.5 -15.5t5.5 -30.5v-240l127 181q48 66 106.5 97.5t132.5 31.5q13 0 33.5 -1.5t40 -7.5t33.5 -17t14 -30v-8t-2 -8l-43 -141q-38 12 -68.5 17t-56.5 5q-54 0 -103 -30.5t-90 -72t-72.5 -84t-51.5 -65.5 v-311q0 -62 3 -109t7.5 -82t9.5 -58.5t8 -37.5q-14 -8 -31.5 -13.5t-37 -10t-39 -6.5t-35.5 -2q-26 0 -47 4.5t-37 15.5t-24.5 29.5t-8.5 46.5v844h-176z">
<glyph unicode="s" horiz-adv-x="1022" d="M107 106q0 13 6 25l80 111q27 -20 65.5 -48t84.5 -53.5t97.5 -44t104.5 -18.5q33 0 63.5 9.5t54.5 28.5t38 46.5t14 62.5q0 41 -26.5 72t-65 55t-82.5 42.5t-78 33.5q-59 26 -117.5 54t-105 66.5t-76 91.5t-29.5 130t38.5 131t100 88.5t137.5 50t150 15.5q46 0 97.5 -4 t95 -13.5t72 -24.5t28.5 -36q0 -8 -6 -21l-68 -131q-19 12 -51.5 31.5t-73.5 37.5t-87.5 31t-94.5 13q-69 0 -113 -32t-44 -91q0 -46 26 -80t68.5 -60.5t97 -48t111.5 -44.5t111.5 -49t97 -60.5t68.5 -80t26 -107.5q0 -88 -38 -148t-98.5 -97.5t-135 -54t-146.5 -16.5 q-62 0 -132 13.5t-129 34t-97.5 44.5t-38.5 45z">
<glyph unicode="t" horiz-adv-x="934" d="M43 901v45q0 45 19.5 61.5t62.5 16.5h125v238q0 27 8.5 45.5t24.5 29t37 15t47 4.5q16 0 35.5 -2t39 -5.5t37 -9.5t31.5 -14q-3 -14 -8 -37.5t-9.5 -59.5t-7.5 -86.5t-3 -117.5h348v-43q0 -45 -19.5 -62.5t-62.5 -17.5h-266v-586q0 -112 41 -169.5t125 -57.5q37 0 76 9 t70 19t50.5 17.5t18.5 5.5l32 -69q-35 -22 -70 -40.5t-74 -32t-84 -21t-101 -7.5q-73 0 -131.5 22.5t-99.5 64.5t-63 103t-22 138v604h-207z">
<glyph unicode="u" horiz-adv-x="1409" d="M61 928v76q21 9 59 16.5t83 12.5t92.5 8t86.5 3q21 0 37 -1t27 -6t16.5 -15.5t5.5 -30.5v-684q0 -51 5.5 -87t21 -59t43 -33.5t70.5 -10.5q25 0 59.5 4.5t71 11t72 14t63.5 13.5q28 8 44 12l17 4v752h-176v76q21 9 59 16.5t83.5 12.5t93 8t86.5 3q21 0 37 -1t27 -6 t16.5 -15.5t5.5 -30.5v-891h174v-75q-17 -9 -46.5 -17t-65.5 -14t-75 -9t-75 -3q-31 0 -57 3.5t-45.5 14t-30.5 29t-11 49.5v8q0 1 -17.5 -7.5t-48 -21.5t-71 -28t-86.5 -28.5t-95 -22.5t-95 -9q-90 0 -146 23.5t-86.5 66t-41.5 101t-11 127.5v641h-176z">
<glyph unicode="v" horiz-adv-x="1244" d="M34 858q24 21 68 52t93 60.5t95 50.5t74 21q19 0 34.5 -10.5t25.5 -36.5q1 -2 14.5 -38t35 -93t49.5 -130t57 -148.5t58 -148.5t52.5 -130.5t39.5 -94.5t21 -40q33 52 69.5 125.5t67 153.5t50.5 160.5t20 146.5q0 35 -5.5 65t-13.5 54.5t-16.5 45.5t-15.5 38l131 65 q35 16 57 16q18 0 30.5 -9.5t20 -23.5t10.5 -31.5t3 -33.5q0 -52 -19 -125t-50.5 -157t-72 -174t-83.5 -177.5t-84.5 -167.5t-75.5 -143h-105q-34 0 -65.5 18t-48.5 60l-332 780l-158 -70z">
<glyph unicode="w" horiz-adv-x="1847" d="M34 862q25 22 60 52.5t76.5 59t87 48.5t90.5 20q21 0 41 -12t33 -47q1 -2 13.5 -37.5t32.5 -92.5t46 -129t53.5 -147t54.5 -147.5t49 -130t37.5 -94t20.5 -39.5q2 4 14 36.5t29 82t37.5 112t40 127t36.5 126t27 110.5l-82 203q11 10 30 23.5t42 26t48 21t48 8.5t43 -12 t33 -43q76 -225 138 -404q27 -76 53 -149.5t47.5 -132t36.5 -95.5t20 -40q27 56 56.5 134t55 162t42 167t16.5 149t-15 110t-30 73l98 49q9 4 21.5 10t25.5 10.5t25.5 8t21.5 3.5q19 0 31 -10t18.5 -25.5t8.5 -33.5t2 -33q0 -52 -16.5 -125t-44.5 -158t-64 -176.5 t-75.5 -178.5t-79.5 -166t-75 -138h-104q-34 0 -64.5 19t-46.5 57l-186 493q-13 -40 -30.5 -89t-38 -101t-42.5 -105.5t-44 -103.5t-44 -93.5t-41 -76.5h-104q-34 0 -65 19t-48 57l-315 788l-148 -65z">
<glyph unicode="x" horiz-adv-x="1213" d="M62 823q5 12 22.5 33.5t42 46t54.5 49.5t61.5 45.5t62.5 33.5t58 13q15 0 28.5 -6.5t24.5 -21.5q71 -102 130.5 -191.5t115.5 -173.5q48 62 74 104t38 70t14.5 44t2.5 26q0 25 -7 43t-12 31q53 27 87.5 42.5t55.5 22.5t32.5 8.5t19.5 1.5q57 0 57 -67q0 -42 -28 -92 t-72 -104.5t-98 -110t-107 -107.5l262 -411l146 98l39 -62q-15 -35 -46.5 -71.5t-71 -67t-84 -50t-85.5 -19.5q-25 0 -45 10.5t-37 36.5l-258 387q-18 -26 -43.5 -60.5t-49 -73.5t-40.5 -80t-17 -81q0 -33 13 -60q-26 -15 -50.5 -29t-48 -25t-46.5 -18t-46 -7q-61 0 -61 63 q0 40 29.5 92.5t76.5 112.5t106 124t119 128l-233 354l-147 -94z">
<glyph unicode="y" horiz-adv-x="1265" d="M31 858q24 22 60 54t78 60.5t87 49t88 20.5q25 0 46.5 -10.5t29.5 -36.5q0 -2 13.5 -35t35.5 -86.5t50 -122t58 -141.5t59.5 -144.5t54 -130.5t42 -100.5t23.5 -54.5q34 63 71.5 139.5t68.5 155.5t51 154t20 135q0 53 -13 103t-39 94l132 65q35 16 57 16q19 0 31.5 -10 t19.5 -26t9.5 -34.5t2.5 -35.5q0 -59 -16.5 -133.5t-45 -157.5t-65 -171t-76 -172.5t-80 -162t-75.5 -139.5q-32 -56 -67.5 -114t-77 -113t-90 -103.5t-105 -85t-123.5 -57.5t-145 -21q-15 0 -42 2t-52.5 8t-44.5 17.5t-19 30.5q0 5 1 8t3 8l55 148q75 -22 130.5 -39 t103.5 -17q42 0 85 26.5t81.5 65.5t69.5 84.5t51 83.5l-404 926l-151 -67z">
<glyph unicode="z" horiz-adv-x="1112" d="M109 82v53l628 778q-126 -3 -214 -9.5t-148 -14.5t-96 -17t-58.5 -16t-36 -11.5t-28.5 -4.5l-27 118q-2 5 -2 8.5v6.5q0 59 90 59q38 0 87 -0.5t103 -1t111 -1t110 -1.5q125 -2 259 -4q42 -2 64 -20.5t22 -61.5v-51l-633 -770h201q85 0 165.5 8t144.5 18q75 11 142 27 l17 -108v-11q0 -19 -9.5 -31.5t-24.5 -19.5t-32 -9.5t-32 -2.5l-723 8q-39 0 -59.5 19.5t-20.5 62.5z">
<glyph unicode="{" horiz-adv-x="646" d="M103 612v35q0 17 7.5 28.5t19.5 22.5t25 23.5t25 31t19.5 45t7.5 66.5l-4 461q-1 64 17 105t48.5 64.5t70 32.5t81.5 9h70q43 0 62.5 -17.5t19.5 -62.5v-14h-113q-27 0 -48 -3t-34.5 -15t-20 -35.5t-5.5 -65.5l4 -457q0 -63 -18 -104.5t-40.5 -66.5t-43 -36t-25.5 -12 q3 -1 22.5 -11t41.5 -35t40 -67t19 -106l4 -457q0 -41 5.5 -64.5t18 -35.5t32 -15t48.5 -3h113v-15q0 -45 -19.5 -62.5t-62.5 -17.5h-70q-44 0 -82 9t-67 32.5t-46 64.5t-18 105l-4 461q-1 51 -12 83.5t-27 53t-32.5 30.5t-28.5 15z">
<glyph unicode="|" horiz-adv-x="552" d="M203 63v1473h67q45 0 62.5 -19.5t17.5 -62.5v-1472h-69q-45 0 -61.5 19t-16.5 62z">
<glyph unicode="}" horiz-adv-x="647" d="M74 -147h113q28 0 48 3t32.5 15t18 35.5t5.5 64.5l4 457q1 64 19 106t40 67t41.5 35t22.5 11q-5 1 -25.5 12t-43 36t-40.5 66.5t-18 104.5l4 457q1 42 -5.5 65.5t-20 35.5t-34.5 15t-48 3h-113v14q0 45 19 62.5t63 17.5h69q42 0 82 -9t70.5 -32.5t48.5 -64.5t17 -105 l-5 -461q0 -40 8 -66.5t19.5 -45t25 -31t25 -23.5t19.5 -22.5t8 -28.5v-35q-12 -5 -28.5 -15t-32.5 -30.5t-27 -53t-12 -83.5l-5 -461q-1 -64 -18 -105t-45.5 -64.5t-67 -32.5t-82.5 -9h-69q-44 0 -63 17.5t-19 62.5v15z">
<glyph unicode="~" horiz-adv-x="1273" d="M164 481q0 13 9 26t26 32q26 28 60 51q29 19 70 35t93 16q56 0 110 -19t107 -42.5t107.5 -42.5t111.5 -19q43 0 78.5 10.5t60.5 23.5t38.5 24t13.5 12q32 -38 42.5 -60t10.5 -39q0 -25 -20 -46t-52 -36t-74 -23.5t-85 -8.5q-60 0 -116.5 20t-112 44.5t-110.5 44.5 t-112 20q-38 0 -67 -13t-51 -31t-38 -37.5t-26 -33.5q-23 21 -37.5 35.5t-22.5 25t-11 17.5t-3 14z">
<glyph unicode="&#xa1;" horiz-adv-x="633" d="M163 1087q0 30 11 56t30.5 45t47 30t60.5 11q32 0 59 -11t46 -30t29.5 -45t10.5 -56q0 -28 -10.5 -53t-29.5 -43.5t-46 -29.5t-59 -11q-33 0 -60.5 11t-47 29.5t-30.5 43.5t-11 53zM189 -168l37 684q3 48 3.5 83t0.5 63q0 42 -2.5 65.5t-5.5 42.5q12 9 34 16t42 7 q45 0 68 -20t26 -68l39 -639q8 -125 18 -196.5t17 -100.5q-15 -9 -34.5 -15.5t-41.5 -11.5t-43 -7.5t-39 -2.5q-26 0 -48.5 5t-38.5 17t-25 31t-7 47z">
<glyph unicode="&#xa2;" horiz-adv-x="1155" d="M93 662q0 113 34 206.5t94 166.5t142 123.5t178 76.5v215h37q45 0 62.5 -19.5t17.5 -62.5v-111q23 4 47 5.5t49 1.5q10 0 34.5 -1.5t55 -5t63.5 -10t60 -16.5t44.5 -23.5t17.5 -31.5q0 -9 -7 -23l-84 -133q-27 17 -60 36t-69 36t-74.5 30t-76.5 19v-830q17 -2 34 -3 t35 -1q62 0 128 11t139 32l26 -67q-80 -51 -174.5 -75.5t-187.5 -29.5v-178h-39q-45 0 -61.5 19.5t-16.5 62.5v100q-92 11 -173.5 48t-142.5 97.5t-96.5 145t-35.5 189.5zM328 723q0 -65 13 -123.5t39 -107.5t66.5 -87.5t94.5 -62.5v791q-59 -23 -100 -67t-66 -100.5 t-36 -119.5t-11 -123z">
<glyph unicode="&#xa3;" horiz-adv-x="1231" d="M102 86q78 43 129 90t80.5 96.5t41.5 101t12 104t-8 106t-19 106.5h-215v45q0 32 13 44t44 12h133q-20 78 -37.5 154.5t-17.5 148.5q0 77 19 133.5t52 96t77 64.5t95 38.5t105.5 18.5t108.5 5q16 0 55.5 -3t87 -10.5t96 -20t84 -31.5t50.5 -45t-5 -60l-84 -141 q-26 35 -61 67.5t-77.5 57t-91 39t-101.5 14.5q-34 0 -67 -13.5t-59.5 -41t-42.5 -69.5t-16 -99q0 -78 16 -153t31 -150h381v-43q0 -32 -13 -45t-44 -13h-303q10 -67 14.5 -135t-12 -139t-62 -145t-135.5 -152h168q67 0 141.5 9t150.5 23.5t149.5 33.5t138.5 40q5 -14 9 -30 q4 -14 7.5 -30.5t5.5 -33.5q3 -24 0 -45.5t-14 -39t-31 -30t-51 -16.5q-33 -4 -100.5 -7t-151.5 -4t-176.5 -0.5t-176 2t-149 4t-96.5 5.5q-46 5 -62 24t-16 62z">
<glyph unicode="&#xa4;" horiz-adv-x="1220" d="M166 1087l49 48q9 9 19.5 13.5t19.5 4.5q21 0 41 -20l94 -95q48 32 103 52t118 20q60 0 114.5 -20t102.5 -52l138 138l47 -50q18 -18 18 -39q0 -20 -20 -40l-94 -95q71 -95 71 -219q0 -62 -18 -118t-53 -101l135 -137l-49 -47q-19 -19 -39 -19q-22 0 -41 21l-92 96 q-48 -32 -103 -51t-117 -19q-124 0 -219 70l-137 -137l-47 49q-9 9 -13.5 19.5t-4.5 19.5q0 11 5.5 21.5t14.5 19.5l94 94q-32 45 -49.5 101t-17.5 118t16 115.5t51 101.5zM350 733q0 -54 20.5 -101.5t56 -83t82.5 -56.5t101 -21q55 0 103.5 21t83.5 56.5t55.5 83 t20.5 101.5q0 55 -20.5 103.5t-55.5 84t-83.5 56t-103.5 20.5q-54 0 -101 -20.5t-82.5 -56t-56 -84t-20.5 -103.5z">
<glyph unicode="&#xa5;" horiz-adv-x="1448" d="M62 1241q24 22 64.5 53.5t87 60.5t92.5 49.5t80 20.5q24 0 45.5 -13.5t44.5 -47.5l424 -610h4q53 75 90.5 134.5t61.5 109.5t35 93.5t11 86.5q0 40 -9.5 82.5t-26.5 93.5q50 25 85 40.5t58.5 23.5t38 11t22.5 3q39 0 57.5 -30t18.5 -81q0 -65 -28.5 -138.5t-78 -157 t-115 -177t-138.5 -197.5h233v-28q0 -34 -14.5 -47t-46.5 -13h-197v-96h258v-27q0 -35 -14.5 -48t-46.5 -13h-197v-64q0 -64 3.5 -113t9 -85.5t10.5 -61t8 -39.5q-15 -8 -33 -14.5t-37.5 -11t-39 -6.5t-36.5 -2q-63 0 -94 21.5t-31 78.5v297h-251v29q0 34 14.5 46.5 t48.5 12.5h186v96h-249v29q0 34 14.5 46.5t48.5 12.5h162l-424 596l-176 -78z">
<glyph unicode="&#xa6;" horiz-adv-x="530" d="M204 328h43q45 0 62.5 -19.5t17.5 -62.5v-735h-45q-45 0 -61.5 19t-16.5 62v736zM204 819v735h43q45 0 62.5 -19t17.5 -62v-736h-45q-45 0 -61.5 19.5t-16.5 62.5z">
<glyph unicode="&#xa7;" horiz-adv-x="998" d="M133 84q0 6 2.5 12.5t7.5 14.5l70 106q49 -48 102 -85q22 -16 48 -31.5t53.5 -27.5t55.5 -19t56 -7q27 0 56 6.5t53 21.5t39.5 38.5t15.5 58.5q0 36 -25 63.5t-63.5 51.5t-85 47t-90.5 49q-91 53 -145 99t-82.5 89t-37 83.5t-8.5 82.5q0 47 12.5 86t35 70t53.5 54.5 t67 39.5q-48 32 -79 65.5t-48 67.5t-23.5 67.5t-6.5 65.5q0 78 34.5 131.5t88.5 87.5t120.5 49t130.5 15q20 0 48 -0.5t58.5 -3t60 -8.5t53.5 -16t38.5 -25t14.5 -37q0 -8 -2 -17t-8 -18l-54 -94q-31 17 -63 35.5t-66.5 34.5t-72 26t-78.5 10q-29 0 -55 -8t-46.5 -24 t-32.5 -41.5t-12 -59.5q0 -41 23 -72.5t61 -57.5t86 -49.5t98.5 -48.5t98.5 -53t86 -65t61 -83.5t23 -108.5q0 -104 -47 -175t-125 -108q72 -42 117 -103t45 -145q0 -71 -26.5 -126t-71.5 -92t-104.5 -56t-125.5 -19q-90 0 -178 23.5t-168 77.5q-16 11 -29.5 24.5 t-13.5 30.5zM313 766q0 -48 21.5 -81t56 -58.5t77.5 -46t85 -43.5q31 11 58.5 27t47.5 37t31.5 47t11.5 57q0 37 -23 68.5t-60 58t-83 49.5t-92 43q-57 -20 -94 -59t-37 -99z">
<glyph unicode="&#xa8;" horiz-adv-x="1026" d="M205 1411q0 43 30.5 74t79.5 31q25 0 46.5 -8.5t36.5 -22.5t23.5 -33.5t8.5 -40.5q0 -46 -32 -77t-83 -31q-49 0 -79.5 31t-30.5 77zM596 1411q0 43 30.5 74t80.5 31q25 0 46 -8.5t36 -22.5t23.5 -33.5t8.5 -40.5q0 -46 -31.5 -77t-82.5 -31q-50 0 -80.5 31t-30.5 77z ">
<glyph unicode="&#xa9;" horiz-adv-x="1818" d="M111 700q0 183 61 330.5t168 252t252.5 160.5t315.5 56t316 -56t253.5 -160.5t168.5 -252t61 -328.5q0 -183 -61 -330.5t-168.5 -251.5t-253.5 -160t-316 -56t-315.5 56t-252.5 160t-168 251t-61 329zM214 702q0 -168 51 -298t143 -218.5t220 -134t282 -45.5 q153 0 280.5 45.5t219.5 134t143 218t51 296.5q0 168 -51 298t-143 218.5t-219.5 134.5t-280.5 46q-154 0 -282 -46t-220 -134.5t-143 -218.5t-51 -296zM476 686q0 102 38 182t103 135.5t153 85t189 29.5q30 0 68.5 -4.5t73 -13t58 -21.5t23.5 -30q0 -4 -1 -7.5t-7 -15.5 t-18.5 -35.5t-34.5 -64.5q-28 14 -59.5 31t-65 32t-68.5 25t-69 10q-53 0 -91.5 -25t-63.5 -65t-36.5 -90t-11.5 -99q0 -94 26 -165t71.5 -119t107 -72t133.5 -24q52 0 109.5 8t105.5 26l24 -53q-65 -43 -145.5 -62.5t-159.5 -19.5q-91 0 -173 29.5t-144 84t-98.5 132.5 t-36.5 176z">
<glyph unicode="&#xaa;" horiz-adv-x="826" d="M72 971q0 55 24.5 93t68.5 62t105 34.5t134 10.5h90v50q0 37 -3 70.5t-13.5 59t-30 41t-53.5 15.5q-32 0 -65 -11.5t-64.5 -29.5t-60 -39.5t-52.5 -40.5l-53 70q-8 11 -8 24q0 22 26.5 39.5t66 30t86 19t85.5 6.5q59 0 111.5 -14t92 -44.5t62.5 -79t23 -116.5v-359h110 v-47q-11 -6 -30 -11.5t-42 -9t-48 -6t-48 -2.5q-15 0 -31 2t-29 9t-22 19t-10 32v8q-32 -22 -67 -39q-30 -15 -68.5 -27t-77.5 -12q-42 0 -79.5 11.5t-66.5 35t-46 60t-17 86.5zM220 977q0 -45 27.5 -74t78.5 -29q23 0 51.5 5.5t54.5 13.5q30 9 62 20v181h-106 q-24 0 -53.5 -4.5t-55 -17.5t-42.5 -35.5t-17 -59.5z">
<glyph unicode="&#xab;" horiz-adv-x="981" d="M115 526q0 20 5.5 40t31.5 52l251 312q19 20 35 20q6 0 14 -3t20 -11.5t29.5 -22.5t43.5 -36l-256 -322l254 -315q-25 -23 -41 -39t-27.5 -26t-19 -14.5t-15.5 -4.5q-15 0 -32 20zM453 526q0 10 1 19.5t4.5 20.5t10.5 23.5t20 28.5l203 252q18 21 35 21q6 0 13.5 -3 t19.5 -11.5t30 -23t44 -36.5l-207 -262l207 -258q-25 -23 -41 -39t-27.5 -26t-19 -14.5t-15.5 -4.5q-17 0 -33 20z">
<glyph unicode="&#xac;" horiz-adv-x="1222" d="M150 662v63q0 45 19.5 61.5t62.5 16.5h805v-559h-61q-45 0 -62.5 19t-17.5 63v336h-746z">
<glyph unicode="&#xad;" horiz-adv-x="867" d="M159 471v94q0 45 19.5 61.5t62.5 16.5h469v-92q0 -45 -19.5 -62.5t-62.5 -17.5h-469z">
<glyph unicode="&#xae;" horiz-adv-x="1818" d="M111 700q0 183 61 330.5t168 252t252.5 160.5t315.5 56t316 -56t253.5 -160.5t168.5 -252t61 -328.5q0 -183 -61 -330.5t-168.5 -251.5t-253.5 -160t-316 -56t-315.5 56t-252.5 160t-168 251t-61 329zM214 702q0 -168 51 -298t143 -218.5t220 -134t282 -45.5 q153 0 280.5 45.5t219.5 134t143 218t51 296.5q0 168 -51 298t-143 218.5t-219.5 134.5t-280.5 46q-154 0 -282 -46t-220 -134.5t-143 -218.5t-51 -296zM519 1038v47q9 5 26.5 10t41 9.5t51.5 7t57 2.5h223q72 0 131 -16.5t100 -48t63.5 -79t22.5 -108.5q0 -90 -42.5 -152 t-122.5 -89l174 -254l94 69l29 -39q-15 -20 -36 -44t-45.5 -44.5t-50.5 -34.5t-49 -14q-17 0 -34 9t-31 32l-187 299h-157v-326h-99q-26 0 -35.5 11.5t-9.5 36.5v716h-114zM777 682h141q47 0 79.5 16t53 41.5t30 57t9.5 61.5q0 29 -9 60.5t-28 57t-48.5 42t-70.5 16.5h-157 v-352z">
<glyph unicode="&#xaf;" horiz-adv-x="1051" d="M82 1161v64q0 45 19 61.5t63 16.5h805v-62q0 -45 -19.5 -62.5t-62.5 -17.5h-805z">
<glyph unicode="&#xb0;" horiz-adv-x="895" d="M126 1092q0 67 25 125.5t68.5 102t102 68.5t125.5 25t126 -25t102.5 -68.5t68.5 -102t25 -125.5t-25 -126t-68.5 -102.5t-102.5 -68.5t-126 -25t-125.5 25t-102 68.5t-68.5 102.5t-25 126zM232 1092q0 -45 17 -84t46 -68t68.5 -46t83.5 -17q45 0 84 17t68 46t46 68t17 84 q0 44 -17 83t-46 68.5t-68 46.5t-84 17q-44 0 -83.5 -17t-68.5 -46.5t-46 -68.5t-17 -83z">
<glyph unicode="&#xb1;" horiz-adv-x="1196" d="M153 61v63q0 45 19.5 61.5t62.5 16.5h805v-62q0 -44 -19 -61.5t-63 -17.5h-805zM153 721v63q0 45 19.5 61.5t62.5 16.5h291v373h62q45 0 62 -19.5t17 -62.5v-291h373v-61q0 -45 -19 -62.5t-63 -17.5h-291v-373h-63q-45 0 -61.5 19.5t-16.5 62.5v291h-373z">
<glyph unicode="&#xb2;" horiz-adv-x="917" d="M133 623q26 27 68.5 69t91 93t98.5 108t90 113.5t65 110t25 97.5q0 60 -34.5 101t-104.5 41q-24 0 -58 -16.5t-65 -38t-53 -41.5t-23 -27l-63 90q-8 11 -8 23q0 21 28 39.5t69.5 33t89 23t85.5 8.5q81 0 139.5 -21t96 -56t55.5 -79.5t18 -91.5q0 -42 -13.5 -84.5 t-39.5 -79.5q-18 -26 -43 -55.5t-54.5 -61t-61.5 -62.5t-62 -60q-71 -68 -150 -137l88 2q42 1 87.5 8.5t90.5 19.5t86.5 27t75.5 31q0 -3 2 -12.5t5.5 -25t6.5 -33.5t3 -32q0 -35 -15 -53t-49.5 -25.5t-90.5 -7.5h-138t-145 -1t-106 3.5t-65 17.5t-22 42z">
<glyph unicode="&#xb3;" horiz-adv-x="891" d="M137 647q0 5 1.5 12t6.5 15l47 90q29 -20 57.5 -41.5t58 -39.5t60 -30t64.5 -12q80 0 125 45.5t45 122.5q0 84 -50.5 124t-146.5 40h-20h-70v65q0 20 6.5 25t10.5 8q80 59 134 131t68 150h-102q-67 0 -110 -14t-69 -31q-30 -20 -46 -45q-4 5 -14.5 23.5t-21.5 39.5 t-19.5 39t-8.5 22q0 20 28.5 32.5t71 19.5t92 9.5t91.5 2.5h50t61 -1t62.5 -3.5t55.5 -8.5t40 -15.5t15 -24.5v-25q-18 -62 -57.5 -117t-81 -97.5t-74 -68.5t-36.5 -28q70 -5 126 -23.5t95.5 -51.5t60.5 -80.5t21 -108.5t-27.5 -109t-73.5 -81t-106.5 -50.5t-126.5 -17.5 q-43 0 -94 8t-95.5 22.5t-74 34t-29.5 43.5z">
<glyph unicode="&#xb4;" horiz-adv-x="555" d="M90 1270q0 12 6.5 27.5t14.5 29.5l139 246h147q10 0 21.5 -2t21 -7t15.5 -13.5t6 -22.5q0 -25 -35 -55q-9 -9 -24 -23.5t-32.5 -32.5t-36.5 -38t-38 -39q-44 -46 -94 -97h-72q-22 0 -30.5 8t-8.5 19z">
<glyph unicode="&#xb5;" horiz-adv-x="1359" d="M186 -283v1319q38 3 76.5 5.5t70.5 2.5q21 0 37 -1t27 -6t16.5 -15.5t5.5 -30.5v-622q0 -66 8 -114t29 -79t58 -46t96 -15q69 0 140 15t134 46v860q37 3 77 5.5t70 2.5q21 0 37 -1t27 -6t16.5 -15.5t5.5 -30.5v-895h175v-76q-17 -9 -46.5 -17t-65.5 -13.5t-75.5 -9 t-75.5 -3.5q-31 0 -57 3.5t-45 14t-30 29.5t-11 50v12q0 1 -14 -7.5t-38.5 -21.5t-56.5 -28t-69 -28.5t-76.5 -22.5t-77.5 -9q-100 0 -154.5 21.5t-82.5 56.5q0 -87 8 -147.5t24 -100t40.5 -62t58 -33t75.5 -13t93 -2.5l2 -84q-23 -15 -53.5 -32.5t-65.5 -31.5t-72.5 -23.5 t-72.5 -9.5q-34 0 -64.5 10.5t-53 35t-36 64.5t-14.5 99z">
<glyph unicode="&#xb6;" horiz-adv-x="1331" d="M72 1153q0 117 38 191.5t103 117t150 58.5t180 16h486q68 0 117.5 -14.5t84.5 -32.5v-76h-188v-1538h188v-76q-35 -18 -84.5 -32.5t-117.5 -14.5q-30 0 -55.5 4t-44.5 14.5t-29.5 29t-10.5 48.5v1565h-192v-1565q0 -30 -10.5 -48.5t-29.5 -29t-44 -14.5t-55 -4 q-68 0 -118.5 14.5t-84.5 32.5v76h188v897q-95 0 -180 15.5t-150 57.5t-103 116.5t-38 191.5z">
<glyph unicode="&#xb7;" horiz-adv-x="630" d="M168 625q0 28 10.5 53t29.5 43.5t46 29.5t59 11q33 0 60.5 -11t47.5 -29.5t31 -43.5t11 -53q0 -30 -11 -56t-31 -45t-47.5 -30t-60.5 -11q-32 0 -59 11t-46 30t-29.5 45t-10.5 56z">
<glyph unicode="&#xb8;" horiz-adv-x="1063" d="M307 -365q37 -8 73.5 -12t65.5 -4q60 0 92.5 30.5t32.5 84.5q0 30 -11.5 52.5t-32 38t-48.5 24t-61 10.5l43 159h96l-20 -88q100 -8 149 -57.5t49 -130.5q0 -67 -23 -112t-60.5 -72t-85 -38.5t-95.5 -11.5q-37 0 -67 4.5t-51.5 18.5t-33.5 38.5t-12 65.5z">
<glyph unicode="&#xb9;" horiz-adv-x="586" d="M77 1354q21 15 54 31.5t69.5 31t74 24t68.5 9.5q34 0 43.5 -10t9.5 -35v-643q0 -79 8 -122.5t11 -61.5q-19 -11 -41.5 -16t-44.5 -5q-32 0 -52 13t-20 48v719l-160 -57z">
<glyph unicode="&#xba;" horiz-adv-x="861" d="M82 1125q0 79 27 143.5t74.5 110.5t111 71t136.5 25t136.5 -25t110.5 -71t74 -110.5t27 -143.5t-27.5 -143t-74.5 -109.5t-110.5 -70t-135.5 -24.5q-73 0 -136.5 24.5t-111 70t-74.5 109.5t-27 143zM264 1127q0 -141 45 -207.5t123 -66.5q79 0 122.5 66t43.5 208 q0 75 -12 128t-34 86t-52.5 48t-67.5 15t-67.5 -15t-53 -48t-35 -86t-12.5 -128z">
<glyph unicode="&#xbb;" horiz-adv-x="980" d="M146 297l207 258l-207 262q26 22 43.5 36.5t29.5 23t20 11.5t14 3q17 0 35 -21l202 -252q26 -32 31.5 -52t5.5 -40l-246 -293q-8 -11 -16 -15.5t-16 -4.5t-15.5 4.5t-19 14.5t-27.5 26t-41 39zM435 877q26 22 43.5 36t29.5 22.5t19.5 11.5t13.5 3q18 0 35 -20l252 -312 q26 -32 31.5 -52t5.5 -40l-293 -350q-17 -20 -33 -20q-8 0 -15.5 4.5t-18.5 14.5t-27 26t-41 39l254 315z">
<glyph unicode="&#xbc;" horiz-adv-x="1565" d="M67 1354q22 15 55 31.5t69.5 31t74 24t68.5 9.5q34 0 43.5 -10t9.5 -35v-643q0 -79 7.5 -122.5t10.5 -61.5q-18 -11 -41 -16t-45 -5q-32 0 -51.5 13t-19.5 48v719l-160 -57zM357 27q0 9 5 22.5t14 32.5l614 1331h47q34 0 50 -7t16 -26q0 -20 -14 -49l-615 -1331h-65 q-28 0 -40 6.5t-12 20.5zM782 251q0 10 2.5 17t5.5 12q110 164 201 296q39 56 77 110.5t69.5 98t53.5 71.5t29 32q5 1 13.5 1.5t17.5 0.5h16.5h10.5q28 0 39.5 -11.5t11.5 -31.5v-528h164v-47q0 -26 -12.5 -37.5t-38.5 -11.5h-113v-37q0 -80 7.5 -122t10.5 -60 q-18 -13 -42.5 -18t-53.5 -5q-28 0 -45.5 15t-17.5 46v181h-363q-26 0 -34.5 8.5t-8.5 19.5zM938 321l4 -2h244v377z">
<glyph unicode="&#xbd;" horiz-adv-x="1679" d="M67 1354q22 15 55 31.5t69.5 31t74 24t68.5 9.5q34 0 43.5 -10t9.5 -35v-643q0 -79 7.5 -122.5t10.5 -61.5q-18 -11 -41 -16t-45 -5q-32 0 -51.5 13t-19.5 48v719l-160 -57zM359 27q0 17 18 55l615 1331h47q34 0 49.5 -7t15.5 -26q0 -20 -14 -49l-614 -1331h-66 q-28 0 -39.5 6.5t-11.5 20.5zM939 53q42 48 90.5 98.5t97 101.5t94 102t80 101t55.5 97.5t21 91.5q0 60 -34 100.5t-105 40.5q-36 0 -68 -14t-57.5 -33.5t-44 -40.5t-29.5 -34l-64 90q-8 11 -8 22q0 21 28 40t69.5 33.5t89 23t86.5 8.5q81 0 139.5 -21t96 -56t55.5 -79.5 t18 -91.5q0 -42 -13.5 -84.5t-39.5 -79.5q-18 -26 -43.5 -56t-54.5 -61t-61 -62.5t-62 -60.5q-71 -68 -150 -137h88q42 1 87.5 8.5t90.5 20t86.5 28t75.5 31.5q0 -2 2 -11.5t5 -25.5t6 -33.5t3 -31.5q0 -35 -15 -53t-49 -25.5t-90.5 -7.5h-138.5t-145 -1t-105.5 3t-64.5 17 t-22 42z">
<glyph unicode="&#xbe;" horiz-adv-x="1781" d="M103 647q0 5 2 12t7 15l47 90q29 -20 57.5 -41.5t57.5 -39.5t59.5 -30t64.5 -12q81 0 125.5 45.5t44.5 122.5q0 46 -16.5 78t-47.5 51.5t-75.5 28t-101.5 8.5l-45 -2v65q0 20 6.5 25t9.5 8q80 59 134.5 131t68.5 150h-103q-64 0 -106.5 -13t-68.5 -29t-37.5 -30.5 t-12.5 -17.5q-4 7 -14 25.5t-21 38.5t-19.5 37.5t-8.5 22.5q0 20 28.5 32.5t70.5 19.5t91.5 9.5t91.5 2.5q56 0 107.5 -3.5t111.5 -6.5q25 -2 38.5 -6.5t19.5 -10.5t7 -13t1 -13v-25q-12 -41 -34.5 -79.5t-49 -72.5t-55 -62.5t-52.5 -49.5t-40.5 -33.5t-18.5 -13.5 q70 -5 126 -23.5t95.5 -51.5t60.5 -80.5t21 -108.5t-27.5 -109t-73.5 -81t-106.5 -50.5t-126.5 -17.5q-43 0 -94 8t-95.5 22.5t-74 34t-29.5 43.5zM581 27q0 17 18 55l614 1331h48q34 0 49.5 -7t15.5 -26q0 -20 -14 -49l-615 -1331h-65q-28 0 -39.5 6.5t-11.5 20.5zM998 250 q0 9 3 16.5t6 12.5q110 165 201 296q39 56 76.5 110t69 97.5t54 72t29.5 32.5q4 1 12.5 1.5t17.5 0.5h16.5h10.5q28 0 39.5 -11.5t11.5 -31.5v-529h164v-47q0 -49 -51 -49h-113v-37q0 -40 2.5 -69.5t5.5 -51t6 -36t5 -23.5q-19 -12 -42 -17t-44 -5h-11q-27 3 -45 16.5 t-18 44.5v178h-363q-26 0 -34.5 9t-8.5 20zM1154 319l4 -2h244v377z">
<glyph unicode="&#xbf;" horiz-adv-x="964" d="M80 -25q0 74 34 129.5t86 101.5t113.5 86.5t116.5 84.5q28 22 43.5 46.5t15.5 49.5q0 26 -19 42.5t-41.5 27t-41.5 16.5t-19 12q0 16 4 35t13 35.5t23 27.5t34 11q12 0 26 -2.5t29 -7.5q91 -26 133.5 -76.5t42.5 -122.5q0 -49 -27 -89.5t-67 -78t-87 -74.5t-87 -79 t-67 -91.5t-27 -111.5q0 -36 12 -68.5t35 -57t56.5 -38.5t76.5 -14q24 0 58 9t71.5 22.5t74.5 29t66.5 29.5t47.5 24t18 11l62 -140q3 -9 5.5 -17t2.5 -16q0 -23 -18.5 -39.5t-48 -28t-67 -19t-75 -12t-72 -6t-57.5 -1.5q-102 0 -190 22.5t-152 67.5t-100.5 112.5 t-36.5 157.5zM370 967q0 30 11 56t31 44.5t47.5 29.5t60.5 11q32 0 59 -11t46 -29.5t29.5 -44.5t10.5 -56q0 -29 -10.5 -54t-29.5 -43.5t-46 -29.5t-59 -11q-33 0 -60.5 11t-47.5 29.5t-31 43.5t-11 54z">
<glyph unicode="&#xc0;" horiz-adv-x="1517" d="M87 39q0 5 1 8t1 8q9 75 37.5 173.5t69.5 208.5t90 225t99 223.5t97 204.5t83.5 168t58.5 113.5l22 41.5h102q25 0 43 -3.5t31.5 -12.5t24 -25t20.5 -41l461 -1171l176 69l33 -71q-25 -23 -63 -54.5t-82.5 -60t-92 -48.5t-90.5 -20q-28 0 -50 13t-36 45l-150 348h-610 q-15 -53 -23 -106.5t-8 -106.5q0 -37 4 -72t13 -67l-156 -43q-24 -6 -45 -6q-61 0 -61 59zM396 518h526l-241 666h-11q-44 -102 -85.5 -194.5t-78 -175.5t-65 -157.5t-45.5 -138.5zM445 1827q0 39 63 39h148l139 -246q8 -14 14 -29.5t6 -27.5q0 -13 -8.5 -20t-29.5 -7h-72 q-50 51 -94 97q-19 19 -38.5 39t-37 38t-32 32.5l-23.5 23.5q-19 17 -27 33t-8 28z">
<glyph unicode="&#xc1;" horiz-adv-x="1517" d="M87 39q0 5 1 8t1 8q9 75 37.5 173.5t69.5 208.5t90 225t99 223.5t97 204.5t83.5 168t58.5 113.5l22 41.5h102q25 0 43 -3.5t31.5 -12.5t24 -25t20.5 -41l461 -1171l176 69l33 -71q-25 -23 -63 -54.5t-82.5 -60t-92 -48.5t-90.5 -20q-28 0 -50 13t-36 45l-150 348h-610 q-15 -53 -23 -106.5t-8 -106.5q0 -37 4 -72t13 -67l-156 -43q-24 -6 -45 -6q-61 0 -61 59zM396 518h526l-241 666h-11q-44 -102 -85.5 -194.5t-78 -175.5t-65 -157.5t-45.5 -138.5zM650 1563q0 12 6.5 27.5t14.5 29.5l139 246h147q10 0 21.5 -2t21 -7t15.5 -13.5t6 -22.5 q0 -25 -35 -55q-9 -9 -24 -23.5t-32.5 -32.5t-36.5 -38t-38 -39q-44 -46 -94 -97h-72q-22 0 -30.5 8t-8.5 19z">
<glyph unicode="&#xc2;" horiz-adv-x="1517" d="M87 39q0 5 1 8t1 8q9 75 37.5 173.5t69.5 208.5t90 225t99 223.5t97 204.5t83.5 168t58.5 113.5l22 41.5h102q25 0 43 -3.5t31.5 -12.5t24 -25t20.5 -41l461 -1171l176 69l33 -71q-25 -23 -63 -54.5t-82.5 -60t-92 -48.5t-90.5 -20q-28 0 -50 13t-36 45l-150 348h-610 q-15 -53 -23 -106.5t-8 -106.5q0 -37 4 -72t13 -67l-156 -43q-24 -6 -45 -6q-61 0 -61 59zM396 518h526l-241 666h-11q-44 -102 -85.5 -194.5t-78 -175.5t-65 -157.5t-45.5 -138.5zM408 1567q0 15 13 33l217 266h192l217 -266q13 -16 13 -33q0 -13 -11 -22t-38 -9h-50 l-225 184l-229 -184h-49q-28 0 -39 9t-11 22z">
<glyph unicode="&#xc3;" horiz-adv-x="1517" d="M87 39q0 5 1 8t1 8q9 75 37.5 173.5t69.5 208.5t90 225t99 223.5t97 204.5t83.5 168t58.5 114l22 41h102q25 0 43 -3.5t31.5 -12.5t24 -25t20.5 -41l461 -1171l176 69l33 -71q-25 -23 -63 -54.5t-82.5 -60t-92 -48.5t-90.5 -20q-28 0 -50 13t-36 45l-150 348h-610 q-15 -53 -23 -106.5t-8 -106.5q0 -37 4 -72t13 -67l-156 -43q-24 -6 -45 -6q-61 0 -61 59zM339 1626q39 45 72 77.5t63 53.5t58 31t57 10q54 0 98.5 -19t83 -42.5t72 -42.5t65.5 -19q22 0 37.5 13t29.5 29t29 29t37 13q17 0 32.5 -8t27.5 -17q14 -11 26 -24 q-78 -91 -134.5 -132.5t-106.5 -41.5q-55 0 -98 19.5t-80.5 43t-73.5 43t-76 19.5q-23 0 -38.5 -13t-29 -29t-28.5 -29t-37 -13q-17 0 -32.5 7.5t-27.5 16.5q-14 11 -26 25zM396 518h526l-241 666h-11q-44 -102 -85.5 -194.5t-78 -175.5t-65 -157.5t-45.5 -138.5z">
<glyph unicode="&#xc4;" horiz-adv-x="1517" d="M87 39q0 5 1 8t1 8q9 75 37.5 173.5t69.5 208.5t90 225t99 223.5t97 204.5t83.5 168t58.5 113.5l22 41.5h102q25 0 43 -3.5t31.5 -12.5t24 -25t20.5 -41l461 -1171l176 69l33 -71q-25 -23 -63 -54.5t-82.5 -60t-92 -48.5t-90.5 -20q-28 0 -50 13t-36 45l-150 348h-610 q-15 -53 -23 -106.5t-8 -106.5q0 -37 4 -72t13 -67l-156 -43q-24 -6 -45 -6q-61 0 -61 59zM396 518h526l-241 666h-11q-44 -102 -85.5 -194.5t-78 -175.5t-65 -157.5t-45.5 -138.5zM425 1718q0 43 30.5 74t79.5 31q25 0 46.5 -8.5t36.5 -22.5t23.5 -33.5t8.5 -40.5 q0 -46 -32 -77t-83 -31q-49 0 -79.5 31t-30.5 77zM816 1718q0 43 30.5 74t80.5 31q25 0 46 -8.5t36 -22.5t23.5 -33.5t8.5 -40.5q0 -46 -31.5 -77t-82.5 -31q-50 0 -80.5 31t-30.5 77z">
<glyph unicode="&#xc5;" horiz-adv-x="1517" d="M87 39q0 5 1 8t1 8q9 75 37.5 173.5t69.5 208.5t90 225t99 223.5t97 204.5t83.5 168t58.5 113.5l22 41.5h102q25 0 43 -3.5t31.5 -12.5t24 -25t20.5 -41l461 -1171l176 69l33 -71q-25 -23 -63 -54.5t-82.5 -60t-92 -48.5t-90.5 -20q-28 0 -50 13t-36 45l-150 348h-610 q-15 -53 -23 -106.5t-8 -106.5q0 -37 4 -72t13 -67l-156 -43q-24 -6 -45 -6q-61 0 -61 59zM396 518h526l-241 666h-11q-44 -102 -85.5 -194.5t-78 -175.5t-65 -157.5t-45.5 -138.5zM479 1761q0 54 18 95.5t50 70t75 43t93 14.5t93 -14.5t75 -43t50 -70t18 -95.5 q0 -55 -18 -96.5t-50 -69.5t-75 -42.5t-93 -14.5t-93 14.5t-75 42.5t-50 69.5t-18 96.5zM590 1761q0 -33 9.5 -56.5t26.5 -38t40 -21.5t49 -7t49 7t40 21.5t26.5 38t9.5 56.5t-9.5 56.5t-26.5 38t-40 21.5t-49 7t-49 -7t-40 -21.5t-26.5 -38t-9.5 -56.5z">
<glyph unicode="&#xc6;" horiz-adv-x="1945" d="M-3 29q0 5 1 11.5t3 14.5q21 60 60 135t89.5 159t109.5 173.5t122 178.5t126 175.5t121.5 163.5t109.5 142.5t88.5 112.5t80.5 102q93 11 209 18.5t238 7.5q45 0 98.5 -1t107.5 -4.5t105 -10t90 -17t62.5 -27t23.5 -38.5q0 -10 -12.5 -36.5t-28.5 -55t-31 -52.5t-20 -30 q0 1 -26.5 18.5t-79.5 39t-133 39.5t-187 20l-180 2v-469h487v-49q0 -53 -22 -73t-72 -20h-393v-518h139q134 0 269.5 18t265.5 60q1 0 4 -10t6.5 -26t6.5 -36.5t3 -40.5q0 -45 -21.5 -69t-71.5 -35t-133 -12.5t-206 -1.5q-65 0 -130 1t-121.5 2.5t-100.5 4t-68 4.5 q-46 5 -62 24t-16 62v295h-520q-48 -96 -73 -180.5t-25 -155.5v-21.5t2 -19.5l-199 -18q-8 -2 -15.5 -2h-15.5q-32 0 -48.5 10t-16.5 35zM462 518h446v662q-2 0 -3 1q-1 0 -1 1q-61 -87 -121 -173t-117 -170t-108.5 -164.5t-95.5 -156.5z">
<glyph unicode="&#xc7;" horiz-adv-x="1442" d="M131 702q0 172 47.5 310.5t140.5 235.5t231.5 149.5t321.5 52.5q37 0 84.5 -3t97 -9t96.5 -16t83.5 -24.5t59 -34t22.5 -44.5q0 -18 -12 -39l-84 -141q-33 18 -78 48.5t-99.5 59t-117 49.5t-129.5 21q-79 0 -139.5 -25.5t-105.5 -69.5t-75.5 -102.5t-49 -124.5 t-26.5 -135.5t-8 -134.5q0 -80 14.5 -156.5t44 -144.5t73.5 -124.5t103 -97.5t133 -64t163 -23q75 0 148 13t133 29q69 18 132 42l41 -78q-56 -44 -118.5 -74.5t-130 -49.5t-138.5 -27q-62 -8 -125 -9l-10 -47q100 -8 149 -57.5t49 -130.5q0 -67 -23 -112t-60.5 -72 t-85 -38.5t-95.5 -11.5q-37 0 -67 4.5t-51.5 18.5t-33.5 38.5t-12 65.5q37 -8 73.5 -12t65.5 -4q60 0 92.5 30.5t32.5 84.5q0 30 -11.5 52.5t-32 38t-48.5 24t-61 10.5l33 121q-117 10 -217 49q-132 52 -225.5 148.5t-144 233.5t-50.5 307z">
<glyph unicode="&#xc8;" horiz-adv-x="1334" d="M66 1292v80q30 10 95.5 20.5t153.5 19.5t193 14.5t214 5.5q47 0 103.5 -1t113 -4.5t109.5 -9.5t94 -17t65.5 -27.5t24.5 -39.5q0 -10 -12.5 -36t-28.5 -54.5t-31 -53t-20 -30.5q0 1 -26.5 19t-80 39.5t-133.5 39.5t-186 19l-222 2v-473h529v-49q0 -53 -22.5 -72.5 t-71.5 -19.5h-435v-523h181q134 0 269 18t265 60q0 -1 3 -10.5t7 -25.5t7.5 -36.5t3.5 -40.5q0 -47 -24 -71t-77 -34.5t-139.5 -11.5t-210.5 -1q-68 0 -136.5 1t-128 2.5t-106 4t-71.5 4.5q-47 4 -62.5 23.5t-15.5 62.5v1206h-191zM435 1825q0 39 63 39h148l139 -246 q8 -14 14 -29.5t6 -27.5q0 -13 -8.5 -20t-29.5 -7h-72q-50 51 -94 97q-19 19 -38.5 39t-37 38t-32 32.5l-23.5 23.5q-19 17 -27 33t-8 28z">
<glyph unicode="&#xc9;" horiz-adv-x="1334" d="M66 1292v80q30 10 95.5 20.5t153.5 19.5t193 14.5t214 5.5q47 0 103.5 -1t113 -4.5t109.5 -9.5t94 -17t65.5 -27.5t24.5 -39.5q0 -10 -12.5 -36t-28.5 -54.5t-31 -53t-20 -30.5q0 1 -26.5 19t-80 39.5t-133.5 39.5t-186 19l-222 2v-473h529v-49q0 -53 -22.5 -72.5 t-71.5 -19.5h-435v-523h181q134 0 269 18t265 60q0 -1 3 -10.5t7 -25.5t7.5 -36.5t3.5 -40.5q0 -47 -24 -71t-77 -34.5t-139.5 -11.5t-210.5 -1q-68 0 -136.5 1t-128 2.5t-106 4t-71.5 4.5q-47 4 -62.5 23.5t-15.5 62.5v1206h-191zM546 1561q0 12 6.5 27.5t14.5 29.5 l139 246h147q10 0 21.5 -2t21 -7t15.5 -13.5t6 -22.5q0 -25 -35 -55q-9 -9 -24 -23.5t-32.5 -32.5t-36.5 -38t-38 -39q-44 -46 -94 -97h-72q-22 0 -30.5 8t-8.5 19z">
<glyph unicode="&#xca;" horiz-adv-x="1334" d="M66 1292v80q30 10 95.5 20.5t153.5 19.5t193 14.5t214 5.5q47 0 103.5 -1t113 -4.5t109.5 -9.5t94 -17t65.5 -27.5t24.5 -39.5q0 -10 -12.5 -36t-28.5 -54.5t-31 -53t-20 -30.5q0 1 -26.5 19t-80 39.5t-133.5 39.5t-186 19l-222 2v-473h529v-49q0 -53 -22.5 -72.5 t-71.5 -19.5h-435v-523h181q134 0 269 18t265 60q0 -1 3 -10.5t7 -25.5t7.5 -36.5t3.5 -40.5q0 -47 -24 -71t-77 -34.5t-139.5 -11.5t-210.5 -1q-68 0 -136.5 1t-128 2.5t-106 4t-71.5 4.5q-47 4 -62.5 23.5t-15.5 62.5v1206h-191zM334 1565q0 15 13 33l217 266h192 l217 -266q13 -16 13 -33q0 -13 -11 -22t-38 -9h-50l-225 184l-229 -184h-49q-28 0 -39 9t-11 22z">
<glyph unicode="&#xcb;" horiz-adv-x="1334" d="M66 1292v80q30 10 95.5 20.5t153.5 19.5t193 14.5t214 5.5q47 0 103.5 -1t113 -4.5t109.5 -9.5t94 -17t65.5 -27.5t24.5 -39.5q0 -10 -12.5 -36t-28.5 -54.5t-31 -53t-20 -30.5q0 1 -26.5 19t-80 39.5t-133.5 39.5t-186 19l-222 2v-473h529v-49q0 -53 -22.5 -72.5 t-71.5 -19.5h-435v-523h181q134 0 269 18t265 60q0 -1 3 -10.5t7 -25.5t7.5 -36.5t3.5 -40.5q0 -47 -24 -71t-77 -34.5t-139.5 -11.5t-210.5 -1q-68 0 -136.5 1t-128 2.5t-106 4t-71.5 4.5q-47 4 -62.5 23.5t-15.5 62.5v1206h-191zM335 1718q0 43 30.5 74t79.5 31 q25 0 46.5 -8.5t36.5 -22.5t23.5 -33.5t8.5 -40.5q0 -46 -32 -77t-83 -31q-49 0 -79.5 31t-30.5 77zM726 1718q0 43 30.5 74t80.5 31q25 0 46 -8.5t36 -22.5t23.5 -33.5t8.5 -40.5q0 -46 -31.5 -77t-82.5 -31q-50 0 -80.5 31t-30.5 77z">
<glyph unicode="&#xcc;" horiz-adv-x="751" d="M64 1307v79q15 8 45 16t69.5 15t86.5 11t96 4q40 0 65.5 -1.5t40 -7t20 -15.5t5.5 -28v-1265h189v-86q-18 -9 -49 -17.5t-69 -15t-80.5 -10.5t-82.5 -4q-31 0 -57 3.5t-45 14t-30 29t-11 49.5v1229h-193zM70 1825q0 39 63 39h148l139 -246q8 -14 14 -29.5t6 -27.5 q0 -13 -8.5 -20t-29.5 -7h-72q-50 51 -94 97q-19 19 -38.5 39t-37 38t-32 32.5l-23.5 23.5q-19 17 -27 33t-8 28z">
<glyph unicode="&#xcd;" horiz-adv-x="751" d="M64 1307v79q15 8 45 16t69.5 15t86.5 11t96 4q40 0 65.5 -1.5t40 -7t20 -15.5t5.5 -28v-1265h189v-86q-18 -9 -49 -17.5t-69 -15t-80.5 -10.5t-82.5 -4q-31 0 -57 3.5t-45 14t-30 29t-11 49.5v1229h-193zM308 1561q0 12 6.5 27.5t14.5 29.5l139 246h147q10 0 21.5 -2 t21 -7t15.5 -13.5t6 -22.5q0 -25 -35 -55q-9 -9 -24 -23.5t-32.5 -32.5t-36.5 -38t-38 -39q-44 -46 -94 -97h-72q-22 0 -30.5 8t-8.5 19z">
<glyph unicode="&#xce;" horiz-adv-x="751" d="M51 1565q0 15 13 33l217 266h192l217 -266q13 -16 13 -33q0 -13 -11 -22t-38 -9h-50l-225 184l-229 -184h-49q-28 0 -39 9t-11 22zM64 1307v79q15 8 45 16t69.5 15t86.5 11t96 4q40 0 65.5 -1.5t40 -7t20 -15.5t5.5 -28v-1265h189v-86q-18 -9 -49 -17.5t-69 -15 t-80.5 -10.5t-82.5 -4q-31 0 -57 3.5t-45 14t-30 29t-11 49.5v1229h-193z">
<glyph unicode="&#xcf;" horiz-adv-x="751" d="M64 1307v79q15 8 45 16t69.5 15t86.5 11t96 4q40 0 65.5 -1.5t40 -7t20 -15.5t5.5 -28v-1265h189v-86q-18 -9 -49 -17.5t-69 -15t-80.5 -10.5t-82.5 -4q-31 0 -57 3.5t-45 14t-30 29t-11 49.5v1229h-193zM67 1718q0 43 30.5 74t79.5 31q25 0 46.5 -8.5t36.5 -22.5 t23.5 -33.5t8.5 -40.5q0 -46 -32 -77t-83 -31q-49 0 -79.5 31t-30.5 77zM458 1718q0 43 30.5 74t80.5 31q25 0 46 -8.5t36 -22.5t23.5 -33.5t8.5 -40.5q0 -46 -31.5 -77t-82.5 -31q-50 0 -80.5 31t-30.5 77z">
<glyph unicode="&#xd0;" horiz-adv-x="1643" d="M75 1264v86q57 19 140.5 34.5t181 26t202 16t203.5 5.5q175 0 307 -41t220 -129t132.5 -226.5t44.5 -333.5q0 -181 -51.5 -313.5t-143.5 -218.5t-218 -128t-275 -42h-473q-45 0 -61.5 19.5t-16.5 62.5v586h-190v49q0 35 15 48t50 13h125l2 496q-54 -3 -96 -5 q-18 -1 -35.5 -2t-31 -1.5t-22.5 -1zM501 668l2 -527q35 -4 74 -7q33 -3 74 -5t83 -2q124 0 220 32t161.5 101t99 178t33.5 264q0 144 -22 256t-75.5 188.5t-143.5 116.5t-226 40q-53 0 -103.5 -2t-89.5 -4.5t-63 -4t-24 -0.5v-514h315v-49q0 -34 -15 -47.5t-51 -13.5h-249z ">
<glyph unicode="&#xd1;" horiz-adv-x="1578" d="M70 1307v79q14 7 42.5 15t67 15t84 11.5t93.5 4.5q31 0 51.5 -6.5t34.5 -24.5l785 -1073q-5 426 -23 694t-41 371q1 0 6 1.5t73 19.5t91 18q19 0 29.5 -10.5t16 -34t6.5 -61.5t1 -93q0 -78 -2.5 -179t-6.5 -213t-9.5 -230t-11.5 -231t-12.5 -215t-12.5 -183h-92 q-31 0 -45 8.5t-27 25.5l-751 1037q18 -224 25 -403t7 -298q0 -115 -5 -187.5t-10 -115.5q-7 -50 -15 -76l-123 23q-39 8 -59.5 29t-20.5 61q0 11 1.5 24t4.5 27q10 47 18.5 105.5t14.5 142.5t9 201.5t3 281.5q0 129 -2 234t-2 205h-193zM400 1626q39 45 72 77.5t63 53.5 t58 31t57 10q54 0 98.5 -19t83 -42.5t72 -42.5t65.5 -19q22 0 37.5 13t29.5 29t29 29t37 13q17 0 32.5 -8t27.5 -17q14 -11 26 -24q-78 -91 -134.5 -132.5t-106.5 -41.5q-55 0 -98 19.5t-80.5 43t-73.5 43t-76 19.5q-23 0 -38.5 -13t-29 -29t-28.5 -29t-37 -13 q-17 0 -32.5 7.5t-27.5 16.5q-14 11 -26 25z">
<glyph unicode="&#xd2;" horiz-adv-x="1612" d="M131 705q0 165 46.5 302t133.5 235.5t212.5 153t283.5 54.5t283 -54.5t212 -153t133 -235.5t46 -302t-46 -302t-133 -235.5t-212 -152.5t-283 -54t-283.5 54t-212.5 152.5t-133.5 235.5t-46.5 302zM391 705q0 -135 22 -248.5t71.5 -195.5t129 -127.5t193.5 -45.5 q113 0 191.5 46t128 128t72 195t22.5 248q0 127 -22 239.5t-71 196.5t-128 133t-193 49t-193.5 -50.5t-129 -135.5t-71.5 -197t-22 -235zM518 1827q0 39 63 39h148l139 -246q8 -14 14 -29.5t6 -27.5q0 -13 -8.5 -20t-29.5 -7h-72q-50 51 -94 97q-19 19 -38.5 39t-37 38 t-32 32.5l-23.5 23.5q-19 17 -27 33t-8 28z">
<glyph unicode="&#xd3;" horiz-adv-x="1612" d="M131 705q0 165 46.5 302t133.5 235.5t212.5 153t283.5 54.5t283 -54.5t212 -153t133 -235.5t46 -302t-46 -302t-133 -235.5t-212 -152.5t-283 -54t-283.5 54t-212.5 152.5t-133.5 235.5t-46.5 302zM391 705q0 -135 22 -248.5t71.5 -195.5t129 -127.5t193.5 -45.5 q113 0 191.5 46t128 128t72 195t22.5 248q0 127 -22 239.5t-71 196.5t-128 133t-193 49t-193.5 -50.5t-129 -135.5t-71.5 -197t-22 -235zM747 1563q0 12 6.5 27.5t14.5 29.5l139 246h147q10 0 21.5 -2t21 -7t15.5 -13.5t6 -22.5q0 -25 -35 -55q-9 -9 -24 -23.5t-32.5 -32.5 t-36.5 -38t-38 -39q-44 -46 -94 -97h-72q-22 0 -30.5 8t-8.5 19z">
<glyph unicode="&#xd4;" horiz-adv-x="1612" d="M131 705q0 165 46.5 302t133.5 235.5t212.5 153t283.5 54.5t283 -54.5t212 -153t133 -235.5t46 -302t-46 -302t-133 -235.5t-212 -152.5t-283 -54t-283.5 54t-212.5 152.5t-133.5 235.5t-46.5 302zM391 705q0 -135 22 -248.5t71.5 -195.5t129 -127.5t193.5 -45.5 q113 0 191.5 46t128 128t72 195t22.5 248q0 127 -22 239.5t-71 196.5t-128 133t-193 49t-193.5 -50.5t-129 -135.5t-71.5 -197t-22 -235zM489 1567q0 15 13 33l217 266h192l217 -266q13 -16 13 -33q0 -13 -11 -22t-38 -9h-50l-225 184l-229 -184h-49q-28 0 -39 9t-11 22z ">
<glyph unicode="&#xd5;" horiz-adv-x="1612" d="M131 705q0 165 46.5 302t133.5 235.5t212.5 153t283.5 54.5t283 -54.5t212 -153t133 -235.5t46 -302t-46 -302t-133 -235.5t-212 -152.5t-283 -54t-283.5 54t-212.5 152.5t-133.5 235.5t-46.5 302zM391 705q0 -135 22 -248.5t71.5 -195.5t129 -127.5t193.5 -45.5 q113 0 191.5 46t128 128t72 195t22.5 248q0 127 -22 239.5t-71 196.5t-128 133t-193 49t-193.5 -50.5t-129 -135.5t-71.5 -197t-22 -235zM428 1624q39 45 72 77.5t63 53.5t58 31t57 10q54 0 98.5 -19t83 -42.5t72 -42.5t65.5 -19q22 0 37.5 13t29.5 29t29 29t37 13 q17 0 32.5 -8t27.5 -17q14 -11 26 -24q-78 -91 -134.5 -132.5t-106.5 -41.5q-55 0 -98 19.5t-80.5 43t-73.5 43t-76 19.5q-23 0 -38.5 -13t-29 -29t-28.5 -29t-37 -13q-17 0 -32.5 7.5t-27.5 16.5q-14 11 -26 25z">
<glyph unicode="&#xd6;" horiz-adv-x="1612" d="M131 705q0 165 46.5 302t133.5 235.5t212.5 153t283.5 54.5t283 -54.5t212 -153t133 -235.5t46 -302t-46 -302t-133 -235.5t-212 -152.5t-283 -54t-283.5 54t-212.5 152.5t-133.5 235.5t-46.5 302zM391 705q0 -135 22 -248.5t71.5 -195.5t129 -127.5t193.5 -45.5 q113 0 191.5 46t128 128t72 195t22.5 248q0 127 -22 239.5t-71 196.5t-128 133t-193 49t-193.5 -50.5t-129 -135.5t-71.5 -197t-22 -235zM498 1718q0 43 30.5 74t79.5 31q25 0 46.5 -8.5t36.5 -22.5t23.5 -33.5t8.5 -40.5q0 -46 -32 -77t-83 -31q-49 0 -79.5 31t-30.5 77z M889 1718q0 43 30.5 74t80.5 31q25 0 46 -8.5t36 -22.5t23.5 -33.5t8.5 -40.5q0 -46 -31.5 -77t-82.5 -31q-50 0 -80.5 31t-30.5 77z">
<glyph unicode="&#xd7;" horiz-adv-x="1103" d="M132 1065l37 37q28 28 51 28q12 0 23.5 -7t25.5 -21l278 -281l332 332l39 -37q27 -26 27 -49q0 -24 -29 -51l-280 -281l331 -332l-39 -38q-26 -27 -47 -27q-24 0 -51 29l-283 280l-329 -330l-39 39q-14 14 -21.5 25t-7.5 22q0 13 8.5 25.5t22.5 26.5l280 280z">
<glyph unicode="&#xd8;" horiz-adv-x="1610" d="M130 705q0 165 46.5 302t133.5 235.5t212.5 153t283.5 54.5q61 0 117 -8.5t108 -24.5l51 119h63q36 0 59.5 -9t23.5 -35q0 -13 -7 -33l-47 -109q148 -94 227 -260t79 -385q0 -165 -46 -302t-133 -235.5t-212 -152.5t-283 -54q-60 0 -113.5 8t-104.5 23l-55 -129h-66 q-36 0 -58.5 12t-22.5 36q0 14 8 29l50 115q-152 93 -233 260t-81 390zM390 705q0 -155 29 -280t95 -208l461 1070q-36 17 -78 26.5t-91 9.5q-114 0 -193.5 -50.5t-129 -135.5t-71.5 -197t-22 -235zM643 118q69 -30 163 -30q113 0 191.5 46t128 128t72 195t22.5 248 q0 143 -28 266.5t-91 209.5z">
<glyph unicode="&#xd9;" horiz-adv-x="1613" d="M50 1307v79q15 6 45 14t69.5 15t86.5 12t96 5q41 0 66.5 -1t40 -5.5t19.5 -15.5t5 -30v-837q0 -52 8 -106t26.5 -104.5t47.5 -95.5t71 -78.5t98 -53t128 -19.5q74 0 131 19.5t99.5 53t71.5 78.5t46.5 96.5t25 106t7.5 107.5v567q0 62 -3.5 110t-8.5 83t-10 58.5t-7 37.5 q10 7 24.5 12.5t30 9.5t31.5 5.5t29 1.5q20 0 38.5 -4.5t32.5 -16t22.5 -30.5t8.5 -48v-788q0 -144 -45.5 -253t-123.5 -182.5t-181.5 -111t-218.5 -37.5q-145 0 -259 37.5t-192.5 111.5t-119.5 183.5t-41 253.5v760h-195zM544 1827q0 39 63 39h148l139 -246q8 -14 14 -29.5 t6 -27.5q0 -13 -8.5 -20t-29.5 -7h-72q-50 51 -94 97q-19 19 -38.5 39t-37 38t-32 32.5l-23.5 23.5q-19 17 -27 33t-8 28z">
<glyph unicode="&#xda;" horiz-adv-x="1613" d="M50 1307v79q15 6 45 14t69.5 15t86.5 12t96 5q41 0 66.5 -1t40 -5.5t19.5 -15.5t5 -30v-837q0 -52 8 -106t26.5 -104.5t47.5 -95.5t71 -78.5t98 -53t128 -19.5q74 0 131 19.5t99.5 53t71.5 78.5t46.5 96.5t25 106t7.5 107.5v567q0 62 -3.5 110t-8.5 83t-10 58.5t-7 37.5 q10 7 24.5 12.5t30 9.5t31.5 5.5t29 1.5q20 0 38.5 -4.5t32.5 -16t22.5 -30.5t8.5 -48v-788q0 -144 -45.5 -253t-123.5 -182.5t-181.5 -111t-218.5 -37.5q-145 0 -259 37.5t-192.5 111.5t-119.5 183.5t-41 253.5v760h-195zM724 1563q0 12 6.5 27.5t14.5 29.5l139 246h147 q10 0 21.5 -2t21 -7t15.5 -13.5t6 -22.5q0 -25 -35 -55q-9 -9 -24 -23.5t-32.5 -32.5t-36.5 -38t-38 -39q-44 -46 -94 -97h-72q-22 0 -30.5 8t-8.5 19z">
<glyph unicode="&#xdb;" horiz-adv-x="1613" d="M50 1307v79q15 6 45 14t69.5 15t86.5 12t96 5q41 0 66.5 -1t40 -5.5t19.5 -15.5t5 -30v-837q0 -52 8 -106t26.5 -104.5t47.5 -95.5t71 -78.5t98 -53t128 -19.5q74 0 131 19.5t99.5 53t71.5 78.5t46.5 96.5t25 106t7.5 107.5v567q0 62 -3.5 110t-8.5 83t-10 58.5t-7 37.5 q10 7 24.5 12.5t30 9.5t31.5 5.5t29 1.5q20 0 38.5 -4.5t32.5 -16t22.5 -30.5t8.5 -48v-788q0 -144 -45.5 -253t-123.5 -182.5t-181.5 -111t-218.5 -37.5q-145 0 -259 37.5t-192.5 111.5t-119.5 183.5t-41 253.5v760h-195zM478 1567q0 15 13 33l217 266h192l217 -266 q13 -16 13 -33q0 -13 -11 -22t-38 -9h-50l-225 184l-229 -184h-49q-28 0 -39 9t-11 22z">
<glyph unicode="&#xdc;" horiz-adv-x="1613" d="M50 1307v79q15 6 45 14t69.5 15t86.5 12t96 5q41 0 66.5 -1t40 -5.5t19.5 -15.5t5 -30v-837q0 -52 8 -106t26.5 -104.5t47.5 -95.5t71 -78.5t98 -53t128 -19.5q74 0 131 19.5t99.5 53t71.5 78.5t46.5 96.5t25 106t7.5 107.5v567q0 62 -3.5 110t-8.5 83t-10 58.5t-7 37.5 q10 7 24.5 12.5t30 9.5t31.5 5.5t29 1.5q20 0 38.5 -4.5t32.5 -16t22.5 -30.5t8.5 -48v-788q0 -144 -45.5 -253t-123.5 -182.5t-181.5 -111t-218.5 -37.5q-145 0 -259 37.5t-192.5 111.5t-119.5 183.5t-41 253.5v760h-195zM538 1718q0 43 30.5 74t79.5 31q25 0 46.5 -8.5 t36.5 -22.5t23.5 -33.5t8.5 -40.5q0 -46 -32 -77t-83 -31q-49 0 -79.5 31t-30.5 77zM929 1718q0 43 30.5 74t80.5 31q25 0 46 -8.5t36 -22.5t23.5 -33.5t8.5 -40.5q0 -46 -31.5 -77t-82.5 -31q-50 0 -80.5 31t-30.5 77z">
<glyph unicode="&#xdd;" horiz-adv-x="1351" d="M-37 1247q24 22 64.5 54t87 61t92.5 49.5t80 20.5q23 0 45.5 -14t44.5 -48l424 -698h4l72 126t65 126.5t47 128t18 129.5q0 43 -11 85.5t-29 86.5l157 67q14 7 25 9t22 2q39 0 57.5 -31.5t18.5 -83.5q0 -72 -31 -160t-84 -188t-122.5 -210.5t-147.5 -226.5 q0 -97 0.5 -167.5t2 -122t4 -86t6 -59.5t8 -44t10.5 -37q-15 -8 -33 -14.5t-37.5 -11t-39 -6.5t-36.5 -2q-52 0 -86 21.5t-34 78.5v418l-455 753l-176 -77zM588 1563q0 12 6.5 27.5t14.5 29.5l139 246h147q10 0 21.5 -2t21 -7t15.5 -13.5t6 -22.5q0 -25 -35 -55 q-9 -9 -24 -23.5t-32.5 -32.5t-36.5 -38t-38 -39q-44 -46 -94 -97h-72q-22 0 -30.5 8t-8.5 19z">
<glyph unicode="&#xde;" horiz-adv-x="1335" d="M64 1307v79q15 8 45 16t69.5 15t86.5 11t96 4q39 0 64 -1t40 -5.5t21 -15.5t6 -30v-206q44 2 93 4t108 2q114 0 215 -19.5t176.5 -70t119.5 -138t44 -223.5q0 -101 -33.5 -181t-97.5 -135.5t-156 -84.5t-209 -29h-38t-60.5 1t-76 3t-83.5 6q0 -78 4.5 -128.5t11 -82 t12.5 -49.5t9 -33q-15 -8 -33.5 -14.5t-39 -11t-40.5 -6.5t-38 -2q-53 0 -87 21.5t-36 78.5v280v945h-193zM492 449h2q11 -4 55 -12.5t119 -8.5q105 0 171 25t103.5 67t51.5 96t14 113q0 89 -21.5 150.5t-65 99t-110 54t-157.5 16.5q-35 0 -77.5 -2t-84.5 -9v-589z">
<glyph unicode="&#xdf;" horiz-adv-x="1440" d="M58 922v47q0 31 14 43t45 12h133v31q0 113 42 202t111.5 151t158.5 95t184 33q120 0 209.5 -32.5t148.5 -93.5t87.5 -147t27.5 -194l-2 -119q-14 2 -48.5 7t-78 7t-90.5 -1t-85.5 -17.5t-63.5 -42.5t-25 -76q0 -34 18 -63.5t46 -54.5t62.5 -46t67.5 -38q57 -28 115.5 -56 t106.5 -64.5t78 -86.5t30 -121q0 -59 -16 -105t-43.5 -81t-64.5 -59.5t-79 -40t-86.5 -22.5t-87.5 -7q-38 0 -77 6t-76 16.5t-70.5 24t-60.5 28.5q-15 8 -31 15.5t-26.5 17.5t-14 22.5t5.5 30.5l80 111q24 -19 58 -47t74.5 -54t86 -44.5t92.5 -18.5q25 0 48.5 10t41.5 28.5 t28.5 46t10.5 63.5q1 40 -21.5 72.5t-55.5 58t-69.5 45.5t-64.5 35q-51 25 -102 52t-92 64t-66.5 89t-25.5 128q0 78 30.5 130.5t82.5 85t122 48.5t148 21q0 107 -20 179t-55.5 116t-85 63t-108.5 19q-53 0 -102.5 -19t-88 -64t-62 -120t-23.5 -186v-754q0 -123 11 -191 t18 -96q-16 -9 -37.5 -15.5t-44.5 -10t-44.5 -5t-37.5 0.5q-44 3 -70.5 23.5t-26.5 70.5v846l-2 -2h-192z">
<glyph unicode="&#xe0;" horiz-adv-x="1216" d="M117 268q0 86 38.5 146t107 97.5t163.5 54t209 16.5h141v75q0 58 -4.5 111.5t-21 93.5t-48 64t-84.5 24q-51 0 -102 -18.5t-100 -46.5t-94 -61.5t-82 -63.5l-82 110q-15 18 -15 37q0 33 41.5 60t104 46.5t134.5 30.5t134 11q92 0 174 -22t143.5 -69.5t97.5 -123 t36 -183.5v-557h174v-75q-17 -9 -46.5 -17t-65.5 -14t-75.5 -9t-75.5 -3q-24 0 -49 3t-45.5 13.5t-34 29t-14.5 50.5v10l-13.5 -8.5t-37 -21.5t-55 -28.5t-69 -29t-78 -22.5t-81.5 -9q-65 0 -124 17.5t-103.5 54.5t-71 93t-26.5 134zM346 279q0 -36 11 -65.5t32 -51 t52 -33.5t71 -12q35 0 80.5 9.5t86.5 20.5q48 13 97 31v281h-168q-38 0 -83.5 -7t-85 -26.5t-66.5 -54.5t-27 -92zM348 1498q0 39 63 39h148l139 -246q8 -14 14 -29.5t6 -27.5q0 -13 -8.5 -20t-29.5 -7h-72q-50 51 -94 97q-19 19 -38.5 39t-37 38t-32 32.5l-23.5 23.5 q-19 17 -27 33t-8 28z">
<glyph unicode="&#xe1;" horiz-adv-x="1216" d="M117 268q0 86 38.5 146t107 97.5t163.5 54t209 16.5h141v75q0 58 -4.5 111.5t-21 93.5t-48 64t-84.5 24q-51 0 -102 -18.5t-100 -46.5t-94 -61.5t-82 -63.5l-82 110q-15 18 -15 37q0 33 41.5 60t104 46.5t134.5 30.5t134 11q92 0 174 -22t143.5 -69.5t97.5 -123 t36 -183.5v-557h174v-75q-17 -9 -46.5 -17t-65.5 -14t-75.5 -9t-75.5 -3q-24 0 -49 3t-45.5 13.5t-34 29t-14.5 50.5v10l-13.5 -8.5t-37 -21.5t-55 -28.5t-69 -29t-78 -22.5t-81.5 -9q-65 0 -124 17.5t-103.5 54.5t-71 93t-26.5 134zM346 279q0 -36 11 -65.5t32 -51 t52 -33.5t71 -12q35 0 80.5 9.5t86.5 20.5q48 13 97 31v281h-168q-38 0 -83.5 -7t-85 -26.5t-66.5 -54.5t-27 -92zM508 1234q0 12 6.5 27.5t14.5 29.5l139 246h147q10 0 21.5 -2t21 -7t15.5 -13.5t6 -22.5q0 -25 -35 -55q-9 -9 -24 -23.5t-32.5 -32.5t-36.5 -38t-38 -39 q-44 -46 -94 -97h-72q-22 0 -30.5 8t-8.5 19z">
<glyph unicode="&#xe2;" horiz-adv-x="1216" d="M117 268q0 86 38.5 146t107 97.5t163.5 54t209 16.5h141v75q0 58 -4.5 111.5t-21 93.5t-48 64t-84.5 24q-51 0 -102 -18.5t-100 -46.5t-94 -61.5t-82 -63.5l-82 110q-15 18 -15 37q0 33 41.5 60t104 46.5t134.5 30.5t134 11q92 0 174 -22t143.5 -69.5t97.5 -123 t36 -183.5v-557h174v-75q-17 -9 -46.5 -17t-65.5 -14t-75.5 -9t-75.5 -3q-24 0 -49 3t-45.5 13.5t-34 29t-14.5 50.5v10l-13.5 -8.5t-37 -21.5t-55 -28.5t-69 -29t-78 -22.5t-81.5 -9q-65 0 -124 17.5t-103.5 54.5t-71 93t-26.5 134zM286 1238q0 15 13 33l217 266h192 l217 -266q13 -16 13 -33q0 -13 -11 -22t-38 -9h-50l-225 184l-229 -184h-49q-28 0 -39 9t-11 22zM346 279q0 -36 11 -65.5t32 -51t52 -33.5t71 -12q35 0 80.5 9.5t86.5 20.5q48 13 97 31v281h-168q-38 0 -83.5 -7t-85 -26.5t-66.5 -54.5t-27 -92z">
<glyph unicode="&#xe3;" horiz-adv-x="1216" d="M117 268q0 86 38.5 146t107 97.5t163.5 54t209 16.5h141v75q0 58 -4.5 111.5t-21 93.5t-48 64t-84.5 24q-51 0 -102 -18.5t-100 -46.5t-94 -61.5t-82 -63.5l-82 110q-15 18 -15 37q0 33 41.5 60t104 46.5t134.5 30.5t134 11q92 0 174 -22t143.5 -69.5t97.5 -123 t36 -183.5v-557h174v-75q-17 -9 -46.5 -17t-65.5 -14t-75.5 -9t-75.5 -3q-24 0 -49 3t-45.5 13.5t-34 29t-14.5 50.5v10l-13.5 -8.5t-37 -21.5t-55 -28.5t-69 -29t-78 -22.5t-81.5 -9q-65 0 -124 17.5t-103.5 54.5t-71 93t-26.5 134zM205 1364q39 45 72 77.5t63 53.5t58 31 t57 10q54 0 98.5 -19t83 -42.5t72 -42.5t65.5 -19q22 0 37.5 13t29.5 29t29 29t37 13q17 0 32.5 -8t27.5 -17q14 -11 26 -24q-78 -91 -134.5 -132.5t-106.5 -41.5q-55 0 -98 19.5t-80.5 43t-73.5 43t-76 19.5q-23 0 -38.5 -13t-29 -29t-28.5 -29t-37 -13q-17 0 -32.5 7.5 t-27.5 16.5q-14 11 -26 25zM346 279q0 -36 11 -65.5t32 -51t52 -33.5t71 -12q35 0 80.5 9.5t86.5 20.5q48 13 97 31v281h-168q-38 0 -83.5 -7t-85 -26.5t-66.5 -54.5t-27 -92z">
<glyph unicode="&#xe4;" horiz-adv-x="1216" d="M117 268q0 86 38.5 146t107 97.5t163.5 54t209 16.5h141v75q0 58 -4.5 111.5t-21 93.5t-48 64t-84.5 24q-51 0 -102 -18.5t-100 -46.5t-94 -61.5t-82 -63.5l-82 110q-15 18 -15 37q0 33 41.5 60t104 46.5t134.5 30.5t134 11q92 0 174 -22t143.5 -69.5t97.5 -123 t36 -183.5v-557h174v-75q-17 -9 -46.5 -17t-65.5 -14t-75.5 -9t-75.5 -3q-24 0 -49 3t-45.5 13.5t-34 29t-14.5 50.5v10l-13.5 -8.5t-37 -21.5t-55 -28.5t-69 -29t-78 -22.5t-81.5 -9q-65 0 -124 17.5t-103.5 54.5t-71 93t-26.5 134zM279 1431q0 43 30.5 74t79.5 31 q25 0 46.5 -8.5t36.5 -22.5t23.5 -33.5t8.5 -40.5q0 -46 -32 -77t-83 -31q-49 0 -79.5 31t-30.5 77zM346 279q0 -36 11 -65.5t32 -51t52 -33.5t71 -12q35 0 80.5 9.5t86.5 20.5q48 13 97 31v281h-168q-38 0 -83.5 -7t-85 -26.5t-66.5 -54.5t-27 -92zM670 1431q0 43 30.5 74 t80.5 31q25 0 46 -8.5t36 -22.5t23.5 -33.5t8.5 -40.5q0 -46 -31.5 -77t-82.5 -31q-50 0 -80.5 31t-30.5 77z">
<glyph unicode="&#xe5;" horiz-adv-x="1216" d="M117 268q0 86 38.5 146t107 97.5t163.5 54t209 16.5h141v75q0 58 -4.5 111.5t-21 93.5t-48 64t-84.5 24q-51 0 -102 -18.5t-100 -46.5t-94 -61.5t-82 -63.5l-82 110q-15 18 -15 37q0 33 41.5 60t104 46.5t134.5 30.5t134 11q92 0 174 -22t143.5 -69.5t97.5 -123 t36 -183.5v-557h174v-75q-17 -9 -46.5 -17t-65.5 -14t-75.5 -9t-75.5 -3q-24 0 -49 3t-45.5 13.5t-34 29t-14.5 50.5v10l-13.5 -8.5t-37 -21.5t-55 -28.5t-69 -29t-78 -22.5t-81.5 -9q-65 0 -124 17.5t-103.5 54.5t-71 93t-26.5 134zM343 1371q0 54 18 95.5t50 70t75 43 t93 14.5t93 -14.5t75 -43t50 -70t18 -95.5q0 -55 -18 -96.5t-50 -69.5t-75 -42.5t-93 -14.5t-93 14.5t-75 42.5t-50 69.5t-18 96.5zM346 279q0 -36 11 -65.5t32 -51t52 -33.5t71 -12q35 0 80.5 9.5t86.5 20.5q48 13 97 31v281h-168q-38 0 -83.5 -7t-85 -26.5t-66.5 -54.5 t-27 -92zM454 1371q0 -33 9.5 -56.5t26.5 -38t40 -21.5t49 -7t49 7t40 21.5t26.5 38t9.5 56.5t-9.5 56.5t-26.5 38t-40 21.5t-49 7t-49 -7t-40 -21.5t-26.5 -38t-9.5 -56.5z">
<glyph unicode="&#xe6;" horiz-adv-x="1845" d="M117 268q0 86 38.5 146t107 97.5t163.5 54t209 16.5h141v75q0 58 -4.5 112t-21 95t-48 65.5t-84.5 24.5q-32 0 -72 -13.5t-82 -34.5t-82.5 -45t-72 -45t-50.5 -36t-19 -16l-82 110q-15 18 -15 37q0 26 22 46.5t57.5 36.5t81 27.5t92 19t91 11t78.5 3.5q71 0 128 -10 t97 -27q38 -16 72 -39t62 -55q75 62 171.5 96.5t208.5 34.5q100 0 179 -32t134 -86t84 -125t29 -148q0 -36 -6 -72.5t-23 -66.5t-47.5 -49t-80.5 -19l-557 2v-137q52 -112 156.5 -168t244.5 -56q59 0 122.5 11t131.5 32l33 -67q-41 -28 -88 -48t-97.5 -32.5t-102 -18.5 t-101.5 -6q-125 0 -238 41t-196 127q-36 -26 -84 -55.5t-104 -54.5t-118.5 -41.5t-126.5 -16.5q-66 0 -126 17t-105.5 53.5t-72.5 93t-27 135.5zM346 285q0 -78 44.5 -123t131.5 -45q29 1 71.5 10.5t83.5 20.5q48 13 99 30v281h-168q-38 0 -84 -7t-85.5 -26.5t-66 -53 t-26.5 -87.5zM1012 580h479q6 20 8 40t2 42q0 50 -16.5 100t-48 90.5t-78 66t-107.5 25.5q-91 0 -149.5 -40t-89.5 -105v-219z">
<glyph unicode="&#xe7;" horiz-adv-x="1141" d="M115 494q0 131 46.5 235t128 176.5t193 111t242.5 38.5q10 0 35 -1.5t56.5 -5t65.5 -10t62 -16.5t46 -24t18 -33q0 -5 -0.5 -10.5t-4.5 -10.5l-71 -133q-33 19 -73 41t-83.5 40.5t-88.5 31t-89 12.5q-68 0 -115.5 -33.5t-78 -87t-44.5 -118.5t-14 -128q0 -98 26 -184 t80 -150t136 -100.5t194 -36.5q62 0 127.5 11t134.5 32l33 -67q-41 -28 -89 -48t-99 -32.5t-103 -18.5q-29 -3 -58 -5l-9 -40q100 -8 149 -57.5t49 -130.5q0 -67 -23 -112t-60.5 -72t-85 -38.5t-95.5 -11.5q-37 0 -67 4.5t-51.5 18.5t-33.5 38.5t-12 65.5q37 -8 73.5 -12 t65.5 -4q60 0 92.5 30.5t32.5 84.5q0 30 -11.5 52.5t-32 38t-48.5 24t-61 10.5l30 112q-80 7 -158 32q-102 35 -181.5 101.5t-127.5 164.5t-48 225z">
<glyph unicode="&#xe8;" horiz-adv-x="1221" d="M116 512q0 119 38.5 218.5t111 171.5t177.5 112.5t238 40.5q100 0 179 -32t134 -86t84 -125t29 -148q0 -36 -6 -72t-23 -65t-48 -47.5t-81 -18.5h-598q10 -90 47 -159t95 -116.5t134 -71.5t164 -24q60 0 124 10.5t132 32.5l33 -67q-41 -28 -88 -48t-97 -32.5t-102 -18.5 t-102 -6q-110 0 -213.5 34.5t-184 103.5t-129 172t-48.5 241zM349 584h518q6 20 8 40t2 42q0 49 -16.5 98.5t-48 89.5t-78 65t-106.5 25q-77 0 -128.5 -29.5t-84 -79t-47.5 -115t-19 -136.5zM415 1498q0 39 63 39h148l139 -246q8 -14 14 -29.5t6 -27.5q0 -13 -8.5 -20 t-29.5 -7h-72q-50 51 -94 97q-19 19 -38.5 39t-37 38t-32 32.5l-23.5 23.5q-19 17 -27 33t-8 28z">
<glyph unicode="&#xe9;" horiz-adv-x="1221" d="M116 512q0 119 38.5 218.5t111 171.5t177.5 112.5t238 40.5q100 0 179 -32t134 -86t84 -125t29 -148q0 -36 -6 -72t-23 -65t-48 -47.5t-81 -18.5h-598q10 -90 47 -159t95 -116.5t134 -71.5t164 -24q60 0 124 10.5t132 32.5l33 -67q-41 -28 -88 -48t-97 -32.5t-102 -18.5 t-102 -6q-110 0 -213.5 34.5t-184 103.5t-129 172t-48.5 241zM349 584h518q6 20 8 40t2 42q0 49 -16.5 98.5t-48 89.5t-78 65t-106.5 25q-77 0 -128.5 -29.5t-84 -79t-47.5 -115t-19 -136.5zM562 1234q0 12 6.5 27.5t14.5 29.5l139 246h147q10 0 21.5 -2t21 -7t15.5 -13.5 t6 -22.5q0 -25 -35 -55q-9 -9 -24 -23.5t-32.5 -32.5t-36.5 -38t-38 -39q-44 -46 -94 -97h-72q-22 0 -30.5 8t-8.5 19z">
<glyph unicode="&#xea;" horiz-adv-x="1221" d="M116 512q0 119 38.5 218.5t111 171.5t177.5 112.5t238 40.5q100 0 179 -32t134 -86t84 -125t29 -148q0 -36 -6 -72t-23 -65t-48 -47.5t-81 -18.5h-598q10 -90 47 -159t95 -116.5t134 -71.5t164 -24q60 0 124 10.5t132 32.5l33 -67q-41 -28 -88 -48t-97 -32.5t-102 -18.5 t-102 -6q-110 0 -213.5 34.5t-184 103.5t-129 172t-48.5 241zM349 584h518q6 20 8 40t2 42q0 49 -16.5 98.5t-48 89.5t-78 65t-106.5 25q-77 0 -128.5 -29.5t-84 -79t-47.5 -115t-19 -136.5zM349 1238q0 15 13 33l217 266h192l217 -266q13 -16 13 -33q0 -13 -11 -22t-38 -9 h-50l-225 184l-229 -184h-49q-28 0 -39 9t-11 22z">
<glyph unicode="&#xeb;" horiz-adv-x="1221" d="M116 512q0 119 38.5 218.5t111 171.5t177.5 112.5t238 40.5q100 0 179 -32t134 -86t84 -125t29 -148q0 -36 -6 -72t-23 -65t-48 -47.5t-81 -18.5h-598q10 -90 47 -159t95 -116.5t134 -71.5t164 -24q60 0 124 10.5t132 32.5l33 -67q-41 -28 -88 -48t-97 -32.5t-102 -18.5 t-102 -6q-110 0 -213.5 34.5t-184 103.5t-129 172t-48.5 241zM347 1411q0 43 30.5 74t79.5 31q25 0 46.5 -8.5t36.5 -22.5t23.5 -33.5t8.5 -40.5q0 -46 -32 -77t-83 -31q-49 0 -79.5 31t-30.5 77zM349 584h518q6 20 8 40t2 42q0 49 -16.5 98.5t-48 89.5t-78 65t-106.5 25 q-77 0 -128.5 -29.5t-84 -79t-47.5 -115t-19 -136.5zM738 1411q0 43 30.5 74t80.5 31q25 0 46 -8.5t36 -22.5t23.5 -33.5t8.5 -40.5q0 -46 -31.5 -77t-82.5 -31q-50 0 -80.5 31t-30.5 77z">
<glyph unicode="&#xec;" horiz-adv-x="715" d="M66 922v75q21 9 59 17t83 13t92.5 8t86.5 3q19 0 35 -0.5t27.5 -5t17.5 -15.5t6 -32v-885h174v-75q-17 -9 -46.5 -17t-65 -14t-75 -9t-75.5 -3q-31 0 -57 3.5t-45 14t-30 29t-11 49.5v844h-176zM80 1498q0 39 63 39h148l139 -246q8 -14 14 -29.5t6 -27.5q0 -13 -8.5 -20 t-29.5 -7h-72q-50 51 -94 97q-19 19 -38.5 39t-37 38t-32 32.5l-23.5 23.5q-19 17 -27 33t-8 28z">
<glyph unicode="&#xed;" horiz-adv-x="715" d="M66 922v75q21 9 59 17t83 13t92.5 8t86.5 3q19 0 35 -0.5t27.5 -5t17.5 -15.5t6 -32v-885h174v-75q-17 -9 -46.5 -17t-65 -14t-75 -9t-75.5 -3q-31 0 -57 3.5t-45 14t-30 29t-11 49.5v844h-176zM267 1234q0 12 6.5 27.5t14.5 29.5l139 246h147q10 0 21.5 -2t21 -7 t15.5 -13.5t6 -22.5q0 -25 -35 -55q-9 -9 -24 -23.5t-32.5 -32.5t-36.5 -38t-38 -39q-44 -46 -94 -97h-72q-22 0 -30.5 8t-8.5 19z">
<glyph unicode="&#xee;" horiz-adv-x="715" d="M33 1238q0 15 13 33l217 266h192l217 -266q13 -16 13 -33q0 -13 -11 -22t-38 -9h-50l-225 184l-229 -184h-49q-28 0 -39 9t-11 22zM66 922v75q21 9 59 17t83 13t92.5 8t86.5 3q19 0 35 -0.5t27.5 -5t17.5 -15.5t6 -32v-885h174v-75q-17 -9 -46.5 -17t-65 -14t-75 -9 t-75.5 -3q-31 0 -57 3.5t-45 14t-30 29t-11 49.5v844h-176z">
<glyph unicode="&#xef;" horiz-adv-x="715" d="M53 1431q0 43 30.5 74t79.5 31q25 0 46.5 -8.5t36.5 -22.5t23.5 -33.5t8.5 -40.5q0 -46 -32 -77t-83 -31q-49 0 -79.5 31t-30.5 77zM66 922v75q21 9 59 17t83 13t92.5 8t86.5 3q19 0 35 -0.5t27.5 -5t17.5 -15.5t6 -32v-885h174v-75q-17 -9 -46.5 -17t-65 -14t-75 -9 t-75.5 -3q-31 0 -57 3.5t-45 14t-30 29t-11 49.5v844h-176zM444 1431q0 43 30.5 74t80.5 31q25 0 46 -8.5t36 -22.5t23.5 -33.5t8.5 -40.5q0 -46 -31.5 -77t-82.5 -31q-50 0 -80.5 31t-30.5 77z">
<glyph unicode="&#xf0;" horiz-adv-x="1314" d="M122 489q0 109 40 198.5t109 153t162 98t199 34.5q100 0 169 -24.5t120 -61.5q-23 103 -67 192t-113 148l-285 -162l-23 39q-17 29 -10 46.5t33 33.5l199 112q-75 50 -159.5 81.5t-174.5 45.5l14 95q144 -10 260 -45.5t209 -92.5l277 156l18 -39q16 -31 10 -46.5 t-30 -29.5l-185 -106q74 -68 126 -150.5t84.5 -173t47.5 -185.5t15 -188q0 -66 -10.5 -139.5t-35 -145.5t-64.5 -138t-99.5 -116t-140 -80t-185.5 -30q-111 0 -204.5 37.5t-161.5 106t-106 164t-38 212.5zM370 492q0 -83 16 -158t49.5 -132.5t85.5 -91.5t125 -34 q84 0 142.5 48.5t93.5 129.5t47.5 188t3.5 224q-18 37 -43.5 72.5t-62 64t-85 46t-110.5 17.5q-73 0 -123 -33.5t-81 -87.5t-44.5 -120.5t-13.5 -132.5z">
<glyph unicode="&#xf1;" horiz-adv-x="1410" d="M66 924v75q21 9 59 17t83.5 13t93 8t86.5 3q21 0 37 -1t27 -6t16.5 -15.5t5.5 -30.5v-49q15 5 55.5 24t98.5 39.5t127 37t141 16.5q87 0 141 -24t84 -66.5t40.5 -100.5t10.5 -127v-637h174v-75q-17 -9 -46.5 -17t-65.5 -14t-75 -9t-75 -3q-31 0 -57 3.5t-45 14t-30 29 t-11 49.5v639q0 51 -5.5 87t-21 59t-43 33.5t-70.5 10.5q-28 0 -61.5 -4t-69 -10.5t-69 -13.5t-61 -13.5t-45.5 -11.5t-21 -6v-547q0 -62 3 -109t7.5 -82t9.5 -58.5t8 -37.5q-14 -8 -31.5 -13.5t-37 -10t-39 -6.5t-35.5 -2q-26 0 -47 4.5t-37 15.5t-24.5 29.5t-8.5 46.5v846 h-176zM285 1364q39 45 72 77.5t63 53.5t58 31t57 10q54 0 98.5 -19t83 -42.5t72 -42.5t65.5 -19q22 0 37.5 13t29.5 29t29 29t37 13q17 0 32.5 -8t27.5 -17q14 -11 26 -24q-78 -91 -134.5 -132.5t-106.5 -41.5q-55 0 -98 19.5t-80.5 43t-73.5 43t-76 19.5q-23 0 -38.5 -13 t-29 -29t-28.5 -29t-37 -13q-17 0 -32.5 7.5t-27.5 16.5q-14 11 -26 25z">
<glyph unicode="&#xf2;" d="M117 510q0 123 43 223.5t117 172t174.5 110.5t216.5 39q115 0 215 -39t174 -110.5t116.5 -172t42.5 -223.5q0 -122 -42.5 -222t-117 -171t-174.5 -109.5t-214 -38.5q-116 0 -216.5 39t-174.5 110t-117 170.5t-43 221.5zM364 512q0 -85 13 -164t47.5 -139.5t93 -96.5 t150.5 -36q91 0 149.5 36t92 96.5t46.5 139.5t13 164t-13 164t-46.5 139.5t-92 96.5t-149.5 36q-92 0 -150.5 -36t-93 -96.5t-47.5 -139.5t-13 -164zM402 1498q0 39 63 39h148l139 -246q8 -14 14 -29.5t6 -27.5q0 -13 -8.5 -20t-29.5 -7h-72q-50 51 -94 97q-19 19 -38.5 39 t-37 38t-32 32.5l-23.5 23.5q-19 17 -27 33t-8 28z">
<glyph unicode="&#xf3;" d="M117 510q0 123 43 223.5t117 172t174.5 110.5t216.5 39q115 0 215 -39t174 -110.5t116.5 -172t42.5 -223.5q0 -122 -42.5 -222t-117 -171t-174.5 -109.5t-214 -38.5q-116 0 -216.5 39t-174.5 110t-117 170.5t-43 221.5zM364 512q0 -85 13 -164t47.5 -139.5t93 -96.5 t150.5 -36q91 0 149.5 36t92 96.5t46.5 139.5t13 164t-13 164t-46.5 139.5t-92 96.5t-149.5 36q-92 0 -150.5 -36t-93 -96.5t-47.5 -139.5t-13 -164zM569 1234q0 12 6.5 27.5t14.5 29.5l139 246h147q10 0 21.5 -2t21 -7t15.5 -13.5t6 -22.5q0 -25 -35 -55q-9 -9 -24 -23.5 t-32.5 -32.5t-36.5 -38t-38 -39q-44 -46 -94 -97h-72q-22 0 -30.5 8t-8.5 19z">
<glyph unicode="&#xf4;" d="M117 510q0 123 43 223.5t117 172t174.5 110.5t216.5 39q115 0 215 -39t174 -110.5t116.5 -172t42.5 -223.5q0 -122 -42.5 -222t-117 -171t-174.5 -109.5t-214 -38.5q-116 0 -216.5 39t-174.5 110t-117 170.5t-43 221.5zM339 1238q0 15 13 33l217 266h192l217 -266 q13 -16 13 -33q0 -13 -11 -22t-38 -9h-50l-225 184l-229 -184h-49q-28 0 -39 9t-11 22zM364 512q0 -85 13 -164t47.5 -139.5t93 -96.5t150.5 -36q91 0 149.5 36t92 96.5t46.5 139.5t13 164t-13 164t-46.5 139.5t-92 96.5t-149.5 36q-92 0 -150.5 -36t-93 -96.5t-47.5 -139.5 t-13 -164z">
<glyph unicode="&#xf5;" d="M117 510q0 123 43 223.5t117 172t174.5 110.5t216.5 39q115 0 215 -39t174 -110.5t116.5 -172t42.5 -223.5q0 -122 -42.5 -222t-117 -171t-174.5 -109.5t-214 -38.5q-116 0 -216.5 39t-174.5 110t-117 170.5t-43 221.5zM281 1364q39 45 72 77.5t63 53.5t58 31t57 10 q54 0 98.5 -19t83 -42.5t72 -42.5t65.5 -19q22 0 37.5 13t29.5 29t29 29t37 13q17 0 32.5 -8t27.5 -17q14 -11 26 -24q-78 -91 -134.5 -132.5t-106.5 -41.5q-55 0 -98 19.5t-80.5 43t-73.5 43t-76 19.5q-23 0 -38.5 -13t-29 -29t-28.5 -29t-37 -13q-17 0 -32.5 7.5 t-27.5 16.5q-14 11 -26 25zM364 512q0 -85 13 -164t47.5 -139.5t93 -96.5t150.5 -36q91 0 149.5 36t92 96.5t46.5 139.5t13 164t-13 164t-46.5 139.5t-92 96.5t-149.5 36q-92 0 -150.5 -36t-93 -96.5t-47.5 -139.5t-13 -164z">
<glyph unicode="&#xf6;" d="M117 510q0 123 43 223.5t117 172t174.5 110.5t216.5 39q115 0 215 -39t174 -110.5t116.5 -172t42.5 -223.5q0 -122 -42.5 -222t-117 -171t-174.5 -109.5t-214 -38.5q-116 0 -216.5 39t-174.5 110t-117 170.5t-43 221.5zM359 1429q0 43 30.5 74t79.5 31q25 0 46.5 -8.5 t36.5 -22.5t23.5 -33.5t8.5 -40.5q0 -46 -32 -77t-83 -31q-49 0 -79.5 31t-30.5 77zM364 512q0 -85 13 -164t47.5 -139.5t93 -96.5t150.5 -36q91 0 149.5 36t92 96.5t46.5 139.5t13 164t-13 164t-46.5 139.5t-92 96.5t-149.5 36q-92 0 -150.5 -36t-93 -96.5t-47.5 -139.5 t-13 -164zM750 1429q0 43 30.5 74t80.5 31q25 0 46 -8.5t36 -22.5t23.5 -33.5t8.5 -40.5q0 -46 -31.5 -77t-82.5 -31q-50 0 -80.5 31t-30.5 77z">
<glyph unicode="&#xf7;" horiz-adv-x="1172" d="M121 563v63q0 45 19.5 61.5t62.5 16.5h846v-62q0 -44 -19.5 -61.5t-62.5 -17.5h-846zM426 348q0 28 10.5 53t30 44t46.5 29.5t59 10.5q33 0 60.5 -10.5t47 -29.5t30.5 -44t11 -53q0 -30 -11 -56t-30.5 -44.5t-47 -29.5t-60.5 -11q-32 0 -59 11t-46.5 29.5t-30 44.5 t-10.5 56zM426 931q0 28 10.5 53t30 44t46.5 29.5t59 10.5q33 0 60.5 -10.5t47 -29.5t30.5 -44t11 -53q0 -30 -11 -56t-30.5 -44.5t-47 -29.5t-60.5 -11q-32 0 -59 11t-46.5 29.5t-30 44.5t-10.5 56z">
<glyph unicode="&#xf8;" d="M117 510q0 123 43 223.5t117 172t174.5 110.5t216.5 39q86 0 166 -23l92 214h57q32 0 52.5 -8t20.5 -31q0 -12 -7 -29l-87 -201q58 -34 105 -81.5t80 -107t51 -129.5t18 -149q0 -122 -42.5 -222t-117 -171t-174.5 -109.5t-214 -38.5q-70 0 -134 15l-92 -215h-58 q-32 0 -52 10.5t-20 31.5q0 12 7 26l83 193q-64 32 -116.5 80t-90 109t-58 134.5t-20.5 156.5zM364 512q0 -104 20 -196.5t74 -154.5l330 765q-53 22 -120 22q-92 0 -150.5 -36t-93 -96.5t-47.5 -139.5t-13 -164zM579 87q41 -11 89 -11q91 0 149.5 36t92 96.5t46.5 139.5 t13 164q0 91 -15 174t-55 145z">
<glyph unicode="&#xf9;" horiz-adv-x="1409" d="M61 928v76q21 9 59 16.5t83 12.5t92.5 8t86.5 3q21 0 37 -1t27 -6t16.5 -15.5t5.5 -30.5v-684q0 -51 5.5 -87t21 -59t43 -33.5t70.5 -10.5q25 0 59.5 4.5t71 11t72 14t63.5 14t44 11.5l17 4v752h-176v76q21 9 59 16.5t83.5 12.5t93 8t86.5 3q21 0 37 -1t27 -6t16.5 -15.5 t5.5 -30.5v-891h174v-75q-17 -9 -46.5 -17t-65.5 -14t-75 -9t-75 -3q-31 0 -57 3.5t-45.5 14t-30.5 29t-11 49.5v8q0 1 -17.5 -7.5t-48 -21.5t-71 -28t-86.5 -28.5t-95 -22.5t-95 -9q-90 0 -146 23.5t-86.5 66t-41.5 101t-11 127.5v641h-176zM403 1498q0 39 63 39h148 l139 -246q8 -14 14 -29.5t6 -27.5q0 -13 -8.5 -20t-29.5 -7h-72q-50 51 -94 97q-19 19 -38.5 39t-37 38t-32 32.5l-23.5 23.5q-19 17 -27 33t-8 28z">
<glyph unicode="&#xfa;" horiz-adv-x="1409" d="M61 928v76q21 9 59 16.5t83 12.5t92.5 8t86.5 3q21 0 37 -1t27 -6t16.5 -15.5t5.5 -30.5v-684q0 -51 5.5 -87t21 -59t43 -33.5t70.5 -10.5q25 0 59.5 4.5t71 11t72 14t63.5 14t44 11.5l17 4v752h-176v76q21 9 59 16.5t83.5 12.5t93 8t86.5 3q21 0 37 -1t27 -6t16.5 -15.5 t5.5 -30.5v-891h174v-75q-17 -9 -46.5 -17t-65.5 -14t-75 -9t-75 -3q-31 0 -57 3.5t-45.5 14t-30.5 29t-11 49.5v8q0 1 -17.5 -7.5t-48 -21.5t-71 -28t-86.5 -28.5t-95 -22.5t-95 -9q-90 0 -146 23.5t-86.5 66t-41.5 101t-11 127.5v641h-176zM573 1234q0 12 6.5 27.5 t14.5 29.5l139 246h147q10 0 21.5 -2t21 -7t15.5 -13.5t6 -22.5q0 -25 -35 -55q-9 -9 -24 -23.5t-32.5 -32.5t-36.5 -38t-38 -39q-44 -46 -94 -97h-72q-22 0 -30.5 8t-8.5 19z">
<glyph unicode="&#xfb;" horiz-adv-x="1409" d="M61 928v76q21 9 59 16.5t83 12.5t92.5 8t86.5 3q21 0 37 -1t27 -6t16.5 -15.5t5.5 -30.5v-684q0 -51 5.5 -87t21 -59t43 -33.5t70.5 -10.5q25 0 59.5 4.5t71 11t72 14t63.5 14t44 11.5l17 4v752h-176v76q21 9 59 16.5t83.5 12.5t93 8t86.5 3q21 0 37 -1t27 -6t16.5 -15.5 t5.5 -30.5v-891h174v-75q-17 -9 -46.5 -17t-65.5 -14t-75 -9t-75 -3q-31 0 -57 3.5t-45.5 14t-30.5 29t-11 49.5v8q0 1 -17.5 -7.5t-48 -21.5t-71 -28t-86.5 -28.5t-95 -22.5t-95 -9q-90 0 -146 23.5t-86.5 66t-41.5 101t-11 127.5v641h-176zM366 1238q0 15 13 33l217 266 h192l217 -266q13 -16 13 -33q0 -13 -11 -22t-38 -9h-50l-225 184l-229 -184h-49q-28 0 -39 9t-11 22z">
<glyph unicode="&#xfc;" horiz-adv-x="1409" d="M61 928v76q21 9 59 16.5t83 12.5t92.5 8t86.5 3q21 0 37 -1t27 -6t16.5 -15.5t5.5 -30.5v-684q0 -51 5.5 -87t21 -59t43 -33.5t70.5 -10.5q25 0 59.5 4.5t71 11t72 14t63.5 14t44 11.5l17 4v752h-176v76q21 9 59 16.5t83.5 12.5t93 8t86.5 3q21 0 37 -1t27 -6t16.5 -15.5 t5.5 -30.5v-891h174v-75q-17 -9 -46.5 -17t-65.5 -14t-75 -9t-75 -3q-31 0 -57 3.5t-45.5 14t-30.5 29t-11 49.5v8q0 1 -17.5 -7.5t-48 -21.5t-71 -28t-86.5 -28.5t-95 -22.5t-95 -9q-90 0 -146 23.5t-86.5 66t-41.5 101t-11 127.5v641h-176zM387 1429q0 43 30.5 74t79.5 31 q25 0 46.5 -8.5t36.5 -22.5t23.5 -33.5t8.5 -40.5q0 -46 -32 -77t-83 -31q-49 0 -79.5 31t-30.5 77zM778 1429q0 43 30.5 74t80.5 31q25 0 46 -8.5t36 -22.5t23.5 -33.5t8.5 -40.5q0 -46 -31.5 -77t-82.5 -31q-50 0 -80.5 31t-30.5 77z">
<glyph unicode="&#xfd;" horiz-adv-x="1265" d="M31 858q24 22 60 54t78 60.5t87 49t88 20.5q25 0 46.5 -10.5t29.5 -36.5q0 -2 13.5 -35t35.5 -86.5t50 -122t58 -141.5t59.5 -144.5t54 -130.5t42 -100.5t23.5 -54.5q34 63 71.5 139.5t68.5 155.5t51 154t20 135q0 53 -13 103t-39 94l132 65q35 16 57 16q19 0 31.5 -10 t19.5 -26t9.5 -34.5t2.5 -35.5q0 -59 -16.5 -133.5t-45 -157.5t-65 -171t-76 -172.5t-80 -162t-75.5 -139.5q-32 -56 -67.5 -114t-77 -113t-90 -103.5t-105 -85t-123.5 -57.5t-145 -21q-15 0 -42 2t-52.5 8t-44.5 17.5t-19 30.5q0 5 1 8t3 8l55 148q75 -22 130.5 -39 t103.5 -17q42 0 85 26.5t81.5 65.5t69.5 84.5t51 83.5l-404 926l-151 -67zM561 1234q0 12 6.5 27.5t14.5 29.5l139 246h147q10 0 21.5 -2t21 -7t15.5 -13.5t6 -22.5q0 -25 -35 -55q-9 -9 -24 -23.5t-32.5 -32.5t-36.5 -38t-38 -39q-44 -46 -94 -97h-72q-22 0 -30.5 8 t-8.5 19z">
<glyph unicode="&#xfe;" horiz-adv-x="1328" d="M10 1419v76q21 9 59 17t83.5 13t93 8t86.5 3q21 0 37 -1t27 -6t16.5 -15.5t5.5 -30.5v-551q37 24 80 46.5t89 39.5t93.5 27t93.5 10q114 0 196.5 -41.5t135 -112.5t77.5 -166t25 -203q0 -123 -40.5 -226t-114.5 -178t-177 -117t-227 -42q-62 0 -120.5 8.5t-110.5 20.5 v-172q0 -107 9 -171.5t15 -96.5q0 -2 1 -3.5t1 -3.5t1 -4t1 -4v-4q-14 -8 -31.5 -14t-37 -10t-39 -6.5t-35.5 -2.5q-51 0 -84 22.5t-33 78.5v1812h-176zM418 113q0 -1 20 -6t51.5 -11t71.5 -11t80 -5q81 0 140.5 32t99.5 92t59.5 147t19.5 198q0 86 -11.5 157t-37.5 121.5 t-68.5 78.5t-103.5 28q-83 0 -165 -29t-156 -69v-723z">
<glyph unicode="&#xff;" horiz-adv-x="1265" d="M31 858q24 22 60 54t78 60.5t87 49t88 20.5q25 0 46.5 -10.5t29.5 -36.5q0 -2 13.5 -35t35.5 -86.5t50 -122t58 -141.5t59.5 -144.5t54 -130.5t42 -100.5t23.5 -54.5q34 63 71.5 139.5t68.5 155.5t51 154t20 135q0 53 -13 103t-39 94l132 65q35 16 57 16q19 0 31.5 -10 t19.5 -26t9.5 -34.5t2.5 -35.5q0 -59 -16.5 -133.5t-45 -157.5t-65 -171t-76 -172.5t-80 -162t-75.5 -139.5q-32 -56 -67.5 -114t-77 -113t-90 -103.5t-105 -85t-123.5 -57.5t-145 -21q-15 0 -42 2t-52.5 8t-44.5 17.5t-19 30.5q0 5 1 8t3 8l55 148q75 -22 130.5 -39 t103.5 -17q42 0 85 26.5t81.5 65.5t69.5 84.5t51 83.5l-404 926l-151 -67zM375 1429q0 43 30.5 74t79.5 31q25 0 46.5 -8.5t36.5 -22.5t23.5 -33.5t8.5 -40.5q0 -46 -32 -77t-83 -31q-49 0 -79.5 31t-30.5 77zM766 1429q0 43 30.5 74t80.5 31q25 0 46 -8.5t36 -22.5 t23.5 -33.5t8.5 -40.5q0 -46 -31.5 -77t-82.5 -31q-50 0 -80.5 31t-30.5 77z">
<glyph unicode="&#x152;" horiz-adv-x="2239" d="M132 705q0 165 45 302t129.5 235.5t206 153t274.5 54.5q127 0 231.5 -37.5t184.5 -105.5v92q91 11 207 17.5t238 6.5q45 0 99 -1t108.5 -4.5t105 -10t90 -17t63 -27t23.5 -38.5q0 -10 -12.5 -36.5t-28.5 -55t-31 -52.5t-20 -30q-41 33 -101 59q-51 23 -127 41.5 t-178 18.5h-200v-469h487v-49q0 -53 -22.5 -73t-71.5 -20h-393v-518h159q131 0 260.5 18t254.5 60q5 -13 9 -27q3 -12 6 -28t3 -33q0 -54 -18 -83.5t-66 -42.5t-131.5 -15t-214.5 -2q-65 0 -130 1t-121.5 2.5t-100.5 4t-68 4.5q-46 5 -62 24t-16 62v18q-80 -69 -184.5 -106 t-231.5 -37q-153 0 -274.5 54t-206 152.5t-129.5 235.5t-45 302zM392 705q0 -135 21 -248.5t68 -195.5t122 -127.5t184 -45.5q108 0 186 46t128.5 128t75 195t24.5 248q0 127 -24 239.5t-74 196.5t-128.5 133t-187.5 49t-184 -50.5t-122 -135.5t-68 -197t-21 -235z">
<glyph unicode="&#x153;" horiz-adv-x="1928" d="M118 510q0 123 40 223.5t109 172t162 110.5t199 39q134 0 229.5 -48t155.5 -135q71 85 173.5 134t227.5 49q91 0 162.5 -32t121 -86t75.5 -125t26 -148q0 -36 -5.5 -72t-22.5 -65t-48 -47.5t-82 -18.5l-516 2q9 -90 44 -159.5t89.5 -117t126.5 -72t156 -24.5 q56 0 116.5 10.5t123.5 32.5l32 -67q-43 -29 -91.5 -48.5t-100.5 -32.5t-105 -18.5t-104 -5.5q-116 0 -221.5 44t-179.5 134q-60 -83 -154.5 -130.5t-228.5 -47.5q-106 0 -199 40t-162 113t-109 173.5t-40 222.5zM365 512q0 -85 11.5 -165t41 -142t80.5 -99.5t130 -37.5 q81 0 132 37.5t79.5 99.5t38.5 142t10 165q0 50 -4 102t-14 100.5t-28.5 91t-47 74t-69.5 50t-97 18.5q-79 0 -130 -36t-80.5 -96.5t-41 -139.5t-11.5 -164zM1123 584h436q5 20 7 40t2 42q0 49 -13.5 98.5t-40 89.5t-65 65t-88.5 25q-66 0 -110 -29.5t-71 -79t-40 -115 t-17 -136.5z">
<glyph unicode="&#x2c6;" horiz-adv-x="774" d="M61 1274q0 15 13 33l217 266h192l217 -266q13 -16 13 -33q0 -13 -11 -22t-38 -9h-50l-225 184l-229 -184h-49q-28 0 -39 9t-11 22z">
<glyph unicode="&#x2dc;" horiz-adv-x="1198" d="M205 1331q39 45 72 77.5t63 53.5t58 31t57 10q54 0 98.5 -19t83 -42.5t72 -42.5t65.5 -19q22 0 37.5 13t29.5 29t29 29t37 13q17 0 32.5 -8t27.5 -17q14 -11 26 -24q-78 -91 -134.5 -132.5t-106.5 -41.5q-55 0 -98 19.5t-80.5 43t-73.5 43t-76 19.5q-23 0 -38.5 -13 t-29 -29t-28.5 -29t-37 -13q-17 0 -32.5 7.5t-27.5 16.5q-14 11 -26 25z">
<glyph unicode="&#x2000;" horiz-adv-x="992">
<glyph unicode="&#x2001;" horiz-adv-x="1984">
<glyph unicode="&#x2002;" horiz-adv-x="992">
<glyph unicode="&#x2003;" horiz-adv-x="1984">
<glyph unicode="&#x2004;" horiz-adv-x="661">
<glyph unicode="&#x2005;" horiz-adv-x="496">
<glyph unicode="&#x2006;" horiz-adv-x="330">
<glyph unicode="&#x2007;" horiz-adv-x="330">
<glyph unicode="&#x2008;" horiz-adv-x="248">
<glyph unicode="&#x2009;" horiz-adv-x="396">
<glyph unicode="&#x200a;" horiz-adv-x="110">
<glyph unicode="&#x2010;" horiz-adv-x="923" d="M168 551v63q0 45 19.5 61.5t62.5 16.5h506v-61q0 -45 -19 -62.5t-63 -17.5h-506z">
<glyph unicode="&#x2011;" horiz-adv-x="923" d="M168 551v63q0 45 19.5 61.5t62.5 16.5h506v-61q0 -45 -19 -62.5t-63 -17.5h-506z">
<glyph unicode="&#x2012;" horiz-adv-x="923" d="M168 551v63q0 45 19.5 61.5t62.5 16.5h506v-61q0 -45 -19 -62.5t-63 -17.5h-506z">
<glyph unicode="&#x2013;" horiz-adv-x="1263" d="M168 551v63q0 45 19.5 61.5t62.5 16.5h846v-61q0 -45 -19 -62.5t-63 -17.5h-846z">
<glyph unicode="&#x2014;" horiz-adv-x="1771" d="M168 551v63q0 45 19.5 61.5t62.5 16.5h1354v-61q0 -45 -19 -62.5t-63 -17.5h-1354z">
<glyph unicode="&#x2018;" horiz-adv-x="574" d="M139 1167q0 50 12.5 105t40 105.5t70.5 91.5t105 63q8 4 18 4q9 0 17 -6t8 -25v-55q-24 -15 -46.5 -37t-40 -49t-28 -58.5t-10.5 -64.5q2 2 5.5 2h6.5q32 0 59 -11t46 -29.5t29.5 -44.5t10.5 -56q0 -29 -10.5 -53.5t-29.5 -43.5t-46 -29.5t-59 -10.5q-33 0 -59 10.5 t-44.5 29.5t-30.5 43.5t-18 53.5q-6 30 -6 65z">
<glyph unicode="&#x2019;" horiz-adv-x="566" d="M143 1399q0 28 10.5 53t30 44t46.5 29.5t59 10.5q33 0 58.5 -10.5t44.5 -29.5t31 -44t17 -53q6 -32 6 -66q0 -50 -12.5 -105t-39.5 -105t-70.5 -91t-104.5 -63q-8 -4 -18 -4t-17.5 6t-7.5 24v56q24 15 46.5 37t40 49t28 58.5t10.5 64.5q-2 -2 -5.5 -2.5t-6.5 -0.5 q-32 0 -59 11t-46.5 30t-30 45t-10.5 56z">
<glyph unicode="&#x201a;" horiz-adv-x="599" d="M150 102q0 28 10.5 53.5t30 44t46.5 29.5t59 11q33 0 58.5 -11t44.5 -29.5t31 -44t17 -53.5q6 -30 6 -65q0 -50 -12.5 -105t-39.5 -105t-70.5 -91.5t-104.5 -63.5q-8 -4 -18 -4t-17.5 6t-7.5 25v55q24 15 43.5 37.5t35.5 50t27.5 58.5t18.5 63q-2 -2 -5.5 -2h-6.5 q-32 0 -59 11t-46.5 30t-30 44.5t-10.5 55.5z">
<glyph unicode="&#x201c;" horiz-adv-x="990" d="M139 1167q0 50 12.5 105t40 105.5t70.5 91.5t105 63q8 4 18 4q9 0 17 -6t8 -25v-55q-24 -15 -46.5 -37t-40 -49t-28 -58.5t-10.5 -64.5q2 2 5.5 2h6.5q32 0 59 -11t46 -29.5t29.5 -44.5t10.5 -56q0 -29 -10.5 -53.5t-29.5 -43.5t-46 -29.5t-59 -10.5q-33 0 -59 10.5 t-44.5 29.5t-30.5 43.5t-18 53.5q-6 30 -6 65zM557 1167q0 50 12.5 105t40 105.5t70.5 91.5t104 63q4 2 8.5 3t10.5 1q9 0 16.5 -6t7.5 -25v-55q-24 -15 -46 -37t-39.5 -49t-28 -58.5t-10.5 -64.5q2 2 5.5 2h6.5q32 0 59 -11t46 -29.5t29.5 -44.5t10.5 -56 q0 -29 -10.5 -53.5t-29.5 -43.5t-46 -29.5t-59 -10.5q-33 0 -59 10.5t-44.5 29.5t-30.5 43.5t-18 53.5q-6 30 -6 65z">
<glyph unicode="&#x201d;" horiz-adv-x="984" d="M143 1399q0 28 10.5 53t30 44t46.5 29.5t59 10.5q33 0 58.5 -10.5t44.5 -29.5t31 -44t17 -53q6 -32 6 -66q0 -50 -12.5 -105t-39.5 -105t-70.5 -91t-104.5 -63q-8 -4 -18 -4t-17.5 6t-7.5 24v56q24 15 46.5 37t40 49t28 58.5t10.5 64.5q-2 -2 -5.5 -2.5t-6.5 -0.5 q-32 0 -59 11t-46.5 30t-30 45t-10.5 56zM561 1399q0 28 10.5 53t30 44t46.5 29.5t59 10.5q33 0 58.5 -10.5t44.5 -29.5t31 -44t17 -53q6 -32 6 -66q0 -50 -12.5 -105t-39.5 -105t-70.5 -91t-104.5 -63q-8 -4 -19 -4q-9 0 -16.5 6t-7.5 24v56q24 15 46.5 37t40 49t28 58.5 t10.5 64.5q-2 -2 -5.5 -2.5t-6.5 -0.5q-32 0 -59 11t-46.5 30t-30 45t-10.5 56z">
<glyph unicode="&#x201e;" horiz-adv-x="1018" d="M150 102q0 28 10.5 53.5t30 44t46.5 29.5t59 11q33 0 58.5 -11t44.5 -29.5t31 -44t17 -53.5q6 -30 6 -65q0 -50 -12.5 -105t-39.5 -105t-70.5 -91.5t-104.5 -63.5q-8 -4 -18 -4t-17.5 6t-7.5 25v55q24 15 46.5 37t40 49t28 58.5t10.5 64.5q-2 -2 -5.5 -2h-6.5 q-32 0 -59 11t-46.5 30t-30 44.5t-10.5 55.5zM570 102q0 28 10.5 53.5t29.5 44t46 29.5t59 11q33 0 59 -11t45 -29.5t31 -44t17 -53.5q6 -30 6 -65q0 -50 -12.5 -105t-39.5 -105t-70.5 -91.5t-104.5 -63.5q-8 -4 -19 -4q-9 0 -16.5 6t-7.5 25v55q24 15 46.5 37t40 49 t28 58.5t10.5 64.5q-2 -2 -5.5 -2h-7.5q-32 0 -59 11t-46 30t-29.5 44.5t-10.5 55.5z">
<glyph unicode="&#x2022;" horiz-adv-x="717" d="M151 571q0 43 16 81t44 66.5t66 45t81 16.5t81 -16.5t66.5 -45t45 -66.5t16.5 -81t-16.5 -80.5t-45 -65.5t-66.5 -44t-81 -16t-81 16t-66 44t-44 65.5t-16 80.5z">
<glyph unicode="&#x202f;" horiz-adv-x="396">
<glyph unicode="&#x2039;" horiz-adv-x="656" d="M112 496v116l348 361q9 -7 16 -16q6 -8 11.5 -19.5t5.5 -26.5q0 -11 -4.5 -24t-12.5 -27l-157 -301v-10l157 -301q8 -16 12.5 -28t4.5 -23q0 -16 -5.5 -27t-11.5 -19q-7 -9 -16 -16z">
<glyph unicode="&#x203a;" horiz-adv-x="656" d="M163 197q0 11 3.5 23t13.5 28l157 301v10l-157 301q-17 32 -17 51q0 15 5 26.5t11 19.5q7 9 17 16l348 -361v-116l-348 -361q-10 7 -17 16q-6 8 -11 19t-5 27z">
<glyph unicode="&#x205f;" horiz-adv-x="496">
<glyph unicode="&#x20ac;" horiz-adv-x="1527" d="M73 471l15 80q4 20 11 29t17.5 12t25 2.5t32.5 -0.5h121q-2 25 -3 51t-1 53v50h-177l15 79q4 20 11 29.5t17.5 12.5t25 2t32.5 -1h90q23 138 81 245.5t143 182t193 113.5t232 39q79 0 157.5 -11t141.5 -32t102 -52.5t39 -72.5q0 -32 -30 -72l-78 -100q-33 34 -72.5 68 t-85.5 61t-100 44t-115 17q-82 0 -143 -35.5t-103.5 -95t-68 -137t-37.5 -162.5h559l-14 -79q-4 -20 -14 -29.5t-24.5 -12.5t-32 -2t-36.5 1h-448v-50q0 -27 1.5 -53t6.5 -51h520l-14 -80q-4 -20 -14 -29t-24.5 -12t-32 -2.5t-36.5 0.5h-373q25 -78 65.5 -143t97.5 -112.5 t130 -74t162 -26.5q63 0 125.5 13t113.5 29q59 18 113 42l41 -78q-49 -44 -105 -74.5t-115.5 -49.5t-122 -27.5t-124.5 -8.5q-128 0 -235 34.5t-190.5 100t-140.5 160.5t-85 215h-242z">
<glyph unicode="&#xe000;" horiz-adv-x="1045" d="M0 0v1045h1045v-1045h-1045z">
</font>
</defs>
</svg>
