<?xml version="1.0" standalone="no"?>
<!DOCTYPE svg PUBLIC "-//W3C//DTD SVG 1.1//EN" "http://www.w3.org/Graphics/SVG/1.1/DTD/svg11.dtd">
<svg xmlns="http://www.w3.org/2000/svg">
<metadata></metadata>
<defs>
<font id="im_fell_double_picaregular" horiz-adv-x="1301">
<font-face units-per-em="2048" ascent="1638" descent="-410">
<missing-glyph horiz-adv-x="431">
<glyph unicode="&#xfb01;" horiz-adv-x="1127" d="M964 0h-74h-74q-2 0 -9.5 -1t-15.5 -2.5t-15.5 -2.5t-8.5 -1q-4 0 -13.5 3.5t-11.5 3.5q-5 0 -14.5 -0.5t-20.5 -1t-20.5 -1t-13.5 -0.5q-6 2 -19 10.5t-13 19.5q0 8 2.5 14t6.5 11q9 10 23 9.5t29 5.5q7 4 19 7.5t23.5 7t20 8.5t9.5 11q3 12 5.5 29t4.5 35t3 36t1 33v16 q-1 3 -1.5 14.5t-0.5 24v23v12.5q0 3 -0.5 17.5t-0.5 33.5t-0.5 39t-0.5 33q0 8 0.5 28t0.5 41.5t0.5 41t0.5 27.5q5 16 6 34t1 33q0 17 -4 37.5t-11 39t-17.5 31.5t-23.5 14q-20 2 -37 3.5t-33 2t-32.5 0.5h-35.5h-62q-6 -1 -23 -3t-36.5 -4t-36.5 -3.5t-23 -1.5 q-13 -5 -21 -15.5t-8 -21.5q0 -2 -1.5 -6t-3.5 -8q-3 -4 -5 -10q1 -3 2 -16t2 -28t2 -28.5t1 -16.5v-74v-188q0 -3 1 -12t1.5 -19t1.5 -19t1 -12v-104q0 -5 1 -18t2.5 -27t2.5 -26t1 -15q2 -17 15.5 -23.5t31 -10t35.5 -6.5t30 -12q5 -4 6 -8t1 -9v-18q0 -9 -4 -13t-10.5 -5 t-14.5 -1t-15 -1q-2 0 -9 -3.5t-9 -3.5q-1 0 -6 1t-10 2.5t-10 2.5t-6 1q-30 2 -60.5 3.5t-60.5 1.5q-37 0 -67.5 -2.5t-65.5 -2.5h-57q-13 2 -23 8t-10 20q0 9 7.5 16.5t18.5 12.5q16 7 37 9.5t40 5t31.5 7.5t12.5 18v114v73q0 14 -1.5 28.5t-1.5 31.5v81v13q-1 1 -2 7.5 t-1.5 14t-1 14t-0.5 8.5q-2 2 -2 10.5v19.5t0.5 24t0.5 25t0.5 21t0.5 12q-1 4 -2.5 17t-2.5 28.5t-2 30.5t-1 23q-3 17 -16 29t-38 12h-8t-9 -2h-8q-3 -2 -8.5 -2h-12.5h-16q-11 0 -22.5 0.5t-20.5 3t-15 9t-6 18.5q0 16 6.5 23.5t17 11t23 5.5t23.5 7q3 1 12.5 5.5 t13.5 5.5q5 4 16.5 9t24.5 9.5t24 9.5t14 9q0 6 0.5 22t1 34t1.5 34.5t2 22.5q0 4 -1 9.5t-1 10.5q0 11 5 19q-2 8 -2 18v19q0 40 6.5 82.5t20.5 80.5q1 4 4 11.5l6 15t7 15t7 11.5q6 10 9.5 16.5l7 13t8 14t12.5 18.5q1 2 5.5 7t5.5 7q24 21 48.5 43t51.5 38q15 8 28 13 t29 12q2 1 11.5 5.5t13.5 6.5q3 2 11 7t17 10t17 9.5t10 4.5q2 1 8.5 2t14 2t14 2t7.5 1q2 1 7.5 3t12 4t12 3.5t7.5 1.5q20 5 39.5 6t39.5 1h33q29 0 56 -2t52 -9t47 -21t42 -37q2 -2 4 -6.5t2 -7.5q1 -3 2.5 -12t4 -20t4.5 -21.5t3 -15.5v-10v-8q-22 -43 -49 -62t-75 -19 q-9 0 -26 4.5t-36 11t-36.5 14.5t-26.5 14q-2 2 -3 4l-3 3q-9 13 -12 17.5t-14 12.5q-2 2 -10.5 8.5t-19.5 14.5t-21.5 15.5t-15.5 11.5q-4 2 -11 8t-9 6t-3.5 1t-3.5 2q-3 1 -5 2l-82 -2q-22 0 -36.5 -15.5t-19.5 -33.5q0 -2 -4 -13.5t-8.5 -25t-8 -25.5t-4.5 -15 q0 -2 -0.5 -9.5t-1.5 -16.5t-2 -17t-2 -12q0 -2 -2.5 -8t-5.5 -14t-5.5 -17t-2.5 -16q0 -8 -2.5 -13.5t-3.5 -7.5q0 -2 -1 -11t-2.5 -19.5t-3.5 -19.5t-3 -12v-33q0 -45 4 -91.5t9 -91.5q2 -7 18 -9.5t24 -2.5h2q4 1 19 4t19 3h10t21 0.5t24 0.5h19h19.5t25 -0.5t21.5 -0.5 h10t6.5 -0.5t11.5 -0.5t11.5 -0.5t7.5 -0.5h17h15q0 1 4.5 2t9.5 2l10 2t6 1q26 8 50 13t49 22q18 7 32 15.5t27 16t26 13t29 5.5q13 0 18 -4t6 -11t1 -16t4 -19q0 -6 0.5 -23.5t1 -37t1 -36.5t0.5 -24q0 -11 -0.5 -30.5l-1 -39t-1 -34.5t-0.5 -17q0 -4 -1.5 -18.5t-3.5 -31 t-4 -31t-3 -18.5v-24v-55v-172v-42q0 -17 -2.5 -37.5t-2.5 -40.5v-22v-10v-29q0 -15 2 -29.5t10 -19.5l15 -10q2 1 7.5 -1.5t12.5 -5.5t13 -5.5t9 -2.5q26 0 43 -8t17 -37q0 -8 -7 -12.5t-17 -6.5t-20.5 -2.5t-17.5 -0.5q-26 0 -50 10z">
<glyph unicode="&#xfb02;" horiz-adv-x="1063" d="M415 840q2 0 12.5 -1t12.5 -1q4 -1 17 -2t27.5 -2t26.5 -1.5t15 -0.5q2 0 14.5 0.5t14.5 0.5h57h30h42h2q3 1 9.5 3.5t14.5 5.5l18 8q1 1 2 5t2 9t1.5 10t0.5 8v141q0 4 1 18.5t2.5 31t2.5 31t1 18.5t-1.5 19.5t-1.5 19.5q0 5 -1 18t-2.5 28t-3.5 28t-3 18q0 3 -2 7.5 t-3 6.5q-20 29 -41 53t-45 41.5t-53.5 27.5t-65.5 10l-49 -8q-42 -19 -68 -50.5t-36 -73.5v-188q0 -3 -1 -14t-1.5 -24t-1.5 -25t-1 -18q0 -2 1.5 -9.5t3.5 -9.5q0 -4 0.5 -20.5t2.5 -29.5q-1 -3 -1.5 -12.5t-1 -21.5t-0.5 -23v-15q2 -8 7 -13.5t18 -5.5q2 0 10.5 1t14.5 1z M67 24q0 10 15 18q12 8 27.5 10t35.5 7q14 4 29.5 6t17.5 13v13t1 29.5t1.5 34t2.5 26.5v27v99v29v15.5t1 16.5q0 1 0.5 7.5t1.5 15t1.5 16.5t0.5 13q-1 9 -2 16.5t-1.5 17t-1 23t-0.5 34.5q0 38 0.5 74t0.5 77q0 6 -0.5 18t-2.5 23.5t-6.5 20t-13.5 8.5l-106 -8 q-2 0 -10.5 1.5t-13.5 3.5q-5 5 -5.5 9.5t-0.5 9.5q0 10 10.5 16.5t12.5 8.5q8 5 16.5 9t19.5 9q16 5 30 7t25.5 6.5t20 14t14.5 29.5l4 37q0 8 1 25t2 35t2 33t1 20q3 34 8.5 62t12.5 62q8 47 13.5 84t16 69.5t31 61.5t58.5 61q12 9 32 21.5t43 24t46 21t43 13.5q13 3 31 4 t32 1h15q39 -5 79 -9.5t77 -18.5q20 -8 32.5 -17t23 -16.5t21.5 -13t29 -5.5q7 0 15 6t15 12.5t13.5 12.5t11.5 6q4 0 8 -7.5t6.5 -16.5t4 -18t1.5 -12v-119q0 -4 -1 -18.5t-2 -31.5t-2 -32t-1 -19l-7 -262q-2 -5 -2 -10.5v-11.5q0 -11 1 -23.5t1 -25.5q0 -19 1 -36t1 -33 v-90v-9.5t0.5 -16.5t0.5 -18v-13v-9t-0.5 -16l-1 -18t-1.5 -13q0 -2 1 -17t1 -27q0 -11 -1 -37.5t-2 -56t-2 -56t-2 -36.5v-25v-12v-35t-0.5 -28t-0.5 -25.5v-27.5v-59.5t8 -52.5q5 -12 21.5 -13.5t34.5 -1.5t33 -3.5t16 -18.5q0 -4 2 -5q1 -7 -8 -16.5t-10 -10.5h-17 q-9 -2 -17.5 -3t-14.5 -1h-35q-55 4 -109.5 5t-109.5 4q-11 0 -11.5 -1.5t-11.5 -3.5q-2 0 -6.5 -1t-10.5 -1.5t-11.5 -1.5t-7.5 -1q-14 0 -28 4t-14 21q0 15 9 21.5t23.5 9.5t32.5 5t36 8q4 2 17.5 5.5t17.5 7.5q2 2 4 10.5t2 12.5q3 44 5 83t3 76.5t1.5 76.5t0.5 84 q0 16 -0.5 42t-0.5 51t-0.5 43.5t-0.5 19.5q0 6 -1 23t-2.5 36t-2.5 36t-1 24q2 34 -10.5 47.5t-46.5 13.5h-72h-37h-165q-4 0 -13.5 -2.5t-11.5 -4.5q-5 -1 -9 -3q-9 -4 -9 -9v-149q4 -11 4.5 -18t0.5 -26q-1 -4 -2 -19t-1.5 -32.5t-1 -33t-0.5 -19.5q0 -3 -0.5 -24.5 t-1.5 -49t-1.5 -55.5t-0.5 -46v-69q0 -28 0.5 -55t4.5 -42q1 -4 5 -8.5t9.5 -9.5t11 -9t8.5 -7q3 0 10 -0.5t15 -1.5t15 -2.5t10 -2.5q13 -1 22 -3.5t9 -16.5q0 -11 -3 -23t-16 -12h-55h-14q-1 0 -9 -2.5t-9 -2.5l-81 12q-11 -2 -21 -2h-21h-45q-2 0 -8.5 -1t-14.5 -1.5 t-14.5 -1.5t-8.5 -1q-8 0 -21 -1.5t-27 -1.5q-17 0 -29 5t-12 22z">
<glyph unicode="&#xfb03;" horiz-adv-x="1651" d="M420 825q67 -4 131.5 -0.5t131.5 -2.5h13q9 0 24 0.5t20 5.5q3 3 4 9t2 12.5t1 13v9.5q0 19 2.5 39t2.5 40q0 15 0.5 26t1 21.5t2 22t4.5 27.5q4 28 12 59t18 57v4q0 17 -1.5 38.5t-11.5 38.5q-24 21 -42 45.5t-37.5 45.5t-44 34.5t-61.5 13.5h-20q-15 0 -23 -2t-27 -9 q-2 0 -7.5 -4t-12 -9t-12 -9.5t-7.5 -4.5q-5 -3 -13.5 -19t-17.5 -36t-15.5 -38.5t-7.5 -26.5q0 -4 -3 -20t-6 -34.5t-6 -35t-3 -20.5q-7 -33 -11 -67t-4 -68v-27q0 -16 1 -36.5t3.5 -40t7 -34t12.5 -18.5zM1131 17q0 4 2 12t9 15q12 10 33.5 14.5t43.5 8.5l22.5 4.5t23.5 6 t18.5 7t7.5 7.5q1 3 3 18.5t3.5 33.5t2.5 34.5t1 21.5q3 45 3 92q0 31 -0.5 62t-0.5 63q0 16 1.5 27.5t1.5 24.5q0 6 -0.5 13t-2.5 15v96q0 20 -1 41.5t-1 40.5v7q0 13 -3 29t-17 21q-15 2 -33 3.5t-36.5 2t-36 0.5h-30.5h-91h-102q-7 -2 -13 -6.5t-6 -12.5l-5 -218 q0 -20 2.5 -39t2.5 -39q0 -15 1 -31t1 -31l-2 -175q2 -2 4.5 -11.5t2.5 -13.5v-74q2 -19 19.5 -25.5t39.5 -6.5q10 0 19 1t18 3q10 1 16.5 -7.5t6.5 -21.5q0 -12 -7.5 -19t-18.5 -10t-23 -3.5t-20 -0.5q-60 0 -119 2.5t-116 2.5q-30 0 -56.5 -3.5t-54.5 -3.5h-28 q-11 2 -12.5 9.5t-1.5 15.5q0 11 3.5 18t11.5 9q16 2 36.5 4t39.5 4q17 3 37 9t25 18v36v322q0 11 -6 23.5t-6 25.5q3 2 5 9.5t2 8.5v7v5q0 3 -1 10.5t-2.5 16t-2.5 15.5t-1 9q0 7 0.5 26.5t1.5 42t1.5 42.5t0.5 26q-4 6 -13.5 10t-21.5 6t-23.5 2.5t-19.5 0.5h-16h-7 q-2 0 -13 -3.5t-12 -3.5h-51h-30h-2h-5h-99h-15h-15q-13 -22 -21.5 -47t-8.5 -50q0 -20 0.5 -38.5t0.5 -35.5q-1 -26 -3 -51.5t-2 -51.5v-76t2 -75v-210q6 -11 18 -14.5t26 -4.5t28.5 -1t26.5 -3.5t19.5 -12.5t7.5 -28q0 -11 -5.5 -16.5t-14.5 -8t-19.5 -3t-19.5 -0.5 q-6 0 -21.5 2t-33 4.5t-33 4.5t-21.5 2q-8 -5 -16.5 -6.5t-17.5 -1.5q-8 0 -15 0.5t-13 0.5h-7q-5 0 -23.5 -1.5t-39.5 -4t-39.5 -4t-23.5 -1.5h-13q-6 0 -15.5 0.5t-18.5 2.5t-15.5 6.5t-6.5 13.5q0 8 3.5 9.5t10.5 9.5q10 12 25.5 15.5t31.5 4.5t29.5 3.5t20.5 13.5 q5 7 6.5 19t1.5 25.5t-0.5 27.5t-0.5 27v43q0 13 0.5 25t2.5 22v456q0 8 -8 9.5t-12 1.5q-19 0 -44 -5.5t-45 -5.5q-24 0 -38 7t-14 31q0 2 4 6q2 2 4 3q1 3 4 6l4.5 4.5t5.5 4.5q2 0 6 3.5t6 3.5q2 1 9.5 5.5t10.5 4.5q2 0 9 1.5t9 1.5q13 2 29.5 5t31.5 10.5t26 22 t11 39.5q0 14 6.5 26t6.5 25q0 25 2 51.5t10 50.5q1 2 1.5 10.5t1 19t1 20t1.5 12.5q0 1 3 8t6 15t6 15.5t3 8.5q2 21 11.5 46.5t24.5 51.5t34 51t40 45q2 1 6.5 7t10 12.5t10 12t6.5 6.5q2 2 8.5 6.5t14 10t13.5 9.5l6 4q12 12 24.5 19.5t25 13.5t25.5 11.5t26 13.5 q2 1 9.5 6t9.5 5q10 6 22 8t24 2.5t24 2t24 7.5q3 0 11.5 0.5t18 0.5t18 0.5t12.5 0.5q5 0 14.5 -0.5t19 -0.5t17 -0.5t8.5 -0.5q4 -1 20.5 -6.5t35.5 -12t35 -12t20 -7.5q3 -1 8.5 -2t11.5 -1.5t11 -1t7 -0.5l8 2q8 2 11 3q3 2 12.5 7t21 10t22 9.5t13.5 5.5l5.5 2t12 3.5 t12 3t7.5 1.5l3.5 1.5t8 3t8.5 3t5 2.5q4 0 13 0.5t18.5 0.5t18 0.5t12.5 0.5q6 0 17.5 -1t22.5 -1.5t19.5 -1.5t9.5 -1q2 0 7.5 -1.5t12.5 -3.5t13 -3.5t9 -2.5q1 0 4 -1l6 -2q4 -2 8 -3h6q21 0 45 6.5t44 11.5h3h3q7 -1 18 -4t13 -3q4 0 13.5 -3.5t20.5 -7.5t20.5 -8 t13.5 -6q13 -8 16 -24t3 -33v-30v-37q-8 -18 -22 -33t-32.5 -25.5t-39 -16.5t-39.5 -6t-37 4.5t-38 12.5q-12 8 -18.5 10.5t-17.5 16.5q0 1 -3.5 8.5t-7 16t-7 15.5l-4.5 9q-6 11 -9.5 17t-7.5 10t-10 7.5t-16 10.5q-13 8 -23 14t-20.5 9.5t-22.5 5t-28 1.5h-4 q-1 0 -6.5 -0.5t-11.5 -1.5t-11 -1.5t-6 -1.5q-1 0 -7.5 -2t-14 -4t-14 -4t-8.5 -3q-14 -3 -24.5 -12.5t-18 -22t-12 -26.5t-7.5 -27v-13v-37q0 -3 -1 -12t-1.5 -19t-1.5 -19t-1 -12q0 -6 -0.5 -25t-2 -44.5t-2.5 -54.5t-2.5 -54.5t-2 -45t-0.5 -25.5q0 -3 0.5 -16t1 -27.5 t1 -27.5t0.5 -16v-5q0 -11 5.5 -21.5t16.5 -10.5h15q7 0 20.5 0.5t27.5 1t25.5 1.5t14.5 2l3.5 1t8 2.5t8.5 2.5t5 1q2 0 15 -3.5t17 -3.5h2h3q2 0 8.5 1t14 2.5t13.5 2.5t8 1h3h3q2 0 9 -1t15.5 -2.5t16 -2.5t10.5 -1h3h7q3 0 15 1t26 2.5t25.5 2.5t13.5 1h32q4 0 11 2 l14 4t12.5 4t6.5 3q12 7 20.5 18t17 20.5t19 16.5t27.5 7q11 0 20.5 -13.5t9.5 -24.5v-69q0 -15 1 -28.5t1 -30.5q0 -26 -3 -49.5t-12 -46.5l-2 -218v-20v-123v-25v-168v-14.5t2.5 -13.5t7 -10t12.5 -4h15q15 0 39 -4t38 -6q6 -3 8.5 -5t3.5 -5t1 -7t1 -10q4 -14 -6.5 -22 t-29 -12t-40 -5t-37.5 -1h-25q-3 0 -10.5 1t-16.5 2t-17.5 2t-12.5 1h-94q-13 0 -43.5 -2.5t-60.5 -2.5q-19 0 -35.5 2t-26.5 7q-16 7 -16 20z">
<glyph unicode="&#xfb04;" horiz-adv-x="1533" d="M869 840q3 -6 15.5 -9.5t27.5 -5.5t29.5 -3t21.5 -2h7h5q2 0 12.5 3.5t12.5 3.5h106q2 0 10.5 1t18.5 2t19 2t12 1q7 0 15 3t11 9q2 3 4 13t4 22t3.5 22.5t1.5 14.5q0 6 1 12q0 5 0.5 10t0.5 9q0 25 -2 42t-2 40v5q0 1 0.5 9t0.5 19t0.5 22t0.5 19q0 5 -1 9t-2 6 q0 8 -1 23.5t-1 35.5t-1 37t-1 25q0 16 -5 34.5t-14.5 35t-23.5 29.5t-32 18q-29 11 -52.5 16t-55.5 5q-67 0 -98.5 -26.5t-40.5 -93.5q-2 -9 -4.5 -26t-4.5 -34t-3.5 -30.5t-1.5 -15.5v-87v-65q0 -38 1 -77.5t6 -82.5zM377 815q0 -5 5 -6t10 -1h8q14 0 25.5 1t25.5 6h218 l19 12l1 6.5t2 15l2 17t1 13.5q3 64 3.5 129.5t8.5 130.5q4 23 9 41t5 41v24q-23 9 -38 26t-30.5 34.5t-35.5 31t-53 15.5q-39 3 -72 -11.5t-65 -38.5q-2 -2 -7 -6t-7 -6q-2 -3 -5.5 -15t-7 -26t-6 -28t-3.5 -20q-7 -40 -9 -80.5t-2.5 -81t-1.5 -81t-5 -79.5q-1 0 -2 -1 q-2 -2 -2 -3l4 -1q0 -3 0.5 -12t1 -19t1.5 -18t2 -10zM1282 7q-19 0 -50 -2.5t-64 -6t-64 -6t-50 -2.5q-8 0 -17.5 10t-9.5 18v4t2 3q8 3 10 9.5t10 9.5q26 8 57 11.5t57 11.5q13 3 17 12.5t12 33.5v28v71q0 2 1 13t2 23.5t2 24t1 14.5q0 1 0.5 10t0.5 21.5t0.5 25t0.5 19.5 q0 35 -1 70.5t-1 70.5q0 41 1 82t1 83v6q0 8 -0.5 18.5t-3.5 20.5t-8.5 17.5t-14.5 9.5q-26 5 -58 6t-58 1h-42h-84q-6 -2 -15.5 -3.5t-19.5 -4.5t-19 -7.5t-15 -10.5q0 -4 -1 -16t-2 -26.5t-1.5 -27t-0.5 -17.5v-165q0 -75 -0.5 -150t-0.5 -150v-38.5t-2 -37.5 q9 -26 28.5 -36t39.5 -16t35 -13.5t15 -28.5q-7 0 -12.5 -4t-11.5 -4q-51 1 -100 4.5t-100 5.5q-26 0 -44.5 0.5t-32.5 0.5q-21 0 -33.5 -0.5t-19 -1t-8.5 -1t-3 -0.5q-10 0 -22.5 1t-21.5 6q-6 2 -8.5 9t-2.5 9q0 4 3.5 9.5t11.5 9.5q9 4 21.5 6.5t24 4.5t20 3.5t11.5 3.5 q19 13 28 21t12 22.5t3 41.5t1 78v30v172q0 47 3 92t3 91q0 14 2 22t2 23v20q0 13 -2.5 31t-7.5 28q0 2 -2.5 4.5t-4.5 2.5h-180q-2 2 -12.5 4.5t-12.5 2.5h-7h-7q-1 -2 -8 -4t-15.5 -4.5t-16 -4t-10.5 -1.5q-8 -2 -19 -1.5t-16 -10.5q-1 -6 -2 -23t-1.5 -36t-1 -35.5 t-0.5 -22.5q-1 -2 -2 -5q-2 -6 -2 -9q0 -1 2 -5.5t2 -5.5q0 -6 0.5 -26t1 -42.5t1.5 -42t2 -25.5v-2v-5q-1 -2 -2 -12t-1.5 -22.5t-1 -23t-0.5 -13.5l-4 -1q0 -22 2.5 -44t2.5 -44q0 -25 -2.5 -49t-2.5 -47q0 -4 0.5 -8.5t3.5 -4.5q0 -5 0.5 -17.5t1.5 -26.5t3 -26t5 -16 q10 -15 21 -20.5t22.5 -7t22 -3.5t21.5 -9q4 -2 9.5 -3.5t9.5 -6.5q-4 -9 -12 -14t-17.5 -7.5t-20 -3t-19.5 -0.5h-116q-2 0 -8.5 -1t-14 -2.5t-14 -2.5t-7.5 -1h-74q-4 0 -16.5 -0.5t-27 -1t-27 -1t-16.5 -0.5q-2 1 -9.5 8.5l-9.5 9.5q-1 2 -1 5v9q0 13 10 20q6 4 18.5 5.5 t27.5 2.5t30 4t25 10q8 6 10.5 19t2.5 31v42q0 20 -2.5 40.5t-2.5 41.5q0 26 2.5 48t2.5 46v15q0 3 -1 13t-1 13q-1 5 -2 18.5t-1 28.5v35v10q0 22 -1 30t-1 17q0 4 1 7.5t1 14.5v156q0 11 -14 15.5t-23 4.5q-17 0 -36.5 -3t-39.5 -3h-43q-5 1 -6 4t-1 6v3v12q13 21 32.5 30 t39.5 13.5t37 8.5t25 17q12 19 18 35.5t9 36.5t4 47t3 67q1 13 1.5 20.5t1 13t0.5 11v14.5t2.5 20t2.5 14q0 8 4.5 23.5t10.5 33t12 32.5t9 23q0 2 2.5 7t3.5 5q0 2 6 12t13.5 22t14.5 22.5t8 12.5q18 32 37 46.5t34 22.5q1 0 6.5 4t11.5 9t11.5 9t5.5 5q4 1 14 8t12 8 q7 6 18.5 13.5t24.5 15t25 13.5t19 9q3 0 10 2t15.5 4t15.5 3.5t9 2.5q2 0 6 2.5t6 3.5q41 3 72.5 5t66.5 2q18 0 38 -1.5t36 -11.5q10 -5 17.5 -12.5t15 -14.5t16 -12t20.5 -5q37 0 81.5 21t95.5 44q15 7 43.5 12t60.5 5q17 0 36 -2.5t36 -7.5q17 -8 32 -14t32 -14 q2 0 10.5 2.5t12.5 3.5q2 0 9.5 4.5t15.5 10.5t15 10.5l7 4.5h14q4 1 9 -8t9.5 -22t7 -27.5t2.5 -26.5q0 -39 -6.5 -78t-6.5 -78q0 -51 1 -98t1 -97v-33q0 -13 0.5 -24.5t0.5 -24.5q0 -9 -0.5 -17.5t-2.5 -17.5l-2 -345v-18v-50t-1 -70.5t-2 -67.5t-2 -41v-65v-24v-131 q0 -13 1.5 -22t12.5 -21q10 -12 25 -16t29.5 -8t27 -10t17.5 -22l-2 -8q-1 -3 -1.5 -6t-1.5 -4q-7 -14 -12 -16.5t-20 -2.5h-19q-34 3 -70 11t-71 8z">
<glyph horiz-adv-x="2048">
<glyph horiz-adv-x="2048">
<glyph unicode="&#xd;" horiz-adv-x="403">
<glyph unicode=" "  horiz-adv-x="431">
<glyph unicode="&#x09;" horiz-adv-x="431">
<glyph unicode="&#xa0;" horiz-adv-x="431">
<glyph unicode="!" horiz-adv-x="582" d="M129 1270v27q1 3 3 6l2 4t1 3q5 24 8 41.5t8.5 32.5t16.5 28t34 28q11 7 18.5 11.5t14.5 7.5t15 4.5t20 1.5q19 0 35 -3.5t34 -9.5q4 -3 13 -12t18.5 -19t18.5 -19t12 -13q2 -3 5 -9.5t6 -13.5t5 -14t2 -11v-150q-15 -39 -17 -77t-6 -77q-3 -24 -9.5 -49t-11.5 -51v-50 q0 -6 -2.5 -27t-5.5 -45t-6 -44.5t-4 -24.5q-1 -13 -3.5 -44t-5.5 -66t-6 -65.5t-3 -42.5q-3 -13 -11 -29.5t-15 -28.5h-8q-13 0 -21 6t-13 15.5t-7.5 20.5t-3.5 21q-5 18 -7.5 38.5t-4 42t-3 42.5t-4.5 40q-10 45 -20 91t-19 93q0 4 -2 21t-3.5 35.5t-3.5 35t-2 21.5 q-3 17 -9.5 31t-9.5 29q0 3 -1.5 10.5t-2.5 16t-2 15.5t-1 9q0 1 -1 2q-2 2 -2 5q-2 3 -3 6q-9 23 -11.5 46t-7.5 47q0 2 -1.5 7.5t-4 11.5t-4 11.5t-1.5 7.5v22zM165 99q0 27 8 52.5t23 46t37.5 32.5t52.5 12q27 0 50 -9.5t40.5 -26.5t27.5 -40.5t10 -51.5t-11.5 -49.5 t-30.5 -35.5t-43.5 -21.5t-50.5 -7.5q-20 0 -40 8t-36 21.5t-26.5 31.5t-10.5 38z">
<glyph unicode="&#x22;" horiz-adv-x="902" d="M437 911q1 2 2 5q1 4 5 6q2 3 6.5 7.5t9 10t8.5 9.5t6 5t7.5 3.5t11.5 5.5l11 5.5t7 4.5q1 0 4.5 3.5l8 8t8 8.5t4.5 5q15 11 31.5 20.5t33 19.5t31.5 22t27 30q1 1 4.5 7.5t7.5 14.5t7.5 15.5t5.5 11.5q1 1 2.5 3.5t2.5 6.5t2 9q1 1 9.5 8.5t8.5 9.5q2 2 2 6.5v6.5 q0 17 -8.5 34.5t-23.5 28.5q-11 -2 -22.5 -3t-23.5 -1q-28 0 -50 10.5t-34 43.5q0 1 -2.5 9.5t-5.5 19.5t-6 22.5t-4 17.5v2v3q15 57 46.5 79t87.5 22q73 0 114.5 -38.5t67.5 -106.5l1.5 -6t4 -14.5t4.5 -16.5t3 -13v-2q0 -44 -14.5 -89.5t-39 -88t-56.5 -79.5t-66 -64 q-17 -15 -37 -23t-35 -25q-33 -5 -66 -15.5t-65 -10.5q-13 0 -26 6.5t-18 19.5zM52 911q1 2 2 5q1 4 5 6q2 3 6.5 7.5t9.5 10t9 9.5l5 5q2 1 7.5 3.5t11.5 5.5t11.5 5.5t6.5 4.5q1 0 4.5 3.5l8 8t8 8.5t4.5 5q15 11 31.5 20.5t33 19.5t32 22t26.5 30q1 1 4.5 7.5t8 14.5 t8 15.5t4.5 11.5q1 1 2.5 3.5t2.5 6.5t2 9q2 1 10 8.5t8 9.5q2 2 2 6.5v6.5q0 17 -8.5 34.5t-23.5 28.5q-11 -2 -22.5 -3t-22.5 -1q-28 0 -50.5 10.5t-33.5 43.5q-1 1 -3.5 9.5t-5.5 19.5t-6 22.5t-4 17.5v2v3q15 57 47 79t88 22q73 0 114 -38.5t67 -106.5l1.5 -6t4 -14.5 t4.5 -16.5t4 -13v-2q0 -44 -15 -89.5t-39.5 -88t-56.5 -79.5t-66 -64q-17 -15 -37 -23t-35 -25q-33 -5 -66 -15.5t-65 -10.5q-13 0 -26 6.5t-18 19.5z">
<glyph unicode="#" horiz-adv-x="1622" d="M768 148q7 17 12 31.5t12 33.5q5 14 9 26t9 23q3 6 4.5 13t5.5 16q3 9 4 12.5t2.5 6t3.5 6.5t6 13q5 14 7 19.5t4 16.5q2 6 4 14t5 19v20q-1 0 -3 1q-2 0 -3.5 0.5t-3.5 0.5q-11 -2 -45 -1t-83 -7l-92 6q-8 0 -14 -0.5t-15 -1.5t-23 -3t-38 -5q0 -8 -5.5 -12t-7.5 -13 l-4.5 -12t-2.5 -7.5t-2.5 -7.5t-5.5 -13q-3 -10 -4.5 -15.5t-3 -9l-3 -7t-4.5 -9.5q-8 -20 -11.5 -31t-6.5 -20t-6.5 -19t-9.5 -27q-5 -19 -10.5 -35t-9.5 -29q-8 -21 -12.5 -38t-12.5 -27q-11 -8 -21 -14.5t-28 -6.5q-20 0 -31 2t-19 14q-4 5 -5.5 11.5t-1.5 13.5q0 4 2 12 t4.5 16.5t5 15.5t3.5 10q4 10 6.5 17.5l5 15t6 17t9.5 25.5q2 4 4 13t4 17q3 11 5.5 18t4 13t4 11.5t5.5 14.5q1 2 3.5 8.5t5 14t5 13.5t3.5 8q1 4 6 15.5t5 18.5q0 1 -1 1q-5 2 -10 3t-7 1q-6 0 -12.5 -2t-14.5 -2t-13 1t-14 1q-20 0 -33 -1.5t-32 -1.5l-66 8 q-21 -4 -39 -4.5t-25 -0.5q-12 0 -24.5 1.5t-22.5 5t-16.5 11t-6.5 19.5q0 9 3.5 27t10 37t17.5 35t26 20q10 2 20.5 3t21.5 1q25 0 50.5 -2.5t48.5 -2.5t47 -2t45 -2q7 0 14.5 2.5t9.5 2.5q4 0 14 0.5t20.5 1t19 1t10.5 1.5q19 8 23.5 23t9.5 25l7.5 15t4.5 10.5t6.5 15 l13.5 28.5q3 7 6 11.5t4.5 8.5t2.5 9.5t1 16.5q-1 1 -1 2q-1 1 -1 3q-7 0 -10.5 0.5t-7 1.5t-8.5 2.5t-14 3.5q-8 -2 -12 -2h-12q-23 2 -39 3t-28.5 1.5t-22.5 0.5h-21q-66 -4 -102.5 -4.5t-41.5 -0.5q-26 0 -37.5 11t-11.5 28q0 7 7 26.5t16.5 40t20 37.5t17.5 20h26 l195 -1h47q16 0 26 1t26 5q2 0 8 1t12 1.5t11 1.5t6 1l2 2q3 3 3 7q12 18 20.5 35t16 35t14 38t13.5 46q3 20 9 42.5t8 26.5q8 8 9.5 17.5t4.5 18.5q6 18 9.5 35t8 32.5t11.5 29t19 24.5q9 8 18.5 9t28.5 1q15 0 23.5 -5.5t13 -13t6 -16t1.5 -14.5t-2 -16t-4.5 -20 t-4.5 -18.5t-2 -11.5q-4 -18 -7.5 -28.5t-6.5 -18t-4.5 -14t-2.5 -14.5q0 -3 -2.5 -13l-5.5 -22t-5.5 -23t-2.5 -16q-6 -26 -13 -42.5t-13.5 -29.5t-12 -25t-8.5 -29l132 -9h76q33 0 70.5 3.5t58.5 18.5q0 1 6 18.5t13 39.5t12.5 41t4.5 22l11 32q5 13 9.5 23.5t10.5 33.5 t13.5 41t15.5 34l15.5 31t14.5 32q15 3 25 3q16 0 25 -1t17 -5q14 -8 17.5 -15.5t4.5 -20.5q0 -4 -3.5 -14.5t-7.5 -21.5t-7.5 -20.5t-3.5 -10.5q0 -6 -2 -14l-4 -16t-4 -14.5t-3 -9.5q-5 -14 -7 -22.5t-4 -16.5t-6 -18.5t-12 -29.5l-10 -42q-2 -10 -2.5 -17t-0.5 -13 t-1 -12.5t-4 -16.5l52 -3q10 0 25 -2.5t32 -2.5q9 0 29.5 1t32.5 1h88l75 5q17 0 28 -14t11 -32q0 -11 -3 -26t-8.5 -30t-12.5 -27t-16 -16q-10 -4 -23.5 -7t-28.5 -5.5t-29.5 -3.5t-24.5 -1q-15 0 -22.5 -2.5t-18.5 -2.5h-43h-41q-15 -1 -21.5 -1h-11.5h-37h-7 q-13 -3 -32.5 -3.5t-29.5 -0.5q-14 0 -23.5 -5.5t-11.5 -5.5q-17 -16 -24.5 -23t-10.5 -14t-4.5 -18t-7.5 -35q-2 -6 -2.5 -9.5t-1.5 -5.5l-1 -3q-1 1 -2 -1t-2 -5l-3 -9q-7 -13 -7 -27q0 -5 7 -5q6 2 12.5 2h12.5q14 0 30.5 -1t31.5 -1h14l50 -2q13 0 33.5 1t35.5 1l86 3 l77 7q20 -4 32.5 -21t11.5 -28t-6 -25t-12.5 -27.5t-16 -24.5t-14.5 -15q-19 -13 -49 -17.5t-54 -4.5q-2 0 -9 -1t-15 -1.5t-14 -1.5t-7 -1q-7 0 -19 -1t-25.5 -2.5t-27.5 -2.5t-24 -1q-5 -1 -9 -1h-9q-9 0 -20.5 -1t-18.5 -1h-5q-9 -2 -15.5 -3.5t-12.5 -1.5q-8 0 -14.5 1 t-14.5 1h-8l-73 1q-6 -6 -10 -20.5t-8 -24.5l-22 -66q-2 -4 -5 -11.5t-5.5 -15.5t-5 -15t-2.5 -10q-8 -20 -11 -29t-5.5 -15.5t-5.5 -14t-10 -25.5q-3 -8 -5.5 -16.5t-4.5 -16.5q-7 -20 -9 -33t-10 -29q-2 -4 -7.5 -14t-10.5 -17q-14 -6 -21.5 -8t-22.5 -2q-8 0 -18 4 t-18.5 11t-14.5 17t-6 22v5.5t2 6.5zM708 753q-21 0 -33 -3t-19 -11t-12 -22t-13 -37q-16 -24 -21 -32.5t-11 -15.5q-7 -15 -9.5 -21.5t-2.5 -17.5v-27l170 9q6 0 24.5 -2t64.5 -7q23 0 43 1t37 8q0 -5 3 1t6.5 17t7.5 24.5t7.5 24t5.5 15.5t2 0q0 -3 5 5q8 17 12.5 32.5 t4.5 41.5q-17 17 -28 21t-24 4l-118 -10z">
<glyph unicode="$" horiz-adv-x="1160" d="M480 934q11 -8 22.5 -13t24.5 -10q2 44 6 89t4 92v55q0 4 -2 22t-3.5 39t-3 39.5t-1.5 24.5v119v12q-11 -4 -21 -7.5t-21 -6.5q-1 0 -5.5 -1t-10.5 -2t-11 -2t-8 -1h-25q-1 -1 -5 -4t-9.5 -7t-10.5 -8t-7 -7q-27 -24 -44 -45t-26.5 -43.5t-13.5 -49.5t-4 -63q0 -8 1 -22 t3 -29.5t5.5 -28.5t9.5 -19l82 -79q3 -2 8 -5t11 -6t11 -5t7 -3q1 -1 6.5 -5t12 -8t12 -7.5t6.5 -4.5zM631 620q-1 0 -6 5v-20q-2 -2 -3 -8.5t-1 -21.5q0 -9 0.5 -20.5t3.5 -25.5v-85q0 -20 -2 -39.5t-7 -39.5v-328q26 2 48 10t46 19q7 2 19.5 4.5t19.5 8.5q2 1 9 7.5 t15 14.5t15.5 16t10.5 11q4 4 11 12l14 16t12.5 14.5t6.5 7.5t2.5 6.5t3.5 12t3.5 12t2.5 6.5q5 13 9.5 20.5t8 15t5.5 16.5t2 24q0 32 -1.5 62t-3.5 62q-4 20 -16 34t-23 28q-1 2 -7.5 10t-14 18t-14 18.5t-7.5 10.5q-7 9 -12.5 12.5t-11 5.5t-12 4t-15.5 8q-10 8 -19.5 20 t-22.5 17q-2 1 -7.5 2t-12 2t-12 2t-6.5 1q-5 2 -16.5 6t-14.5 6zM527 583q3 4 3 27q0 8 -0.5 19t-2.5 25v16q-20 5 -40 9.5t-37 10.5q-26 8 -49.5 22t-44.5 29q-24 14 -46.5 30t-47.5 30q0 2 -2.5 4.5t-4.5 2.5q-46 70 -76 143.5t-30 160.5v19q0 10 1 19.5t6 20.5l18 37 q0 1 1 6.5t2 12t2 12t2 6.5q2 5 5 13t7 17t9 17.5t11 14.5q1 2 7.5 8.5l14 14l13.5 13.5t7 8q2 0 4.5 4.5t2.5 8.5q12 28 32 43.5t48 32.5q2 -2 5 -2q2 0 2 2q1 0 4.5 2.5t8 6t8.5 6l4 2.5h5h14q2 0 13 3t23.5 6.5t24 6t14.5 2.5h14h35h5v7q-1 1 -2.5 12t-2.5 24.5t-2 24.5 t-1 13v1q0 29 18.5 48.5t48.5 19.5q34 0 45.5 -18t11.5 -46q0 -6 -0.5 -18.5t-1 -25.5t-1.5 -24.5t-2 -17.5h17q13 -1 31.5 -9.5t37.5 -19t37 -21.5t30 -17q2 -2 9.5 -4.5t8.5 -2.5q9 -5 17 -13.5t16.5 -16.5t18 -14t21.5 -6q14 0 20.5 9t10 21t5.5 24.5t6 20.5q0 3 4 8 t9 11t9.5 11t5.5 7q2 2 5 2h2q14 0 19.5 -14t5.5 -25v-11q0 -3 -1.5 -10.5t-3.5 -16t-4 -16t-3 -8.5q-15 -113 -15 -230q0 -18 1 -35.5t1 -35.5q-2 -6 -4.5 -14.5t-7 -16.5t-10.5 -13.5t-13 -5.5q-12 0 -18.5 5t-10 12.5t-5.5 16t-5 16.5q-11 32 -22 71t-22 69 q-5 12 -16.5 28t-26 32.5t-28.5 31t-23 25.5q-10 13 -19 30.5t-23 25.5q-17 8 -39.5 17.5t-44.5 16.5v-69q0 -51 4.5 -99.5t4.5 -100.5q0 -28 -4.5 -52t-4.5 -52q0 -18 1 -28.5t8 -27.5v-111q1 0 8 -4t15.5 -8.5t16 -8t10.5 -4.5q1 0 7 -0.5t13 -1.5t13.5 -2.5t8.5 -2.5 q2 0 9.5 -5t8.5 -6q4 -2 13.5 -6.5t19.5 -9.5l19 -9.5t12 -6.5q51 -24 94.5 -65t75 -93t49.5 -109.5t18 -114.5v-11q-1 -10 -2.5 -27.5t-3.5 -35.5t-4 -32t-3 -16q-4 -22 -12 -40.5t-19.5 -35.5t-24 -34t-25.5 -35q0 -1 -2 -4.5t-4 -7.5t-4.5 -8t-2.5 -5q-7 -13 -22.5 -20 t-26.5 -15q-1 -2 -5.5 -7t-9.5 -10.5t-9.5 -10t-5.5 -4.5q-18 -12 -35 -19t-35 -12t-36.5 -9.5t-39.5 -10.5q-20 -6 -35.5 -12t-37.5 -6h-15v-25q3 -14 4 -23t1 -23v-20q0 -15 -10.5 -26.5t-27.5 -11.5q-8 0 -17 1t-15 7q-5 2 -14.5 9t-9.5 9v111q-22 3 -45 5.5t-43 4.5 t-35.5 4t-22.5 3q-26 6 -57.5 14t-56.5 16q-2 0 -9.5 6t-7.5 8q-24 12 -44.5 19t-36 16.5t-24 26.5t-8.5 50v5q0 2 6 13t6 13q5 21 4.5 45.5t2.5 48.5q0 1 3.5 8.5t3.5 9.5q0 1 0.5 6t1.5 11t2 11.5t2 8.5q0 2 0.5 9.5t1.5 15.5t2 15.5t1 9.5q0 1 1 7t2.5 12t2.5 11.5t1 6.5 q0 2 1 9t2 15.5t2 16t2 10.5q0 3 1.5 9.5t4 12.5t6 11t8.5 5q8 0 14 -15t10.5 -35.5t7.5 -40.5t5 -29q1 -6 2.5 -22t3 -34t3 -33.5t1.5 -21.5q2 -2 4.5 -6t2.5 -6q8 -17 12 -32t13 -32q1 -3 4.5 -9.5t7.5 -13t7.5 -12.5t5.5 -9q2 -1 7 -6t5 -7q1 -1 3.5 -6.5t5.5 -12t6 -12 t3 -6.5q9 -13 24 -23t32 -17.5t34 -14t31 -12.5q2 -2 8.5 -8t8.5 -6h10h27q5 0 10 -1v544z">
<glyph unicode="%" horiz-adv-x="1627" d="M298 1038q-4 -2 -11 -8t-14.5 -13.5t-13.5 -14.5t-9 -10q-1 -1 -5.5 -10t-10.5 -20.5t-11.5 -23.5t-8.5 -19q-2 -4 -5.5 -14.5t-3.5 -11.5q-2 -14 -3 -26.5t-1 -25.5q0 -14 1 -28.5t3 -29.5q0 -2 3.5 -13t5.5 -17l4 -3q1 -1 3 -5t4.5 -8.5t4.5 -8.5t2 -5 q21 -32 56.5 -55.5t72.5 -31.5q0 -1 4 -1q3 0 5.5 0.5t3.5 0.5q12 -2 22.5 -5.5t20.5 -3.5q11 0 30 5t38.5 12.5t37 16t25.5 16.5q2 2 7 9.5t7 9.5t11.5 9t11.5 9q2 1 6 4.5t4 4.5q0 2 1.5 7t1.5 7q8 12 11 19.5t8 20.5q6 14 10.5 28.5t4.5 31.5q0 23 -4.5 44.5t-10.5 42.5 q-1 2 -2 12t-3 12q-6 15 -24 35.5t-40.5 39t-46 31.5t-41.5 13q-15 0 -29 -3.5t-28 -7.5h-4q-8 0 -15.5 5.5t-16.5 5.5t-18 -4t-17 -9t-16.5 -9.5t-17.5 -6.5zM333 558q-2 0 -7 4t-7 6q-24 15 -51 23.5t-50 25.5q-60 51 -81 124q-2 2 -5.5 13t-4.5 15q-6 17 -7.5 34t-1.5 35 v16q0 20 2 34.5t6.5 27t10.5 26t14 32.5q0 3 3.5 14.5t5.5 14.5q0 1 4 4t6 3q0 2 1.5 8t1.5 8q6 10 16 22.5t22 24t24.5 21t24.5 13.5q2 2 10 3t10 3q1 0 6.5 3.5t12.5 7.5t12.5 7t7.5 3q2 2 9.5 3.5t8.5 2.5q2 0 12 4t12 4l6.5 0.5t15.5 1.5l18 2t15 2h3h1q30 -11 60.5 -16 t60.5 -17q31 -14 53.5 -33.5t45.5 -44.5q17 -18 25.5 -40t16.5 -46q0 -2 1.5 -7.5t2.5 -7.5q11 -29 17.5 -57t6.5 -60q0 -2 -0.5 -6.5t-2.5 -4.5q0 -2 -2 -9.5t-5 -16t-6 -16t-4 -9.5l-2 -10q-2 -10 -2 -12q-8 -22 -22.5 -39.5t-27.5 -35.5q-8 -8 -14.5 -17.5t-13.5 -17.5 q-12 -15 -28 -23.5t-32 -17.5q-2 -2 -9 -8t-9 -6q-2 -1 -15.5 -4t-20.5 -4q-3 -2 -14.5 -3t-13.5 -2q-12 -4 -20.5 -7.5t-22.5 -3.5h-20q-4 0 -14 1t-21 2t-21 2t-14 1zM1095 458q-4 -2 -11 -8t-14.5 -13.5t-13.5 -14.5t-9 -10q-1 -1 -5.5 -10t-10.5 -20.5t-11.5 -23.5 t-8.5 -19q-2 -4 -5.5 -14.5t-3.5 -11.5q-2 -14 -3 -26.5t-1 -25.5q0 -14 1 -28.5t3 -29.5q0 -2 3.5 -13t5.5 -17l4 -3q1 -1 3 -5t4.5 -8.5t4.5 -8.5t2 -5q21 -32 56.5 -55.5t72.5 -31.5q0 -1 4 -1q3 0 5.5 0.5t3.5 0.5q12 -2 22.5 -5.5t20.5 -3.5q11 0 30 5t38.5 12.5t37 16 t25.5 16.5q2 2 7 9.5t7 9.5t11.5 9t11.5 9q2 1 6 4.5t4 4.5q0 2 1.5 7t1.5 7q8 12 11 19.5t8 20.5q6 14 10.5 28.5t4.5 31.5q0 23 -4.5 44.5t-10.5 42.5q-1 2 -2 12t-3 12q-6 15 -24 35.5t-40.5 39t-46 31.5t-41.5 13q-15 0 -29 -3.5t-28 -7.5h-4q-8 0 -15.5 5.5t-16.5 5.5 t-18 -4t-17 -9t-16.5 -9.5t-17.5 -6.5zM1130 -22q-2 0 -7 4t-7 6q-24 15 -51 23.5t-50 25.5q-60 51 -81 124q-2 2 -5.5 13t-4.5 15q-6 17 -7.5 34t-1.5 35v16q0 20 2 34.5t6.5 27t10.5 26t14 32.5q0 3 3.5 14.5t5.5 14.5q0 1 4 4t6 3q0 2 1.5 8t1.5 8q6 10 16 22.5t22 24 t24.5 21t24.5 13.5q2 2 10 3t10 3q1 0 6.5 3.5t12.5 7.5t12.5 7t7.5 3q2 2 9.5 3.5t8.5 2.5q2 0 12 4t12 4l6.5 0.5t15.5 1.5l18 2t15 2h3h1q30 -11 60.5 -16t60.5 -17q31 -14 53.5 -33.5t45.5 -44.5q17 -18 25.5 -40t16.5 -46q0 -2 1.5 -7.5t2.5 -7.5q11 -29 17.5 -57 t6.5 -60q0 -2 -0.5 -6.5t-2.5 -4.5q0 -2 -2 -9.5t-5 -16t-6 -16t-4 -9.5l-2 -10q-2 -10 -2 -12q-8 -22 -22.5 -39.5t-27.5 -35.5q-8 -8 -14.5 -17.5t-13.5 -17.5q-12 -15 -28 -23.5t-32 -17.5q-2 -2 -9 -8t-9 -6q-2 -1 -15.5 -4t-20.5 -4q-3 -2 -14.5 -3t-13.5 -2 q-12 -4 -20.5 -7.5t-22.5 -3.5h-20q-4 0 -14 1t-21 2t-21 2t-14 1zM453 18q0 -2 -8 -9.5t-17 -15.5q-11 -10 -24 -20q-19 2 -33 5t-22 22q-4 2 -6.5 9t-2.5 9q0 9 2 14.5t10 16.5q4 8 7.5 13t7.5 14l61 75q21 24 41 43.5t33 47.5q5 5 11.5 13.5t13.5 17.5t13.5 17.5 t11.5 13.5q20 28 34.5 45.5t26.5 31.5t24 28.5t28 37.5q24 29 47 60.5t45 56.5q17 24 30 41t24.5 31.5t22.5 28.5t24 31q17 25 40.5 54t39.5 55l21 23q10 11 14.5 20.5t6.5 9.5q24 29 41 53.5t40 51.5l30 35l86 99l13 6.5t12 3.5q11 -2 19 -10.5t8 -19.5q-2 -8 -2 -12.5 v-12.5q-1 -20 -17 -41.5t-30 -41.5q-8 -4 -25 -24t-33 -53q-24 -34 -45.5 -59t-40.5 -48q-9 -15 -16 -24.5t-13.5 -18.5t-15 -19t-21.5 -26q-14 -18 -22.5 -29t-15 -19.5t-12.5 -16.5t-15 -19l-4 -5t-9.5 -10.5t-9.5 -10.5t-4 -6q-15 -14 -24.5 -26t-17.5 -24l-16 -24 t-19 -27l-41 -43q-8 -15 -22 -33t-31 -39q-10 -12 -19 -24.5t-16 -23t-11.5 -18t-4.5 -8.5q-11 -13 -17 -21t-12 -16.5t-14 -20t-21 -30.5q-10 -13 -14.5 -15.5t-8.5 -7.5l-17 -34q-11 -9 -21.5 -24t-18.5 -28q-8 -8 -12.5 -13.5t-10 -12.5t-13.5 -18.5t-23 -31.5z">
<glyph unicode="&#x26;" horiz-adv-x="1713" d="M501 1181v-25q1 -3 3.5 -12t6 -18.5t6 -18.5t3.5 -12q2 -2 10 -9t8 -9q1 -1 3 -5t4.5 -8.5t4.5 -8l2 -3.5q20 -26 46.5 -48t52.5 -40q8 -6 12 -7t12 -1q13 0 31 11.5t34.5 27.5t30 33.5t18.5 29.5q1 5 3 9l2 6t1 4q13 25 25 50t12 54q0 16 -5.5 38t-15.5 44t-24 39.5 t-30 23.5q-2 0 -7.5 2t-11.5 3.5t-11.5 3.5t-6.5 2q-1 1 -8 4.5l-16 8t-16.5 8.5t-10.5 4t-6 1q-2 0 -5 0.5t-5 0.5q-11 0 -18.5 -2t-14.5 -6t-14 -8.5t-17 -10.5q-45 -25 -66.5 -65t-21.5 -91zM448 166q1 1 10 -3.5t20.5 -10t21.5 -10.5t13 -6q4 -2 14 -10t11 -10h170 q11 9 25.5 9t23.5 4q20 7 42.5 17t39.5 20q14 8 25.5 20t22.5 25t22 25.5t23 23.5q21 18 41 36.5t34 44.5q-8 25 -23 43.5t-33.5 34t-38 31t-36.5 34.5q-1 1 -6.5 8.5t-11.5 16t-12 15.5t-7 9q-5 6 -12.5 11t-12.5 9q-2 1 -13 5.5t-12 5.5q-2 2 -7.5 7t-11.5 10.5t-11 11 t-7 8.5q-18 20 -37 46.5t-39 41.5q0 1 -4.5 4t-10 6t-10.5 6t-7 4l-5 5q-1 1 -4 5t-6 8.5t-6 8t-4 3.5q0 2 -8 6.5t-10 7.5q-2 1 -8 7t-13 13.5t-13.5 14t-9.5 8.5q-2 1 -8.5 3.5t-14 4l-15 3t-11.5 1.5q-16 0 -34 -11t-35 -26.5t-33 -31.5t-27 -25q-4 -2 -5 -3l-2 -2 q-8 -19 -13.5 -35.5t-18.5 -33.5q-8 -10 -20 -15.5t-17 -16.5q0 -1 -2 -6.5t-4.5 -11.5t-4 -12t-1.5 -7q-2 -1 -4 -6t-2 -7v-37q0 -33 1 -63.5t5.5 -60t14.5 -57t29 -54.5q8 -14 20.5 -26t23.5 -25q6 -9 4.5 -14.5t7.5 -10.5q1 -2 12 -7t13 -5q1 -2 5.5 -6.5l9.5 -9.5 t10 -9.5t7 -6.5zM85 376q0 2 2 8t4 12.5t4 12t2 6.5q0 6 2.5 22t4.5 34t4 34.5t2 22.5q15 20 22.5 43.5t21.5 43.5q1 3 6 10t11 15t11.5 15t8.5 10q11 15 25 23.5t25 25.5q7 13 14 18.5t14.5 8t15.5 4.5t18 8q1 0 4 3.5t7 8t8 8t6 5.5q12 10 26.5 21.5t30.5 21t33 15.5t35 6 h9t9 -2q5 2 6 4.5t1 7.5v3q0 1 -2 3q-12 11 -29.5 29t-34.5 39t-30 42.5t-17 39.5q0 1 -1 7t-2 14l-2 16t-1 13q-3 28 -11.5 54.5t-8.5 56.5q0 19 6 35.5t14 33.5q14 30 26 53t26.5 40.5t34.5 31t49 25.5q40 15 74.5 29t78.5 14h10q7 0 24 -1t35.5 -2t35 -2t22.5 -1 q35 -10 60 -23t45.5 -30.5t38.5 -39.5t38 -50q9 -26 8.5 -47t4.5 -54q0 -2 3.5 -9.5t3.5 -8.5v-17q0 -53 -19 -92t-51 -67.5t-74 -47t-88 -30.5q0 -3 -4 -5q-2 -1 -3 -2v-5v-2q3 -4 12 -15.5t19 -24t19 -24.5t13 -16q11 -14 24 -20.5t26 -16.5q1 -2 4.5 -5.5l8 -8l8 -8 t4.5 -3.5l8 -6q3 -2 6 -4.5t5 -3.5q9 -5 15 -8t10.5 -5.5t8.5 -6.5t9 -10q2 -3 9 -12t15.5 -20t16 -20t10.5 -12q0 -5 6 -5q29 -20 51.5 -37t48.5 -45h13q10 0 22.5 4.5t21.5 13.5q0 2 3 7.5t6 12t5.5 12t3.5 7.5q0 1 2.5 4.5t6 7.5t6.5 8t4 5q1 3 5 9l8 12t7.5 10.5 t4.5 5.5q1 4 5 17t8.5 28t8 28t3.5 16q0 38 -22.5 62t-49.5 40.5t-49.5 28t-22.5 24.5q0 6 6 11t12 7h34q38 0 73.5 -5t72.5 -7h43q4 0 14 -3t12 -3h3q19 0 39.5 4t37.5 9h5h2q7 -1 24 -2.5t36 -2.5t36 -1.5t23 -0.5q7 -2 16.5 -6t18.5 -9.5t15 -12.5t6 -15q0 -5 -5 -11 t-7 -8q-4 -1 -13.5 -3t-21 -4t-21 -4t-13.5 -2q-23 -4 -48 -8t-49.5 -12t-46 -20.5t-37.5 -33.5q-1 -2 -4.5 -7.5t-7.5 -12t-8 -12t-6 -7.5q-12 -15 -31.5 -32t-30.5 -37q0 -2 -4.5 -11t-10 -19.5t-10 -19.5t-5.5 -12q-5 -9 -16.5 -21.5t-23.5 -26t-21.5 -27t-9.5 -22.5 q0 -19 5.5 -33.5t16.5 -32.5l14 -24.5t22 -37t22.5 -36.5t14.5 -24q1 -3 6 -7.5t7 -4.5q2 -2 12 -8t12 -6q2 -1 7.5 -11.5t5.5 -13.5q1 -2 7.5 -8t14 -13.5l14 -14l8.5 -8.5q1 -1 5.5 -7.5t5.5 -10.5q24 -38 61 -56t82 -18q15 0 28.5 6t28.5 6q3 0 9.5 -2t12.5 -5t11 -6 t6 -6l-1 -4.5t-2 -9.5l-2 -10t-2 -8q-6 -16 -13.5 -25t-17 -15t-21 -10.5t-23.5 -11.5q-2 -1 -6 -6t-6 -5q-4 -5 -18.5 -11.5t-18.5 -9.5h-44h-43q-3 0 -10.5 3.5t-10.5 3.5q-1 0 -8 1t-15.5 2t-15.5 2t-9 2q-2 0 -9 5.5t-15.5 12t-16 12t-10.5 7.5q-2 0 -9 3.5t-15 8 t-15 8.5t-9 5q-3 2 -13 12.5t-13 12.5q-1 2 -9.5 6t-8.5 6q-2 2 -3.5 10t-1.5 10q-6 12 -11.5 17.5t-11 9.5t-11 8.5t-10.5 13.5q-8 10 -16.5 24.5t-17.5 30.5t-17 31t-13 26h-10h-8q-15 -8 -25 -22.5t-19 -31.5t-17.5 -34t-19.5 -29q-64 -71 -133.5 -121t-160.5 -79 q-2 -2 -5 -4q-5 -3 -7 -3q-3 -2 -9 -4t-12.5 -4t-11.5 -3.5l-5 -1.5h-62q-1 0 -6.5 -1t-12 -1.5t-12 -1.5t-6.5 -1h-19q-15 0 -25.5 5t-23.5 6h-43q-9 1 -26 7t-35.5 15t-34.5 18.5t-23 17.5q-2 1 -6.5 6t-10 11t-9.5 11.5t-5 7.5q-8 9 -19 12t-19 14q-1 0 -2.5 3.5t-3.5 8 t-3.5 8.5t-2.5 5q-5 6 -11.5 9.5t-12.5 5.5t-11 5.5t-9 9.5q-21 31 -34.5 55.5t-21.5 48.5t-13 50.5t-11 62.5q0 2 -4 10q-2 4 -3 8z">
<glyph unicode="'" horiz-adv-x="518" d="M52 911q1 2 2 5q1 4 5 6q2 3 6.5 7.5t9.5 10t9 9.5l5 5q2 1 7.5 3.5t11.5 5.5t11.5 5.5t6.5 4.5q1 0 4.5 3.5l8 8t8 8.5t4.5 5q15 11 31.5 20.5t33 19.5t32 22t26.5 30q1 1 4.5 7.5t8 14.5t8 15.5t4.5 11.5q1 1 2.5 3.5t2.5 6.5t2 9q2 1 10 8.5t8 9.5q2 2 2 6.5v6.5 q0 17 -8.5 34.5t-23.5 28.5q-11 -2 -22.5 -3t-22.5 -1q-28 0 -50.5 10.5t-33.5 43.5q-1 1 -3.5 9.5t-5.5 19.5t-6 22.5t-4 17.5v2v3q15 57 47 79t88 22q73 0 114 -38.5t67 -106.5l1.5 -6t4 -14.5t4.5 -16.5t4 -13v-2q0 -44 -15 -89.5t-39.5 -88t-56.5 -79.5t-66 -64 q-17 -15 -37 -23t-35 -25q-33 -5 -66 -15.5t-65 -10.5q-13 0 -26 6.5t-18 19.5z">
<glyph unicode="(" horiz-adv-x="580" d="M109 373q0 29 5 57t7 57q2 2 2 7v13q0 16 -1 34t-1 22q1 7 2.5 24.5t2.5 36.5t2 35t1 21q2 22 10 44t14 42q11 39 17.5 80t19.5 78q1 1 4 6.5t6.5 12t6 12t3.5 6.5q11 26 20.5 53t23.5 53q11 21 31.5 54t45.5 70t53.5 74t57 67t54 48.5t45.5 18.5q15 0 20 -2.5t5 -18.5 q0 -45 -22.5 -79t-52.5 -63q-2 -1 -6.5 -5t-10 -8t-9.5 -7.5t-5 -4.5q-39 -34 -66 -82t-46 -92q-14 -12 -16 -21.5t-9 -22.5q-16 -28 -31 -55t-26 -58q-8 -20 -10.5 -41t-8.5 -41q-1 -1 -3 -5.5t-4 -9.5t-3.5 -10t-1.5 -7q0 -1 -1 -8t-2 -15t-2 -15.5t-1 -10.5 q0 -1 -1.5 -8.5t-4 -15.5t-4.5 -15.5t-2 -8.5q-13 -52 -16.5 -99.5t-3.5 -99.5q0 -43 1 -95t7 -94q0 -4 2.5 -18t5.5 -29.5t5.5 -29.5t3.5 -18q6 -36 10.5 -74t14.5 -75q1 -3 2.5 -8.5t3.5 -11.5t3.5 -11t2.5 -6q13 -26 26 -53t26 -53q0 -2 1.5 -10t3.5 -10q2 -3 5 -8.5 t5.5 -11.5t5 -11t2.5 -6q2 0 7 -5l7 -7q1 -1 2.5 -6.5t3.5 -11.5t3.5 -12t2.5 -7q0 -2 2.5 -6t2.5 -5q5 -7 13.5 -22t13.5 -19q2 -4 14.5 -20t27.5 -35t27.5 -35.5t15.5 -20.5t10 -13t14.5 -18.5t13.5 -18.5l8 -12q1 -4 6 -13.5t5 -11.5q2 -13 -8 -22.5t-20 -9.5q-6 0 -18 5 t-25 12t-23.5 13t-11.5 9q0 1 -3 9t-3 9q-2 2 -6.5 7.5t-9.5 11.5t-9.5 11.5t-4.5 6.5q-8 10 -13 16.5t-9 12.5t-7.5 13.5t-9.5 19.5q-7 16 -17 28t-21 23.5t-21.5 22.5t-19.5 25q-4 4 -9 19.5t-6 19.5q-11 26 -25.5 49.5t-23.5 49.5q-11 32 -18.5 64t-18.5 62 q-30 86 -47 171.5t-17 176.5z">
<glyph unicode=")" horiz-adv-x="535" d="M-68 -405q25 23 53.5 54.5t52.5 58.5q21 24 38.5 45.5t36.5 53.5q0 1 2 9.5t3 8.5q7 17 21.5 29.5t22.5 26.5q0 4 2.5 17t4.5 15q0 1 2.5 5.5t3.5 5.5q18 32 26.5 63t20.5 63q3 2 8.5 9.5t5.5 9.5q1 3 4 13t6 21.5t5.5 21.5t2.5 13q1 0 3 4.5t4 9.5t3.5 10t1.5 6 q3 6 6.5 16.5t6.5 21.5t5 20t2 11q1 5 2.5 25t3.5 43.5t3.5 43t2.5 24.5q1 3 2.5 8.5t3.5 11.5t3.5 11t2.5 6v69q0 30 1 61t1 61q0 31 -1.5 61t-5.5 60q-8 71 -25.5 141t-43.5 138q0 2 -2.5 8t-5.5 13t-6.5 13.5t-4.5 9.5q-2 5 -6.5 14t-6.5 11q0 3 -5 7.5t-7 6.5l-1 4.5 t-2 9.5t-2 9.5t-1 6.5q-3 11 -15 23.5t-14 20.5q-2 2 -5 8.5t-6 14t-5 13.5t-3 7q-12 28 -29.5 47.5t-33.5 45.5q-1 0 -1.5 3t-1.5 6q-1 4 -2 9q-5 11 -12.5 20t-14.5 18t-12 18.5t-5 22.5q0 11 7.5 14t15.5 3q15 0 24.5 -4t16.5 -10t13.5 -14.5t14.5 -17.5q1 0 7 -4.5 t12.5 -9.5t12 -10t7.5 -7q16 -14 27 -30.5t20 -34.5l18 -36t21 -34q16 -24 33.5 -48t28.5 -53q0 -1 1 -5.5t2 -10t1.5 -9.5t0.5 -5q2 -5 8.5 -19.5t14 -31.5t14 -31.5t8.5 -18.5q1 0 1.5 -4.5t1.5 -10t1.5 -10t0.5 -5.5q0 -2 2.5 -9t4.5 -11q13 -34 16 -63.5t9 -67.5 q0 -1 2 -6.5t4 -11.5t4 -11.5l2 -5.5q6 -24 9.5 -52.5t5.5 -58t2.5 -57.5t0.5 -51q0 -30 -1 -64.5t-4 -66.5q-2 -2 -3 -5q-3 -5 -3 -8q-18 -37 -23 -83.5t-9 -89.5v-44q-7 -45 -26.5 -86t-35.5 -82q-8 -20 -14 -43.5t-17 -43.5q-14 -29 -31.5 -60t-36.5 -62.5t-39.5 -60.5 t-40.5 -53l-25 -25q-19 -16 -35.5 -34t-33.5 -35t-35.5 -33t-39.5 -29q-2 0 -5.5 -0.5t-4.5 -0.5h-5q-2 0 -4 1q-5 2 -11.5 9.5t-6.5 9.5v55z">
<glyph unicode="*" horiz-adv-x="948" d="M393 726q0 26 4.5 57.5t11.5 58.5q0 3 3.5 15t7.5 26t8 26t6 15v10q0 11 -5.5 19t-18.5 8h-1q-25 -11 -45 -26.5t-38.5 -32.5t-36.5 -34t-37 -31q-1 -3 -8.5 -5t-9.5 -2q-26 -11 -48 -21.5t-51 -10.5q-39 0 -39 42q0 21 8 36.5t20.5 28t28 23t30.5 21.5q1 0 4.5 2.5t8 6 t8.5 6.5t5 4q19 8 36 10t34.5 4.5t36.5 7.5t42 20q13 8 16 14t3 18q0 16 -21.5 27.5t-49 20.5t-54.5 16.5t-38 15.5q-57 37 -99 88q-5 12 -8.5 24.5t-3.5 23.5q0 9 6 15t15 10t18.5 5.5t15.5 1.5q20 0 42.5 -9t43.5 -23t39.5 -30.5t30.5 -31.5l7 -7t12 -13.5t11.5 -14.5 t6.5 -9q13 -14 30 -26.5t34 -23.5h5q13 0 16 14.5t3 29.5v22q0 14 -2 22t-10 25q-1 4 -1.5 13.5t-0.5 20v20v13.5v22q0 18 1 37t4.5 38t11.5 36t22 31q0 1 4.5 3.5t10 5.5t11.5 6t9 4h5h2q24 -17 38 -40.5t14 -53.5q0 -37 -5.5 -81t-14.5 -80q0 -3 -2.5 -10.5t-5.5 -17 t-6.5 -18t-4.5 -12.5q0 -1 -2.5 -6.5t-6 -11.5t-7 -11.5t-4.5 -6.5q0 -5 3.5 -17t3.5 -17q2 0 6.5 -1.5t6.5 -1.5q20 7 36.5 18.5t31 25t28.5 28t29 27.5q16 13 34.5 26.5t38.5 25t41 18.5t42 7q26 0 40.5 -7.5t14.5 -37.5q0 -25 -12 -45t-30.5 -36t-40.5 -27t-41 -18 q-1 0 -7.5 -0.5t-14 -1.5t-14.5 -2t-8 -1t-8.5 -6t-9.5 -8q-2 -1 -10 -3.5t-17.5 -5.5t-18 -6t-11.5 -3q-2 0 -11.5 -5t-13.5 -7q-5 -1 -13.5 -1.5t-16.5 -2t-13.5 -6.5t-5.5 -15q0 -9 3.5 -12t14.5 -8q3 -1 12 -3t19.5 -5t19.5 -5t12 -3q0 -1 5.5 -3.5t12.5 -5.5l14 -6 t11 -5q25 -11 54.5 -19.5t55 -21.5t43 -34t17.5 -56q0 -26 -10.5 -44t-36.5 -18q-18 0 -33 6t-29 15.5t-27 20.5t-27 20q-2 2 -10 7.5t-17.5 12t-18 12t-11.5 7.5l-2 2l-3 3q0 1 -2 5t-4.5 8t-4.5 7.5t-3 4.5q-2 3 -9 10l-15 15t-15.5 15t-10.5 10q-6 5 -9.5 5.5t-7.5 0.5 t-9.5 -1t-13.5 -1q0 -3 -0.5 -11t-1.5 -16.5t-1.5 -16t-0.5 -10.5q3 -2 5 -14t2 -16q8 -37 11.5 -70t3.5 -68v-13v-19t-0.5 -18.5t-1.5 -11.5l-5.5 -16.5t-9 -20.5t-12.5 -18t-15 -9q-5 0 -19.5 2.5t-18.5 4.5q-17 6 -26.5 20t-14 31.5t-5 36t-0.5 33.5z">
<glyph unicode="+" horiz-adv-x="1000" d="M95 501q9 8 29 14t43 6q18 0 24.5 -1t12.5 -3h133q30 0 57.5 2.5t38.5 11.5q6 8 8 23.5t2 38.5q-1 19 -1.5 32.5t-1.5 25.5t-2 24.5t-2 31.5q-1 14 -2 30.5t-3 30.5q0 24 3.5 39.5t13.5 25.5q6 7 10.5 10.5t19.5 3.5h29q13 0 16 -2t11 -7q10 -5 11 -17.5t4 -20.5 q5 -28 5 -51q0 -10 -1 -19.5t-1 -17.5v-28q0 -13 -0.5 -25.5t-0.5 -23.5q0 -9 0.5 -10.5t2.5 -9.5q2 -11 2 -18v-9v-39q0 -4 1.5 -16t3.5 -12q32 0 70.5 -1t66.5 -1q46 0 86 1.5t87 1.5q16 0 27.5 -4t11.5 -19q0 -9 1 -23t1 -22q0 -14 -4 -34t-15 -34q-14 -15 -34.5 -17.5 t-44.5 -2.5q-40 0 -73 2.5t-66 4.5l-37 -2l-82 -6q-7 -15 -7 -53q0 -20 1 -36t1 -39q0 -26 1.5 -39t1.5 -33q0 -3 -0.5 -11t-0.5 -16q-1 -10 -1 -22l4 -45q0 -9 -2.5 -15.5t-4.5 -10.5l-10.5 -6t-16.5 -2q-45 0 -59 8q-8 14 -10 29.5t-2 33.5v43q0 20 -0.5 38.5t-0.5 35.5 v19t1 16v69q0 4 -1.5 8t-6.5 9q-8 8 -18 12.5t-21 4.5q-14 0 -31 -1t-36 -1q-8 0 -12 0.5t-7 1.5t-5.5 1.5t-7.5 0.5q-6 0 -13 -1t-12 -1q-19 0 -31 0.5t-20 0.5t-14.5 0.5t-13.5 0.5q-17 0 -29.5 -2t-29.5 -2q-15 0 -25 3t-18 17q-7 11 -9.5 28t-2.5 36q2 26 5 40t3 16z ">
<glyph unicode="," horiz-adv-x="486" d="M-10 -326q1 2 2 5q2 5 5 7q2 3 6.5 7.5l9.5 9.5l9 9t5 6q2 0 7.5 2.5t11.5 5.5t11.5 6t6.5 4l4.5 4.5t8 7.5t8 8t4.5 5q15 12 31.5 21t33 19.5t32 22.5t26.5 30q1 1 4.5 7.5t8 14t8 15.5t4.5 12q1 0 2.5 3t2.5 6q1 4 2 9q1 2 9.5 9.5t8.5 9.5q2 1 2 6v7q0 17 -8.5 34.5 t-23.5 27.5q-23 -3 -45 -3q-28 0 -50.5 10.5t-33.5 43.5q-1 1 -3.5 9.5t-5.5 19.5l-6 22t-4 17v2v3q15 57 47 79t87 22q73 0 114.5 -38.5t67.5 -105.5q0 -1 1.5 -7t4 -14t4.5 -16.5t3 -13.5v-1q0 -44 -14.5 -90t-39 -88.5t-56.5 -79.5t-66 -63q-17 -15 -37 -23t-35 -26 q-33 -5 -66 -15t-65 -10q-13 0 -26 6t-18 19z">
<glyph unicode="-" horiz-adv-x="866" d="M171 452v47q11 26 23 33t39 7q48 0 96.5 -5t96.5 -5l20 -1h218q7 0 12 -5t8 -12t4.5 -13.5t1.5 -10.5v-49v-52q-2 -15 -13 -26t-28 -11h-16q-7 0 -35.5 1t-61 2.5t-61 2.5t-34.5 1h-175q-2 0 -8.5 1t-14 1.5t-14 1.5t-8.5 1h-24q-17 9 -21.5 28.5t-4.5 37.5v25z">
<glyph unicode="." horiz-adv-x="398" d="M89 96v10q15 58 45.5 79.5t88.5 21.5q18 0 33 -11t26.5 -27.5t18 -34.5t6.5 -32q0 -49 -28 -79.5t-79 -30.5q-20 0 -39.5 8.5t-35.5 23t-26 33.5t-10 39z">
<glyph unicode="/" horiz-adv-x="532" d="M266 312l-301 -715q-2 -4 -13.5 -8t-18.5 -4q-3 -2 -12 -2q-5 0 -9.5 2t-8.5 3q-30 14 -30 46q0 8 1 13q3 5 4.5 10t4.5 10q6 14 13.5 25.5t19.5 16.5l173 417q4 20 11.5 40.5t15.5 40.5q6 12 10 27q1 4 5 13t8.5 18.5t8.5 18.5t7 12q10 10 13.5 15t8.5 17q0 1 2.5 6.5 t2.5 8.5q2 1 2.5 13.5t0.5 16.5q0 2 5 12.5t9 19.5q1 6 3 9.5t3 5.5v13l34 84l10 9l96 230q8 8 13 14t8.5 12t6 13t5.5 16q13 28 20 55t17 55q22 53 47.5 101t48.5 100q2 6 7.5 20t12 30t12.5 30.5t8 20.5q-1 6 -1 12.5v11.5q0 32 17 68q8 22 22 35.5t33 13.5q5 0 12.5 -1.5 t14.5 -5.5q20 -8 29.5 -24.5t9.5 -35.5q0 -17 -6 -32l-1 -2q-1 0 -4 -4.5t-7 -10l-8 -11t-6 -6.5q-2 -6 -8 -19t-13 -27t-13 -27t-8 -19q-2 -5 -9.5 -22.5t-16 -38t-16 -37.5t-9.5 -21q-3 -6 -12 -25.5t-19 -40.5t-19 -39.5t-12 -22.5q-1 -2 -4 -9t-7 -16t-8 -17l-6 -12 q-22 -53 -39 -105.5t-40 -104.5q-2 -5 -7 -17t-10 -25.5t-10 -25.5t-7 -17q-10 -8 -15.5 -14.5t-9.5 -19.5q-11 -29 -19.5 -60t-22.5 -63q-2 -4 -4 -9.5t-4 -10.5q-3 -6 -5 -13q0 -2 -6 -5.5t-8 -3.5l-1 -1v-2l-2 -3v-26z">
<glyph unicode="0" horiz-adv-x="1050" d="M431 128q17 1 35 -3t36 -4q131 0 211.5 64t109.5 191q2 15 6.5 34.5t4.5 34.5v5q0 1 -1 3l-2 4q-2 3 -3 5q0 2 -0.5 7.5t-1.5 12t-2 12t-1 7.5q0 1 -2.5 6.5t-5.5 12t-6.5 13.5t-6.5 11q-20 45 -52 79.5t-71.5 57t-85 34t-91.5 11.5q-11 0 -31 -3t-41 -7.5t-39 -10 t-24 -11.5l-4.5 -4.5t-7.5 -8t-8 -8.5t-5 -4q-30 -26 -51.5 -47t-36.5 -44.5t-25.5 -52t-17.5 -68.5q-2 -9 -3.5 -25t-1.5 -19q0 -29 7.5 -51t16.5 -48q2 -5 4.5 -13.5t5.5 -16.5t5.5 -14t4.5 -6q28 -50 77.5 -83.5t103.5 -52.5zM431 2q-4 1 -13.5 6t-11.5 7q-2 1 -8.5 3.5 t-14 6t-14 6t-7.5 3.5q-2 0 -7.5 3.5t-11.5 8t-11.5 8t-7.5 5.5q-2 0 -12.5 2.5t-13.5 2.5l-5 2.5t-6 2.5q-4 1 -7 2l-8 8l-12.5 12.5t-13.5 13t-10 9.5q-1 0 -3.5 5.5t-2.5 8.5q-20 21 -41 39.5t-33 47.5q-1 1 -2 6.5t-1.5 12t-1.5 12t-2 6.5l-4.5 9t-8 15.5t-8.5 16 t-4 9.5q-1 1 -2 6.5t-1.5 12t-1 12t-0.5 6.5q0 2 -2.5 9t-4.5 10v122q14 29 20 60.5t17 59.5q0 1 2.5 6t4.5 7q17 28 33 56.5t36 56.5q6 9 17 13t20 10q32 26 59 44t55.5 29t61 16t76.5 5q67 0 129 -14.5t116 -54.5q2 0 8 -3.5t12.5 -7.5t12 -8t5.5 -6q2 -1 6.5 -11.5 t5.5 -11.5q3 -3 11.5 -11t18 -17.5t17.5 -18t10 -10.5q10 -11 15.5 -20t9 -18t6 -19t6.5 -24q15 -42 26 -82t11 -83v-47q-10 -21 -11 -46t-7 -46q-5 -18 -17 -30.5t-20 -26.5q-16 -30 -28 -49.5t-25 -35t-30 -30.5t-43 -35q-1 -2 -2 -3l-2 -2l-1 -1q-3 -3 -9.5 -8t-12.5 -10 t-11 -8.5t-6 -4.5q-10 -8 -23 -8.5t-26 -4.5l-6 -4q-5 -3 -7 -3q-26 -10 -48.5 -12t-50.5 -6q-3 -2 -6 -3q-6 -2 -8 -2h-3h-8q-2 0 -12 2.5t-12 2.5h-74z">
<glyph unicode="1" horiz-adv-x="731" d="M99 20q0 27 17 34t39.5 8t44.5 2.5t31 16.5q19 30 27.5 59.5t11 60.5t2.5 64t3 68q0 1 3.5 14.5t3.5 17.5v5q0 19 -3.5 36.5t-3.5 38.5v44q5 5 6.5 8.5t1.5 9.5q0 1 -0.5 1.5t-0.5 2.5v3q-5 22 -9.5 43t-4.5 44v7q1 2 2 11t2 19.5t2 20t1 11.5q0 3 -1 11.5t-2.5 18 t-2.5 17t-1 9.5v90q-7 21 -31 29.5t-50.5 15t-47 16t-20.5 32.5q0 6 0.5 10t5.5 10q2 2 8.5 5.5t14.5 7.5t15.5 7.5t10.5 4.5q3 0 17.5 1t22.5 1q26 0 50 -5.5t48 -11.5t48.5 -11.5t50.5 -5.5q35 0 69.5 6t71.5 6h17q24 0 38.5 -5.5t25.5 -31.5v-3q0 -18 -16 -29.5 t-37.5 -19.5t-43.5 -13t-34 -10q-3 -3 -7.5 -12.5t-4.5 -11.5q-9 -35 -12.5 -71t-4.5 -72t-0.5 -71.5t-0.5 -69.5q0 -3 -1 -12t-2.5 -19.5t-2.5 -19.5t-1 -11q-1 -8 -2 -28.5t-2 -44t-2 -44t-1 -28.5q-6 -10 -7 -22.5t-1 -24.5v-13q0 -19 0.5 -33.5l1 -29t2 -30t4.5 -36.5 q4 -32 26 -43t47 -15t45 -9.5t20 -26.5q0 -20 -16.5 -25.5t-34.5 -5.5h-18q-24 0 -41 1t-40 6q-2 0 -8 2q-3 1 -5 3h-3h-4q-1 0 -4 -1l-6 -2l-8 -2q-10 -3 -35.5 -5t-53.5 -5t-51.5 -6.5t-29.5 -8.5h-34q-12 0 -30 1t-34.5 5t-28.5 13t-12 26z">
<glyph unicode="2" horiz-adv-x="1038" d="M82 -3q-5 5 -6 9t-1 11q0 16 7.5 26t18.5 17.5t24 12.5t24 11q4 1 13.5 5.5t19.5 9.5l19 9.5t12 5.5q1 1 2 3q2 4 3 4q2 2 7 4.5t6 2.5t7 0.5l12 1t11.5 1.5t6.5 2q3 1 11 6.5t17.5 12t18 12t10.5 7.5q13 8 28 9.5t28 9.5q37 25 74 52t74 72q6 4 17.5 15.5l24.5 24.5 t23.5 25t14.5 17q12 12 19 22.5t11.5 22t7.5 24.5t8 29q4 17 11 34t7 35q0 49 -18.5 94.5t-63.5 73.5q-2 1 -6 4t-6 3l-123 18q-3 -1 -9.5 -2l-13 -2t-12.5 -2t-8 -1q-3 0 -10 3.5t-9 3.5t-9 -4.5t-11 -7.5q-1 -1 -4.5 -5t-8 -8t-8 -7.5l-4.5 -4.5q-2 0 -9 -2.5t-10 -4.5 q-12 -4 -30 -21.5t-36 -40t-32 -45t-19 -35.5q-5 -10 -9.5 -24t-10.5 -27t-14.5 -22.5t-21.5 -9.5q-8 0 -13 8t-8 19.5t-4.5 23t-1.5 18.5v19q0 1 3.5 8.5t3.5 9.5t0.5 8.5t1.5 14t2.5 13.5t2.5 8t4.5 7t7.5 10t8 9.5t5 5.5q1 2 2.5 7.5t3.5 11.5t3.5 11t2.5 7q0 2 4.5 9 t7.5 11q2 1 9.5 11.5t10.5 11.5q0 1 3 7t7 13t8 13.5t7 10.5q8 15 16 19t21 13q1 2 7 7.5t13.5 12t14 11.5t9.5 6q0 1 4.5 2.5t9.5 2.5t10 1.5t6 0.5q31 9 56 16t48.5 12t49 9t58.5 6q11 -1 16.5 -2t8 -1.5l5 -1t7.5 -0.5q8 0 17 -3.5t18 -3.5h8q4 0 10.5 -2.5t8.5 -3.5 q2 -2 10.5 -8.5t18.5 -14t18 -14t10 -7.5l6 -4q3 -2 6 -3q3 -2 9 -7.5t12 -11.5t10.5 -11.5t5.5 -6.5q5 -6 15 -20.5t21 -31.5t20 -32t12 -21q2 -3 4.5 -11.5t4.5 -17.5t3.5 -17.5t1.5 -11.5q0 -4 -1 -15.5t-2 -25.5t-2 -27t-2 -19q-1 -12 -5.5 -22.5t-9.5 -20.5t-9.5 -21 t-5.5 -23q-30 -42 -68.5 -83.5t-82.5 -71.5q-7 -5 -32.5 -19.5t-53 -31t-49.5 -32t-22 -21.5v-1q0 -1 2 -1q0 -1 5 -6t9 -5q28 1 48.5 -3t46.5 -4q8 0 13.5 1t13.5 6h175q22 0 39.5 12.5t31.5 27.5t27 27.5t28 12.5q5 0 9.5 -4.5t8.5 -10.5t6 -12t1 -10q-4 -26 -19.5 -48.5 t-25.5 -45.5q-1 -2 -5.5 -14.5t-10 -28.5t-11.5 -32t-10 -26q-9 -26 -32.5 -37t-50.5 -11q-19 0 -34.5 2.5t-37.5 2.5q-118 0 -233.5 -2.5t-233.5 -2.5h-94q-2 -3 -10 -5t-10 -2h-5q-17 0 -26 3.5t-24 3.5h-12z">
<glyph unicode="3" horiz-adv-x="786" d="M207 -504q0 7 10 16t23.5 17t26.5 14t20 7q28 19 55 41.5t46 50.5q0 3 2.5 7.5t2.5 6.5q6 12 14.5 25t17 25.5t15.5 25t10 24.5q8 28 10 48t2 46q0 19 -6 45t-17 52t-25.5 48t-30.5 34q-11 6 -24 11t-21 14q-2 2 -7 10t-5 10q-11 13 -29 20.5t-35 9.5q-3 0 -14.5 2 t-25 4.5t-25 4.5t-14.5 3q-4 0 -8.5 2t-4.5 4v2q0 11 5.5 13.5t14.5 6.5q0 2 4.5 6t9.5 8t9.5 7.5l4.5 3.5q4 3 17.5 5t14.5 2q1 2 7 7.5t12 12t11.5 12t6.5 7.5q3 1 13.5 5.5t11.5 5.5q19 12 28 28t23 30l6 2q6 2 7 4q14 11 19 23t17 24q42 50 68 106t26 121 q0 26 -0.5 49.5t-4.5 49.5q0 2 -2.5 6.5t-4.5 7.5l-76 72q-10 11 -31 13t-34 2q-18 0 -30 -1t-29 -7l-4 -2q-3 -2 -3 -5q-1 0 -5.5 -2.5t-6.5 -2.5h-13h-5q-4 -2 -8 -5q-3 -2 -6.5 -4.5t-5.5 -4.5q-2 -1 -6.5 -4.5t-9.5 -7t-9 -7t-5 -4.5q-2 -2 -10 -10.5t-17.5 -18 l-17.5 -17.5t-11 -9q-6 -5 -10.5 -6t-12.5 -1q-11 0 -16 2.5t-5 14.5q0 15 3 27.5t9 29.5q3 7 8.5 19.5t11.5 25.5t11.5 23t7.5 12q12 21 34.5 38t49 29t53.5 19.5t49 9.5q4 0 19.5 -1t29.5 -1h11.5t7.5 2q1 0 8.5 1.5t9.5 1.5q1 0 5 -0.5t8.5 -1t8 -1l3.5 -0.5q2 -2 9 -2 q5 0 10 1t6 1q19 -3 41.5 -15.5t44.5 -29.5t40.5 -35.5t30.5 -33.5q7 -9 13 -23.5t10.5 -31t6.5 -32.5t2 -29v-20q-2 -12 -3.5 -28t-3.5 -32t-5.5 -30.5t-8.5 -23.5q-20 -38 -46 -80t-58 -75q-12 -11 -28 -23.5t-33 -26t-33.5 -27t-29.5 -27.5q-11 -11 -19 -18.5t-10 -20.5 q0 -6 3.5 -10t8 -7t9 -5t6.5 -3q43 -26 72.5 -51t48.5 -53.5t30 -64t17 -81.5q1 -1 2 -6.5t2 -11.5t2 -11.5t1 -6.5v-5q0 -16 -2.5 -35t-6.5 -38.5t-9.5 -38.5t-11.5 -34q-4 -9 -12.5 -26t-17.5 -34.5t-17 -32t-10 -18.5q-2 -2 -9.5 -10t-17.5 -18l-20 -20l-16 -16 q-2 -1 -9 -6.5t-15.5 -11.5t-15.5 -11t-10 -6q-18 -16 -35.5 -30.5t-36 -26t-39 -18.5t-45.5 -7h-5q-8 0 -16.5 2.5t-8.5 12.5z">
<glyph unicode="4" horiz-adv-x="1104" d="M195 205q0 -13 7 -18.5t16.5 -8t20 -2t18.5 -0.5q2 0 8.5 -1t14 -2t13.5 -2t8 -1h47q2 -2 5 -4q4 -3 7 -3h13h18q6 1 22 2t34 2t34.5 2t22.5 1q10 0 13.5 8.5t4.5 16.5q1 3 2 9.5l2 13t2 12.5t1 9v37q2 14 7 24.5t5 23.5v9q0 1 -3.5 9.5t-3.5 10.5q0 4 -1 14t-2 22 t-1.5 23t-0.5 16v143q-4 11 -13 13t-17 2q-2 0 -4 -0.5t-4 -0.5h-5q-5 -3 -11.5 -13.5t-9.5 -12.5q-68 -78 -128.5 -158t-123.5 -162q-6 -8 -12 -15.5t-6 -18.5zM516 -427q0 3 2 12t4.5 19.5t4.5 19.5t2 11v83q0 16 1 40.5t1.5 47.5t1.5 40t1 18l7 12v112q0 3 -10.5 11 t-14.5 8h-220q-14 5 -28 5.5t-29 0.5h-26h-48q-9 -4 -13.5 -5t-12.5 -1h-6q-1 0 -5.5 2t-9.5 4.5t-10 4.5t-7 2h-10h-24q-17 0 -28.5 5.5t-11.5 26.5q0 15 4.5 25t12 18t16 15t17.5 16q28 28 51 60t48 64q1 1 1.5 3.5t2.5 4.5q1 3 3 6q15 29 33 51t36 50q10 17 18.5 39 t25.5 36q1 1 8 5.5t14.5 9.5t14.5 10t8 7q0 1 5.5 9.5t13.5 20.5t16.5 24t14.5 20q16 24 31 46t38 41l5 5t9.5 8.5t10 8t6.5 4.5q16 12 23 30t20 32q3 3 11.5 11t17.5 17t17 17.5t11 11.5q9 42 33.5 72.5t60.5 51.5q2 3 5.5 3.5t5.5 0.5q1 0 4.5 -0.5t3.5 -3.5q2 0 7 -7 t5 -11v-39q0 -29 -2.5 -53.5t-2.5 -53.5v-41q6 -6 6 -22q0 -6 -0.5 -12.5t-0.5 -8.5q0 -31 -6 -59.5t-6 -58.5q0 -32 3.5 -63t3.5 -61v-9q-5 -42 -9.5 -81t-4.5 -80q0 -22 6 -33t26 -28q2 -1 9.5 -3t9.5 -2h68q4 0 18 -2t30 -4.5t30 -4.5t18 -2h81h82q17 11 39 21.5t45 10.5 q11 0 15.5 -12t6.5 -20v-2v-5q-11 -32 -24 -65t-20 -66q-2 -12 -3 -27t-4 -29t-11 -24.5t-25 -13.5q-12 -2 -19 8.5t-12 24t-11.5 25t-16.5 11.5q-30 0 -58.5 -2.5t-57.5 -2.5q-50 0 -97.5 6t-97.5 6h-13q-4 -2 -9 -9t-5 -10v-85v-83q0 -8 1 -26t2 -38.5t2 -38t2 -24.5 q-5 -11 -6 -15t-1 -12q0 -35 3.5 -69.5t3.5 -68.5v-35q-9 -17 -26 -22t-36 -5q-9 0 -18 0.5t-16 0.5h-49q-14 4 -22.5 13.5t-13 22t-6 26t-1.5 26.5v18z">
<glyph unicode="5" horiz-adv-x="900" d="M98 -210q0 14 18 26t42 22t46.5 18.5t31.5 14.5q30 17 58.5 40.5t48.5 58.5q0 1 4.5 11t5.5 12t5.5 8t10.5 12t11 11.5t7 5.5q30 50 46 107.5t16 114.5q0 26 -10.5 50t-21.5 47q-17 42 -41.5 83.5t-59.5 69.5q-8 4 -17.5 7t-17.5 5q-39 11 -79.5 32t-73.5 40 q-9 14 -10.5 22t-1.5 20q0 6 4 14.5t10 17.5t12.5 17t12.5 12q1 0 6.5 3t11.5 6.5t11.5 6l5.5 2.5q4 3 11.5 7.5t7.5 6.5q2 2 6.5 8t10 13.5t10 14t6.5 9.5q1 1 8.5 4t15.5 7t15.5 7t9.5 4t7.5 5.5t12 10.5t12 10.5t7.5 5.5q2 0 6.5 3.5t6.5 3.5q2 1 9.5 9t9.5 11q1 5 4 9 q3 7 8 9q1 0 13 7.5t18 11.5q12 7 21.5 13.5t17.5 13t16.5 14.5t18.5 19q2 2 10 2h11q23 0 49.5 -6t49.5 -14q2 0 12 -6t15 -6q4 -1 17.5 -4t28.5 -6t29 -5.5t19 -3.5h33h34q11 7 19.5 22t17.5 30t21 26t31 11q9 0 10.5 -7t1.5 -16q0 -10 -3.5 -25t-9 -31t-12.5 -30t-14 -23 q-1 -2 -5 -6t-8.5 -9.5t-8.5 -10t-5 -6.5q0 -1 -0.5 -5t-1 -9l-1 -10t-0.5 -8q-2 0 -7 -4t-7 -6q-9 -14 -16 -28.5t-15.5 -26.5t-20.5 -19.5t-30 -7.5q-21 0 -40 4t-36.5 9.5t-35.5 11.5t-38 11l-10.5 3.5t-15.5 5t-14.5 4.5t-7.5 3q-3 0 -16 1.5t-28 3t-28 3t-16 2.5 q-2 0 -8 1.5t-12 4t-11.5 4t-6.5 1.5q-2 0 -6 -1.5t-6 -1.5q-9 -8 -21.5 -19.5t-12.5 -14.5v-20q8 -7 15 -12q6 -5 12.5 -9.5t11.5 -6.5q2 -3 10 -7.5t8 -6.5q1 0 6 -4.5t10.5 -10l10 -10l5.5 -5.5q13 -13 28.5 -18t29.5 -21q57 -72 87 -166.5t30 -187.5q0 -56 -22.5 -111.5 t-46.5 -105.5q-5 -11 -11 -18.5t-11 -15.5t-9.5 -17.5t-6.5 -23.5q-32 -35 -68 -65t-68 -65q-18 -6 -32 -13.5t-31 -18.5q-32 -19 -66.5 -24.5t-72.5 -5.5h-15q-9 0 -19.5 0.5t-19.5 3.5t-14.5 8.5t-5.5 14.5z">
<glyph unicode="6" horiz-adv-x="1032" d="M304 442q0 -76 32 -141q0 -3 2 -9q1 -3 3 -5q0 -1 1 -6.5t2 -12t2 -12t2 -6.5q0 -4 5 -16t7 -16q4 -8 9.5 -20t11.5 -24t11.5 -22t10.5 -14q12 -9 22.5 -14.5t22 -11t23.5 -11t26 -14.5q3 -1 13 -9.5t13 -8.5h18q16 0 27 2.5t21 7t19 11.5t20 16q18 14 30.5 27t23 26.5 t19.5 29.5t20 36q2 2 4.5 9.5t2.5 9.5v15v42q1 1 6 8.5t5 9.5q2 3 4.5 12t2.5 13v125q5 5 6.5 8.5t1.5 9.5q0 9 -6.5 24t-15 30.5t-17.5 29t-13 20.5q-2 5 -7.5 16l-11.5 23t-11.5 22.5t-7.5 14.5q-18 10 -27.5 25t-26.5 30q-10 12 -27.5 21t-27.5 18q-7 2 -18.5 11t-20.5 8 q-1 0 -6 -2l-10 -4t-9.5 -4.5t-4.5 -3.5q-12 -4 -28.5 -10.5t-32.5 -15t-28.5 -18t-16.5 -18.5q-2 -1 -3 -6.5t-2 -12t-1.5 -12t-0.5 -6.5q-2 -4 -4.5 -10.5t-2.5 -8.5q0 -1 -3.5 -5.5t-8 -9.5t-8.5 -9.5t-5 -6.5q-25 -40 -31 -85t-6 -90zM130 465v10q5 52 10.5 110 t25.5 107q1 3 4.5 10.5t8 15.5t8 14.5t5.5 8.5q1 4 8.5 13.5t9.5 11.5q7 14 8.5 29t10.5 28q17 22 33 40.5t36 33.5q1 2 7 7t6 7q0 1 1.5 12t3.5 13q2 3 6 10t9 15t9.5 15t7.5 10q7 10 18 16t22 11t22 11.5t19 17.5l119 75q12 18 26 25.5t28.5 10.5t29 5t27.5 8q1 1 4.5 5 t8 8t8 7.5l4.5 4.5q8 5 19.5 9.5t24.5 7.5t25.5 5t22.5 3h19h7q2 0 9 5.5t9 8.5q12 3 22.5 4t20.5 2t19.5 3.5t19.5 8.5q8 1 28.5 4.5t43.5 7.5t43 7.5t28 5.5h5q9 0 21 -3.5t23.5 -10t19 -16t7.5 -20.5q0 -19 -17 -32.5t-34 -17.5q-1 -1 -8.5 -2t-15.5 -2t-15.5 -2t-8.5 -1 q-5 -2 -17.5 -3.5t-14.5 -1.5q-61 -19 -119 -39t-118 -43q-22 -8 -44 -24t-39 -25q-34 -23 -71 -41t-70 -41q-5 -3 -17.5 -16.5t-26 -29.5t-23.5 -30t-10 -20q0 -8 3 -16t12 -13q11 2 21.5 2h20.5q41 0 76.5 -6t78.5 -14q2 0 8 -1t12.5 -2t12 -2t5.5 -2q2 0 14.5 -7 t16.5 -11q54 -35 91 -74t60.5 -84t33.5 -97.5t10 -114.5q0 -59 -13.5 -115.5t-41.5 -105t-70.5 -86t-100.5 -59.5q-17 -7 -38 -17t-41 -15q-11 -3 -23 -4t-25 -1t-25.5 0.5t-23.5 0.5h-17.5t-16.5 -1q-2 0 -8 -4q-3 -2 -5 -3h-7q-24 0 -47.5 7t-44.5 18q-33 15 -62 28 t-57 34q-6 4 -12 13t-12 19.5t-11 20.5t-9 16q-30 41 -50.5 82t-25.5 93q0 3 -1 15.5t-1.5 27t-1.5 27.5t-1 17q0 1 -1 6.5t-2 12t-2 12.5t-1 8v8z">
<glyph unicode="7" horiz-adv-x="940" d="M281 -336q0 32 11 55.5t26 52.5q3 6 11.5 21t19 31.5t19.5 31.5t14 21q1 20 9 48t19.5 57t23.5 55.5t22 43.5q0 2 2.5 11t3.5 9q0 2 2.5 7t4.5 5q1 1 4.5 5.5t7.5 10t7 10t3 5.5q1 1 3 7t4.5 12.5t4 12l1.5 5.5q1 1 4 6t6.5 10t6 9.5t2.5 5.5q0 2 4 8q2 3 3 5q0 3 2 12 t4 19.5t3.5 19.5t1.5 11q2 4 8 14t6 11q1 3 4.5 12t7.5 19.5t7.5 19.5t3.5 12q3 1 7.5 8.5t6.5 9.5q1 2 6 7t5 7q1 1 3.5 6.5t5 11.5t4 11.5t1.5 7.5q1 3 7.5 15.5t14 27.5l14 28t8.5 16q1 3 5.5 13t9.5 22t9 23t6 17q2 3 4 9l4 12l3.5 10.5t1.5 5.5v14q0 15 -6 23t-16 11.5 t-22 5t-25 4.5q-1 0 -11 2.5t-14 2.5h-55q-3 0 -10.5 3t-9.5 3h-14q-14 0 -28.5 -3t-28.5 -3h-8q-3 0 -13 3t-13 3h-48q-3 0 -8.5 2.5t-5.5 4.5h-60h-47q-56 0 -108 -9t-97 -48q-8 4 -10 7t-2 11v7q1 6 4.5 18.5t8 25.5t8 24t4.5 14q4 12 16.5 27.5t20.5 28.5q1 3 5 8.5 t8.5 11.5t8 10.5t3.5 6.5q7 6 12 10.5t7 14.5q3 13 5 32t7.5 37t16 31t30.5 13h7.5t8.5 -2q9 -9 9 -20q0 -7 -2 -14t-2 -13q0 -9 6 -16.5t26 -15.5q2 -2 12 -7.5t14 -5.5q0 -2 6 -2q9 0 15.5 4t16.5 4q15 0 24.5 -4t22.5 -4q35 0 71 15h311q3 0 10 0.5t15 1.5t14.5 2t8.5 3 q3 0 13.5 -1t18.5 -1q10 0 12 2q2 0 10 1.5t10 3.5h4h1q3 -2 8 -6t10 -9t9 -9.5t5 -6.5q0 -2 1 -11t1 -14q0 -16 -5 -28t-12.5 -22.5t-17 -20.5t-17.5 -23q0 -1 -3.5 -9t-3.5 -9q-1 -6 -3.5 -14t-5.5 -16t-5.5 -14t-3.5 -7q-2 -3 -8 -16t-13.5 -27.5t-14 -27.5t-8.5 -16 q0 -1 -0.5 -6t-1.5 -10t-1.5 -10t-1.5 -6q-2 -3 -7.5 -13.5t-12 -23t-12 -23.5t-7.5 -14q0 -2 -2 -9t-5 -9q-8 -35 -20.5 -70t-27.5 -68q-8 -18 -16 -28t-16 -29q0 -1 -0.5 -4.5t-1.5 -7.5t-2.5 -8t-2.5 -5q0 -2 -8.5 -9.5t-9.5 -9.5q-13 -19 -15.5 -40t-15.5 -41 q-25 -38 -44.5 -78t-37.5 -83q-4 -14 -8 -29t-10 -26q-13 -27 -29 -52.5t-25 -53.5q-2 -3 -4.5 -10.5t-4.5 -15.5t-3.5 -15t-1.5 -10v-6v-19q-1 -1 -6 -5.5t-5 -5.5q-2 -3 -4.5 -7.5t-2.5 -6.5q-13 -28 -24 -57t-25 -55q-6 -9 -17 -10.5t-21 -1.5q-16 0 -30 5.5t-14 24.5z ">
<glyph unicode="8" horiz-adv-x="961" d="M478 815q6 -2 18.5 -8.5t25 -13.5t23 -12t12.5 -3q3 0 8.5 8t5.5 10q14 17 27.5 34.5t27.5 34.5q3 2 13.5 11.5t11.5 12.5q32 48 55.5 105.5t32.5 114.5v1q0 20 -7.5 36.5t-11.5 36.5v25q-1 11 -6.5 13t-11.5 10q-1 1 -3.5 7t-6 12.5t-6 12t-3.5 5.5q-15 20 -36 36.5 t-45.5 28t-50 18t-49.5 6.5q-20 0 -33 -1.5t-22.5 -5.5t-19 -11.5t-22.5 -19.5q-55 -45 -78 -104.5t-23 -129.5q0 -14 5.5 -38t13.5 -49t18.5 -46.5t19.5 -30.5q6 -6 22.5 -21t35.5 -32t35.5 -32t23.5 -21zM285 242q2 -4 6 -10.5t6 -8.5q1 -2 5 -7t8.5 -10t8 -9.5l3.5 -4.5 q9 -15 22.5 -34.5t29.5 -37.5t35.5 -30.5t40.5 -12.5q2 0 10.5 1t12.5 1q3 10 7 11.5t9 1.5h8q1 0 5.5 -1t10 -2t9.5 -2t5 -1q11 0 28 10.5t34 24.5t31 28.5t20 23.5q0 1 3 6.5t6 12t6 12t3 6.5q1 2 6 9t10.5 15.5t10 16t5.5 9.5q2 2 3.5 6t1.5 6v4v3q0 1 -1 4.5t-1.5 7.5 t-1.5 8t-1 5v69q-2 27 -13.5 55.5t-29 55t-39.5 49.5t-44 38q0 2 -8.5 7t-9.5 5q-14 12 -24.5 23t-21.5 20t-24.5 14t-32.5 5q-14 0 -27 -10.5t-25 -25.5t-21.5 -30.5t-15.5 -25.5q-3 -3 -7 -9t-7.5 -12t-6.5 -11t-4 -7q-13 -21 -24 -45t-18.5 -50t-11.5 -52.5t-2 -50.5 q0 -5 1 -15.5t3 -22.5t4 -22t4 -14zM111 260v131q1 35 5.5 50.5t5.5 17.5q8 19 16 38.5t23 35.5q4 5 15.5 17t24 25t24.5 24.5t17 15.5q2 2 11.5 6t13.5 6q1 1 9 7t9 6q2 2 9 3.5t10 1.5q4 2 14 5t22 6t23 5.5t16 3.5q12 7 12 19q0 10 -7.5 17t-17.5 13q-2 2 -10.5 6.5 t-18 9.5t-18 9.5t-9.5 6.5q-4 3 -16.5 15.5l-27.5 27.5l-29.5 29.5t-20.5 21.5q-1 1 -5 6.5t-8 12t-7.5 12t-4.5 6.5l-18 18q-10 15 -16 36t-9.5 44t-6 45t-5.5 38q-4 16 -9.5 34t-4.5 35q0 1 1.5 8t3.5 16t4.5 18t4.5 14q4 17 9 41t16 38q11 19 28 35t34 29q9 8 15.5 19 t14.5 17q11 8 22.5 13.5t21.5 12.5q1 0 4.5 3t8 6.5t8 6t4.5 2.5q42 18 88 21.5t92 3.5h42h77q15 -9 31.5 -15t33.5 -12t33.5 -12.5t32.5 -17.5q12 -7 33 -26.5t42.5 -43.5t39.5 -47.5t23 -38.5q8 -20 10 -38t2 -41q0 -68 -24 -122t-64 -108q0 -1 -3 -5t-7 -9.5t-8 -10 t-7 -7.5q-10 -12 -22.5 -19.5t-26 -14t-26.5 -13t-24 -15.5q-5 -3 -14 -12t-19 -18.5t-19 -18.5t-12 -13q9 -11 15 -23.5t17 -20.5q2 -2 13 -7t12 -6q50 -36 82 -84.5t61 -102.5q7 -12 11.5 -28t6 -33t2 -33.5t0.5 -29.5q0 -39 -1.5 -79t-11.5 -78q-6 -26 -22.5 -50 t-33.5 -42q-30 -34 -59.5 -58t-62 -39t-69.5 -22t-82 -7q-31 0 -68 2.5t-73.5 10.5t-70 23t-57.5 40q-1 0 -2.5 3.5t-3.5 8t-3.5 8.5t-2.5 5q-5 8 -15 12t-17 13q-14 18 -25.5 39.5t-24.5 41.5q-8 11 -19 18.5t-11 24.5z">
<glyph unicode="9" horiz-adv-x="1049" d="M292 556q0 -26 7 -51t11 -51q3 -22 3.5 -43.5t8.5 -42.5q1 -1 3.5 -4.5t5 -7.5t4 -7.5t1.5 -4.5q1 -4 2.5 -17t3.5 -15q2 -1 9.5 -8.5l9.5 -9.5q1 -2 2.5 -7.5t3.5 -11.5t3.5 -11.5t2.5 -6.5q0 -2 3 -7t3 -6q26 -39 66.5 -69.5t90.5 -30.5q14 0 28 1.5t27 10.5 q16 15 34 33t33.5 37.5t27 41t16.5 44.5v9v23q6 27 12 49.5t6 51.5v9q0 2 -0.5 11.5t-1.5 20t-1.5 20t-1.5 11.5v44v19q0 1 -1 5t-2 9t-2 9.5t-1 6.5q-4 14 -15 24.5t-17 25.5q0 2 -1.5 8.5t-3.5 14t-3.5 14t-1.5 7.5q-13 26 -37.5 53.5t-43.5 47.5q-6 4 -20 6.5t-19 4.5 q-21 11 -38.5 18.5t-43.5 7.5q-8 0 -23.5 -10.5t-32 -24t-30.5 -27t-18 -19.5q-32 -43 -50.5 -97t-18.5 -108zM-125 -341q0 7 5.5 13.5t13.5 11t17 7.5l15 5q54 13 107.5 25.5t108.5 24.5q27 4 49 19.5t44 29.5q17 10 38.5 14.5t36.5 17.5q2 0 9.5 8.5t9.5 9.5q1 0 10 5 t21.5 12l25 14t19.5 11q14 8 25.5 18.5t24.5 18.5q2 3 9 5t9 2q9 7 12 16.5t14 15.5q9 7 24.5 18t30.5 24.5t26 28t11 28.5q0 2 1 5t1 5q0 10 -9 10q-1 0 -2 -0.5t-3 -0.5q-8 0 -26.5 1t-39.5 2t-39.5 2t-25.5 1q-4 0 -17 3.5t-15 3.5h-37q-17 3 -34.5 11t-35 18t-33 21 t-28.5 19q-17 10 -25 26.5t-25 28.5l-67 138v37q-1 1 -5 5.5t-8.5 9.5t-8 9.5t-3.5 5.5q0 11 2.5 17t3.5 9q4 16 5.5 21.5t1.5 18.5q0 9 -3.5 13t-3.5 12v3q5 51 12.5 101t23.5 99q8 22 25.5 37t31.5 31q1 1 4.5 5.5t7.5 10t7.5 10t5.5 5.5q2 5 10 11t8 8q1 0 6 1l10 2 t9.5 2t5.5 2q13 4 25.5 12t24.5 16t24.5 15.5t25.5 11.5q46 13 93.5 22.5t96.5 9.5q37 0 69 -13t64 -31q3 -1 11.5 -5.5t18 -10t17.5 -10t10 -6.5q3 -2 11 -10t18 -17.5t19 -19.5t14 -15q3 -3 9.5 -11t13 -16.5t12.5 -16.5t9 -11q2 -3 4.5 -10t2.5 -9q23 -62 39 -126.5 t16 -130.5q0 -50 -8 -100.5t-23 -100t-37 -96t-51 -87.5q-2 -3 -8 -11l-13.5 -18t-14 -18t-8.5 -11q-1 -2 -2 -5q-2 -6 -3 -6q-2 -4 -7 -10.5t-6 -8.5l-12 -6q-32 -26 -61 -56t-62 -55q-19 -16 -38.5 -26t-36.5 -25q-2 -1 -7.5 -5.5t-11.5 -10t-11.5 -9.5t-6.5 -5 q-3 -2 -13.5 -4.5t-12.5 -2.5t-7 -4t-10 -8.5t-9.5 -8t-4.5 -4.5q-24 -19 -48.5 -25.5t-51.5 -18.5q-30 -12 -58.5 -22.5t-60.5 -20.5q-2 -1 -5 -2q-5 -2 -8 -5q-20 -12 -43.5 -20.5t-49 -13.5t-51 -7.5t-48.5 -2.5h-12q-8 1 -21 2.5t-25.5 2.5t-22.5 1.5t-11 0.5 q-5 1 -14 3t-17 5.5t-14 9.5t-6 14z">
<glyph unicode=":" horiz-adv-x="507" d="M136 774q0 31 14 56.5t36.5 42.5t50.5 26.5t57 9.5h2q3 -1 11 -4t17 -6t17.5 -6t11.5 -4q19 -29 31.5 -51.5t12.5 -57.5q0 -38 -13 -68.5t-51 -44.5l-8 -4l-13 -6.5t-13.5 -6t-9.5 -2.5h-10q-28 0 -53.5 8.5t-45.5 25t-32 40t-12 52.5zM111 123q0 12 3.5 26.5t10 28 t16 24.5t20.5 16q8 5 20.5 8t26 4.5t26 1.5h20.5h42q4 -3 10.5 -7.5t7.5 -6.5q31 -16 41 -44.5t10 -60.5q0 -24 -9 -46t-24.5 -39.5t-37 -27.5t-45.5 -10q-9 0 -23 1.5t-27.5 5t-25.5 9.5t-18 14t-14 21.5t-14.5 28t-11 29t-4.5 24.5z">
<glyph unicode=";" horiz-adv-x="515" d="M115 738q0 36 7 68q11 10 20.5 22t20 22.5t23.5 17.5t33 7q14 0 36 -3.5t33 -9.5q13 -5 23.5 -17.5t18 -27.5t11.5 -31t4 -28q0 -23 -8 -43.5t-22 -36t-33.5 -24.5t-42.5 -9q-45 0 -77.5 17.5t-46.5 64.5v11zM127 -349v1q18 23 35.5 42.5t34.5 39t32 41.5t29 50 q7 16 15 30.5t14 29t10 30t4 33.5q0 9 -2 21.5t-7 24.5t-13.5 20.5t-20.5 10.5h-37q-19 1 -34 12t-25.5 27t-16 34t-5.5 35q0 21 2 34t8 21.5t17 15t29 13.5q20 8 39 13t43 5q5 0 12 -3t13.5 -7t12.5 -8t9 -7q60 -34 83 -87t23 -120v-35l-4.5 -13.5t-7.5 -23t-8 -23.5 t-5 -14q-1 -2 -2.5 -9t-3.5 -15.5t-3.5 -16t-2.5 -9.5q-9 -26 -37.5 -61t-65.5 -67t-77 -54.5t-72 -22.5q-5 0 -10 1.5t-5 10.5z">
<glyph unicode="&#x3c;" horiz-adv-x="1019" d="M484 71l-38 21q-17 13 -28.5 21t-19 13t-13 9t-11.5 9q-12 12 -19.5 18.5t-14 12.5t-13.5 12t-17 16q-18 15 -30.5 26.5t-26.5 24.5l-64 64q-14 12 -32 25t-35 27q-10 8 -19.5 14.5t-17 13t-12 13.5t-4.5 17q0 9 5 17.5t12.5 16t16 14.5t15.5 13q23 20 43 34.5t38 29.5 q21 14 33.5 25.5t30.5 24.5q16 13 25 20.5t16 13.5t14 12.5t19 15.5q14 9 27 22.5t20 18.5l40 26q15 11 29 22t25 19q13 10 25 17q21 17 44 34.5t43 32.5q35 24 56.5 42.5t41.5 32.5q17 13 28 22.5t19 17.5t16 14.5t19 14.5q30 20 57.5 36.5t55.5 37.5q11 -10 13 -15.5 t2 -24.5q0 -25 -9.5 -38.5t-23.5 -23t-30.5 -19.5t-30.5 -28q-10 0 -26.5 -10.5t-34.5 -24.5t-34 -28t-23 -20q-4 -1 -12 -7t-16 -13t-15 -13.5t-9 -8.5l-67 -45q-6 -7 -15.5 -16.5t-20 -19t-22 -18t-21.5 -12.5q-9 -5 -18 -15.5t-24 -26.5q-17 -16 -29 -23.5t-28 -16.5 q-26 -20 -44 -34.5t-35 -27t-34.5 -26.5t-41.5 -34q17 -14 34 -33.5t35 -34.5q21 -13 37.5 -26.5t31.5 -27t30.5 -27.5t33.5 -28q1 -2 10 -9.5t13 -8.5q3 0 12 -8t20 -18.5t21 -19.5t14 -11q22 -20 38.5 -31.5t40.5 -29.5q20 -14 46.5 -34.5t52.5 -37.5q22 -15 48 -39 t45 -42q10 -8 18 -13.5t14.5 -10.5t14 -11t18.5 -15q23 -15 46.5 -29.5t46.5 -36.5q8 -9 9 -16.5t1 -18.5q0 -9 -5 -18.5t-11.5 -18.5t-14 -17.5t-13.5 -16.5q-10 -10 -18 -12.5t-22 -2.5q-18 0 -35 10.5t-32 21.5q-11 7 -25 17t-29 20l-52 44l-39 33q-10 10 -18.5 17.5 t-18 15.5t-20 16.5t-25.5 19.5q-8 6 -19 13.5t-21.5 15t-18.5 13t-10 5.5z">
<glyph unicode="=" horiz-adv-x="794" d="M137 328v47q11 25 23 32.5t39 7.5q48 0 96.5 -5t96.5 -5l20 -2h218q7 0 12 -5t8 -11.5t4.5 -13t1.5 -10.5v-49v-32q-2 -15 -13 -26t-28 -11h-16q-7 0 -35.5 1t-61 2.5t-61 2.5t-34.5 1h-175q-2 0 -8.5 1t-14 1.5t-14 1.5t-8.5 1h-24q-17 9 -21.5 22t-4.5 27v22zM137 603 v47q11 26 23 33t39 7q48 0 96.5 -5t96.5 -5l20 -1h218q7 0 12 -5t8 -12t4.5 -13.5t1.5 -10.5v-48v-31q-2 -15 -13 -26t-28 -11h-16q-7 0 -35.5 1t-61 2.5t-61 2.5t-34.5 1h-175q-2 0 -8.5 1t-14 1.5t-14 1.5t-8.5 1h-24q-17 9 -21.5 21t-4.5 26v22z">
<glyph unicode="&#x3e;" horiz-adv-x="1019" d="M486 45q-2 0 -10 -5.5t-18.5 -13t-21.5 -15t-19 -13.5q-14 -11 -25 -19.5t-20 -16.5t-17 -15.5t-18 -17.5l-39 -33l-52 -44l-30 -20t-24 -17q-17 -11 -33.5 -21.5t-33.5 -10.5q-14 0 -23 2.5t-17 12.5q-12 16 -25.5 33t-13.5 35q0 11 1.5 18.5t10.5 16.5q23 21 46 35.5 t44 29.5q11 10 18.5 16t14.5 11t14.5 10.5t18.5 13.5q10 9 22 19.5t24.5 21.5t24.5 21t23 18q26 18 53 38.5t46 34.5q24 17 41 28.5t38 31.5q4 2 14 11t21 19.5t20.5 18.5t11.5 8q4 2 12 9.5t10 9.5q19 14 34.5 28t30.5 27.5t31 27t37 26.5q19 15 34 34t31 33 q-24 20 -42.5 34.5t-37 28t-38.5 28.5t-45 35l-27.5 16.5t-27.5 23.5q-17 16 -25 26.5t-17 15.5q-11 4 -22.5 12.5t-22 18t-20 19l-16.5 16.5l-67 45q-2 2 -9 8.5t-15 13.5t-15.5 13t-10.5 7q-8 6 -24 20t-34 28t-34.5 24.5t-25.5 10.5q-15 18 -31.5 28t-30.5 19.5t-23 23 t-9 38.5q0 19 4.5 24.5t15.5 15.5q28 -21 55 -37.5t56 -36.5q11 -8 19 -14.5t16.5 -14.5t19.5 -17.5t29 -22.5q19 -14 41 -32.5t55 -42.5q21 -15 44 -32.5t45 -34.5q11 -7 24 -17q11 -8 25.5 -19t29.5 -22l38 -26q7 -5 21 -18.5t28 -22.5q11 -9 18 -15.5t14 -12.5t16 -13.5 t26 -20.5t29.5 -24.5t32.5 -25.5q19 -15 39.5 -29.5t43.5 -34.5q6 -6 14 -13t15.5 -14.5t13 -16t5.5 -17.5q0 -10 -5 -17t-12.5 -13.5t-16.5 -13t-18 -14.5q-17 -14 -35.5 -27t-31.5 -25l-64 -64q-15 -13 -27 -24.5t-32 -26.5q-9 -10 -16 -16t-13.5 -12t-14 -12.5 t-19.5 -18.5q-6 -5 -11.5 -9t-13.5 -9t-19 -13t-29 -21l-38 -21z">
<glyph unicode="?" horiz-adv-x="680" d="M169 830q0 16 8.5 25t21 13.5t27 5t26.5 0.5q3 0 14.5 -1t25 -2.5t25.5 -2.5t15 -1t13 1t21 2.5t21 2.5t13 1h43q1 0 6 1.5t10 3.5t9.5 4t5.5 2q38 14 53 32t15 57v17q0 2 -2 9t-5 16l-6 18t-5 14q-1 4 -4.5 12t-7.5 16.5t-7.5 16.5t-5.5 11t-5 8.5t-7 11t-7.5 10 t-5.5 5.5q-2 2 -12 4.5t-12 2.5q-14 4 -25.5 12.5l-23 17t-23.5 15.5t-27 10q-2 2 -7 2t-11 -1t-7 -1q-15 4 -31.5 10t-30.5 10q-3 1 -10.5 1.5t-16 1.5t-15.5 1.5t-9 0.5q-15 5 -28.5 15.5t-23.5 24t-16 29.5t-6 32q0 31 11.5 52.5t31 35t44.5 19.5t53 6q47 0 89 -25 q9 -5 12.5 -9t6 -7.5t6.5 -6t13 -3.5q4 -3 12 -11t17 -16.5t16.5 -16.5t10.5 -11q0 -1 2 -5t4 -8.5t3.5 -8t2.5 -3.5q2 0 7.5 -2.5t5.5 -4.5q23 -19 39 -46t30 -55q2 -1 4.5 -5.5t2.5 -6.5v-11q0 -2 3.5 -10t7.5 -18t7.5 -18t4.5 -10q5 -14 6 -33t1 -36v-23q0 -32 -4 -70.5 t-15 -67.5q0 -2 -3 -8.5t-7 -14.5t-8 -15.5t-7 -11.5q-1 -3 -8 -16t-15.5 -28t-16.5 -28t-10 -16q-5 -9 -12 -20.5t-16 -22.5t-19.5 -20t-21.5 -12q-5 0 -20 -1.5t-31.5 -3t-31.5 -3.5t-21 -2q-34 -6 -44 -37q0 -3 -0.5 -10.5t-0.5 -15.5t-0.5 -15t-0.5 -10q0 -26 4.5 -52 t4.5 -52q0 -9 -1 -22t-5.5 -25t-13 -21t-22.5 -9q-8 0 -19 9.5t-15 15.5q-7 14 -7 27q0 8 1 16.5t1 17.5v8q-1 3 -4 16.5t-6 29t-5.5 29.5t-2.5 19q-2 3 -3 13.5t-2 23.5t-1.5 25.5t-0.5 18.5v72q0 3 -2 15t-5 26t-5 26t-2 15v7zM139 108q0 54 32 86.5t86 32.5 q24 0 44.5 -9.5t35.5 -25.5t23.5 -38t8.5 -46q0 -30 -10 -48t-26 -30.5t-37.5 -21t-43.5 -18.5l-12 3t-17 5t-17 5.5t-11 4.5q-1 0 -5.5 4t-10 9t-11.5 10.5t-10 8.5q-13 11 -16 25t-3 31v12z">
<glyph unicode="@" horiz-adv-x="1567" d="M598 469q0 -13 3.5 -23.5t17.5 -15.5q7 -12 17 -12q26 0 49 8t40 26l35 32.5t40 38.5q22 22 46 45l89 116l41 48l33 93l20 79q0 2 1 6t1 6q0 8 -2 17.5t-10 14.5q-3 5 -4 6q-2 1 -3 2h-3q-3 0 -3 2h-8.5t-5.5 1l-16 -1q-3 -1 -11 -4t-17.5 -7t-18 -7.5t-11.5 -5.5 q-5 -2 -7 -4t-6 -4q-3 -2 -12 -10t-19.5 -18t-20 -18t-12.5 -10q-30 -25 -53 -47t-43 -45q-5 -5 -8 -11.5t-5 -17.5q-2 -4 -5.5 -9.5t-8.5 -12.5q-8 -12 -15 -21t-15 -21q-2 -2 -5.5 -7.5t-7 -11.5t-6 -10.5t-3.5 -5.5q-17 -30 -32 -60t-26 -61q-10 -29 -10 -60zM836 385 q1 2 4.5 8.5t7 13.5t7.5 14t6 11q3 5 4 12.5t1 15.5q-1 2 -1 5v7q0 5 -5.5 13.5t-11.5 8.5q-4 0 -5 -1t-4 -2q-2 0 -4 -2.5t-4 -2.5q-1 -2 -4 -5q-2 -1 -3 -2q-1 -2 -5 -6l-8.5 -8.5t-8.5 -8t-6 -4.5l-59 -39l-7 -7t-11 -10.5t-11 -10t-8 -5.5q-23 -26 -57.5 -42t-68.5 -19 h-27q-17 0 -31 0.5t-28 3.5q-1 0 -4.5 2t-5.5 4q-20 13 -34.5 34t-20.5 45q-5 11 -6 22t-1 25v20q0 17 5 31t12 27q14 34 30 67t34 62q5 9 11 17.5t11 16.5q0 3 2 7q1 2 3 4q3 4 10 13t15 19t15 18.5t10 11.5q5 7 14.5 13t14.5 14q32 25 49.5 38.5t25.5 21.5q10 8 12 11 q2 2 10 10.5t17 19t17 19.5t10 11q4 4 11 9t12 5q7 1 12 5.5t13 9.5q37 32 75.5 49.5t87.5 27.5q18 4 35.5 4.5t40.5 0.5q10 -2 16 -7.5t14 -7.5q2 -2 5 -3.5t12 -1.5q4 0 9 1t11 2q11 3 15 12.5t10 18.5q11 12 26.5 23.5t34.5 11.5q24 -14 31 -30.5t7 -36.5q0 -31 -12 -55 t-24 -49q-6 -19 -7 -34q0 -7 -5 -10q-42 -86 -64.5 -133.5t-33 -70.5t-12 -28t-1.5 -7q0 -8 -2 -13q-8 -19 -14.5 -36.5t-17.5 -34.5q0 -2 -3.5 -11t-7.5 -18.5t-8 -18t-4 -9.5q-2 -5 -4.5 -10t-2.5 -12q0 -10 1.5 -19t11.5 -9h34q15 0 29.5 1t19.5 6q43 25 67.5 39.5t37 22 t16 9.5t5.5 2q29 25 52.5 57t41.5 68t30.5 74.5t18.5 76.5q4 15 5 34t1 38q0 13 -3 28.5t-5 32.5q-23 56 -41 99.5t-41 76.5l-73 94q-15 7 -27 16.5t-22.5 20t-21.5 20t-24 17.5q-33 22 -65 43.5t-58 25.5q-4 -2 -7.5 4t-7.5 6q-9 0 -16.5 1t-18.5 1q-7 0 -12 -2.5t-19 -2.5 q-6 0 -13.5 0.5t-18.5 2.5q-14 0 -26 -2.5t-25 -7t-28 -11t-35 -13.5q-68 -26 -110.5 -45t-72.5 -39.5t-54.5 -48t-56.5 -71.5l-25 -29q-18 -25 -28 -41t-15 -26.5t-6 -16.5t-1 -10l-49 -123q-5 -11 -9 -26t-6.5 -30t-4.5 -29t-4 -24q0 -5 -3.5 -15t-7.5 -21t-7.5 -22.5 t-3.5 -18.5q3 -41 6 -78t8 -71t13 -64.5t22 -58.5q7 -11 12.5 -23.5t11.5 -26t14 -29t19 -31.5q6 -12 16.5 -24t22 -23.5l22 -22t18.5 -20.5q12 -15 22.5 -26t22.5 -22t25.5 -22t30.5 -26q13 -2 28 -6t29 -9t25 -9t17 -6l61 -17q24 -2 48 -4.5t47 -4.5q29 -1 60 -4.5 t56 -3.5q8 0 12.5 1.5t9.5 1.5q29 5 59.5 14.5t59.5 17.5q2 3 21.5 14t42 24t41.5 23t21 10q24 9 40 18.5t24 9.5q5 0 5 -5q0 -9 -6 -22t-15 -26.5t-18.5 -25t-15.5 -16.5q-15 -12 -26.5 -21.5t-24 -18t-27.5 -17t-36 -17.5q-13 -6 -23.5 -11t-24 -10.5t-32.5 -11.5t-48 -13 q-26 -6 -46 -8t-40 -2q-11 0 -27.5 0.5t-35 1.5l-37 2t-31.5 1q-29 0 -58.5 5t-60 11.5t-61 14t-60.5 13.5q-2 0 -6 2.5t-6 4.5q-26 20 -56.5 37t-62.5 32l-34 16q-6 1 -23.5 15t-36.5 31t-34.5 33t-17.5 22l-79 140q-5 12 -12.5 33.5t-16 48.5t-17.5 56t-15.5 55.5 t-11 48.5t-4.5 35q0 9 3 14.5t3 15.5l-6 59q0 22 5.5 55.5t12.5 68.5t14 67.5t10 52.5q1 5 8.5 19.5t11.5 18.5q10 11 15.5 23.5t9.5 24.5t7.5 24.5t10.5 23.5q13 21 32 43t40 43.5t43 43t42 40.5q20 10 40 20.5t42 21.5q2 1 8 6t10 9l46 17l133 67q66 19 130 32.5t130 15.5 h55l81 -20l69 -22q8 -4 27 -11.5t39.5 -15.5t39 -16t25.5 -14q26 -26 45 -40t47 -30q9 -6 25.5 -25.5t33 -42.5t29.5 -44t15 -29q7 -22 10 -39t17 -42q7 -34 14.5 -71.5t13.5 -70t10 -55t4 -26.5q0 -12 -1 -20t-3 -15t-4.5 -14.5l-5.5 -16.5q-14 -21 -24.5 -36.5 t-10.5 -23.5q-14 -18 -20.5 -32.5t-13 -27.5t-15.5 -25.5t-28 -27.5q-35 -29 -58.5 -46.5t-44.5 -32t-44.5 -28t-57.5 -32.5l-72 -63q-3 -1 -11.5 -7t-10.5 -8q-9 -10 -19 -12.5t-18 -7.5q-18 -9 -30 -22t-29 -20l-34 -12h-3l-66 12l-4 2l-4 2t-3 1q-4 3 -11 8.5t-9 10.5 q-8 8 -11 17t-3 21v9z">
<glyph unicode="A" d="M452 570q27 -4 58 -6.5t62.5 -3.5t62 -1.5t56.5 -0.5h20q15 0 25 4.5t10 22.5q0 20 -9.5 39t-15.5 38q-11 38 -20.5 77t-23.5 74q0 2 -6 12.5t-7 12.5q-1 3 -2.5 12t-3.5 20t-3.5 20t-2.5 12q0 1 -3 8.5t-7.5 17t-8.5 19.5t-6 16l-2 4t-4 8.5t-4 8t-2 4.5q-5 9 -7 20 t-4.5 21t-6.5 19t-12 15h-5q-14 0 -23.5 -23t-16.5 -52t-11.5 -56.5t-7.5 -36.5q-2 -6 -6 -20t-6 -17q-11 -43 -23.5 -85.5t-21.5 -85.5q0 -1 -0.5 -7.5t-1.5 -14t-2 -14t-1 -8.5q-3 -8 -6.5 -12t-6.5 -8.5t-5 -10t-2 -14.5v-7q0 -8 2 -13.5t11 -7.5zM-35 22q0 8 6 17t12 13 q2 0 15 1.5t17 3.5q24 7 44 17.5t42 21.5q22 9 38 14t28.5 12t24 19t23.5 34q7 13 8.5 33t3.5 31q0 1 3.5 5.5t3.5 5.5q1 4 3.5 11t2.5 9q0 1 0.5 7t1.5 12t2 11.5t1 6.5q1 2 3 5q1 2 2 4.5t2 4.5q6 10 13.5 26t14.5 34t13 34.5t9 28.5q7 30 18.5 60t20.5 60q4 20 8 43t9 43 q2 3 6 15.5t6 16.5q1 2 7 9.5t6 9.5q1 1 1.5 5.5t1.5 10t1.5 10t0.5 5.5q2 4 4.5 12.5t4.5 16.5t3.5 14.5t1.5 7.5t3 7.5t6 14t5.5 14t3.5 8.5q2 2 6 13t8 23.5t7.5 24t3.5 14.5q4 10 8.5 26t10.5 32.5t14 31t18 21.5q4 25 13 47.5t19 44t17.5 44t7.5 47.5q0 21 -6.5 33 t-14 19.5t-14 14.5t-6.5 19q0 2 1 6.5t1 6.5q14 8 32 14t35.5 13.5t31.5 19t19 29.5q1 2 4 11t6 19t6 19t4 11q2 9 8.5 18t16.5 9q1 0 1.5 -0.5t1.5 -0.5h2q3 -2 7.5 -6.5t10 -9.5t9.5 -9.5t5 -6.5q2 0 4.5 -6.5t2.5 -10.5t3 -17t6 -27.5t6 -27.5t3 -16q1 -4 6 -19 l10.5 -31.5t10.5 -31t5 -18.5q9 -32 18 -69t19 -69q0 -1 2.5 -6.5t6 -12t7 -12t4.5 -6.5q8 -19 9.5 -40.5t9.5 -41.5q20 -63 41 -122t38 -122q1 -3 3 -12t4 -19.5t4 -19.5t2 -11q1 -2 4 -8.5t6.5 -13.5t6 -13t2.5 -7q0 -2 1 -8.5t2 -14t2 -14t1 -8.5l4.5 -18t8 -29.5 t8.5 -29.5t5 -18q11 -40 25.5 -79t24.5 -82q8 -38 15.5 -73.5t21.5 -70.5q6 -15 11 -32.5t14 -29.5q11 -17 28.5 -27.5t37 -16.5t40 -8.5t37.5 -3.5q15 -5 18.5 -15.5t3.5 -23.5q0 -1 -0.5 -2.5t-0.5 -3.5q-1 -3 -1 -5l-13 -7h-32h-44q-2 0 -9.5 3.5t-8.5 3.5h-5 q-16 0 -30 -3.5t-31 -3.5q-20 0 -40.5 3.5t-41.5 3.5q-11 0 -21 -3.5t-21 -3.5q-27 0 -53.5 3.5t-55.5 3.5q-42 0 -84.5 -7t-87.5 -7h-30q-8 7 -13.5 16t-5.5 20q0 13 14.5 20t36.5 11t49.5 6.5t53.5 6.5t47.5 12t32.5 22v21v21q-1 1 -2.5 7.5t-3.5 15t-4 16t-3 12.5 q-1 2 -4 10t-6.5 17.5t-6 17.5t-2.5 10q-1 3 -3.5 13l-5.5 22t-6 22.5t-3 13.5q-1 1 -3.5 9t-6 17.5t-6 18t-3.5 10.5q-3 11 -6 26.5t-7.5 31.5t-10.5 29t-15 19h-43h-44q-2 0 -10 -3.5t-10 -3.5h-2h-3q-1 0 -6.5 1t-12 2.5t-12 2.5t-6.5 1t-6 -1t-10 -2.5t-9.5 -2.5 l-4.5 -1h-115q-4 0 -13.5 -0.5t-20.5 -1.5t-20.5 -2t-13.5 -2q-2 -1 -3 -2q-2 -1 -2.5 -2t-1.5 -1q-20 -63 -38.5 -128t-35.5 -129q-4 -16 -11.5 -34t-7.5 -35q0 -13 6.5 -26t12.5 -23q3 0 12 -1t19 -2.5t19 -2.5t12 -1q1 0 6.5 -2t12 -4t12 -3.5t6.5 -1.5q13 -3 27.5 -4 t26.5 -4t20 -10.5t8 -23.5q0 -29 -12.5 -35t-34.5 -6h-13h-40q-2 0 -8.5 1t-13.5 2.5t-13.5 2.5t-8.5 1h-118q-2 0 -8.5 1t-14 2.5t-14 2.5t-8.5 1h-17q-9 0 -16 -1t-17 -6h-105q-4 -2 -10 -4.5t-8 -2.5h-5q-5 0 -13.5 3t-17 7.5t-15 11t-6.5 12.5z">
<glyph unicode="B" horiz-adv-x="1342" d="M526 991v-54q0 -34 1 -67t6 -65q1 -11 11.5 -18t21.5 -7q26 0 47 9t44 16q48 16 79.5 30t55.5 32t45.5 43.5t49.5 63.5q11 12 20.5 26t11.5 28v19v45q0 2 3.5 13t3.5 12v4v3q-5 20 -9.5 43.5t-10.5 43.5q-3 12 -12 31t-20 38t-22 35t-19 21q-2 1 -11 2.5t-9 3.5 q-1 2 -6 12.5t-5 13.5q-1 0 -4 3q-2 1 -3 2q-26 12 -53 24t-55 26q-5 1 -19 3t-29.5 4t-29.5 4t-19 2h-5q-26 0 -40 -17.5t-12 -45.5q1 -97 -3 -191t-4 -191zM514 153q0 -32 7 -51t23 -45q0 -2 3.5 -7t3.5 -6q2 0 11 -1t11 -1q20 0 35.5 9t35.5 11q18 1 33.5 1.5t30.5 1.5 t30 4.5t32 12.5q2 1 7.5 4.5t11.5 7.5t11.5 7t7.5 3q1 1 6.5 3.5t12 5t12 4t6.5 1.5q4 1 13.5 8.5t11.5 9.5q2 3 10 12.5t18 21.5t19 24t14 18q4 4 8.5 10t4.5 8q9 19 13.5 40.5t12.5 41.5v93q-5 5 -7 12t-2 13t1 12t1 10v3q-2 15 -11 29.5t-9 31.5q0 2 0.5 4t0.5 4 q-3 4 -11.5 15t-19 23t-20 22t-13.5 14q0 2 -8 9.5t-8 9.5q-2 2 -3.5 9.5t-1.5 10.5q-3 1 -7.5 5.5t-6.5 5.5q-23 18 -49.5 31t-54.5 22t-57 16t-57 14q-2 0 -7.5 1.5t-11.5 3.5t-11.5 4t-6.5 3q-9 1 -20 -4t-21 -13t-16.5 -17.5t-6.5 -16.5v-148q2 -4 4.5 -13.5t2.5 -11.5 v-5v-2q0 -1 -2.5 -6t-4.5 -7q0 -17 1 -31t1 -28q0 -15 -2 -29t-7 -31q-2 -2 -3 -5q-2 -6 -2 -7v-3q0 -9 2.5 -17t2.5 -19v-10q0 -1 -2.5 -9t-2.5 -9q0 -3 2.5 -10.5t2.5 -9.5v-21q0 -26 -2.5 -53.5t-2.5 -53.5zM71 12q0 11 6.5 20t16 16t20.5 12t19 9q33 -3 69 -3 q19 0 37 2.5t32 11t22 23.5t8 40v237q-2 4 -3.5 16t-1.5 16v6v5q0 3 1 13t1.5 22t1.5 22.5t1 13.5q0 8 0.5 31t1 48.5t1 49t0.5 32.5v32q1 9 1.5 34t1 52.5t1 52.5t0.5 34q0 2 -1 7.5t-2.5 12t-2.5 12t-1 7.5v7v5q0 2 1 8.5t2 13.5t2 13.5t2 9.5v287q0 26 6.5 48.5t6.5 50.5 q0 27 -7.5 45.5t-31.5 35.5q-6 -2 -21.5 -2h-31.5h-31.5t-19.5 2q-9 0 -22.5 5t-27 11.5t-24.5 14.5t-15 14q13 20 28 24.5t33 4.5h38q3 0 13.5 3.5t12.5 3.5q1 0 5 -1t8 -2.5t7.5 -2.5t4.5 -1h107q7 -4 16 -5.5t18 -1.5h23h12l8 -2q8 -2 9 -3h64h23q3 0 11.5 -1t17.5 -2 t17 -2t11 -2l14 7h104q4 2 17 3.5t15 1.5l4 2l4 2q89 0 172 -26l6 -6q26 -18 54 -31t54 -27l2 -2q3 -3 5 -4q0 -2 5 -9.5t6 -9.5t3 -3q1 -3 4 -3q23 -29 42 -57t33 -58t21.5 -63t7.5 -71v-7q0 -2 -1 -9t-1.5 -15.5t-1.5 -15.5t-1 -10v-27v-12q-3 -9 -7 -17q-3 -7 -7 -13.5 t-6 -11.5q-9 -23 -19.5 -52t-27.5 -49q-2 -1 -11 -2t-9 -3l-9.5 -9.5t-9.5 -10.5q-1 -1 -8.5 -4t-16 -7t-16 -8t-9.5 -6q-4 -3 -13 -11.5t-19 -18t-18.5 -18.5t-11.5 -13q1 -4 7 -6t13 -2.5l14 -1t10 -1.5q1 -3 11 -9.5t14 -10.5q1 -2 9 -9.5t9 -9.5q1 -1 5.5 -3.5t9.5 -5.5 l10 -6t7 -3q30 -24 54 -56t45 -64q1 -1 4.5 -5.5t7.5 -10t8 -10.5t5 -6q8 -13 16 -38t14 -52t10 -52.5t4 -40.5q0 -14 -4.5 -30t-8.5 -29q-2 -6 -3.5 -17.5t-1.5 -13.5v-31q-3 -12 -11 -29t-15 -28q-8 -14 -18 -31t-22 -33t-25 -30t-27 -23q-3 -2 -12 -7t-20 -10.5l-20 -10 t-12 -4.5q-9 -5 -14.5 -8.5t-11.5 -6.5t-13 -6t-18 -5t-27 -5l-32 -6q-18 -4 -38 -7h-345q-2 -1 -8.5 -2t-13.5 -2t-13.5 -2t-9.5 -1h-187q-14 -4 -26.5 -5t-25.5 -1h-42h-23q-2 0 -9.5 -2.5t-9.5 -2.5h-16q-6 0 -16 1t-19.5 4.5t-16.5 9.5t-7 15z">
<glyph unicode="C" horiz-adv-x="1500" d="M564 20q-25 14 -51.5 24t-52.5 27q-2 0 -7 3.5t-10 7.5t-9.5 8t-5.5 6q-13 8 -26 14t-24 14l-64 64q-2 2 -9.5 7t-8.5 5q0 7 -7 7q-14 20 -30.5 39.5t-30.5 42.5q-1 0 -5.5 10t-5.5 15q-47 92 -83 187q-1 1 -7 12t-6 13v38q-3 32 -7.5 61.5t-4.5 61.5v32q1 10 2.5 35.5 t3.5 54.5t3.5 54.5t2.5 36.5q2 28 12.5 52t19.5 49q0 1 1 5t2 9.5t2 10t1 6.5q1 2 3.5 9.5t6 15.5t6 15.5t3.5 9.5q0 1 1 5.5t2 10t2 10t2 6.5q0 1 4.5 5t10 9.5t10.5 10t7 5.5q23 28 44.5 57t47.5 56q48 52 99 95t119 66q7 3 16.5 8t19.5 10t20.5 9t19.5 5h25q2 0 11 2.5 t14 4.5q4 1 14.5 4.5l22.5 7.5t23 7.5t16 5.5h123q30 0 49 -1t31 -2t18 -2t9 -2q5 -1 26 -6.5t45 -12t45 -12t27 -6.5q4 0 17 -2.5t15 -4.5q1 0 6.5 -4t11.5 -8.5t11.5 -8t7.5 -4.5q2 0 12.5 -3t12.5 -4q8 -6 15 -14.5t14.5 -16.5t16 -13.5t20.5 -5.5t20.5 17t16.5 37t17 37 t23 17q10 0 16.5 -10.5t10 -24.5t4.5 -28t1 -20q0 -9 -1 -14.5t-6 -13.5v-289q0 -20 -7.5 -36.5t-29.5 -19.5q-5 -1 -10 3t-9 9.5t-7.5 11t-5.5 7.5q0 2 -8.5 9.5t-9.5 10.5q-3 4 -9.5 13t-13 18.5t-12.5 18.5t-7 12q-13 19 -18.5 42.5t-20.5 43.5q-17 23 -33.5 38t-35.5 32 q-22 19 -38 34.5t-32 27.5t-35.5 21.5t-48.5 17.5q-38 9 -78.5 17t-78.5 8q-20 0 -38.5 -7t-36.5 -17.5t-35.5 -23t-33.5 -22.5q-14 -9 -29 -12t-28 -14q-27 -23 -49.5 -51t-51.5 -49q-2 -2 -6 -6.5t-6 -5.5q0 -2 -6 -15t-7 -17q-4 -7 -11.5 -16.5l-15 -19t-14 -19.5 t-8.5 -19q-6 -26 -8 -50.5t-10 -50.5q-8 -21 -15 -41.5t-11 -45.5q-2 -13 -2.5 -33t-8.5 -34q-2 -7 -3 -24t-2 -36t-1.5 -36t-0.5 -24q0 -30 5.5 -63t14 -67t18.5 -66.5t19 -60.5q0 -1 1.5 -8t3.5 -15.5t4 -16t3 -10.5q0 -3 5.5 -11t12 -17.5t12.5 -17t8 -8.5q1 -2 4.5 -8.5 t7 -14t7 -14t3.5 -8.5q14 -17 27 -30t26.5 -24t28 -22t32.5 -25l19 -19q17 -8 42.5 -21.5t39.5 -35.5q46 -4 89.5 -14.5t90.5 -10.5h20q14 0 27 1t29 8q1 0 4.5 1.5t7.5 4t7 4t4 1.5q3 1 14.5 4t24 6t23.5 5.5t14 3.5q1 0 8.5 5t9.5 7q1 1 5 4.5t8.5 7t8 6l3.5 2.5 q3 1 10.5 3t10.5 2q1 2 2 3l3 3q4 5 11.5 15t15.5 20t14.5 18.5t8.5 10.5q1 1 6 7.5t10 14t10 14t6 8.5q1 1 4.5 4t7.5 7t7.5 8t3.5 6q2 0 4.5 8.5t2.5 10.5l5 10t8 17.5t7.5 17.5t4.5 10t3 9.5t4 15.5t3.5 15.5t1.5 9.5q2 4 5 10.5t6.5 12.5t9 10t11.5 4q5 0 10.5 -0.5 t8.5 -5.5q2 -3 5 -9l6 -12t5 -10.5t2 -5.5q0 -2 -1.5 -10t-3.5 -18t-4 -18.5t-3 -10.5q-3 -17 -7 -39.5t-7.5 -46.5t-6.5 -47.5t-4 -41.5v-44v-18q-2 -7 -5 -12l-4 -10t-4 -8q-3 -9 -3.5 -11.5t-8.5 -2.5q-9 0 -14.5 11t-11 24.5t-13 24.5t-20.5 11q-10 0 -9.5 -1t-5.5 -8 q-41 -34 -84 -60.5t-92 -43.5q-22 -10 -42 -22t-44 -17q-17 -2 -35 -3.5t-29 -14.5l-144 -13q-46 17 -96 24.5t-98 13.5z">
<glyph unicode="D" horiz-adv-x="1668" d="M526 570v-462q0 -8 10.5 -15.5t24.5 -13t27 -9t18 -3.5q29 0 60 5.5t60 9.5q1 0 12 -0.5t19 -0.5q11 0 12 1q3 0 9.5 0.5t13.5 1.5t13 2t8 1q23 4 42.5 16.5t39.5 20.5q16 6 34 11.5t36.5 12t35.5 14t30 18.5q4 3 14 12.5t21 20.5t21 21.5t15 15.5q1 1 3.5 5t5.5 9.5 t6 10t3 6.5q20 28 41.5 51.5t32.5 53.5q2 4 3 7q1 2 2 5q32 48 57.5 103t31.5 111q1 12 4 39.5t6 57t5.5 55.5t3.5 36v15q0 24 -6 42.5t-13 41.5q-6 24 -11 49t-11.5 49t-16 47t-24.5 43q-1 2 -2 5l-2 4l-2 4q0 1 -2 7.5t-4 13.5t-4 13t-3 8q0 1 -2.5 5t-6 8.5t-6 8 t-2.5 4.5q-26 36 -47 63.5t-54 55.5q-21 17 -44 40t-50 34q-1 1 -14.5 4t-17.5 3q-1 1 -8.5 9.5t-9.5 8.5q0 2 -4 4.5t-6 2.5t-4.5 1t-6.5 2t-9 2q-13 6 -21.5 10t-16.5 7t-16.5 5t-21.5 3q-1 0 -6 1t-11 2.5t-11.5 2.5t-8.5 1q-26 6 -53.5 12t-55.5 6h-22q-7 -1 -24 -3 t-36 -5t-36 -5.5t-23 -4.5q-8 -5 -13.5 -20t-5.5 -24v-329q3 -13 4 -22.5t2 -17.5t1 -16.5v-19.5v-25q0 -2 -1 -9.5t-2.5 -15.5t-2.5 -15.5t-1 -9.5q0 -10 -1 -34.5t-2 -52.5t-2 -53t-1 -35q-5 -11 -6 -25t-1 -26v-16q0 -27 1 -47.5t6 -46.5zM70 20q0 9 6 16.5t15 12.5 t18.5 8.5t17.5 4.5q20 3 45 2.5t50 1t46 9t33 26.5v33q0 18 -3 32.5t-3 30.5v3q0 2 1 9.5t2 15.5t2 15.5t1 9.5v9q0 21 -3 41.5t-3 43.5v12q0 1 1 7l2 12t2 11.5t1 6.5v89q0 62 -3 122.5t-3 121.5v87q0 3 1 17t2 29.5t2 29.5t1 17v176q0 2 1 7.5t2 12.5t2 13t1 9v249 q0 5 -4.5 15.5t-7.5 15.5q-2 5 -6.5 11t-6.5 8q-5 7 -21 12t-37.5 8t-45.5 6t-43.5 6.5t-32.5 9.5t-13 15q0 14 13.5 19.5t24.5 5.5h46h47q8 -5 20 -6.5t24 -1.5q10 0 18 1t13 1q60 -3 118.5 -7.5t118.5 -4.5h12q2 0 10 3.5t10 3.5q59 4 117.5 4.5t117.5 0.5h46 q28 -2 54 -7.5t51.5 -12.5t51.5 -13.5t55 -10.5q15 -13 34 -18t36 -14q41 -19 85 -38t76 -48q70 -62 122 -125t86 -131.5t51 -146.5t17 -170q0 -95 -17 -175t-52 -150.5t-88 -135t-125 -128.5q-16 -11 -36.5 -16t-39.5 -16q-20 -13 -41 -30t-45 -26q-60 -20 -120.5 -38 t-122.5 -31h-14q-40 -2 -81 -10t-80 -8q-20 0 -32.5 1t-36.5 6q-2 0 -9.5 -1t-8.5 -1h-7h-7q-1 -1 -5.5 -1.5t-10 -1t-10 -1t-6.5 -1.5h-211q-52 -2 -105 -7.5t-105 -5.5h-23.5t-25.5 3t-20.5 10t-8.5 20z">
<glyph unicode="E" horiz-adv-x="1475" d="M110 17v8q12 21 31.5 28.5t41.5 9t45 1t41 5.5t29.5 22.5t11.5 51.5v178v178q0 3 -1 13.5t-2.5 23.5t-2.5 23.5t-1 13.5v18q0 14 0.5 25.5t1 22.5t2 23.5t3.5 29.5q0 3 3 7.5t3 6.5v1v5q0 3 -3 15t-3 16v218q0 3 -1 16.5t-2.5 29.5t-2.5 29.5t-1 16.5v32v32q0 4 1 14.5 t2 22.5t2 23t2 16q0 1 3 11t3 12v5v7q-2 15 -4.5 33.5t-5 37.5t-5 37t-5.5 32q-4 18 -17.5 25.5t-30.5 10.5t-34.5 3.5t-29.5 3.5q-1 0 -12 3t-26 6.5t-30.5 8t-24.5 7.5q-17 5 -21 11.5t-4 24.5v13q2 4 14.5 8.5t17.5 3.5h45q57 0 117.5 -4t117.5 -8q2 0 12.5 -2.5 t13.5 -4.5h1h4q2 2 12.5 4.5t12.5 2.5q1 0 7 -4q3 -2 5 -3h6h7q1 1 6.5 3t12 4t12 3.5t6.5 1.5q3 0 8.5 -1.5t11.5 -3t11.5 -4t7.5 -3.5h94q56 0 110 3.5t110 3.5h15q6 0 19 -1t28 -2t28 -2t19 -2q2 2 9.5 4.5t9.5 2.5h3q14 0 24.5 -3.5t30.5 -3.5q24 0 49 3.5t49 3.5h25 q19 0 41.5 -2.5t34.5 -10.5q1 0 3.5 -5t2.5 -7v-34q0 -43 -6.5 -84.5t-6.5 -83.5q0 -23 3.5 -44.5t3.5 -45.5v-14q0 -10 -3 -18.5t-16 -8.5q-16 0 -27.5 14t-20.5 32.5t-15.5 38t-11.5 30.5q-2 1 -5.5 6.5t-8 11.5t-8 11.5t-4.5 6.5q-12 22 -25 44.5t-29.5 41.5t-37.5 31.5 t-50 15.5q-13 -1 -43.5 -1h-64.5h-64.5t-41.5 1q-3 0 -14 1t-23.5 2.5t-23.5 2.5t-14 1q-2 0 -8 -1t-13 -2.5t-13.5 -2.5t-9.5 -1h-19q-8 0 -16.5 1t-16.5 1q-19 0 -34 -7t-25 -33v-101q0 -1 -1 -5t-2.5 -9.5t-2.5 -10t-1 -5.5v-7v-7q0 -2 2.5 -11.5t4.5 -11.5v-350 q0 -3 0.5 -11t1.5 -18l2 -20t3 -15q1 -14 5.5 -19.5t19.5 -5.5h18q9 0 28 1t42.5 1.5t50 1.5t51 1.5t43.5 1t29 0.5q13 3 26.5 5t27 5.5t25 9.5t20.5 17q1 3 1.5 11t1.5 17t1.5 17.5t0.5 11.5v136q0 23 19 36.5t38 13.5t28.5 -16.5t15.5 -33.5q-2 -11 -2 -39.5v-61.5v-63 t2 -41q0 -6 1 -23t2 -36t2 -36t2 -23q1 -25 7 -49.5t6 -50.5v-7q-1 -9 -2.5 -24t-2.5 -29.5t-1.5 -26t-0.5 -13.5q-4 -17 -12.5 -26.5t-25.5 -9.5q-26 0 -40 9t-22 34v104q0 3 -3.5 13.5t-3.5 12.5q0 3 -1 11t-2.5 17t-2.5 17.5t-1 11.5q-1 2 -5 5.5t-9 7.5t-9.5 7.5 t-6.5 4.5h-3h-4q-57 -7 -114.5 -10.5t-115.5 -3.5h-40.5t-40.5 2q-21 -5 -31 -8.5t-13.5 -9.5t-4 -17t-1.5 -29q0 -1 -3.5 -9t-3.5 -9v-2v-5q0 -1 1 -6.5t2.5 -12t2.5 -12t1 -6.5v-7v-6q0 -2 -3.5 -14.5t-3.5 -14.5v-5v-2q0 -3 1 -14t2.5 -24t2.5 -23.5t1 -13.5v-187 q0 -2 1 -12.5t2.5 -22.5t2.5 -22.5t1 -12.5v-88q5 -22 25 -35q6 -1 22 -3t33.5 -4.5t33.5 -4t22 -1.5h18q42 0 82.5 3t84.5 3h45q2 -1 10 -3.5t10 -2.5q1 0 7.5 1t14 2t14 2t8.5 1h59h58q7 -5 10.5 -5.5t8.5 -0.5h7q8 0 21.5 2.5t15.5 3.5q21 7 27.5 20.5t17.5 28.5l4.5 4.5 t7.5 8t8 8t5 4.5q13 15 22 33.5t22 35.5q0 2 8.5 9.5t9.5 9.5q5 6 13 22t17.5 36.5t20 42.5t21.5 40t22 30t22 12t13 -10t2 -20v-12v-12q0 -8 -0.5 -14.5t-5.5 -14.5l-32 -225v-5v-6q0 -4 3 -17.5t3 -14.5q0 -14 -6 -26t-19 -18h-175q-4 0 -21.5 -2t-37.5 -4.5t-37 -4.5 t-21 -2h-19q-4 0 -13 -2t-12 -3h-166h-166q-66 1 -133.5 9.5t-135.5 8.5q-29 0 -57.5 -4t-57 -8.5t-57 -8.5t-58.5 -4h-49q-11 9 -18 18.5t-7 23.5z">
<glyph unicode="F" horiz-adv-x="1285" d="M63 25v7q0 4 0.5 6t5.5 6q3 1 9 3.5t12 5.5l11 5.5t5 3.5h46h18q1 0 6.5 1t11.5 2.5t11.5 2.5l5.5 1h69q7 5 12 11t7 14q1 6 2.5 22t2.5 33.5t1.5 33.5t0.5 22v7q0 8 -3.5 12.5t-3.5 10.5v9q0 4 1 21t2.5 37t2.5 37t1 22v101q0 1 1 6.5t2 12t2 12t1 6.5q0 2 -1 10 t-2 17.5t-2 18t-1 11.5v33.5t0.5 52.5t0.5 53v36v18l5 187q-5 10 -5.5 14.5t-0.5 12.5q0 30 9 57.5t9 56.5q0 15 -6 31.5t-6 33.5q0 35 3.5 70t3.5 70v79q-3 25 -27.5 34.5t-57 14t-65 8.5t-50.5 18q-13 6 -13 26q0 12 13 15t24 3h20q68 -5 136.5 -6t137.5 -7h567q3 0 12 1 t19.5 2t19.5 2t13 1h15h17q6 0 22 -1t33.5 -2t33.5 -2t22 -1q5 -2 10.5 -4.5t8.5 -7.5v-30v-27q0 -7 -0.5 -25.5t-1.5 -39.5t-2.5 -39.5t-2.5 -25.5q9 -25 11 -50t2 -50v-22v-36q-4 -10 -8 -14t-15 -4q-15 0 -27 17t-22 39.5t-18.5 45.5t-16.5 36l-3 4.5t-7.5 10t-8.5 10.5 t-5 7q-1 0 -3 8l-2 8q-2 2 -7 9.5t-6 9.5q-22 30 -38 52t-34 35.5t-42 20t-63 6.5q-11 0 -21 -3.5t-21 -3.5h-6q-3 0 -13 2.5t-13 4.5h-137q-1 0 -6.5 1t-12 1.5t-12.5 1.5t-8 1h-34q-48 0 -71.5 -21.5t-23.5 -72.5v-7q0 -1 2 -7.5t4 -10.5v-77v-78q0 -29 -6.5 -58.5 t-6.5 -57.5v-8q0 -3 1 -13.5t2.5 -22t2.5 -21.5t1 -12v-163q1 -6 4 -10t7 -8q6 0 20 1t30 2t30.5 2t20.5 1q3 0 11.5 0.5t17.5 1.5t16.5 2.5t10.5 2.5q1 0 5 1t8 1.5t7.5 1.5t4.5 1h77h30q10 0 22.5 3t23.5 9.5t18.5 15.5t8.5 21l13 190q2 13 12.5 19t21.5 6q19 0 33.5 -10 t14.5 -30v-17q0 -3 -1 -13.5t-2 -22.5t-2 -21.5t-1 -11.5v-118q0 -2 -1 -8t-2.5 -12.5t-2.5 -12l-1 -5.5v-7q0 -61 9 -122t9 -122v-37q-6 -17 -16.5 -30t-30.5 -13q-14 0 -23.5 7.5t-14.5 18.5t-7 24.5t-2 24.5q0 16 3.5 31.5t3.5 32.5q0 30 -3.5 50.5t-13.5 33t-28 18.5 t-47 7q-3 0 -16.5 1t-28.5 2.5t-28 2.5t-16 1q-38 2 -77.5 4.5t-77.5 2.5h-32q-2 -2 -9.5 -6.5t-8.5 -7.5q-1 -1 -2 -1.5t-2 -1.5q-2 -1 -3 -2v-289q-1 -1 -2 -6t-2 -11t-2 -11.5t-1 -8.5q0 -2 3 -8l4 -8v-14q0 -52 -3.5 -103.5t-3.5 -102.5v-14q0 -9 1 -18t6 -17h27h30 q4 0 14 0.5t22 1.5t22.5 2t15.5 3q6 -7 10.5 -8t11.5 -1q17 0 31 7t28 7q9 0 17 -5t14 -13t10 -17t4 -16q0 -15 -6.5 -23.5t-17 -13t-23.5 -5.5t-25 -1h-24h-35q-13 8 -18 10.5t-16 2.5q-17 0 -32.5 -3.5t-32.5 -3.5q-22 0 -42.5 3.5t-43.5 3.5q-21 0 -43.5 -3.5t-43.5 -3.5 q-23 0 -44 3.5t-44 3.5q-40 0 -79 -6.5t-80 -6.5h-30q-13 6 -22.5 13.5t-9.5 24.5z">
<glyph unicode="G" horiz-adv-x="1721" d="M106 790v60q13 32 21 64.5t16 64.5l20 21q-2 30 9.5 59.5t30 57.5t39.5 54t39 47q2 2 3.5 6t1.5 6q6 13 12 19t12 9.5t13 8t14 13.5q19 24 45.5 48t54.5 41q1 1 7 3t12.5 5t12 6t7.5 5q2 0 9.5 8t8.5 10q2 2 9 6t8 4q31 13 67.5 25t65.5 21q24 8 47 11t47 14h175 q2 -3 14.5 -5t17.5 -2h129q16 -11 33.5 -16.5t35 -8.5t35 -5.5t35.5 -8.5q16 -4 29.5 -12.5t26 -18.5t24 -21t25.5 -20q1 -2 8.5 -4.5t9.5 -2.5q9 -4 17.5 -9.5t16.5 -11t17 -9t20 -3.5q22 0 31.5 13t15.5 29t13 29t25 13h4.5t4.5 -2l25 -30v-94q-13 -29 -12 -55.5t-1 -58.5 q-1 -1 -2 -6.5t-2 -11.5t-1.5 -11.5t-0.5 -6.5t-1.5 -9.5t-1.5 -13.5q0 -20 4.5 -39t4.5 -38q0 -10 -2 -31t-8 -42t-16.5 -37t-27.5 -16h-2q-9 8 -14 14t-7.5 12t-4.5 13.5t-6 17.5l-1 1q-1 1 -1.5 1t-1.5 1q-2 1 -3 3t-3.5 6t-2.5 6q-1 5 -2.5 17t-3.5 24.5t-3.5 24 t-2.5 16.5q-5 3 -12 15t-15 27t-16 29.5t-14 21.5q-14 17 -29.5 37t-32 39.5t-34 37.5t-34.5 30q-1 1 -14 8.5t-30 18t-34.5 21t-28.5 16.5q-1 1 -7 3l-6 2h-36h-15q-2 1 -5 3q-5 1 -7 4q-25 10 -49.5 17.5t-52.5 7.5h-22q-1 -1 -5.5 -3t-10 -4t-10 -3.5t-6.5 -1.5 q-21 -8 -43.5 -9.5t-43.5 -10.5q-61 -25 -114.5 -59t-104.5 -79q-2 -2 -8.5 -9t-14 -15.5t-13.5 -15.5t-7 -10l-7 -7q-1 -1 -3.5 -9t-5.5 -17.5t-6 -17.5t-4 -9q0 -3 -9 -14.5t-14 -17.5q-13 -14 -20.5 -31.5t-18.5 -32.5q-4 -7 -16 -17.5t-14 -19.5q-2 -2 -2 -14 q0 -8 1 -18t1 -12t-3.5 -10t-3.5 -10q-5 -35 -6 -74t-7 -74q-1 -3 -3.5 -11t-6 -17.5t-6 -17.5t-3.5 -11v-10v-15q0 -1 1 -4.5t2.5 -7.5t2.5 -8t1 -5v-61q2 -11 11.5 -33t13.5 -37q5 -22 5.5 -44t6.5 -44q9 -32 27.5 -58t36.5 -53q14 -25 27.5 -52t32.5 -48l10 -10t13.5 -14 t12.5 -13t8 -9q3 -1 11 -7t17.5 -13.5t18 -14t10.5 -8.5q24 -20 56 -40.5t62 -27.5q4 0 18.5 -2t32 -4t32 -3.5t18.5 -1.5q32 -5 61.5 -13.5t62.5 -8.5q17 0 31 3t27 8t26 10.5t29 11.5q4 0 19 2.5t19 4.5q5 0 15 2t10 5q4 2 11 8t14 13t12.5 13t6.5 8q1 1 2 8.5t1.5 16 t1.5 16t2 9.5q0 2 3 9.5t3 9.5v25q0 15 -0.5 27.5t-5.5 29.5v77q0 46 3 93t3 92q0 22 -8.5 31t-20.5 12.5t-26.5 6.5t-26.5 12q-6 -1 -19 -1h-28h-28.5t-18.5 1q-9 0 -25.5 4t-23.5 13q-2 3 -4 7l-4 8q-3 4 -5 10q2 17 14.5 34.5t27.5 22.5h121q4 0 21.5 1t37.5 2.5 t37.5 2.5t22.5 1q4 0 12 -1t17 -2.5t17.5 -4t14.5 -5.5q7 0 23.5 -0.5t35.5 -1.5t36 -2t24 -1h12q26 0 53 2.5t56 2.5h33q23 0 43.5 -5t20.5 -24q0 -23 -6.5 -37t-18 -22.5t-27 -11.5t-32.5 -3t-35 2t-35 3q-6 -3 -13 -14t-13 -24t-9.5 -25.5t-3.5 -18.5v-151 q-4 -8 -4.5 -13.5t-0.5 -10.5v-20q0 -35 1.5 -68t3.5 -70v-1q0 -4 2 -10t5 -7q2 -2 15 -3.5t17 -3.5q8 -4 16.5 -12t8.5 -18q0 -11 -8.5 -18.5t-16.5 -13.5q-19 -13 -47 -25.5t-47 -23.5q0 -2 -4 -4l-3 -3q-2 -1 -6.5 -3t-6.5 -2h-31q-40 -10 -78.5 -24.5t-77.5 -20.5 q-3 -1 -12 -2t-19.5 -1.5t-19.5 -1t-11 -0.5t-7 -2.5t-7 -4.5h-82q-16 -13 -39 -13q-8 0 -15.5 3.5t-15.5 3.5q-24 0 -46.5 -3.5t-46.5 -3.5q-33 0 -64.5 6t-63.5 7h-70q-1 0 -5.5 0.5t-9.5 1.5t-9.5 2.5t-5.5 2.5q-5 1 -18.5 5t-29.5 9.5t-30 10t-18 5.5q-2 0 -11 2.5 t-14 4.5q-28 6 -55.5 21.5t-48.5 35.5q-1 1 -5 4t-8.5 7t-8 7.5t-4.5 5.5q-1 1 -12 6t-13 5q-17 11 -30.5 26t-26.5 31q-9 13 -20 26.5t-24 24.5q-2 1 -5 3q-6 4 -8 4q-4 3 -5 5t-1 4.5t-1 6t-5 9.5q-20 34 -41.5 66t-38.5 70t-27 73.5t-15.5 71t-8 72t-5.5 77.5q0 1 -1 5.5 t-2.5 10t-2.5 10t-1 6.5v59z">
<glyph unicode="H" horiz-adv-x="1678" d="M104 24q0 9 6.5 13.5t15 7t18 3t15.5 2.5q2 0 9.5 2.5t9.5 2.5h82q16 6 24 21q0 5 1 18t2 28t2 28t1 18q0 1 1 5t2.5 8.5t2.5 8l1 3.5v119l2 6q1 4 5 6v4v3q-9 39 -12 79t-3 81q0 17 0.5 35t0.5 35q-5 11 -5.5 22.5t-0.5 24.5v29q0 54 3 107t3 104q0 23 -3 45.5t-3 45.5 q0 17 3 31t3 30q0 29 -3 57.5t-3 56.5q0 35 3 67t3 67v10q0 3 -1 10.5t-2 16t-2 15.5t-1 9v48q-2 3 -11 12.5t-13 13.5q-2 2 -7 4t-6 2h-113l-37 26q-1 1 -1 3q-1 2 -1 5q0 11 3 14.5t11 14.5q1 1 1.5 2t2.5 2q1 1 3 2h32q1 0 11 6t12 6q15 5 31 6t33 1h25q30 0 53.5 -6 t52.5 -6h316q3 0 10 -1.5t15 -3.5t15 -4t10 -4q11 -5 13 -11t2 -15q0 -20 -16.5 -27.5t-35.5 -9.5h-144q-22 -6 -28.5 -27.5t-8.5 -41.5q-4 -29 -9 -64t-5 -67q0 -40 4.5 -79t4.5 -78q0 -11 -1 -15t-8 -12v-51q0 -25 4.5 -46.5t4.5 -45.5q0 -20 -7 -39.5t-7 -41.5v-8 q4 -2 16 -6t15 -6h5h1q7 2 18.5 3.5t13.5 1.5t7 3q3 2 5 4q3 0 12 1t19 2t19 2t12 2q2 0 6.5 1.5t7.5 3.5h262q1 -2 8.5 -3.5t9.5 -1.5h69q4 -5 10.5 -6t14.5 -1h15h29q4 0 16.5 2t26 4t26 3.5t18.5 2.5q3 2 8 5t10.5 7t9.5 8.5t4 10.5v113q-10 15 -12.5 28.5t-2.5 28.5v14 q0 26 4 52.5t4 52.5v9q-1 4 -3.5 17t-2.5 15q0 28 9 53.5t9 52.5q0 10 -5 19.5t-7 18.5q-4 15 -6 25.5t-2 23.5v11t2 14l-12 14q-1 0 -10.5 2t-21.5 3.5t-24.5 3.5t-19.5 2h-75q-8 1 -18 4t-18.5 8t-14.5 13t-6 19q0 22 17 27t35 5q34 0 68 -3.5t69 -3.5q24 0 41 1t43 6 q13 -9 28.5 -11t30.5 -2h14q15 0 29 5.5t30 7.5q39 2 81 7t80 5q15 0 32.5 -8.5t26.5 -22.5q1 -4 3 -13.5t2 -11.5t-10 -11t-14 -14q-2 0 -7 -2.5t-6 -4.5h-2h-5q-1 0 -4.5 1t-7.5 2.5t-8 2.5t-5 1h-46h-47q-5 -14 -13.5 -25t-11.5 -25v-125v-124q0 -3 1 -15t2.5 -25.5 t2.5 -25.5t1 -15v-3q0 -20 -3.5 -41t-3.5 -41q0 -11 3.5 -18t3.5 -18q0 -12 -2 -22.5t-5 -24.5q0 -15 1 -50t1 -76q0 -40 -1 -75t-1 -49q0 -2 -1 -10t-2.5 -17.5t-2.5 -18t-1 -11.5q0 -2 3.5 -9.5t3.5 -9.5v-20q0 -52 -6.5 -103t-6.5 -103v-59q0 -5 1 -22.5t2 -37.5t2 -37 t1 -21q1 -12 1.5 -23.5t4 -20.5t12 -14.5t24.5 -5.5q18 0 35 3.5t34 3.5q10 0 23.5 -1.5t26 -6t21 -11.5t8.5 -18t-6.5 -17t-16.5 -9.5t-22 -4.5t-22 -1h-18h-21q-12 0 -25 1t-27 6h-242q-5 2 -16 4.5t-15 2.5h-4q-33 0 -67.5 -7t-68.5 -7q-9 0 -20 1.5t-20.5 5.5 t-15.5 11.5t-6 20.5q0 16 15.5 19.5t29.5 3.5h20q14 0 29 -0.5t30 -0.5q26 0 49.5 4t46.5 18q6 3 8.5 9.5t3.5 14t1 14v10.5v49v20q0 3 2.5 13t4.5 12v39q0 17 -4 33.5t-4 33.5v3q0 1 0.5 2t0.5 2q0 2 2.5 9t4.5 9q-2 13 -2.5 47.5t-0.5 73.5t0.5 73t2.5 48q0 3 0.5 11 t1.5 17.5t2 18t1 10.5v14q0 12 -5.5 17.5t-14 7.5t-18 2.5t-17.5 2.5q-2 0 -9.5 2.5t-9.5 2.5h-5h-1q-2 0 -9.5 -2.5t-9.5 -2.5q-26 -5 -51.5 -6.5t-50.5 -1.5q-23 0 -46.5 0.5t-46.5 0.5q-1 -1 -5.5 -3.5t-6.5 -2.5h-1h-5q-4 0 -18 3t-19 3h-200q-11 5 -22 6t-22 1h-18h-39 q-24 -11 -29.5 -34t-7.5 -48v-103v-40q0 -5 -0.5 -24t-1.5 -41t-2.5 -41t-2.5 -23v-27v-19q0 -21 2.5 -41t11.5 -39v-131q-2 -2 -4.5 -6t-2.5 -6q2 -4 11 -11.5t14 -7.5q3 0 13.5 2.5t11.5 2.5h36h38q6 0 20.5 -0.5t30.5 -1.5t30 -1.5t20 -1.5q7 -5 9.5 -11.5t2.5 -13.5 q0 -21 -17 -27t-37 -6q-9 0 -18 0.5t-15 0.5h-21q-12 0 -23 1t-25 6h-217q-4 5 -8 6t-9 1h-7q-17 0 -34.5 -5.5t-33.5 -8.5q-6 0 -19 -1t-26.5 -2t-26 -1.5t-16.5 -0.5h-35h-34q-18 12 -18 36z">
<glyph unicode="I" horiz-adv-x="827" d="M118 8v4q5 11 11 22.5t21 15.5h42q3 0 13 3.5t12 3.5h10q12 0 22.5 -3.5t21.5 -3.5q8 0 13 4.5t8 11t4 14.5t2 14v56q0 4 1 23.5t2.5 42t2.5 41.5t1 24v3v3q-9 56 -10.5 109.5t-1.5 110.5v110q0 6 0.5 23.5t1 41.5t1 50.5t1 50.5t1 41.5t0.5 23.5q0 12 -0.5 40.5t-0.5 60 t-0.5 60t-0.5 39.5v19q0 9 -0.5 30t-1 45t-1 45.5t-0.5 30.5q0 3 1 17t1.5 31t1.5 31.5t1 19.5v14q0 30 -15.5 42.5t-44.5 12.5q-32 0 -62.5 -3.5t-62.5 -3.5q-20 0 -32.5 8.5t-12.5 30.5q0 15 16 24.5t37.5 15t43 8t31.5 2.5q32 0 67 -2.5t67 -3.5q2 -2 12.5 -4.5 t12.5 -2.5q1 -1 3 -1q1 -1 4 -1q2 0 4 1q1 0 3 1l5.5 1.5t12 4t12 4.5t7.5 3h9.5t17.5 -0.5t21.5 -0.5h21.5h18.5t10.5 1q1 0 6.5 0.5t11.5 1.5t11.5 2t7.5 1h63h26q1 0 11 2.5t12 2.5q2 2 7.5 2h9.5q26 0 42 -7t29 -30v-7q0 -14 -13.5 -18.5t-23.5 -6.5q-38 -6 -75.5 -5 t-74.5 -8q-8 -27 -13 -54.5t-5 -56.5q0 -56 2.5 -109.5t2.5 -109.5q0 -68 -2.5 -134t-2.5 -134q0 -78 2.5 -157.5t2.5 -160.5q0 -63 -2.5 -124t-2.5 -126v-52q-14 -39 -14 -79q0 -15 8 -23t19.5 -12.5t24.5 -6t24 -2.5q6 -1 22 -2.5t33.5 -2.5t33.5 -1.5t22 -0.5 q11 -5 24.5 -12t13.5 -21v-7q0 -4 -0.5 -6t-5.5 -4q-3 -1 -12 -2t-19 -2t-19 -2t-13 -1h-3h-3q-2 0 -9 2.5t-10 4.5h-99h-29t-43.5 0.5t-51 1.5t-50 1.5t-42.5 1.5t-28 2q-42 -11 -83 -15.5t-83 -4.5q-11 0 -19 4.5t-8 16.5z">
<glyph unicode="J" horiz-adv-x="836" d="M-47 -469q0 10 1.5 16t4.5 10.5t7.5 9.5t11.5 13q12 14 22 21.5t21.5 11t25 4t32.5 0.5q23 0 42.5 -7t37.5 -18.5t34.5 -26t34.5 -30.5q2 0 12 -1t14 -1q23 0 33 8t14.5 20t7.5 27t12 29q0 5 1 17.5t2 26.5t1.5 26.5t0.5 18.5v10q0 15 0.5 22t1.5 12.5l2 11l3 16.5 q0 7 0.5 25.5t0.5 25.5v13t-0.5 16t-0.5 14v7q0 6 -2.5 29.5t-6 51t-6.5 52t-4 30.5v255q0 37 -5.5 74.5t-7.5 75.5v15t0.5 25.5t0.5 31v30.5v26.5t-1 14.5q0 2 -1 10.5t-1.5 18t-1.5 17.5t-1 11v54v21q0 2 -2.5 12t-4.5 14v1v4q2 4 4.5 15t2.5 15v21t0.5 31t0.5 30v20 q0 48 -4 94.5t-4 92.5v5q1 12 2.5 44t3.5 68t3.5 68t2.5 45q6 6 7 15.5t1 18.5q0 28 -19 35t-43 7q-12 0 -19.5 -2.5t-13 -5.5t-11.5 -5.5t-15 -2.5q-10 0 -10 2q-2 0 -10 2.5t-10 4.5h-35h-16q-7 5 -12 9l-10 8t-8 6q-6 7 -13 14.5t-7 16.5q0 16 13 25t26 13q4 1 13.5 2 t20.5 2t21 2t14 1q1 0 12 -3.5t13 -3.5q3 0 16.5 1t29.5 2.5t29.5 2.5t16.5 1q4 0 17 -1t28 -2.5t28 -2.5t16 -1h123h126q19 5 32.5 6t31.5 1q12 0 28 -3.5t30.5 -10.5t24 -18t9.5 -27q0 -9 -5 -14.5t-12.5 -9t-16 -5t-15.5 -1.5q-28 0 -56.5 4t-59.5 4h-10q-8 0 -16 -1.5 t-16 -6.5q-4 -3 -10.5 -8.5t-12.5 -13t-10 -15.5t-4 -15v-2q4 -18 6.5 -33.5t3.5 -30.5t1.5 -30.5t0.5 -34.5v-71q0 -1 -1.5 -13t-3.5 -19q0 -1 -3.5 -12t-3.5 -13q0 -1 1 -6.5t2.5 -11.5t2.5 -12t1 -7v-15q0 -17 -3.5 -30t-3.5 -27q0 -38 6 -75t6 -76q0 -11 -0.5 -19.5 t-4.5 -21.5q2 -86 -2.5 -168.5t-4.5 -168.5q0 -14 3.5 -27t3.5 -27q0 -6 -3.5 -11.5t-3.5 -12.5q0 -11 3.5 -20t3.5 -20q0 -8 -3.5 -15t-3.5 -18v-16q0 -1 3.5 -11.5t3.5 -13.5q0 -1 -1 -6.5t-2.5 -11.5t-2.5 -12t-1 -7v-1v-5q0 -2 3.5 -15t3.5 -17v-61v-62 q-8 -15 -10.5 -30.5t-3 -31t-1 -31.5t-5.5 -31q0 -2 -1.5 -7.5t-3.5 -12t-4 -12t-3 -7.5v-37q0 -3 -1 -9.5t-2 -14t-2 -13.5t-1 -7t-1.5 -5.5t-4 -10t-4.5 -10.5t-2 -6q-3 -11 -5 -30.5t-9 -29.5q-14 -37 -37.5 -73t-47.5 -66q-22 -27 -41 -48.5t-39 -38.5t-44.5 -31 t-57.5 -25q-9 -3 -19 -4t-19.5 -2t-18.5 -3.5t-18 -9.5h-79q-8 6 -12 8.5t-7.5 3.5t-7.5 2t-12 5q-35 17 -48.5 43t-13.5 64z">
<glyph unicode="K" horiz-adv-x="1431" d="M1043 0q-3 1 -8.5 3.5t-11.5 5.5t-11.5 5.5t-7.5 3.5q-3 3 -9.5 13.5t-14 24t-15 25.5t-11.5 18q-20 33 -39.5 65.5t-39.5 65.5q-11 17 -23 31.5t-21 32.5q-8 13 -15.5 28t-16.5 26q-23 29 -48.5 54t-45.5 53q0 2 -2.5 9.5t-3.5 9.5q-20 38 -49 70.5t-57 67.5q-2 2 -6 9 t-6 9t-4.5 9.5t-2.5 8.5q-1 2 -8.5 7t-9.5 7q-5 4 -8.5 9.5t-6.5 10t-7.5 7.5t-11.5 3h-10q-3 -17 -7 -31.5l-8 -29t-7 -30.5t-3 -35q0 -9 6 -17t6 -18v-7q-8 -39 -10 -83.5t-2 -89.5v-75q0 -28 0.5 -58t4.5 -57q1 -2 3 -5l4 -6q0 -3 1 -12t2 -19.5t2 -19.5t1 -12 q16 -2 25 -11t26 -14q2 -2 14.5 -3.5t17.5 -1.5q4 -1 15.5 -2.5t24.5 -2.5t24 -1.5t15 -0.5q11 -4 13 -10.5t2 -14.5q0 -21 -14 -27t-33 -6q-9 0 -18 0.5t-17 0.5q-27 0 -53.5 3.5t-54.5 3.5h-5q-2 0 -10 -1t-17.5 -2.5t-17.5 -2.5t-10 -1q-6 0 -25.5 1t-42 2.5t-41.5 2.5 t-24 1h-2q-33 0 -64.5 -3.5t-63.5 -3.5h-57l-9 9t-9 10v12q0 17 14 22.5t31 5.5q14 0 27.5 -1t21.5 -1q10 1 23 2t25 5t22.5 11t15.5 19q1 6 2 20.5t2 31.5t1.5 32.5t0.5 21.5v2q0 40 -1 77t-2.5 73.5t-2.5 73t0 75.5q-4 4 -4.5 8t-0.5 10q0 13 5.5 25.5t5.5 26.5v9 q0 4 -3 17t-3 15v133l-5 11l3 150v18v330q2 7 4 24t4.5 36t4 36t2.5 25v3v2q-2 4 -6.5 16.5t-6.5 14.5q-1 1 -2 3t-2 2.5t-1 1.5q-7 -1 -21.5 -1h-29.5h-30.5t-18.5 1h-6q-8 0 -18.5 0.5t-20 3.5t-16.5 9t-7 16q0 13 10.5 18t19.5 7q4 1 12.5 2.5t17.5 2.5t16.5 1.5 t10.5 0.5q2 0 8.5 -0.5t13.5 -1.5t13 -2.5t7 -2.5h34h35q3 1 12 2.5t20 2.5t20 1.5t12 0.5h32h85q3 0 14 1t24 2t24 2t14 1h3h4q4 0 11.5 -1t15.5 -2t14.5 -2t8.5 -1q8 -2 16.5 -5t8.5 -14q0 -10 -18 -16.5t-41 -11t-44.5 -7.5t-29.5 -7q-5 -3 -8.5 -10t-5.5 -14.5t-3 -14.5 t-1 -11v-225q0 -2 -2.5 -9.5t-4.5 -9.5v-7q0 -21 6 -45.5t6 -48.5q2 -8 2 -31.5v-48.5v-49t-2 -32q5 -6 10.5 -15.5t14.5 -9.5h7q1 2 3.5 6.5t5.5 9.5t5.5 9t3.5 5q1 2 6.5 6.5t11 10l10 10t4.5 5.5q2 3 8.5 11t13.5 17.5t13.5 17.5t8.5 11q3 4 12.5 13.5l20.5 20.5 l20.5 20.5t13.5 12.5q4 13 10.5 18.5t14.5 13.5q3 4 10 12.5t14.5 17.5t13.5 16.5t8 9.5q0 1 2 5l4 8t3.5 7.5t2.5 4.5q2 3 8.5 11t14.5 18t15.5 20t11.5 15q11 13 24.5 31.5t25 39.5t19 42.5t7.5 40.5q0 18 -8.5 31.5t-21.5 24t-28.5 17.5t-29.5 10h-27h-11q-2 0 -11.5 9 t-14.5 16v2q0 7 7.5 13t18 9.5t21.5 5.5t17 2q9 0 18.5 -4.5t20.5 -4.5h5q4 1 25 2t45.5 2t45.5 2t27 1h112q2 0 9.5 1t16 1.5t15.5 1.5t8 1h7h6q6 0 22 -1t34 -2t34.5 -2t22.5 -2q3 0 8 -3t10 -7t9 -8.5t5 -7.5v-5q0 -14 -9.5 -24t-22.5 -10h-71q-28 0 -55.5 -7.5 t-53 -20.5t-50 -29t-46.5 -32q-1 -1 -7 -6.5t-13 -12.5t-13.5 -14t-9.5 -11q-26 -29 -50 -59t-49 -58l-19 -19q-9 -11 -18 -21.5t-14 -23.5q-9 -20 -22 -35t-33 -27q-3 -2 -6 -3q-2 -2 -4.5 -2.5t-3.5 -1.5q-1 -2 -5.5 -15t-5.5 -17q-2 -1 -3 -2q-2 -1 -4 -1 q-19 -13 -38 -34t-19 -47v-2q11 -21 27.5 -40t29.5 -42q1 -1 3.5 -6.5t5.5 -12t6 -12t3 -6.5q13 -17 29.5 -30.5t27.5 -29.5q16 -29 32 -62.5t37 -58.5l31 -31q8 -11 14.5 -23.5t13.5 -25.5t15 -24.5t19 -18.5l94 -140q5 -3 13.5 -15.5t18 -27.5t17.5 -29t13 -20 q28 -43 60.5 -82.5t77.5 -68.5q24 -14 48.5 -30t50.5 -24q10 -3 26 -3.5t31 -3t26 -9.5t11 -23q0 -12 -6 -19t-15.5 -10.5t-20.5 -5t-20 -1.5q-26 0 -50 5t-49 6q-47 4 -93.5 5.5t-93.5 1.5h-57z">
<glyph unicode="L" horiz-adv-x="1484" d="M98 3q0 18 13 28.5t27 18.5q15 -1 30.5 -2t31.5 -1q26 0 50 5t44 22l7 7t5 6v429q-8 16 -8 37v32q0 8 -0.5 16t-3.5 16v149q0 2 2.5 9t4.5 10v6v7q-5 23 -6 46.5t-7 47.5v185q0 4 -1 21.5t-1.5 38t-1.5 37.5t-1 22v4q0 27 5.5 56.5t5.5 57.5q0 1 -3 12t-3 13 q-2 6 -3 15.5t-4 18.5t-8.5 15.5t-14.5 7.5q-44 4 -85.5 4t-84.5 8q-8 9 -10 16.5t-2 18.5v9q2 1 11 11t14 14h2h3q3 0 14.5 -1t24 -2.5t23.5 -2.5t14 -1h12q24 0 45.5 6.5t44.5 6.5h4q6 -6 13 -6h39q62 0 121 6t119 12h44q1 0 5.5 1t10 2.5t10 2.5t6.5 1q1 0 9 0.5 t17.5 1.5t19.5 2t16 3h3q10 0 16.5 -5.5t10.5 -13.5t5.5 -17t1.5 -16v-17q-1 -3 -5 -6.5t-9 -6.5t-10 -5t-8 -2h-180q-17 0 -28 -12.5t-11 -26.5v-5q1 -4 2 -20.5t2 -35.5t2 -36t1 -21q0 -10 1 -36t1 -56t-1 -57t-1 -37q11 -34 13 -71t2 -74v-53q0 -54 -4 -105.5t-4 -104.5 q0 -32 5 -64t7 -64q4 -78 6 -154.5t2 -154.5v-57t-2 -57q0 -4 2.5 -16t4.5 -15q5 -12 16.5 -15t22.5 -3h17q1 0 8.5 -3.5t9.5 -3.5h7h6q1 0 6 1t10 2.5t9.5 2.5t5.5 1q9 1 27.5 1.5t38.5 1.5t37 1.5t23 0.5q1 0 8.5 -1t15.5 -1.5t15.5 -1.5t8.5 -1h26q25 0 50.5 2.5 t51.5 2.5q28 0 55 -2.5t56 -2.5q18 0 29 2.5t28 2.5h15q11 15 24 20t27 19q22 19 41.5 37.5t36.5 38.5t31.5 42.5t27.5 49.5q4 7 11.5 25t15.5 39t14.5 39.5t9.5 25.5q1 4 8.5 13.5t9.5 11.5t3 4q1 1 2 3h4q21 0 30.5 -16.5t9.5 -35.5v-12q-8 -51 -15 -103.5t-15 -106.5 q-1 -5 -2.5 -22t-3.5 -37t-4.5 -37.5t-3.5 -21.5q-2 -30 -17 -40t-45 -10h-7q-7 1 -24.5 2.5t-37 3.5t-37.5 3.5t-25 2.5q-2 -2 -9 -3.5t-9 -1.5h-69q-2 0 -11.5 -3.5t-12.5 -3.5q-2 0 -12.5 3.5t-12.5 3.5h-7q-11 0 -21 -7t-21 -7q-7 0 -11.5 1t-9.5 2.5t-12 2.5t-17 1 q-22 0 -43 -3.5t-43 -3.5q-8 0 -13.5 3.5t-13.5 3.5q-6 0 -11.5 -3.5t-11.5 -3.5h-2q-2 0 -9.5 2.5t-8.5 4.5h-225q-2 0 -9 1t-15.5 2.5t-16 2.5t-10.5 1h-12q-30 0 -61.5 -6t-60.5 -8h-108q-6 0 -29.5 -3t-50.5 -6t-51 -6t-30 -3h-17q-17 0 -23.5 6.5t-6.5 21.5z">
<glyph unicode="M" horiz-adv-x="1981" d="M300 0q-7 0 -23 -0.5t-34 -0.5t-34 -0.5t-22 -0.5q0 -1 -7 -3.5t-11 -2.5q-3 0 -12 1t-19 2t-19 2t-11 1q-12 0 -22.5 -0.5t-19.5 -0.5q-12 0 -21.5 3.5t-18.5 16.5q-3 0 -5 7l-2 6q3 8 10 11.5t15.5 5t17.5 3t15 5.5h75q3 0 9 5t8 7q36 -4 59.5 4t38.5 24.5t23 39.5 t11.5 49t4.5 53t2 52q1 3 2 12t1.5 19.5t1.5 20t2 12.5v12q0 30 -6.5 60t-6.5 62v15q0 3 1 13t2 22t2 22t1 12v25v64q2 4 6 16t8 14v153q14 37 14 77.5t4 79.5q0 1 2.5 9t4.5 11q0 4 0.5 17.5t1 29.5t1.5 29.5t2 17.5q4 33 12 62.5t8 61.5q0 37 -6.5 63t-25.5 58 q-10 18 -27 34.5t-37 22.5q-3 1 -9.5 3t-13.5 3.5t-13 3t-7 2.5q-11 2 -29.5 3.5t-36 6.5t-30.5 15t-13 29v5q0 2 1 5q2 0 12 3.5t15 3.5h52h61q6 0 23 -1t36.5 -2.5t36.5 -2.5t23 -1q4 -2 18 -4.5t21 -2.5q1 0 8.5 -3.5t9.5 -3.5q1 0 5.5 1t10.5 2.5t10.5 2.5t5.5 1h3h9 q5 0 16.5 -0.5t24.5 -1.5t24.5 -2.5t16.5 -2.5q20 -16 33 -37t22 -44.5t16 -48t16 -46.5q36 -85 75 -167t77 -164q17 -37 34 -78t30 -77l1.5 -6t3.5 -13.5t4 -14.5t2 -8q3 -4 11 -13.5t9 -11.5q0 -2 2.5 -6.5t4.5 -6.5l26 -70t28 -70q2 -2 6 -8t8 -13.5t7 -13.5l4 -8 q3 -4 7 -16t10 -24.5t13 -21.5t15 -7q3 2 7.5 6t6.5 6v13v5q10 28 24 51t25 52q1 1 2 5.5t2 10t1.5 9.5t0.5 5q2 4 9.5 16.5t9.5 15.5q2 2 5 8.5t6 13.5t6 13t5 8q0 3 3.5 14.5t8 24.5t8 24.5t3.5 14.5q2 1 6 10t6 13q38 60 64 126t50 133q2 5 6 17t6 15q1 2 4 7.5t6 11.5 t6 11.5t4 7.5q0 2 3.5 12t3.5 14q3 9 8.5 17.5t12.5 16.5t12.5 16.5t8.5 18.5q13 36 25 74t27 75q4 13 6.5 26t6 24.5t10 21t19.5 17.5q13 0 40.5 1.5t62 3.5t72 4.5t72 4.5t61.5 3t40 2h35h23q14 0 25.5 -3.5t11.5 -17.5q0 -21 -10.5 -32t-25.5 -15.5t-32.5 -5t-31.5 -2.5 q-8 -11 -22 -14t-30 -7.5t-33 -14t-30 -33.5q-2 -5 -7.5 -14t-5.5 -11v-227q-4 -19 -4.5 -29.5t-0.5 -27.5v-18q0 -3 1 -13t1.5 -21.5t1.5 -21.5t1 -13q0 -8 -1 -37.5t-1.5 -63.5t-1.5 -64t-1 -39v-337q0 -5 -1 -22.5t-2.5 -38t-2.5 -38.5t-1 -22v-27v-24q0 -4 0.5 -17 t1.5 -28t2.5 -29t2.5 -20q0 -4 1 -11.5t1.5 -15.5t1.5 -14.5t1 -8.5q3 -13 13.5 -22t24 -15.5t28 -9.5t23.5 -4q4 -1 14 -2t23 -1q11 0 22.5 1t16.5 2q5 -5 15 -14.5t10 -18.5t-7 -17t-13 -13h-69h-69q-1 0 -7.5 1t-14 2t-14.5 2t-8 1h-25h-64q-2 0 -9.5 3t-8.5 6h-5h-9 q-3 -2 -16.5 -4.5t-29.5 -4.5t-29.5 -4t-16.5 -2h-99h-98q-10 0 -17.5 6t-7.5 17q0 13 12 20.5t31.5 12.5t42.5 9t45 9t40 13t26 20q6 11 8 21.5t2 20.5v34q0 1 3 9.5t3 10.5q2 2 2 11v16v16.5t-2 11.5q0 3 -3 12.5t-3 11.5q0 4 3 14.5t3 12.5q2 0 2 7v11q0 20 -4 39.5 t-4 41.5v2q2 0 4 6q1 3 2 5q0 27 1 50.5t3 46t3.5 45.5t1.5 50q0 86 -5.5 167t-9.5 167v17t0.5 31t0.5 39v39v31.5t-1 17.5q0 4 -2 18.5t-3 19.5q-1 1 -2 3l-3 3h-5h-2q-8 -5 -11 -10t-4.5 -10.5t-3 -13t-6.5 -17.5q-1 -1 -4 -4.5t-6.5 -8t-6.5 -8t-3 -4.5q-17 -28 -25 -59 t-19 -60q-14 -35 -30.5 -77t-33.5 -75q0 -1 -2.5 -5.5t-5.5 -10t-5.5 -9.5t-3.5 -5q-2 -2 -4 -14t-2 -14q-2 -2 -7 -8.5t-7 -8.5q-2 -3 -4.5 -7.5t-2.5 -6.5q0 -1 -0.5 -5.5t-1.5 -10t-1.5 -10.5t-1.5 -6q-4 -2 -7 -4q-6 -4 -6 -7q-2 -2 -3 -12.5t-4 -12.5q0 -2 -1 -5l-2 -6 l-2 -8q-2 -2 -11 -9.5t-9 -8.5q-1 -2 -1.5 -7.5t-1.5 -12t-2 -12t-2 -7.5q-9 -28 -27 -56t-28 -58q-17 -50 -37 -99t-46 -95l-62 -203q-1 -2 -8.5 -9.5t-9.5 -8.5q-4 0 -11 4.5t-11 6.5q-11 15 -17 31.5t-10.5 33.5t-9.5 34.5t-12 35.5q-11 28 -24 56t-26 55q-2 1 -3.5 9.5 t-3.5 12.5q0 1 -1.5 11t-3.5 14q-19 45 -41 92.5t-41 95.5q-11 29 -19.5 62.5t-22.5 63.5q-2 1 -7 8.5t-10 16t-9.5 16t-5.5 9.5q-29 51 -54 105t-47 109q-2 2 -4.5 6t-2.5 5q-32 55 -58.5 110.5t-55.5 111.5h-2h-5q-1 -1 -6 -5.5t-5 -6.5v-84q-1 -1 -3 -9t-4.5 -17 t-4.5 -17.5t-2 -11.5q-2 -19 -2.5 -38.5t-0.5 -38.5q0 -28 -0.5 -56.5t-3.5 -56.5l-1 -4.5t-1.5 -10t-1.5 -11t-1 -6.5q0 -30 6 -63.5t6 -65.5v-2q0 -2 -2 -9.5t-5 -8.5v-101q0 -50 3.5 -98.5t3.5 -96.5v-8q0 -4 -1 -23t-2.5 -41.5t-2.5 -42t-1 -24.5v-7q0 -13 3 -31t9 -36 t16 -34t25 -23q1 -2 9 -5t17.5 -6.5t17.5 -6t9 -3.5q17 -6 35.5 -6.5t35.5 -2t33 -7.5t29 -22v-2q0 -17 -14.5 -23.5t-27.5 -6.5h-20q-71 5 -140.5 10t-138.5 5z">
<glyph unicode="N" horiz-adv-x="1834" d="M489 -7h-255q-32 -10 -65.5 -9t-65.5 -4q-2 0 -9.5 -2.5t-9.5 -2.5h-23q-20 0 -33 7.5t-13 29.5q0 26 19.5 32t41.5 6h23h11q34 1 71 7.5t69 21.5t55 40.5t30 66.5v44q0 4 1 20.5t2 35.5t2 36t1 22q2 35 4.5 67.5t2.5 67.5q0 9 -1 17t-1 16l7 5q2 40 7 80t9.5 79.5 t7.5 79.5t1 81l7 13q0 6 -1 13.5t-1 13.5q0 45 8 88t13 90v27v12l1.5 5.5t3.5 11.5t3.5 11.5t1.5 6.5q2 2 2.5 5t0.5 5q0 16 -8 22.5t-17 17.5q-18 20 -39.5 47.5t-43.5 46.5q-20 18 -41 32.5t-41 31.5l-9.5 9.5t-8.5 9.5q-16 9 -33.5 16.5t-32.5 17t-25 23.5t-10 37 q0 7 5.5 12t14.5 7t19.5 3t20.5 1h27h20q13 0 25.5 -0.5t25.5 -5.5h198q2 0 7 -2t6 -3q3 -3 11.5 -10.5t17.5 -17t17.5 -18t11.5 -12.5q1 -1 8.5 -11t9.5 -12q24 -26 47 -44t47 -43q2 -3 9.5 -13.5t7.5 -12.5q3 -3 8 -9t10 -12.5t9 -11.5t5 -5l13 -13l21.5 -21.5l21.5 -21.5 l13 -13q17 -19 31.5 -40.5t32.5 -40.5q3 -4 17.5 -18.5t31 -31.5t31 -32t17.5 -19q26 -26 48 -56t48 -56q1 0 2 -1q2 -2 4 -2l6 -2q16 -15 28.5 -29t23.5 -29t22.5 -30t25.5 -31q8 -10 16 -15.5t15 -9.5t13 -8t12 -11q0 -1 3 -4.5t6 -8t6 -8.5l3 -4q2 0 4.5 -2.5t2.5 -4.5 q26 -18 42.5 -41t38.5 -45l11.5 -11.5l20 -20l20 -20t11.5 -12.5q8 -8 16.5 -19.5t18.5 -22.5t21.5 -18.5t26.5 -7.5q4 0 7.5 5.5t5.5 13t3 14.5t1 10q0 5 0.5 17.5t0.5 26.5v26.5v18.5v23.5v28t-0.5 23.5t-0.5 11q0 2 -1 8.5t-2 14t-2 13.5t-2 8v99v40q0 3 -1 11.5t-2 19 t-2 19t-2 11.5v25q0 36 4.5 72.5t4.5 71.5v23t-2 16q0 1 -1 6t-2 11.5t-2 11.5t-2 6v19q0 17 1 34.5t1 34.5q0 23 -3 44t-12 39t-26.5 32.5t-46.5 23.5q-4 0 -17 2.5t-14 2.5q-2 2 -6.5 7t-5.5 5q-2 0 -6.5 1t-9.5 3q-6 2 -13 4q-1 0 -1 -0.5t-1 -0.5l-1 -1q-1 0 -4.5 -1.5 t-8 -4t-8.5 -4.5t-4 -3h-2h-5q-2 2 -9.5 7.5t-9.5 5.5q-9 6 -26.5 8t-35.5 5t-31.5 10.5t-13.5 25.5q0 7 2.5 12.5t12.5 7.5h45h26q15 0 29.5 -0.5t28.5 -5.5h194q4 0 10.5 -2t9.5 -3h3h2q4 0 17 2.5t15 2.5t11.5 -1t20 -1.5t20 -1.5t12.5 -1h3h2q47 8 92 13t92 5h34 q10 -4 11.5 -9.5t1.5 -12.5q0 -14 -6.5 -20t-16.5 -8.5t-20.5 -3t-19.5 -3.5q-2 0 -7.5 -1.5t-11.5 -3.5t-11.5 -4t-6.5 -3q-24 -5 -44 -6.5t-42 -6.5q-2 0 -7 -2.5t-6 -4.5q-31 -26 -52.5 -51t-30.5 -67q0 -7 -2 -19.5t-4.5 -25.5t-4 -23t-1.5 -12v-10q0 -9 1 -18.5 t1 -18.5q0 -22 -8 -41l-2 -305v-19q0 -16 -0.5 -50.5t-1.5 -77.5t-2 -91t-2 -91t-2 -77t-2 -50q-4 -17 -5.5 -27.5t-1.5 -27.5v-15q5 -42 8.5 -84.5t3.5 -87.5v-52q-2 -12 -8 -22t-19 -10q-6 0 -11.5 1t-11.5 6q-24 19 -42 41t-35 44.5t-33.5 44.5t-37.5 43q-2 1 -6.5 5 t-10 8.5t-10 8t-5.5 3.5l-13.5 13.5t-11.5 12.5q-6 6 -8 10t-4 7.5t-5 6.5t-9 8q-2 2 -5 3q-2 1 -4.5 1.5t-3.5 1.5q-8 6 -12.5 9.5t-7.5 7t-6.5 8t-10.5 12.5q-3 3 -12.5 13t-21 21.5l-21 21t-12.5 11.5q-23 24 -41 48.5t-41 47.5q-2 1 -7.5 5.5t-11.5 9.5t-11.5 9.5 t-6.5 5.5l-14 14q-51 62 -106 118t-106 119q-5 13 -12.5 17t-18.5 15q-45 44 -88.5 91.5t-86.5 94.5q-2 2 -6 9.5t-6 9.5q-19 28 -41 47t-48 42h-5q-4 0 -8 -1t-5 -6q5 -39 9 -84.5t4 -81.5v-4q0 -3 -1 -15t-2.5 -25.5t-2.5 -25.5t-1 -14v-69q0 -2 -1 -9t-2 -16t-2 -16.5 t-1 -9.5v-8q0 -20 1 -43t5 -43l7 -17v-10v-8q0 -2 -1 -8.5t-2.5 -14t-2.5 -14t-1 -8.5q0 -7 -1 -24t-2 -36t-2 -36t-1 -24q5 -8 6.5 -20t1.5 -23v-14q0 -1 -0.5 -6t-0.5 -11t-0.5 -11t-0.5 -7q-10 -9 -11.5 -13.5t-1.5 -13.5v-10q1 -6 2.5 -21.5t2.5 -32.5t1.5 -32.5 t0.5 -21.5q12 -32 27 -55.5t41 -43.5l10.5 -3.5t10.5 -2.5q1 -2 11.5 -7t13.5 -5h12h31q7 -1 19 -2l24 -2t21 -2t10 -1q1 -1 7 -4l12 -6t11.5 -5.5t6.5 -2.5q6 -3 14.5 -6t16.5 -7.5t14 -10t6 -12.5q0 -8 -9.5 -16.5t-21.5 -15t-24 -11t-16 -4.5h-5q-2 0 -11.5 7t-13.5 7 h-29q-34 2 -74.5 4.5t-71.5 13.5z">
<glyph unicode="O" horiz-adv-x="1667" d="M714 84q15 -2 22.5 -9t20.5 -16q14 -8 30 -10t31 -2h15q13 0 25 3.5t25 3.5q9 0 18 -3.5t17 -3.5q44 0 89.5 25t86 62.5t71.5 81.5t47 81q12 23 19 49t13 49q14 48 29 96.5t15 99.5q0 27 1 52.5t1 52.5q0 29 -1 57.5t-1 56.5q-2 1 -4.5 11t-2.5 14v29q-6 38 -18.5 71 t-24.5 68q0 1 -0.5 5t-1.5 9.5t-2.5 10t-2.5 5.5q0 3 -8.5 13t-10.5 12q-1 2 -2 5q-1 2 -2 4.5t-2 4.5q-1 3 -6 16.5t-11 29.5t-11.5 29.5t-7.5 16.5q-7 15 -18 27t-22.5 23t-21 23t-13.5 28l-76 74q-10 1 -23.5 8t-28 16t-28 18t-24.5 13q-2 3 -12.5 5t-12.5 2 q-5 2 -14 5.5t-19.5 7.5t-19 7.5t-11.5 4.5q-12 -6 -25 -7.5t-26.5 -2t-27.5 -1.5t-28 -7q-57 -25 -97.5 -51.5t-70 -59.5t-52.5 -74.5t-46 -96.5q-10 -20 -21 -39t-18 -40q-4 -13 -9 -32t-10 -37t-8.5 -31.5t-3.5 -14.5v-62v-85q0 -5 1 -19t2 -30t2 -31t1 -21 q4 -29 11.5 -56.5t13.5 -56.5q7 -32 10 -63.5t16 -62.5q12 -32 32.5 -67.5t34.5 -68.5q2 -2 4.5 -9.5t2.5 -8.5q0 -2 1 -4.5t2 -4.5q1 -3 3 -5q2 -1 9.5 -9t9.5 -9q0 -1 2 -4.5t4.5 -8t4 -8.5l1.5 -4q2 -3 6.5 -10t6.5 -9q15 -19 35.5 -35.5t40.5 -33.5q4 -3 14 -12t22 -19 t22.5 -19t15.5 -12zM102 704v10q0 3 1 13t2.5 22t2.5 22.5t1 13.5v85q0 1 1.5 5.5t3 10.5t3.5 12l3 9q0 3 3 8l4 6q3 6 7 17.5t8 23.5t7 22t3 12q0 1 0.5 7t1.5 12t2.5 11.5t2.5 6.5q11 30 27 56t34.5 50t39.5 47t42 47q26 30 48 50.5t53 43.5q10 9 20.5 20t22.5 17 q0 2 8.5 3.5t10.5 1.5q13 7 28 18.5t27 13.5h26q1 1 5.5 3.5t10 6t9.5 6t5 3.5q4 2 13.5 6.5t11.5 6.5q2 0 10 3.5t10 3.5q2 1 11.5 9.5t13.5 8.5q1 1 8.5 1.5t16 1.5t16 2t10.5 2q16 2 30 10t34 8h3q2 0 11.5 -3t13.5 -3h126q1 0 6 -0.5t11 -1.5t11.5 -2.5t8.5 -2.5 q69 -17 135.5 -43t124.5 -70q20 -12 40.5 -23t35.5 -25q3 -3 15 -15.5t26 -26t26 -26t15 -15.5q6 -6 10 -8t7.5 -3t6.5 -4t8 -10q1 -2 5.5 -9t9.5 -15t9.5 -15.5t6.5 -10.5q16 -28 34.5 -55t32.5 -56q15 -28 22.5 -57.5t15.5 -61.5q3 -11 10 -31t9 -33q3 -22 4 -39.5t2 -34 t1 -34v-38.5q0 -91 -24.5 -170.5t-69.5 -157.5q-32 -54 -76 -100t-87 -93q-2 -2 -6.5 -9.5t-5.5 -9.5q-1 -1 -6.5 -4t-12 -6t-12.5 -6l-8 -4q-1 0 -5 -3t-9 -7t-9.5 -8t-6.5 -7l-6.5 -6.5l-11.5 -11.5l-11.5 -11.5t-7.5 -5.5q-1 -1 -7.5 -5t-15.5 -9l-18 -10t-14 -8 q-3 -2 -7.5 -3.5t-6.5 -1.5q-9 -5 -23 -11l-28 -12l-24.5 -10.5t-11.5 -5.5q-9 -4 -24.5 -9.5t-30.5 -10.5t-26 -8.5t-12 -3.5h-201q-7 1 -13 3q-5 1 -10.5 2t-7.5 2q-1 0 -8.5 3.5t-9.5 3.5q-3 0 -12 2t-20 3.5t-20 3.5t-12 2q-1 1 -7 4t-13 6l-14 6t-10 5q-34 16 -68.5 32 t-67.5 36q-26 15 -53.5 36.5t-54 45.5t-50.5 49.5t-43 48.5q-11 15 -18 30.5t-13 31t-11.5 31.5t-13.5 32l-6 6t-5 7q-13 25 -26.5 63.5t-24.5 79.5t-18 80t-7 66z">
<glyph unicode="P" horiz-adv-x="1198" d="M504 1161v-240q0 -5 0.5 -22t1.5 -37t2 -38.5t1 -27.5q2 -6 4.5 -19.5t2.5 -15.5q2 -4 11 -13.5t14 -11.5q1 -1 2 -1q1 -1 5 -1l5 2q2 0 9.5 0.5t16 1.5t16 2t8.5 3q2 0 8 -1t11 -1q6 0 6 2q1 0 8.5 3.5t16 7.5t16 8t10.5 6q2 0 8 2t13 4t13.5 3.5t9.5 2.5q4 3 17 11.5 t28.5 18.5t29 18.5t19.5 11.5q0 1 4.5 2.5t9.5 3.5t10 3.5t6 2.5q12 12 25.5 39t24 57t17.5 57.5t7 41.5v25v62q0 2 2.5 10.5t2.5 13.5v1q0 1 -2.5 7.5t-6 14t-6.5 14t-4 8.5q-10 27 -21 48.5t-24.5 41t-30.5 38t-40 38.5q-8 7 -20 8.5t-18 3.5q-2 1 -9.5 5t-16 8.5t-15.5 8 t-8 3.5h-10h-22q-3 1 -13 3t-21.5 4.5t-21.5 4.5t-13 2q-4 0 -14 1t-22 2t-23 1.5t-16 0.5q-9 -2 -15 -9t-9 -15v-240zM81 18q0 15 9 23t21.5 12.5t26.5 6t23 2.5q6 1 22 2.5t34 2.5t34.5 1.5t22.5 0.5q9 6 15 20t10 30t5.5 30.5t1.5 21.5q0 45 -4 88t-4 89q0 20 4 39.5 t4 39.5v3q-2 2 -4.5 9.5t-2.5 9.5q3 111 -6 220.5t-9 220.5q0 6 0.5 16.5t1 20.5t1 17.5t0.5 8.5q0 3 1 16t1.5 27.5t1.5 27.5t1 16q0 1 -1 7.5t-1.5 14t-1.5 14t-1 8.5q-1 5 -2 9t-1 7.5v6.5q0 14 1 24.5t7 27.5v178q5 13 6 21t1 20q0 10 -8 16t-19 9t-23 4t-19 1 q-2 0 -6.5 -0.5t-8.5 -0.5q-5 -1 -10 -1q-1 0 -5.5 -1t-10 -1.5t-9.5 -1.5t-5 -1q-11 0 -31 2t-33 10l-12 12v43q3 1 7 3q8 4 12 4q5 2 17 4.5t15 2.5h70h72q7 -5 15.5 -7t16.5 -2t16 1t15 1h5q2 0 11 -1t19.5 -2.5t19.5 -2.5t12 -1q65 0 128 10t126 10h10q6 0 12 -0.5 t11 -5.5q40 -1 77 -2t71.5 -6.5t66.5 -18t64 -35.5q10 -5 24.5 -17t19.5 -22q1 -1 4 -6t6 -11.5t5.5 -12t4.5 -7.5q1 -3 7 -11.5t13.5 -18.5t14.5 -19t9 -11q0 -2 2 -7.5t3.5 -12t3.5 -12l2 -5.5q17 -45 24.5 -85.5t7.5 -87.5v-53q-2 -1 -4.5 -8.5t-2.5 -9.5q0 -3 -3 -14 t-6 -23.5t-5.5 -24t-3.5 -14.5q0 -1 -5.5 -11t-7.5 -14q-35 -52 -73.5 -88t-88.5 -71q-14 -13 -29.5 -16t-30.5 -10q-42 -17 -83.5 -22t-83.5 -5q-6 0 -18.5 1t-14.5 1q-5 0 -20.5 1.5t-33.5 3.5t-35 4t-24 3q-2 0 -13 2.5t-12 4.5h-10q-5 0 -14 -2t-9 -10v-94v-461 q0 -2 1 -10.5t2.5 -18.5t2.5 -19.5t2 -13.5q2 -12 11.5 -17.5t20.5 -7.5h87q9 -1 27 -3.5t35.5 -7.5t30.5 -14t13 -24q0 -5 -8 -8t-10 -5h-68q-8 0 -21 -1t-26 -1q-14 0 -26 1.5t-22 5.5h-207q-2 -2 -14 -3.5t-15 -1.5h-6q-13 0 -23 2.5t-23 2.5h-5q-1 0 -6.5 -2t-11.5 -4 t-11.5 -4t-7.5 -2h-43h-51q-6 0 -15.5 1t-18.5 4t-15 9t-6 16z">
<glyph unicode="Q" horiz-adv-x="1727" d="M482 192q21 -22 46.5 -48.5t54 -50.5t60.5 -41.5t66 -22.5h39q1 0 8 -3.5t9 -3.5h33q56 0 104.5 11t102.5 26q20 10 37 22.5t37 20.5q4 2 8.5 4.5t6.5 4.5q25 20 53 41.5t48 50.5q2 7 9 19t7 13q12 15 26 27.5t18 29.5q11 28 24.5 56.5t21.5 56.5q17 66 26.5 130 t23.5 130v7v5q0 1 -2 4.5t-4 7.5l-4 8t-2 5v32q-2 27 -3 56.5t-4 59.5t-10 58.5t-21 52.5q-2 2 -4.5 6t-2.5 6q-11 37 -17.5 67t-26.5 65q0 1 -2.5 5t-6 8t-6.5 7t-3 4q-20 29 -36 60.5t-33 60.5l-108 107q-1 0 -6.5 3.5t-6.5 3.5q-3 2 -9.5 7t-9.5 5q-20 10 -36 18.5 t-32.5 14.5t-35.5 9t-44 3q-40 0 -72 -10.5t-70 -21.5q-2 -2 -12 -4t-12 -2q-2 -2 -7.5 -7t-12.5 -10.5t-12.5 -10t-7.5 -4.5q-13 -11 -34 -24t-35 -27q-3 -3 -8.5 -9.5t-11.5 -13t-11 -12.5t-8 -8q-1 -3 -7 -11.5t-13 -18t-13.5 -17.5t-8.5 -10q-20 -24 -45.5 -49.5 t-36.5 -58.5q-18 -50 -31 -106t-26 -107q-1 -3 -2 -10t-1.5 -14.5t-1 -14.5t-0.5 -10q-4 -54 -5.5 -104t-6.5 -99q-2 -2 -2 -6.5v-7.5v-6.5t2 -5.5q0 -1 0.5 -6.5t1 -11.5t1.5 -12t2 -7q0 -5 1.5 -21t3.5 -34t4 -33t3 -19l2.5 -10t2.5 -12q1 -7 2 -15q0 -1 3 -6.5t6 -12 t6 -12t5 -6.5q1 -5 5.5 -17.5t6.5 -14.5q12 -41 27 -82.5t36 -76.5zM104 625q0 41 1.5 78t5.5 80q17 48 29 96t33 94q1 3 6 13.5t11 22.5l11.5 23t8.5 16q1 2 4 6.5t6.5 10t6.5 10t3 5.5q32 63 65.5 123t84.5 111q2 1 12 8.5t15 9.5q0 1 3.5 3t8 4t8.5 4t5 3t9 7t17.5 13.5 t18 14t10.5 8.5q3 1 13 6l22 11l23 11.5t16 8.5q15 6 35 13.5t41 14.5t41.5 12.5t37.5 8.5q28 6 58 6t59 2q5 0 20 2.5t19 4.5h7q26 0 61.5 -2t64.5 -13q21 -5 37.5 -14t39.5 -9h12q6 -3 21.5 -10.5t33.5 -15t34 -15t22 -10.5q47 -19 85.5 -48.5t78.5 -58.5q3 -2 13 -6 t14 -6q2 -2 10 -10.5t18 -18t18 -18t10 -10.5q1 0 6 -3.5t7 -3.5q18 -19 31 -48.5t25 -50.5q1 -2 6 -10t7 -12q0 -2 7.5 -11t9.5 -11q0 -1 2 -5.5t4 -10.5t4.5 -12t2.5 -10q23 -72 41 -138.5t18 -142.5q0 -8 -0.5 -21.5t-0.5 -27t-0.5 -24t-0.5 -11.5q0 -5 -1.5 -18.5 t-3 -29.5t-3.5 -31t-3 -23q-3 -18 -12.5 -38.5t-14.5 -37.5q0 -1 -0.5 -6t-1.5 -10t-1.5 -10t-0.5 -6q-10 -26 -20 -41.5t-18 -37.5q-14 -35 -35 -69.5t-41 -64.5q-2 -2 -6.5 -7t-6.5 -7q-1 0 -5.5 -3.5t-10 -8t-10.5 -8t-6 -3.5q0 -2 -2 -8t-3 -6q-25 -31 -59 -55 t-71.5 -43.5t-76 -35.5t-72.5 -30q-14 -6 -14 -19q0 -8 6.5 -12t14.5 -6q7 -3 17 -7t20 -7.5t17 -6.5t8 -3q2 -1 9.5 -2t16 -2.5t16 -2.5t8.5 -1q3 0 7.5 -3.5t6.5 -3.5q39 -13 84 -24t87 -13q0 -7 7 -7h25q60 -8 120.5 -24t122.5 -24q60 -12 117.5 -24.5t118.5 -22.5 q1 0 8 -0.5t15 -1.5t15.5 -2t9.5 -1q1 0 7 -2l12 -4t11.5 -4t6.5 -2h10h22q6 -1 28.5 -4t48 -6.5t47 -6.5t26.5 -3h23q20 0 37.5 0.5t35.5 0.5q15 0 31 -1t32 -5h320q5 0 15.5 2t21.5 4t20.5 3.5t12.5 1.5h14h32l6 2l4 2t3 1q24 16 48.5 19.5t50.5 6.5q13 2 22 8.5t20 6.5 q13 0 17.5 -7t4.5 -19t-4.5 -22t-15.5 -16q-32 -13 -63 -18.5t-62 -18.5q-1 -2 -6 -4.5t-7 -4.5q-17 -9 -34 -14.5t-34.5 -9.5l-35 -8t-34.5 -10q-2 -1 -10.5 -5t-18 -9t-17.5 -9t-11 -5q-2 0 -9.5 1t-13.5 1q-9 0 -9 -2q-32 -2 -64 -11t-67 -11q-2 -2 -8 -2h-14 q-15 0 -32 1t-21 1q-2 -1 -7.5 -4t-12 -6.5t-12 -6t-7.5 -3.5h-77q-1 0 -7 -1t-13.5 -2.5t-14 -2.5t-7.5 -1h-42h-41q-4 0 -20.5 2t-36 5t-36.5 5t-21 2h-42h-107q-42 2 -80.5 9t-77.5 9h-51q-3 0 -11 1t-17 2t-17.5 2t-11.5 2q-39 6 -78.5 8t-77.5 10q-42 11 -80.5 22 t-79.5 24q-2 0 -11 2t-20 3.5t-20 3t-11 1.5q-3 0 -11.5 3t-19 6.5t-20 7t-13.5 5.5q-48 15 -97 29t-96 33q-13 5 -22.5 13t-22.5 10q-26 8 -49.5 15t-44.5 17q-11 7 -18.5 12.5t-20.5 7.5h-12q-2 0 -10 2t-10 3q-3 2 -15.5 8.5t-27 14t-27.5 14t-17 7.5q-54 24 -106.5 47.5 t-102.5 55.5q-69 47 -136 108t-121 130q-15 19 -21.5 36.5t-15.5 39.5q-15 32 -34 59.5t-29 59.5q-13 38 -19.5 81t-6.5 82z">
<glyph unicode="R" horiz-adv-x="1466" d="M517 783q0 -5 8.5 -15t15.5 -10h1q1 0 6 1t10.5 2t10 2t5.5 1q21 4 39.5 7.5t36.5 7.5t36 10t38 14q10 2 20 3.5t18 9.5q20 14 36 34.5t33 39.5q4 4 10 11t12.5 14t11 12.5t5.5 6.5q29 47 43 92.5t14 99.5q0 86 -37.5 151t-101.5 121q-2 1 -6 3.5t-6 4.5q-45 11 -88.5 15 t-88.5 10h-18q-3 -1 -11 -2t-17 -2t-17 -2t-10 -2q-20 -10 -23.5 -30.5t-3.5 -40.5v-15q0 -110 7.5 -217.5t5.5 -217.5l5 -12v-107zM400 -2q-38 -8 -76.5 -7.5t-76.5 -3.5q0 -2 -8.5 -5.5t-10.5 -3.5h-75q-3 1 -10 4t-14.5 7.5t-14.5 8.5t-10 7q0 2 -1 7.5t-1 7.5 q0 17 8.5 25t25.5 10q1 0 12 1t25 2t27.5 2t20.5 2h22q3 -2 5 -4q3 -3 5 -3q8 0 16 7t14.5 16.5t12 19.5t9.5 15v438q-1 4 -2 16t-2 25t-1.5 24.5t-0.5 16.5v34v86q-1 2 -2 10t-1.5 18t-1.5 19.5t-2 14.5q0 32 3.5 62t3.5 59v43q-1 4 -2 20.5t-1.5 35.5t-1.5 35.5t-2 21.5 v15q0 4 -1 8t-6 12v115q-4 5 -4.5 9t-0.5 9q0 11 2.5 20.5t2.5 23.5q0 7 -0.5 22t-2 30.5t-5.5 27.5t-10 14h-76q-2 0 -8 1t-12.5 2.5t-13 2.5t-9.5 2q-3 0 -10.5 2t-15 5.5t-13 8t-5.5 9.5q0 27 7 42q11 5 29.5 6t35.5 1h198q18 5 36.5 6t37.5 1h29h59q4 0 17 -3.5t15 -3.5 t12 3.5t14 3.5q2 0 11.5 1t21.5 2t23.5 1.5t17.5 0.5q3 0 5 1q2 0 3 0.5t2 0.5q2 0 5 -1t5 -1q48 -3 97 -3.5t97 -8.5q12 -2 24.5 -9t25.5 -9q2 -1 9.5 -3t15.5 -4t15.5 -4t9.5 -3q7 -1 11 -4t7.5 -7t7.5 -9t11 -10q3 -2 13 -7t14 -5q15 -11 32 -29t32.5 -39.5t28 -43 t18.5 -39.5q9 -20 11.5 -44t2.5 -45q0 -32 -4.5 -67.5t-13.5 -71t-23.5 -68t-34.5 -57.5l-76 -75q0 -2 -10 -8t-15 -11q-9 -6 -28 -12.5t-37.5 -14t-32.5 -17t-14 -21.5t9 -27t21 -31t24.5 -31t20.5 -27q17 -27 31.5 -54.5t30.5 -51.5q1 -1 4 -5t7 -9t8.5 -10t7.5 -8 q14 -18 24.5 -40t24.5 -41q7 -9 16.5 -20t19 -23t18.5 -24t15 -22q0 -1 3.5 -9t3.5 -9q6 -17 16 -31.5t20.5 -29l21 -29t16.5 -30.5l95 -95q12 -12 32 -18t42.5 -10t44.5 -7t38 -9q6 -6 6 -17q0 -19 -14 -26t-28 -7q-47 0 -92 1.5l-90 3t-90.5 3t-93.5 0.5q-26 22 -43 51.5 t-33 61.5q-28 57 -61 115t-70 110q-1 2 -6 9t-11 15t-12 15.5t-9 10.5q-11 15 -18.5 32t-18.5 30q-3 3 -11 10t-9 9q0 1 -2 9.5t-3 10.5q-1 1 -3.5 4.5t-6 8t-7 8l-4.5 4.5q-15 24 -34.5 59.5t-44.5 68t-54.5 56t-65.5 23.5q-7 0 -16 -2.5t-16.5 -7.5t-13 -12t-5.5 -15v-309 q2 -2 4 -10.5t5 -20.5q-2 -2 -3 -10.5t-2 -18t-2 -18t-2 -10.5v-1q0 -22 4.5 -41.5t4.5 -41.5v-40q-2 -1 -3.5 -6.5t-2.5 -12.5t-2 -13t-1 -7t1 -6.5t2 -12.5t2.5 -13.5t3.5 -10.5q2 -1 8.5 -5.5t14.5 -10.5t16.5 -11t15.5 -7q2 0 9.5 -1.5t15.5 -3.5t15.5 -3.5t9.5 -1.5h69 q17 -2 29 -13t12 -26q0 -11 -5.5 -17t-14.5 -9t-19 -3.5t-19 -0.5q-39 0 -76.5 2.5t-74.5 7.5z">
<glyph unicode="S" horiz-adv-x="1139" d="M367 10q-26 6 -57.5 14t-56.5 16q-2 0 -9.5 6t-7.5 8q-24 12 -44.5 19t-36 16.5t-24 26.5t-8.5 50v5q0 2 6 13t6 13q5 21 4.5 45.5t2.5 48.5q0 1 3.5 8.5t3.5 9.5q0 1 0.5 6t1.5 11t2 11.5t2 8.5q0 2 0.5 9.5t1.5 15.5t2 15.5t1 9.5q0 1 1 7t2.5 12t2.5 11.5t1 6.5 q0 2 1 9t2 15.5t2 16t2 10.5q0 3 1.5 9.5t4 12.5t6 11t8.5 5q8 0 14 -15t10.5 -35.5t7.5 -40.5t5 -29q1 -6 2.5 -22t3 -34t3 -33.5t1.5 -21.5q2 -2 4.5 -6t2.5 -6q8 -17 12 -32t13 -32q1 -3 4.5 -9.5t7.5 -13t7.5 -12.5t5.5 -9q2 -1 7 -6t5 -7q1 -1 3.5 -6.5t5.5 -12t6 -12 t3 -6.5q9 -13 24 -23t32 -17.5t34 -14t31 -12.5q2 -2 8.5 -8t8.5 -6h10h27q4 0 19.5 -2.5t19.5 -2.5h28q37 0 65.5 9t60.5 22q7 2 19.5 4.5t19.5 8.5q2 1 9 7.5t15 14.5t15.5 16t10.5 11q4 4 11 12l14 16t12.5 14.5t6.5 7.5t2.5 6.5t3.5 12t3.5 12t2.5 6.5q5 13 9.5 20.5 t8 15t5.5 16.5t2 24q0 32 -1.5 62t-3.5 62q-4 20 -16 34t-23 28q-1 2 -7.5 10t-14 18t-14 18.5t-7.5 10.5q-7 9 -12.5 12.5t-11 5.5t-12 4t-15.5 8q-10 8 -19.5 20t-22.5 17q-2 1 -7.5 2t-12 2t-12 2t-6.5 1q-5 2 -16.5 6t-14.5 6q-2 2 -11.5 8t-20 12.5t-20 12t-12.5 6.5 q-26 11 -58.5 16t-58.5 15q-26 8 -49.5 22t-44.5 29q-24 14 -46.5 30t-47.5 30q0 2 -2.5 4.5t-4.5 2.5q-46 70 -76 143.5t-30 160.5v19q0 10 1 19.5t6 20.5q1 1 3.5 6.5t5.5 12t6 12t3 6.5t1 6.5t2 12t2 12t2 6.5q2 5 5 13t7 17t9 17.5t11 14.5q1 2 7.5 8.5l14 14l13.5 13.5 t7 8q2 0 4.5 4.5t2.5 8.5q12 28 32 43.5t48 32.5q2 -2 5 -2q2 0 2 2q1 0 4.5 2.5t8 6t8.5 6l4 2.5h5h14q2 0 13 3t23.5 6.5t24 6t14.5 2.5h14h35q3 1 14 2t23.5 2t24 2t14.5 1h5h1q2 0 6 -3.5t6 -3.5h27h12q13 -1 31.5 -9.5t37.5 -19t37 -21.5t30 -17q2 -2 9.5 -4.5 t8.5 -2.5q9 -5 17 -13.5t16.5 -16.5t18 -14t21.5 -6q14 0 20.5 9t10 21t5.5 24.5t6 20.5q0 3 4 8t9 11t9.5 11t5.5 7q2 2 5 2h2q14 0 19.5 -14t5.5 -25v-11q0 -3 -1.5 -10.5t-3.5 -16t-4 -16t-3 -8.5q-15 -113 -15 -230q0 -18 1 -35.5t1 -35.5q-2 -6 -4.5 -14.5t-7 -16.5 t-10.5 -13.5t-13 -5.5q-12 0 -18.5 5t-10 12.5t-5.5 16t-5 16.5q-11 32 -22 71t-22 69q-5 12 -16.5 28t-26 32.5t-28.5 31t-23 25.5q-10 13 -19 30.5t-23 25.5q-11 6 -26 12.5t-31 12.5t-31.5 10t-27.5 4q-25 0 -49 -9.5t-50 -16.5q-1 0 -5.5 -1t-10.5 -2t-11 -2t-8 -1h-25 q-1 -1 -5 -4t-9.5 -7t-10.5 -8t-7 -7q-27 -24 -44 -45t-26.5 -43.5t-13.5 -49.5t-4 -63q0 -8 1 -22t3 -29.5t5.5 -28.5t9.5 -19l82 -79q3 -2 8 -5t11 -6t11 -5t7 -3q1 -1 6.5 -5t12 -8t12 -7.5t6.5 -4.5q20 -13 43 -20.5t44 -18.5q3 -1 11.5 -4.5t17.5 -7.5t17.5 -7.5 t11.5 -5.5q1 0 8 -4t15.5 -8.5t16 -8t10.5 -4.5q1 0 7 -0.5t13 -1.5t13.5 -2.5t8.5 -2.5q2 0 9.5 -5t8.5 -6q4 -2 13.5 -6.5t19.5 -9.5l19 -9.5t12 -6.5q51 -24 94.5 -65t75 -93t49.5 -109.5t18 -114.5v-11q-1 -10 -2.5 -27.5t-3.5 -35.5t-4 -32t-3 -16q-4 -22 -12 -40.5 t-19.5 -35.5t-24 -34t-25.5 -35q0 -1 -2 -4.5t-4 -7.5t-4.5 -8t-2.5 -5q-7 -13 -22.5 -20t-26.5 -15q-1 -2 -5.5 -7t-9.5 -10.5t-9.5 -10t-5.5 -4.5q-18 -12 -35 -19t-35 -12t-36.5 -9.5t-39.5 -10.5q-20 -6 -35.5 -12t-37.5 -6h-20q-13 1 -46 4.5t-69.5 7.5t-69 7.5 t-45.5 5.5z">
<glyph unicode="T" horiz-adv-x="1521" d="M766 0h-54q-1 0 -15.5 -2.5t-21.5 -4.5q-1 0 -9 -3t-9 -3q-3 1 -6 3q-2 1 -4.5 2t-3.5 1h-20q-13 0 -23.5 -0.5t-23.5 -5.5h-138q-4 0 -8.5 4.5t-8 10.5t-6 12.5t-2.5 10.5q0 18 12.5 31t31.5 13h138q17 0 37 8t25 27q0 6 1 18.5t2 26.5t1.5 26.5t0.5 17.5v19v18 q0 6 -0.5 28t-1.5 47t-2 47t-1 28v287q0 2 -1 6.5t-2 10t-2 10t-2 5.5v77v30q-4 132 -9.5 261.5t-3.5 263.5l-10 23q-1 1 -6 2t-12 2t-14.5 2t-11.5 1q-6 0 -20 1.5t-30.5 2.5t-30.5 2t-20 1q-2 -3 -9 -5t-9 -2t-8.5 1t-14.5 2.5t-14.5 2.5t-8.5 1q-1 0 -12 -3t-16 -4 q-37 -8 -73.5 -9.5t-71.5 -14.5q-2 -1 -7 -6t-6 -5q-2 -3 -13 -5t-12 -2q-20 -8 -30 -24t-21 -33q0 -1 -2.5 -5t-6 -8.5t-6 -8t-2.5 -4.5q-8 -12 -17.5 -31t-21.5 -37t-25.5 -31t-29.5 -13q-9 0 -14 5.5t-7.5 13.5t-3 16.5t-0.5 14.5q0 28 11.5 50.5t20.5 50.5q1 3 3.5 16 t5.5 27t6 27t3 16q0 1 3.5 9t3.5 9q0 3 1.5 15.5t3.5 26t4 26t3 15.5q2 10 4.5 25t7.5 29t14.5 23.5t25.5 9.5h3l5 -5l7 -10.5t10.5 -16t10 -15.5t4.5 -8q4 -5 15.5 -16t16.5 -16q9 -8 21.5 -12t26 -5t27.5 -1t26 -1q4 0 15.5 -1t24.5 -2t24 -2t15 -2h613q29 -4 64.5 -6 t68.5 -2q15 0 29 1t26 1q2 0 6 -3.5t6 -3.5h5h2q2 0 12.5 3.5t12.5 3.5h12q11 0 21 -1t21 -1q10 0 20 1.5t20 6.5q4 2 10.5 6t8.5 6q3 6 7 19.5t10.5 26.5t15.5 22.5t22 7.5q1 -1 5 -2.5t8.5 -3.5t8 -3.5t3.5 -2.5q3 -56 13 -110.5t19 -107.5q2 -18 7.5 -32.5t11.5 -29 t10.5 -30t4.5 -34.5q0 -2 -0.5 -7.5t-1.5 -11.5t-1.5 -11.5t-0.5 -8.5q-2 -19 -25 -19q-5 0 -9.5 4t-9 9.5t-7.5 11t-4 7.5q-1 1 -3 6t-4 10.5t-4 10t-2 5.5q0 2 -2.5 7t-4.5 5q-11 18 -22.5 37t-24 38t-26.5 35.5t-31 29.5q-22 14 -47 21t-51 10t-52 3t-50 1 q-3 0 -10.5 1.5t-16 2.5t-15.5 2t-9 1q-1 0 -16 0.5t-24 0.5h-44q-16 0 -33.5 -1t-33 -4t-27 -9.5t-15.5 -17.5v-10v-27q-2 -4 -7 -13.5t-5 -11.5l-2 -4q-1 -1 -1 -3v-1v-4t1 -4q1 -3 2 -4q0 -4 0.5 -13.5t1.5 -21t2 -21t1 -13.5v-418q5 -14 6 -27t1 -25v-20q0 -22 -4 -39.5 t-4 -36.5q0 -4 0.5 -9t0.5 -6q0 -2 1 -9t2 -15.5t2 -15.5t2 -9v-202q0 -2 3.5 -14t3.5 -14t-3.5 -10t-3.5 -10v-17v-45q-2 -4 -4.5 -16t-2.5 -16v-2v-5q0 -9 1 -24.5t2 -30t2 -26t2 -13.5q1 -8 1.5 -16.5t3 -15.5t8.5 -12t17 -5h138q19 0 31.5 -12.5t12.5 -29.5 q0 -21 -13.5 -29.5t-33.5 -8.5h-29q-3 0 -15 1.5t-25.5 4t-25 4t-14.5 1.5h-63q-1 0 -7 1t-13.5 2.5t-14 2.5t-8.5 1h-54z">
<glyph unicode="U" horiz-adv-x="1716" d="M252 906q0 3 0.5 10t1 15t1.5 15t2 10v244q0 3 1 16.5t2.5 29.5t2.5 29.5t1 16.5v8q0 15 -5 37t-7 36q-4 8 -16 10.5t-23 2.5h-8q-11 0 -21.5 -3.5t-22.5 -3.5t-27 3.5t-27.5 10t-21 17.5t-8.5 26q0 11 7.5 17.5t18.5 9.5t22.5 4t20.5 1h7q3 -1 12.5 -2t21 -2t21 -1.5 t12.5 -0.5q1 0 7 1l12 2t11.5 2t6.5 1h42q30 0 60.5 -4t62.5 -4h7.5t9.5 1q5 0 11 1l26 11q8 -1 25.5 -1h37.5h37.5t25.5 1q1 0 6 1t11 2l12 2t9 2l17 7q24 -4 41.5 -15.5t17.5 -36.5q0 -11 -8.5 -19t-20 -13t-24 -7.5t-21.5 -2.5h-2q-1 0 -9 2.5t-9 2.5q-2 0 -10 1t-17.5 2 t-20 2t-16.5 1h-3q-24 0 -41.5 -6t-31.5 -25v-147q0 -124 5 -245t9 -243v-71q0 -15 1 -40.5t2 -51.5t1.5 -46t0.5 -23q0 -2 1.5 -8.5t3.5 -15.5l4 -18t4 -15q7 -26 15 -51t17 -50q0 -2 2.5 -11t2.5 -11t2.5 -8t4.5 -6q14 -19 24.5 -41t25.5 -41q1 -1 3 -2q1 -1 2 -1.5 t2 -1.5q4 -5 12 -12t15.5 -14t13.5 -12.5t8 -6.5q23 -18 52 -30.5t59.5 -21.5t61 -15t57.5 -12q1 0 1.5 -0.5t2.5 -0.5q1 -1 3 -1h1q1 0 2 1q1 0 3 1q11 1 23 2t24 1q18 0 35 -1t34 -1q20 0 40 2t39 9q1 0 4 2.5t7 5.5t7.5 5.5t5.5 2.5q1 1 5 3.5t9 4.5t9.5 3.5t6.5 2.5 q13 5 19 4.5t13 7.5q11 16 29 37t28 38q39 75 63 147t24 156v47q-1 2 -3 9t-2 9l-3 5l3 2q7 28 8.5 56t3.5 56q0 3 2.5 13.5t2.5 12.5q2 0 2 3v5q0 11 -4.5 19.5t-4.5 19.5q0 6 1 11t6 9v408q-5 4 -6 18t-1.5 31l-1 34t-3.5 28q-1 4 -7.5 18t-10.5 21q-3 3 -26 11t-50 17 t-50 15.5t-25 6.5h-9h-13q-11 0 -24.5 1t-25 4.5t-19.5 11t-8 20.5q0 10 9 24.5t19 14.5h3q1 -2 6.5 -3t11.5 -2t11.5 -1.5t6.5 -0.5h33h81q1 -1 6.5 -2t12 -2t12 -2t6.5 -1h3h4q2 0 9 1t15 2t15.5 2t10.5 2h7h3q4 -2 11 -4.5t9 -2.5q3 -1 11 -1.5t17 -0.5h17h11 q41 0 75.5 5.5t73.5 10.5q9 -9 22 -9q7 0 12 1t10 1q3 -1 10.5 -2t15.5 -2t15 -2t9 -1q11 -5 12.5 -10t1.5 -13q0 -17 -12 -25.5t-28.5 -12t-33.5 -4.5t-27 -4q-37 -8 -62 -22t-44 -47q-2 -2 -3.5 -9.5t-1.5 -10.5v-262q-1 -1 -2.5 -6.5t-2.5 -11.5t-1.5 -11t-0.5 -6v-64 q0 -1 -1 -6l-2 -10t-2 -9.5l-1 -4.5v-17v-22q0 -3 1 -16.5t2 -29.5t2 -29.5t1 -16.5v-4v-3q0 -1 -1 -6l-2 -10t-2 -9.5l-1 -4.5q0 -5 -1 -21.5t-2.5 -35.5t-2.5 -37t-1 -27v-56q0 -1 -1.5 -5.5t-3.5 -10t-4 -9.5t-3 -5q0 -1 -1.5 -5t-2.5 -8t-2 -7.5t-1 -4.5 q0 -3 -0.5 -13.5t-1.5 -22t-2 -21t-2 -12.5q0 -2 -2.5 -9.5t-2.5 -8.5q-2 -5 -5.5 -19.5t-7.5 -31.5t-7.5 -31.5t-4.5 -17.5q-9 -33 -25 -64t-36.5 -59t-43.5 -54t-45 -49q-2 0 -9 -5t-9 -5q-3 -3 -10.5 -5t-10.5 -2q-1 -2 -5.5 -8t-5.5 -6q-26 -22 -56.5 -36t-63 -23.5 t-66 -15.5t-65.5 -12h-134q-24 0 -46.5 -1t-44.5 -1q-25 0 -50.5 2t-53.5 7q-33 4 -62 23t-57 32q-12 5 -20 7.5t-15 4.5t-13.5 6.5t-15.5 13.5q-1 1 -3.5 5t-5 9.5t-5 10t-3.5 5.5t-4 3l-6 4q-4 3 -8 5q-48 43 -73 102t-36.5 124t-15 131.5t-8.5 123.5q0 2 -1 8.5t-2.5 14 t-2.5 14t-1 8.5v161q0 3 -1 15.5t-1.5 26t-1.5 26t-1 15.5z">
<glyph unicode="V" horiz-adv-x="1441" d="M1117 1268q0 10 -1.5 24.5t-5 29t-11 26t-19.5 14.5q-38 9 -73.5 13.5t-70.5 12.5q-13 3 -23.5 5t-18 6.5t-11.5 12.5t-4 23q0 12 5 19t13 10t18 3.5t19 0.5q27 0 51 -2.5t50 -2.5q75 0 148.5 2.5t148.5 2.5h83q4 0 13.5 -0.5t21 -1.5t21 -1.5t13.5 -1.5q8 -2 16.5 -9.5 t8.5 -15.5q0 -11 -7.5 -17.5t-17.5 -14.5q-9 -8 -22 -10.5t-27 -2.5q-13 0 -26 0.5t-26 0.5h-12q-33 -5 -64.5 -23.5t-54.5 -44.5q-15 -21 -28.5 -49.5t-25.5 -59t-21.5 -59.5t-17.5 -51q-17 -54 -39.5 -106t-39.5 -106q-10 -28 -18.5 -57t-19.5 -55q-2 -3 -5 -10.5 t-7 -15.5t-7.5 -14.5t-5.5 -8.5q-1 -1 -4 -5t-6.5 -8t-6 -7.5t-2.5 -4.5q-1 -1 -2 -6t-2 -10.5t-2 -10t-1 -5.5t-3 -7.5t-6.5 -14t-6 -14t-2.5 -8.5q-1 -1 -2 -6.5t-1.5 -11.5l-1 -12t-0.5 -7q-7 -24 -19 -44.5t-20 -42.5q-15 -41 -27.5 -75.5t-34.5 -75.5l-4 -2l-2 -2 l-1 -1v5q0 32 4.5 57.5t11 49t14.5 47t14 52.5q6 37 14.5 72.5t17.5 72.5q0 1 1.5 5t3 9t3.5 9.5t4 6.5q0 3 5.5 10t7.5 9q0 2 2.5 11.5t4.5 13.5q0 3 1.5 12t3.5 20t4 20t3 12q0 1 4.5 12.5t6.5 17.5q0 1 2 4.5t4.5 7.5t4.5 8t3 5q0 3 0.5 12t1.5 19.5t2 19.5t3 11 q0 2 3.5 9t7.5 15.5t7.5 16t4.5 10.5q2 5 7 16.5t7 15.5l0.5 5.5t1.5 11.5t2 11.5t2 6.5q1 4 6 21t11.5 35.5t12 35t7.5 20.5q0 1 0.5 7t1.5 12.5t2.5 12t2.5 5.5q2 12 10 19.5t8 17.5zM617 161q-4 11 -13.5 40t-20.5 62t-21 62t-14 40q0 2 -0.5 6.5t-1.5 9.5t-1.5 9.5 t-1.5 5.5q-2 3 -7.5 14.5t-12 24t-12 23t-7.5 12.5q0 3 -2 10.5t-4 16t-3.5 15.5t-2.5 9q-16 47 -34.5 93.5t-33.5 94.5q0 1 -1 6.5t-2 12t-2 12t-2 6.5q-11 61 -37 125.5t-49 124.5q-2 0 -3.5 10t-1.5 15q-10 40 -22.5 72t-27.5 76q-10 27 -18.5 62t-21.5 67t-34 55t-57 28 q-3 0 -13 1t-21.5 2.5t-21.5 2.5t-13 1q-14 1 -29 10.5t-15 26.5q0 26 17.5 34.5t41.5 8.5h10q1 0 4.5 -1t7.5 -1.5t8 -1.5t5 -1h74q2 0 9.5 -3t9.5 -3h20h23q3 0 15.5 1t26 2t26 2t15.5 1h203q20 4 35 4.5t35 0.5q10 0 21.5 -0.5t22 -4t17.5 -11t7 -21.5q0 -12 -5 -18.5 t-13.5 -10t-18.5 -5t-19 -3.5q-32 -10 -61.5 -16.5t-64.5 -8.5q-14 -8 -19.5 -24t-5.5 -33q0 -11 4.5 -22.5t10.5 -23t11 -23.5t6 -25v-8v-22q2 -2 10 -9.5t8 -9.5q2 0 4.5 -5.5t2.5 -7.5q1 -3 4 -12.5t6 -20.5t5.5 -21t3.5 -15q2 -4 6 -20t8 -34.5t7 -34.5t4 -20 q0 -3 4 -10.5t8.5 -16t8 -16t4.5 -8.5q4 -11 9.5 -25.5t10.5 -30t8.5 -31t3.5 -27.5q0 -2 -1 -5.5t-1 -6.5q11 -18 17 -32.5t10.5 -29t8 -29.5t8.5 -33q2 -5 8.5 -24t14 -41.5t13.5 -42t8 -23.5q1 -3 4 -15t6 -25.5t5.5 -25.5t4.5 -15q6 -17 18 -31.5t12 -33.5q0 -9 9.5 -33 t22.5 -63q7 -21 9.5 -31t2.5 -31q0 -28 -8.5 -53t-17.5 -53q0 -5 -3.5 -19t-7.5 -29.5t-7.5 -29t-4.5 -16.5l-7.5 -25t-11 -28.5t-16 -23.5t-22.5 -10q-12 0 -18.5 9.5t-10 21.5t-5 24.5t-3.5 18.5q0 1 -1.5 5t-4 8t-5 7.5t-3.5 4.5q0 3 -4.5 15t-9.5 26t-10 26t-6 15 q-2 2 -7 11.5t-6 13.5z">
<glyph unicode="W" horiz-adv-x="2084" d="M17 1398q-7 5 -16 15.5t-9 21.5v1l10 16q4 6 8 11t7 5h161q3 -2 11.5 -4t17.5 -4t17 -3.5t11 -1.5t16 2t27.5 4.5t27.5 4.5t17 2h99q36 2 71 7t72 5q17 0 32 -3.5t15 -24.5q0 -14 -11.5 -21.5t-26.5 -11.5t-29.5 -5.5t-21.5 -2.5q-2 0 -6.5 -1.5t-10 -4t-10 -4.5t-5.5 -3 q-8 -2 -16 -2t-14 -0.5t-10 -4.5t-4 -13q0 -24 8.5 -44t16.5 -40q3 -7 8.5 -22.5t11.5 -33t11.5 -32t7.5 -20.5q15 -52 32 -103t37 -102q14 -41 30 -79t30 -77q11 -32 19.5 -63t19.5 -63q17 -56 37 -108t43 -104q-1 -3 -1 -12q0 -8 3 -16t12 -10q2 1 5 3l4 2t3 1 q2 0 9.5 2.5t10.5 4.5q13 14 20.5 31t12.5 35t9.5 36.5t11.5 35.5q0 1 4 6.5t8.5 11.5t8 11.5t4.5 7.5l1 3.5t2 8t2 8.5t1 5q0 2 3 7q2 3 4 5q1 4 5.5 18t9.5 29.5t9.5 29.5t5.5 17q3 2 10.5 12.5t10.5 12.5q10 17 13 33.5t12 33.5q10 28 19 54t18 54q0 2 3 9t6 15t6 15.5 t3 10.5q0 2 2.5 11t4.5 14v2v5q-11 56 -25.5 109t-31.5 109q-5 16 -8 32t-7 32t-10.5 31.5t-18.5 29.5l-4 4l-6 6l-5.5 5.5l-2.5 2.5q-9 4 -36.5 5.5t-57.5 5t-53 12t-23 28.5q0 6 2.5 11t10.5 7h39q1 0 8 1t15.5 2.5t16 2.5t9.5 1h43h44q11 -9 24 -11.5t28 -2.5h34h15 q1 0 4.5 -1t7.5 -1.5t8 -1.5t5 -1h2h5q5 0 21 1t38 2t46.5 2.5t46.5 2.5t38.5 2.5t21.5 1.5h25h8q9 0 20.5 -0.5t21.5 -3.5t17 -8.5t7 -14.5q0 -13 -5 -21t-14 -14q-6 0 -21 -1t-32 -2t-32 -2t-21 -2h-18q-5 -1 -16.5 -8.5t-15.5 -9.5v-25v-26q0 -2 1.5 -9.5t4 -15.5 t4.5 -15t3 -8q14 -70 28.5 -138.5t34.5 -137.5q0 -1 1.5 -5.5t4 -10t4.5 -10.5t3 -6q0 -3 1.5 -14t3.5 -23.5t4 -23.5t3 -14q4 -17 11.5 -33.5t11.5 -35.5q1 -2 2 -8t2 -13t2 -13t1 -8q2 -3 6 -17t6 -20q19 -54 30.5 -104.5t19.5 -102.5q0 -2 2.5 -9.5t4.5 -8.5 q1 -3 4.5 -10.5t8 -16t8 -16t4.5 -8.5q3 -6 4 -16t3 -19t5.5 -15.5t12.5 -6.5q13 0 14.5 11t4.5 21q0 2 2.5 6t3.5 6q24 34 35.5 68.5t22.5 74.5q0 2 1.5 9.5t3.5 10.5q0 1 2.5 6t3.5 5q1 3 4.5 15.5t7.5 26t7.5 26t4.5 15.5q9 24 22.5 46t21.5 48q1 2 3.5 10.5t2.5 12.5 q1 3 2.5 14.5t3.5 24t3.5 23.5t2.5 14q4 16 11 29t14 25.5t13.5 25.5t11.5 28q1 1 3.5 9t4.5 17.5t3.5 17.5t2.5 9q11 33 26.5 62t30.5 58q1 7 3 25t5 38t5.5 37.5t4.5 23.5v8q0 20 -14 34t-29 27q-16 12 -34.5 14t-38 4t-39.5 9t-39 30q8 5 19 9t18 4h193q5 -2 19.5 -6.5 t18.5 -6.5h4h1q48 5 94 9t91 4h34q4 2 13.5 7t11.5 5h8q20 0 31 -12t11 -30q0 -9 -7 -17t-18 -10h-55q-3 0 -10.5 -3.5t-9.5 -3.5q-15 -3 -32 -4.5t-34 -3.5t-34 -7.5t-30 -15.5q-2 -4 -7.5 -14.5t-11.5 -22.5t-11.5 -22t-7.5 -14q-9 -24 -17 -48t-20 -47q-11 -20 -20.5 -37 t-18.5 -39q-1 -2 -3 -12t-4.5 -21.5t-5.5 -21.5t-4 -12q-20 -61 -45 -122t-49 -122q-45 -116 -93.5 -232t-99.5 -230q-14 -29 -30 -59t-27 -60q-20 -57 -38 -114.5t-50 -110.5q-5 -4 -8.5 -4.5t-9.5 -0.5t-11 4.5t-9 10.5t-7 12t-3 10q-1 0 -2 5.5t-2 12.5l-2 14t-1 11 q-2 28 -11 54.5t-14 51.5q-7 24 -9.5 47t-9.5 47q-1 3 -5.5 17t-10 29.5t-10.5 29.5t-6 17q-10 35 -14.5 70t-15.5 69q-1 1 -4 7.5t-6 14t-6 14t-4 8.5q-1 3 -2.5 8.5t-3.5 11.5l-3.5 10.5t-2.5 6.5q0 2 -1 8t-2 13t-2 13t-1 8t-2.5 8.5t-6 14t-6.5 14t-4 8.5t-2.5 7 t-3.5 11t-4 11t-3 8q-1 5 -5.5 23t-9.5 37.5t-10 36.5t-6 21q-2 9 -4 18.5t-5 19t-8 18t-13 13.5h-3q-9 0 -14.5 -9.5t-7.5 -16.5q-6 -14 -9 -30t-10 -30q-12 -32 -22.5 -63t-20.5 -63q-2 -1 -4.5 -6.5t-5.5 -12t-6 -12t-4 -6.5q0 -2 -2.5 -12.5t-2.5 -12.5 q-9 -29 -21 -59.5t-25 -58.5q-34 -80 -72 -161t-64 -165q-7 -21 -12.5 -48.5t-14 -54.5t-21.5 -51t-34 -39h-5q-8 0 -11.5 5t-5 12.5t-1.5 14.5t-2 12q0 1 -5 8.5t-7 9.5q-6 13 -8.5 27.5t-3 30t-2 31t-5.5 29.5q0 1 -2 5l-4 8t-4 7.5t-3 4.5q0 2 -1.5 8.5t-3.5 14t-4 14 t-3 8.5q-4 11 -13 21t-10 23v10v27q-1 5 -4.5 14t-8 19.5t-8.5 19.5t-5 14q-2 4 -7.5 17.5t-12 28.5t-12 27.5t-6.5 15.5q-2 2 -3.5 15t-1.5 17q-3 2 -7.5 11t-6.5 14q-19 32 -30.5 66.5t-26.5 69.5q0 1 -1 3l-2 4q-1 3 -2 5q-17 45 -28 85.5t-29 82.5q-13 37 -28.5 73.5 t-26.5 72.5q-17 48 -32 98t-31 101q-11 33 -17.5 60t-16.5 49.5t-28 42t-52 36.5q-1 1 -11 3t-14 2q-5 1 -20 1h-32h-32t-20 -1z">
<glyph unicode="X" horiz-adv-x="1585" d="M1372 -7h-36q-5 -5 -9.5 -5.5t-9.5 -0.5q-20 0 -41 4t-41 9h-2h-5q-1 0 -6 -1t-10 -2.5t-9.5 -2.5l-4.5 -1q-3 0 -13 3.5t-12 3.5h-27h-15q-8 0 -15.5 -1t-18.5 -6q0 -1 -6 -3q-3 -1 -6 -3q-1 0 -9 2.5t-9 3.5h-39q-21 0 -41.5 -3t-42.5 -3h-27q-11 0 -22 1t-21 4 t-16 8.5t-6 14.5q0 13 8 19.5t19.5 9t23 3t19.5 2.5q1 0 4.5 1.5t7.5 4t8 4.5t5 3q10 1 26 1.5t31.5 3.5t26.5 10.5t11 24.5q0 11 -5 15.5t-9 13.5q-10 19 -18 40t-19 41q-30 49 -58 95t-63 93q0 2 -1.5 7t-3.5 6q0 2 -3.5 9.5t-3.5 9.5q-1 1 -5.5 6.5t-10 11.5t-10.5 11.5 t-6 7.5q0 2 -2.5 9.5t-5.5 16t-5.5 16t-2.5 10.5q-1 0 -5.5 4.5t-11 10.5t-12.5 11.5t-10 8.5q-9 9 -12.5 11.5t-12.5 2.5q-17 0 -22.5 -6.5l-16.5 -19.5l-6.5 -6.5l-11.5 -11.5t-11 -12t-6 -7q-20 -24 -29.5 -42.5t-22.5 -46.5q0 -1 -5 -8.5t-7 -9.5q-2 0 -3.5 -2.5 t-3.5 -4.5q0 -2 -2.5 -9.5t-3.5 -8.5q-2 -2 -9.5 -8.5t-9.5 -8.5q-3 -5 -8.5 -16t-11.5 -24t-11 -24.5t-6 -17.5q0 -2 -1 -8t-2 -12.5t-2 -12t-2 -6.5t-6 -5.5t-10.5 -9.5t-10 -9.5t-4.5 -5.5q-2 -2 -3.5 -10.5t-1.5 -10.5q-6 -9 -11 -16t-8 -14t-5 -15.5t-2 -21.5 q0 -16 11 -27.5t27 -19.5t32.5 -12t28.5 -5h76q13 -4 26 -13.5t13 -23.5q0 -12 -15 -20.5t-24 -10.5h-62q-46 0 -88.5 3t-89.5 3q-54 0 -105.5 -3t-103.5 -3h-65q-10 0 -25 3t-28.5 8.5t-23.5 15t-10 23.5v7q16 23 41.5 29t53.5 6h42h19q34 4 61 21t51 38t48 41.5t53 32.5 q1 3 4.5 10l7.5 15l7.5 15t5.5 10q1 2 8 8.5t14.5 14t14 13.5t7.5 8t4 9.5t6 16t5.5 16l3.5 10.5q0 1 4.5 4t10 7t10.5 8t6 6q2 2 6.5 11t5.5 13q0 1 1 5t2.5 8t2.5 7.5t1 4.5q1 1 6 5.5t10 9.5t10 9.5t6 5.5q0 2 6 10t6 10q2 4 9.5 14t10.5 11q0 1 3.5 4.5t8 7.5t8 7.5 t3.5 4.5q2 2 4.5 12.5t2.5 12.5q6 14 16 25t19 22t15.5 23t6.5 28v16q-2 3 -9.5 12.5t-8.5 11.5q-13 21 -21 45.5t-25 43.5q-11 14 -23 27t-20 30q-1 1 -3 5t-4 9.5t-3.5 10t-1.5 5.5q-7 17 -18.5 29.5t-20.5 27.5q-1 0 -3 8.5t-2 10.5q-1 3 -4.5 9t-7.5 13t-7.5 13.5 t-5.5 8.5q-1 1 -4.5 5.5t-8 10t-8 10t-4.5 5.5q-8 14 -15 29.5t-17 26.5q-2 4 -13 13.5t-12 11.5q-2 2 -9 16.5t-10 22.5q-17 38 -38 70.5t-42 66.5q-6 9 -12.5 24.5t-14 31t-15.5 28t-16 16.5q-10 6 -27.5 16t-27.5 10q-9 0 -16 -3t-16 -3h-13q-19 2 -39.5 5.5t-37 11 t-27.5 21.5t-11 37v4t1 4q0 2 1 4q0 2 9.5 6.5t15.5 7.5h4h1q4 -2 11.5 -7t8.5 -7q84 -9 167.5 -11t167.5 -2q51 0 102 1.5t103 6.5q1 0 14.5 2.5t17.5 2.5h30h32q5 -2 6 -5t1 -7t-1 -10t-6 -8q-2 -1 -6.5 -2t-10 -2t-10 -2.5t-5.5 -2.5q-29 -6 -57 -17t-56 -18 q-1 0 -6.5 -1.5t-11.5 -2.5t-12 -2.5t-7 -1.5q-2 0 -12 -2t-13 -3q0 -2 -0.5 -9t-0.5 -11v-10q0 -4 1 -7q13 -39 38 -74.5t43 -71.5q13 -24 27.5 -47.5t29.5 -45.5q1 -2 2 -5q2 -5 5 -7q1 -4 6 -16.5t7 -16.5l6.5 -6.5l11.5 -11.5l11.5 -11.5t5.5 -7.5q2 -2 4.5 -12.5 t4.5 -12.5q2 -8 13 -27t25 -38t28.5 -33.5t22.5 -14.5h5q4 3 13 6.5t10 5.5q1 1 3 5t3.5 8t3 7.5t2.5 4.5l39 39q1 1 6.5 12l6.5 13q0 2 5 9t7 9q13 18 24 37t20 39q0 1 2 6.5t4 12t4 12.5t3 8l3 4.5t6.5 10.5t8 11.5t7.5 8.5q1 3 6.5 10.5t11.5 16t11.5 15.5t7.5 8 q2 2 3.5 7t3.5 7q0 1 2 12t5 13q5 11 12.5 22t14 22.5t11.5 23.5t5 26q0 26 -14 39.5t-35 20.5t-45.5 9t-45.5 5t-35 9.5t-14 22.5q0 10 4 21t19 11h3q8 -2 21.5 -3t26.5 -2t22.5 -1.5t10.5 -0.5q9 -2 20 -4.5t19 -8.5h70h73q22 0 48.5 1.5t53.5 5.5t53 11.5t46 19.5h34 q24 0 47 -2.5t43 -15.5q2 -3 2 -8.5v-6.5q0 -18 -9 -23.5t-21.5 -7t-25.5 -3.5t-21 -13q-19 -2 -42 -7t-45.5 -13t-43.5 -17.5t-37 -19.5q-3 -2 -12 -11.5t-13 -14.5q-2 -1 -7 -8.5t-7 -9.5q-5 -7 -14.5 -11t-15.5 -9q-6 -3 -18 -12t-14 -12t-3 -6l-4 -6q-1 -1 -8.5 -6 t-9.5 -7l-25 -25q-2 -2 -3 -13t-2 -12q-2 -2 -8 -7.5t-12.5 -12l-12 -12t-6.5 -7.5q-2 -3 -5 -7q-5 -7 -7 -12q-17 -25 -34 -47.5t-35 -46.5q-2 -2 -6 -7.5t-8 -11.5t-7 -11t-4 -7q-1 -1 -4 -6.5t-6 -11.5t-5.5 -12t-2.5 -7q-8 -12 -21.5 -26.5t-27 -28.5t-25 -27.5 t-15.5 -24.5q-4 -10 -9 -27.5t-5 -31.5q0 -21 7.5 -35.5t18.5 -27.5t23 -25t20 -28q2 -2 5 -9.5t6.5 -16t6 -16t2.5 -10.5q2 -2 9.5 -8.5t9.5 -8.5q0 -1 2 -5l4 -8t4 -7.5t3 -4.5q11 -20 27 -38.5t29 -38.5q12 -18 22.5 -38.5t20.5 -40.5q9 -18 22 -32.5t24 -31.5 q12 -23 22 -47t21 -47q3 -8 9 -13.5t10 -11.5q6 -12 11.5 -26.5t12 -29.5t14.5 -28.5t17 -23.5q2 -1 8.5 -7t14.5 -13.5t14.5 -14l8.5 -8.5l5 -12q18 -21 33.5 -31.5t32.5 -15t36 -6t44 -4.5q1 0 8 -2.5t9 -2.5q4 -2 12.5 -2h18.5h19t12 2q8 -2 10.5 -7t2.5 -12v-10 q0 -24 -18.5 -29.5t-40.5 -5.5q-29 0 -54.5 6.5t-56.5 6.5z">
<glyph unicode="Y" horiz-adv-x="1406" d="M388 20q0 23 17.5 39.5t39.5 16.5q1 0 5 -1t9 -2l10 -2t8 -2q2 0 9 -3.5t9 -3.5h4h1q19 5 38.5 8.5t35.5 11t25.5 21.5t8.5 41l-3 187l-2 17v149q-9 18 -11.5 27.5t-2.5 23.5v13q1 4 4 14.5t6.5 21.5t6 20.5t2.5 10.5q0 2 -2 7t-4 10.5t-4.5 10l-2.5 4.5q0 2 -2 11t-4 14 q0 1 -1 5.5t-2 10t-2 10.5t-1 6t-2.5 4.5t-6 7.5t-6.5 7.5t-4 4.5q-10 15 -13 32t-12 32q-5 4 -16 14.5t-23 23.5t-22.5 24.5t-14.5 17.5q-17 22 -30.5 51.5t-31.5 54.5q-14 23 -30.5 43.5t-29.5 42.5q-2 3 -5.5 10t-7 15t-7 15t-5.5 10q-16 35 -43.5 65.5t-50.5 59.5 l-10 15t-17.5 26t-17.5 26t-11 15q-1 1 -2 1.5t-2 1.5q-2 1 -3 2q-2 0 -6 3q-3 2 -5 4l-7.5 7.5t-12 11.5t-12 11t-7.5 7q-11 10 -28 12.5t-33 6t-27 12t-11 29.5q0 2 -1 6t-1 8q0 10 9 13q5 1 19 3t30 4t30 4t20 2h10h8q2 0 9.5 -3t9.5 -3h82q19 -2 37.5 -7t39.5 -5 q17 0 32 1.5t32 3.5q2 0 7 3q3 2 5 4h12q32 0 59.5 -7t59.5 -7q5 0 10 1t10 1q8 -5 8 -13q0 -16 -17 -23.5t-37.5 -15t-37.5 -18t-17 -31.5v-18q2 0 11 -13t14 -19q10 -11 17.5 -23t14.5 -25l14 -26t17 -25l7.5 -7.5t12 -11.5t12 -11.5l6.5 -6.5q2 0 3.5 -9t1.5 -11 q18 -28 34 -52.5t35 -52.5q3 -2 7 -9t7 -9q0 -1 2 -7q1 -3 3 -5q1 -2 5 -6l8 -8t7.5 -7t4.5 -4q1 -2 3 -7l4 -10t4 -9.5t2 -5.5q4 -10 16 -30t25.5 -39.5t26.5 -34t20 -14.5q12 0 28 3t22 16q39 67 71 137.5t65 141.5q8 18 22 39t27.5 43t23 44t9.5 42q0 14 -7.5 25t-19 19 t-24.5 14t-24 11q-1 1 -6.5 2t-12 2t-12 1.5t-6.5 0.5q-9 2 -29 5.5t-40.5 9t-36 13t-15.5 16.5q0 2 1 4q0 1 1 3l32 30h62h99q28 -2 54.5 -7t52.5 -5h22q3 0 13.5 1t22.5 2.5t21.5 2.5t11.5 1h76q28 2 53.5 7t52.5 5h25q8 -7 13 -15t5 -21q0 -20 -11.5 -28t-27 -11 t-32.5 -3t-28 -3q-1 0 -8 -2.5t-16 -5.5l-18 -6t-15 -4q-2 -3 -14 -8t-16 -6q-23 -9 -35.5 -30t-28.5 -39q-1 -1 -6 -6.5t-11.5 -11.5t-12 -12t-7.5 -7q-20 -24 -34 -52t-33 -54q-2 -2 -10.5 -11t-18 -19.5t-18 -19.5t-9.5 -12q-5 -6 -15 -22.5t-21 -35.5t-20.5 -35.5 t-12.5 -23.5q-13 -12 -21.5 -22t-15 -19.5t-14 -19t-17.5 -20.5l-7.5 -7.5l-12 -12l-12 -12t-5.5 -7.5q-3 -6 -5 -24t-2 -29v-9v-331q0 -4 -1 -24t-2.5 -43t-2.5 -43.5t-1 -25.5v-3v-2q0 -4 3.5 -13.5t3.5 -11.5q0 -4 -3.5 -17t-3.5 -15v-13v-17q0 -5 1 -19.5t2.5 -31.5 t2.5 -31.5t1 -18.5v-27v-10q0 -2 4.5 -7.5t7.5 -5.5q1 -1 6 -2t11 -1.5l12 -1t9 -0.5q5 -2 20 -3t32 -2t32.5 -1.5t21.5 -0.5q15 -5 23.5 -18.5t8.5 -30.5q0 -12 -7 -18.5t-17.5 -9.5t-22 -3.5t-20.5 -0.5q-12 0 -20.5 2t-15 4l-13 4t-15.5 2q-2 0 -8.5 -1t-14 -2.5 t-14 -2.5t-8.5 -1h-10q-9 0 -19 3.5t-20 3.5q-84 0 -167.5 -9t-166.5 -9h-31q-21 0 -38 6t-17 32z">
<glyph unicode="Z" horiz-adv-x="1536" d="M152 39q0 1 2.5 5.5t5.5 10.5t6.5 12t6.5 9q1 1 5.5 6t5.5 7q2 0 9.5 1.5t9.5 3.5q5 3 8.5 10.5t6 16l5 17t5.5 13.5l9.5 9.5t8.5 9.5q0 1 3 12t4 13q13 25 32.5 48t36.5 46q9 14 14.5 29.5t15.5 30.5q17 24 34.5 47t34.5 46q0 2 5 12.5t7 12.5q13 29 26.5 57.5 t28.5 55.5q3 3 9 11.5t12.5 18.5t13 19t9.5 13q2 2 6.5 7.5t10 11.5t10 11.5t5.5 7.5l5.5 11t10 19.5t10 20t4.5 12.5q3 1 8.5 5.5t5.5 5.5q0 2 3 7.5t6 12t5.5 12t3.5 7.5q1 1 3.5 4.5t6 7.5t6 8t3.5 5q1 0 3.5 5t2.5 7q2 2 4.5 9.5t2.5 8.5l4.5 4.5t7.5 8t7.5 8t4.5 5.5 q21 28 36.5 61t31.5 63q3 2 10 11.5t9 13.5q1 1 5 4.5t8 7.5l7.5 7.5l4.5 4.5q3 2 4 12.5t3 12.5q7 16 15 27.5t17 22t18.5 21t18.5 23.5q15 21 27.5 46t27.5 46q3 4 10.5 15.5t16.5 24.5t17.5 25t12.5 18q7 9 13 15.5t10 12.5t6.5 13.5t2.5 18.5v5q0 7 -2 13.5t-11 8.5 q-4 0 -13 -1t-19 -2t-18.5 -2t-11.5 -2q-1 0 -3.5 -1t-4.5 -2q-3 -2 -6 -3q-47 -4 -96.5 -5.5t-96.5 -6.5q-58 -7 -115.5 -13t-114.5 -6h-14l-5.5 1t-12 2.5t-12.5 2.5t-7 1l-8 -4q-6 -3 -10 -3q-3 0 -13.5 -3t-23.5 -6t-23.5 -5.5t-13.5 -3.5q-1 0 -7 -4q-3 -2 -5 -3 q-4 -2 -10.5 -4.5t-7.5 -2.5q-2 0 -8.5 -0.5t-14 -1.5t-14 -2t-7.5 -2l-4 -2l-2 -2l-1 -1q-32 -37 -60.5 -73.5t-51.5 -78.5q-6 -8 -8 -25.5t-5.5 -35t-11.5 -31t-24 -13.5h-8q-11 20 -17.5 37t-6.5 38q0 26 6 48t6 48v10q0 2 -2 8.5t-4 14t-4 13.5t-2 8v62q0 4 -3.5 16 t-3.5 16v7v5q0 4 3.5 19t3.5 19v2v3q0 3 -3.5 13.5t-3.5 11.5v4q0 23 18.5 35t37.5 12q12 0 18 -1.5t10 -5t8.5 -8t13.5 -10.5q3 -3 10 -7t14 -8.5t13 -7.5t7 -3q4 -1 15.5 -3t24.5 -3.5t24.5 -3t16.5 -1.5q2 1 9 3.5t11 2.5q1 0 9 -3t9 -3h5q13 0 25.5 3t26.5 3 q18 0 32.5 -3t31.5 -3t26 3.5t26 7.5q13 3 21 4t15.5 2t15.5 1h21q17 0 30.5 -3.5t27.5 -3.5q7 0 10.5 1t8.5 6h131q10 5 16.5 6t16.5 1q13 0 23 -3.5t21 -3.5q13 0 24.5 3.5t22.5 3.5t18.5 -3.5t15.5 -3.5h5q1 0 5 1t9 2t9.5 2t6.5 2h224q5 -2 16 -4.5t15 -2.5h4 q11 0 21 3.5t22 3.5q27 0 43 -16.5t16 -44.5q0 -18 -10.5 -37.5t-25 -38.5t-29 -37t-22.5 -33q0 -1 -2.5 -9t-4.5 -9q0 -2 -2 -6.5t-5 -7.5l-4.5 -4.5t-9.5 -10t-10 -10t-6 -5.5q-11 -14 -19 -34t-19 -35q-16 -24 -33.5 -46t-32.5 -48q-14 -20 -25 -43t-25 -43 q-2 -1 -5.5 -5.5t-8 -10t-8 -9.5t-4.5 -5q0 -2 -3 -7.5t-6 -12t-5.5 -12t-3.5 -6.5l-12 -12q-4 -4 -8.5 -10.5t-4.5 -8.5q-29 -58 -68.5 -115.5t-74.5 -109.5q-1 -2 -5 -6.5t-8.5 -9.5t-8 -9.5t-3.5 -6.5q-2 -2 -6.5 -11t-9.5 -19.5t-9.5 -19.5t-6.5 -12q-33 -53 -69.5 -104 t-73.5 -103q-8 -10 -13 -18t-8.5 -16t-7.5 -15.5t-10 -15.5q-8 -15 -21.5 -29t-21.5 -28q-2 -3 -7.5 -14.5t-11.5 -24.5t-11.5 -23.5t-6.5 -13.5q-4 -8 -12 -18.5t-15.5 -22t-13 -23.5t-3.5 -23q2 -2 6 -7t6 -5q5 -1 16 -2t23 -2t22 -2t14 -1h26q2 0 12.5 -5.5t12.5 -5.5h5 q17 0 32 5.5t32 5.5h168q1 2 5.5 4.5t6.5 2.5q23 5 41.5 6t38.5 1h35h61q2 -3 8 -5t10 -2q2 0 9.5 3.5t9.5 3.5q45 8 91 17t89 27q4 1 7.5 6t6.5 11t5.5 11.5t3.5 7.5q3 3 14.5 17t24 30t23.5 30t14 18q5 7 9 13l6 10t3 7v10v17q0 11 1 21.5t6 18.5l7.5 12.5t11 15 t13.5 12.5t15 5q4 0 8.5 -1t6.5 -7q1 -3 2 -10.5t2 -16t2 -16.5t1 -11v-3v-4q-11 -42 -13.5 -86.5t-5.5 -87.5q-2 -16 -2 -32t-0.5 -32t-4 -31.5t-11.5 -29.5q-42 -10 -77 -15t-76 -5h-26t-28 2q-1 -2 -8.5 -4.5t-9.5 -2.5q-3 0 -15.5 3.5t-16.5 3.5q-2 0 -11.5 -3.5 t-13.5 -3.5h-4q-20 0 -41 3.5t-41 3.5h-12q-3 0 -15 -1t-25.5 -2.5t-25.5 -2.5t-14 -1h-226q-11 -5 -17.5 -5.5t-15.5 -0.5h-10q-3 0 -13.5 3t-11.5 3h-113q-35 2 -69 7t-69 5q-56 0 -109 -9t-107 -9q-10 0 -21 4t-20 11.5t-14 18t-3 23.5z">
<glyph unicode="[" horiz-adv-x="723" d="M726 1401q0 -11 -8.5 -24t-21.5 -15h-64h-62q-2 0 -7.5 1t-11.5 2.5t-11.5 2.5t-6.5 1h-2h-5q-9 -5 -20.5 -15t-24.5 -10q-14 0 -28 2.5t-31 2.5q-5 0 -25 -1t-43 -3.5t-42 -7t-21 -11.5q-5 -13 -6 -24t-1 -22v-20v-29q0 -2 1 -9t2.5 -15t2.5 -15t1 -9v-62q0 -3 1.5 -15 t3.5 -25.5t4 -25.5t3 -15v-14v-11q0 -5 -1 -23.5t-1.5 -39.5t-1.5 -39.5t-1 -23.5v-54.5t0.5 -74t0.5 -68.5v-40l2 -24v-280q11 -19 13 -42.5t2 -43.5q0 -29 -1 -49.5t-6 -52.5q-8 -8 -9.5 -13.5t-1.5 -15.5q0 -9 0.5 -16t4.5 -18v-216q0 -3 2.5 -15.5t3.5 -15.5v-6 q0 -11 -5.5 -19.5t-5.5 -17.5v-44q-2 -32 -8 -62t-6 -62v-20q0 -4 2 -13.5t4.5 -21t4.5 -21t3 -13.5q8 -3 19 -10.5t23 -15t23 -13t20 -5.5h11t9 2q2 0 9.5 3t9.5 3q4 0 17.5 -3t17.5 -3q3 -1 11.5 -4t18 -6.5t17.5 -6t10 -2.5h2q3 0 8.5 1t11.5 2t10.5 2t4.5 2h5h2 q3 -1 13 -2t21.5 -2t21.5 -2t13 -1q2 0 9.5 3.5t8.5 3.5q2 0 12.5 -3.5t13.5 -3.5q16 -2 24.5 -2.5t13 -3.5t6.5 -11t4 -26v-7q0 -14 -12 -22t-25 -8h-137q-42 12 -85.5 16.5t-87.5 8.5q-2 0 -8 1t-13.5 1.5t-14 1.5t-8.5 1h-62q-3 2 -8.5 7.5t-11.5 12t-11 13t-6 11.5 q-1 2 -2 8t-2 13.5t-2 13.5t-1 8q0 1 -2 6l-4 10t-4 9.5l-2 4.5q-1 3 -2 10.5t-2 16.5t-1.5 17t-0.5 12q0 6 -1 21.5t-2 32.5t-2 32t-1 21v19v734q0 2 -1 9t-2 16l-2 18t-1 14q-2 2 -4 5q-3 4 -3 7v3v4q0 1 2 6t5 7v101v60q0 35 -1 69.5t-6 73.5q-2 2 -4.5 6t-2.5 6t2.5 9.5 t4.5 8.5v486q0 2 2 6.5t5 6.5q11 16 18.5 22t24.5 9q1 0 7.5 1t14 2t14 2t8.5 1t9.5 6t9.5 6q1 0 8.5 -2.5t9.5 -2.5t11.5 2.5t13.5 2.5q38 5 74.5 7.5t73.5 6.5q14 1 26 8.5t25 9.5q30 2 61 4.5t63 2.5q15 0 26.5 -7t19.5 -18.5t12 -26t4 -29.5z">
<glyph unicode="\" horiz-adv-x="530" d="M265 312v26l-2 3q0 1 -0.5 1t-0.5 1q-1 0 -1 1q-1 0 -6 3.5t-5 5.5q-3 7 -6 13q-2 5 -5 10.5t-5 9.5q-12 32 -21 63t-21 60q-4 13 -9 19.5t-16 14.5q-2 5 -6.5 17t-10 25.5t-10 25.5t-6.5 17q-23 52 -40.5 104.5t-38.5 105.5l-6 12t-8 17t-7.5 16l-4.5 9q-2 4 -11 22.5 t-19.5 39.5t-19 40.5t-10.5 25.5q-3 4 -10.5 21t-16 37.5t-16 38t-9.5 22.5q-2 6 -8 19t-13 27t-13 27t-8 19q-2 1 -6 6.5l-8 11t-7.5 10l-3.5 4.5l-2 2q-2 8 -3.5 15.5t-1.5 16.5q0 19 9.5 35.5t29.5 24.5q6 4 13.5 5.5t12.5 1.5q20 0 33.5 -13.5t22.5 -35.5 q8 -17 12.5 -34t4.5 -34v-11.5t-2 -12.5q3 -6 8.5 -20.5t12 -30.5t12 -30t7.5 -20q23 -52 49 -100t47 -101q11 -28 17.5 -55t19.5 -55q6 -19 11.5 -29t22.5 -26l95 -230l11 -9l33 -84v-13q4 -4 7 -15q4 -9 8.5 -19.5t4.5 -12.5q0 -4 1 -16.5t3 -13.5q0 -3 3 -8.5t3 -6.5 q4 -12 7 -17t14 -15q2 -3 6.5 -12t9 -18.5t8 -18.5t4.5 -13q2 -8 5 -14.5t5 -12.5q9 -20 16 -40.5t11 -40.5l173 -417q13 -5 21 -16.5t13 -25.5l4 -10l4 -10t2 -13q0 -15 -8 -27t-22 -19q-5 -1 -9.5 -3t-9.5 -2q-7 0 -12 2q-6 0 -17 4t-13 8z">
<glyph unicode="]" horiz-adv-x="708" d="M-15 -512q0 11 9 24t22 14h64h62q1 0 6.5 -1t11.5 -2t11.5 -2t7.5 -1h1h5q9 5 21 15t25 10q14 0 28 -2.5t31 -2.5q4 0 24.5 1t43.5 3.5t42 7t21 11.5q5 13 5.5 23.5t0.5 22.5v20v28q0 2 -1 9t-2 15.5t-2 15.5t-1 9v62q0 3 -1.5 15t-4 25.5t-4.5 25.5t-2 15v13v12 q0 5 1 23.5t1.5 39.5t1.5 39.5t1 23.5q0 18 -0.5 54t-0.5 73.5t-0.5 69t-0.5 40.5l-2 23v281q-11 19 -13 42.5t-2 43.5v25.5t1 23t2 24t4 29.5q9 8 10.5 13t1.5 16q0 8 -0.5 15.5t-4.5 17.5v217q0 1 -1 5.5t-2 9.5t-2 9.5t-2 5.5v7q0 11 6 19.5t6 17.5v44q2 32 7.5 62 t5.5 62v20q0 4 -2 13.5t-4 21t-4 21t-3 13.5q-8 3 -19 10t-23 14.5t-23.5 13.5t-20.5 6h-10t-10 -2q-2 0 -9.5 -3.5t-8.5 -3.5q-5 0 -18.5 3.5t-17.5 3.5q-2 1 -10.5 4t-18.5 6t-18 5.5t-10 2.5h-2q-3 0 -8.5 -1l-11 -2t-10 -2t-5.5 -1h-5h-2q-3 0 -13 1t-21.5 2t-21.5 2 t-12 1t-9.5 -3t-9.5 -3q-1 0 -4.5 1t-7.5 2l-8 2t-5 1q-16 3 -25 3t-13.5 3t-6.5 11.5t-4 26.5v7q0 14 12 22t25 8h138q42 -13 85 -17t88 -8q1 0 7.5 -1t14 -1.5t14 -1.5t8.5 -1h62l7.5 -7.5t11.5 -12t11 -13.5t7 -11q0 -2 1 -8t2 -13.5t2 -14t1 -8.5q0 -1 2 -5.5t4 -10 t4 -9.5t2 -5q1 -2 2.5 -9.5t2.5 -16.5t1.5 -17t0.5 -12q0 -6 1 -22t1.5 -33t1.5 -32t1 -21v-18v-734q0 -2 1 -9.5t2 -16.5t2 -17.5t2 -13.5q1 -3 3 -6q0 -2 2 -4q1 -1 1 -2v-4v-3q0 -2 -2 -6.5t-4 -6.5v-101v-61q0 -35 0.5 -69t5.5 -73q2 -2 4.5 -6.5t2.5 -5.5 q0 -3 -2.5 -10t-4.5 -9v-485q0 -2 -2 -6.5t-4 -7.5q-11 -15 -18.5 -21.5t-25.5 -8.5q-1 -1 -7.5 -2t-14 -1.5t-14 -1.5t-8.5 -2q-1 0 -8.5 -5.5t-9.5 -5.5t-9.5 2.5t-9.5 2.5q-1 0 -11 -2.5t-14 -2.5q-38 -5 -74.5 -7.5t-73.5 -6.5q-14 -2 -25.5 -9.5t-24.5 -8.5 q-30 -3 -61 -5t-63 -2q-15 0 -27 7t-20 18.5t-12 26t-4 29.5z">
<glyph unicode="^" horiz-adv-x="907" d="M434 1230q-6 0 -11 -5t-10 -12.5t-9.5 -15.5t-8.5 -14q-6 -11 -11 -20.5t-10 -25.5q-8 -24 -14.5 -34.5t-11.5 -20.5q-14 -30 -23 -57.5t-22 -53.5q-2 -5 -8.5 -10t-11.5 -5q-7 0 -8 7.5t-1 17.5v20v10q4 27 7.5 48.5t9.5 54.5q5 17 8 30t11 37q3 15 6 26.5l6 23t7 24 t9 30.5q1 8 6.5 26t12 37.5t12 35.5t6.5 20q9 18 22.5 29t21.5 15q2 2 9 3t9 1q3 0 9.5 -1t11.5 -3q2 -3 9 -10t15 -15.5t15 -16.5t9 -12q14 -26 22 -40t17 -32q9 -17 16.5 -30.5t15.5 -33.5q13 -38 23 -67.5t24 -64.5q2 -3 6 -13.5t9.5 -23t10.5 -25t9 -19.5q9 -14 13 -29 t4 -23q0 -11 -6 -15t-11 -9q-6 -5 -11.5 -8t-20.5 -3q-24 0 -33 11q-17 23 -30 41.5t-26 44.5q-6 9 -13 26t-15 36t-17 37t-19 29q-5 6 -9.5 14t-9.5 15.5t-10 12.5t-11 5z">
<glyph unicode="_" horiz-adv-x="865" d="M-8 -109q0 20 7.5 33t19.5 20.5t28 10.5t34 3h96l25 -2q6 1 22.5 1.5t35 1t35 1t21.5 0.5q4 0 18 -0.5t30 -0.5t29.5 -0.5t15.5 -0.5q42 -1 65 -1.5t34 -0.5h13.5h3.5q24 2 44 3t25 1q4 0 14.5 -0.5t21.5 -1.5t20 -1.5t11 -0.5l111 4q5 -2 13 -2q7 0 13 1t12 1 q20 0 36.5 -12.5t22.5 -41.5q2 0 2 -7.5v-9.5q0 -23 -7 -36t-18.5 -19.5t-27 -8t-33.5 -1.5h-20h-158q-13 0 -22 0.5t-13 0.5q-40 0 -63.5 0.5t-36 1.5t-17.5 2t-8 1q-35 -4 -68 -5t-61 -1q-49 0 -80 2.5t-29 2.5q-3 0 -15 -0.5t-25.5 -1.5t-25.5 -1.5t-15 -0.5l-67 2 q-1 0 -8 1.5t-15.5 3t-16.5 3.5t-12 4q-6 2 -9.5 9t-5 15.5t-2 16t-0.5 11.5z">
<glyph unicode="`" horiz-adv-x="908" d="M249 1225q-8 12 -14 19.5t-11 13.5t-9.5 11t-10.5 11q-2 3 -10 13t-18 22t-18 22.5t-10 13.5q-4 8 -4.5 11.5t-0.5 10.5q0 32 24.5 50t54.5 18h12q9 -5 25.5 -16t24.5 -15q1 -2 3 -4q1 -2 2 -3t1 -2q2 -3 6.5 -9.5t9 -13.5t8.5 -13t6 -8q12 -17 21.5 -30.5t18 -26.5 t17.5 -27.5t20 -32.5q15 -23 30.5 -52.5t35.5 -61.5q19 -33 36 -66t17 -62q0 -22 -3.5 -26t-24.5 -4q-2 0 -8.5 5.5t-8.5 5.5q-9 9 -24.5 23t-24.5 23q-19 19 -40.5 38t-36.5 36q-7 7 -21.5 24.5t-29.5 38t-28 38.5t-17 25z">
<glyph unicode="a" horiz-adv-x="842" d="M215 244q0 -18 5.5 -36t15.5 -32.5t25 -23.5t35 -9q29 0 58.5 2t55.5 13q23 6 42 18.5t39 23.5q6 37 7 65t1 63q0 32 -1 58.5t-7 57.5h-12q-17 0 -32 -4.5t-29.5 -11t-28 -13.5t-28.5 -13q-14 -7 -22.5 -9.5t-22.5 -11.5q-15 -11 -32.5 -26t-32.5 -33t-25.5 -37.5 t-10.5 -40.5zM72 200q0 34 15.5 66t40.5 59t55 48t59 34q1 0 6.5 2t11.5 3.5t11.5 3.5t7.5 2q1 1 6.5 4.5t11.5 8t11.5 8.5t7.5 5q33 20 73.5 32.5t77.5 22.5q19 7 32 14t17 31q0 1 1 7.5t2 15.5t2 18.5t1 14.5v3v5q0 9 -1 23.5t-2 28t-2 23.5t-1 11q-4 23 -16.5 44.5 t-31.5 38t-42 26.5t-48 10q-22 0 -42.5 -4.5t-36 -15t-26 -27t-13.5 -40.5q-2 -18 -2.5 -37t-15.5 -32q-3 -3 -9 -8.5t-12.5 -10.5t-11.5 -8.5t-6 -4.5q-8 -6 -21.5 -15.5t-15.5 -9.5h-74q-2 0 -6.5 7.5t-8.5 12.5q-6 13 -8.5 17.5t-2.5 17.5v7q16 43 48.5 73.5t70.5 52.5 q1 0 3 3.5t4 3.5q49 43 111 71t130 28q22 0 38 -2t30.5 -5t29.5 -7.5l35 -10.5q28 -20 49 -39t35 -41t21.5 -49t7.5 -61v-4q-9 -120 -20 -241.5t-11 -240.5q0 -32 12 -56.5t42 -35.5h12q21 0 38.5 4.5t34 12t33.5 16t35 16.5v-12q0 -23 -12.5 -36t-26.5 -28l-5 -5t-8 -9.5 t-7.5 -10t-4.5 -5.5q-6 -8 -13.5 -11.5t-18.5 -7.5q-24 -10 -55.5 -18.5t-60.5 -8.5h-10t-10 2q-5 1 -16 4t-23 7t-22 8t-14 6q-3 2 -13 11.5t-13 12.5q-4 5 -10.5 19.5t-14 30.5t-14 28t-9.5 12q-6 0 -14 -8.5t-16 -19.5t-15 -22t-12 -15q-19 -16 -35 -29.5t-33 -23.5 t-36.5 -15.5t-45.5 -5.5q-14 0 -24.5 0.5t-19.5 2.5t-18 6t-20 11q-32 17 -61.5 39t-37.5 59q-7 24 -10.5 43t-3.5 39z">
<glyph unicode="b" horiz-adv-x="1005" d="M314 186q9 -21 22.5 -30t29.5 -20q25 -18 43 -34t36 -28t40.5 -19.5t55.5 -7.5q9 0 11.5 1.5t13.5 6.5q54 20 90.5 54.5t64.5 83.5q4 3 9.5 12.5t5.5 11.5q1 2 2.5 14t3 26t3 26.5t3.5 15.5q3 17 5 31.5t4 28.5t3 29.5t1 34.5v14v21.5t-0.5 21t-0.5 14.5q-8 23 -15 47 t-16 47t-20.5 45t-29.5 41q-6 7 -18 18.5t-24 23.5l-21.5 21.5t-12.5 11.5q-1 1 -6.5 3.5t-11.5 5.5t-12 5.5t-7 4.5q-1 1 -5.5 4.5t-9.5 8t-10 8t-7 4.5q-21 13 -48.5 19t-53.5 6q-20 0 -34 -1t-38 -6q-20 -16 -29.5 -40t-16.5 -47q0 -7 -2 -19.5t-4 -25.5t-3.5 -23.5 t-1.5 -12.5q0 -6 1 -25.5t2 -41.5t2 -41t1 -24q2 -61 4.5 -121.5t2.5 -120.5v-41.5t-2 -41.5zM209 86q-10 -5 -15.5 -16t-10.5 -22.5t-11.5 -20.5t-18.5 -9q-2 0 -7.5 2t-5.5 4l3 112v19q1 6 1.5 17.5t1 26t0.5 30v28.5v29q0 2 -1 9.5t-2 15.5t-2 15.5t-1 9.5v10q0 33 4 65 t4 66q0 52 -4 102.5t-4 102.5q0 121 6.5 238t6.5 238v18q0 1 -1 6.5t-2 12t-2 12t-2 6.5v35v14q0 4 -1.5 10.5t-3.5 13.5t-4 12.5t-2 6.5q-6 10 -20 13t-29.5 4.5t-31.5 2.5t-27 6q0 1 -1 7t-1 8q0 12 1.5 16t12.5 12q23 15 48 20.5t48 18.5q2 1 9 5.5t15 9.5t15.5 9.5 t10.5 5.5q1 1 7.5 2t14 1.5t14 1.5t8.5 2q8 3 14 6t11.5 5.5t13 4.5t18.5 2h5q5 0 10.5 -1.5t7.5 -9.5q3 -149 3 -303t11 -306q0 -2 1.5 -9t3.5 -9h3q20 0 39 8t37.5 17t37 17t39.5 8q60 0 111 -7t96.5 -24t86.5 -46t81 -74q15 -15 19.5 -38t12.5 -43q20 -47 35 -97.5 t15 -103.5q0 -68 -19 -133t-55 -121t-86.5 -100t-113.5 -69q-4 -2 -16 -4t-16 -2q-38 -6 -87 -13t-92 -7h-32q-3 0 -11 2.5t-10 2.5q-3 1 -11 2.5t-17 2.5t-17 1.5t-12 0.5h-32q-8 2 -25 14t-34.5 26t-31 25t-14.5 11z">
<glyph unicode="c" horiz-adv-x="826" d="M63 396q0 37 3.5 76t12.5 77t23.5 73t35.5 65q2 2 10 9.5t11 9.5q0 1 2.5 5t5.5 8t5.5 7.5t2.5 4.5q6 6 21 21.5t32 32.5t32 31.5t21 20.5q2 2 7 4t7 2q2 1 9.5 3t15.5 4t15.5 4t9.5 3q2 0 9.5 6t9.5 6q16 10 38.5 13t41.5 7q6 0 21.5 2t32.5 3.5t32.5 3.5t21.5 2h11 q40 0 80 -7t77 -18q28 -17 46 -43t18 -61q0 -12 -6 -24.5t-16 -22.5t-22.5 -16.5t-24.5 -6.5q-15 0 -30 2.5t-27 10.5q-1 0 -4.5 3.5l-8 8t-8.5 8t-5 4.5q-1 0 -5.5 3t-10 6t-9.5 5.5t-5 3.5t-4 6t-6.5 10t-6 10t-3.5 6q-17 26 -46.5 40.5t-61.5 14.5q-4 0 -11.5 -2 t-11.5 -4q-48 -17 -85.5 -52t-63 -80t-38.5 -96.5t-13 -99.5q0 -38 3.5 -80t14.5 -80q16 -48 43 -94.5t64 -82.5t82.5 -58t99.5 -22h10t12 1q7 0 14 1q16 1 35.5 10t38.5 19.5t36.5 19t28.5 8.5q0 -21 -11 -38t-27 -32q-30 -25 -58.5 -40.5t-59 -24.5t-64 -12.5t-72.5 -3.5 h-66q-21 11 -46 20.5t-48 23.5q-45 28 -84.5 61t-64.5 81q-11 22 -23 48t-22.5 53.5t-17 55t-6.5 53.5z">
<glyph unicode="d" horiz-adv-x="1008" d="M427 116q5 -1 19 -3t30 -4t31 -4t21 -3h7q28 0 50.5 4.5t48.5 14.5q1 0 8 3.5t8 3.5q4 6 9.5 15t10.5 20t8.5 22.5t3.5 21.5v1q0 4 -0.5 12t-1.5 17t-2 17t-2 11v301q0 6 -0.5 22.5t-1.5 35.5t-2 36t-1 24q0 5 -3.5 14t-3.5 11q-7 13 -18 20t-23 11.5t-24 8.5t-22 12 q-35 23 -65 38.5t-73 15.5q-14 0 -27.5 -7.5t-26 -18.5t-24.5 -23t-23 -20q-2 -1 -3 -2q-2 -2 -2 -3q-26 -34 -45 -73t-36 -77q-2 -4 -4 -9.5t-4 -10.5q-3 -6 -5 -12v-137q6 -20 6.5 -40.5t6.5 -42.5q14 -60 45 -102.5t78 -83.5q13 -11 24 -22t28 -15zM62 363v2 q3 6 7.5 17.5t4.5 19.5q0 5 -2.5 10t-2.5 13q0 15 6 31.5t8 34.5q2 44 10.5 83t32.5 78q0 2 2.5 4.5t2.5 3.5q4 4 10 11l12 14t11 12.5t6 6.5t4.5 6.5t7.5 12t7.5 12t5.5 6.5q11 11 30.5 18.5t31.5 18.5l7.5 7.5t11.5 12t11.5 11.5t6.5 6t7 3t12.5 4.5t12 4.5t7.5 3q5 0 5 5 q52 10 107 21t110 11q20 0 39.5 -4.5t39.5 -4.5q11 0 18 9t11 21t5.5 25.5l2.5 22.5q2 45 3.5 94t1.5 97v32q0 4 -1 17t-1.5 27.5t-1.5 27.5t-1 17v14v20q0 14 -1 27.5t-6 24.5q-6 13 -23 20t-35.5 12t-33 10.5t-14.5 14.5q0 3 3.5 8.5t8 10.5t9.5 9t9 4q2 0 9.5 -3.5 t9.5 -3.5q3 0 8 3q3 2 5 4l13.5 4.5t22.5 8t23.5 8t16.5 4.5q32 11 62.5 24t65.5 13h11q11 0 19.5 -3t11.5 -15v-54q0 -54 -4.5 -107.5t-4.5 -109.5q0 -11 1 -17t8 -20q-1 -6 -2 -21t-2.5 -32t-2.5 -32t-2 -21q-2 -114 -2.5 -227.5t-2.5 -227.5q0 -4 -1 -18.5t-2.5 -32 t-2.5 -32t-1 -18.5v-28q0 -80 4.5 -158t2.5 -158q3 -18 15.5 -28t29.5 -15.5t35 -6.5t31 -1q5 -1 9 -8.5t4 -9.5q0 -5 -3.5 -10t-8.5 -9t-10 -7.5t-8 -5.5q-2 -2 -10 -3.5t-10 -1.5q-33 -9 -65 -18.5t-66 -18.5q-20 -6 -38.5 -13t-40.5 -7q-20 0 -26.5 14t-9 30.5t-4.5 30.5 t-12 14q-2 0 -11.5 -3.5t-13.5 -4.5q-42 -35 -89 -58t-101 -23q-74 0 -137 21t-112 80q-1 2 -2 5l-3 6q0 1 -2 6l-4 10t-4 9.5t-3 5.5q0 1 -3.5 2t-8 2t-8 1.5t-4.5 0.5q-17 9 -34 38t-31 64.5t-22.5 69.5t-8.5 52z">
<glyph unicode="e" horiz-adv-x="856" d="M261 642q0 -2 2.5 -4.5t4.5 -2.5q3 -1 9 -2t13 -2t13 -2t8 -1h261q17 0 33.5 9.5t16.5 29.5q0 27 -8.5 52.5t-23.5 48t-35.5 40t-44.5 27.5q-11 5 -17 11.5t-19 6.5q-33 0 -70.5 -17t-69.5 -44t-53.5 -60.5t-21.5 -66.5q0 -4 1 -12.5t1 -10.5zM75 428q-5 7 -7 15.5 t-2 16.5t1 14.5t1 11.5v31q0 2 2 9.5t5 16.5t6 17.5t5 12.5q0 2 6 9.5t6 8.5q7 23 9 46t16 42q2 2 7.5 8.5t12 14t12 13.5t7.5 7q2 3 6 13.5t6 12.5q6 10 20.5 17.5t22.5 14.5q13 10 25.5 22.5l25 25t26 23t29.5 16.5q23 8 48 13t48 5q30 0 66 -1t62 -5q19 -3 48 -15 t57.5 -28.5t52.5 -35t35 -34.5q10 -15 23 -35t24.5 -42.5t19.5 -44t8 -39.5q0 -29 -25 -44q-7 0 -25.5 -1t-39.5 -2.5t-40 -2.5t-26 -1h-75q-48 0 -93 5t-92 7h-51q-2 0 -12 3.5t-13 3.5q-4 1 -13.5 2.5t-20.5 3.5t-21 3.5t-14 2.5q-8 -2 -16.5 -9.5t-13.5 -14.5 q-1 -3 -2 -11.5t-2 -19t-2 -20t-1 -13.5v-1v-4q1 -3 3 -6q2 -7 4 -7q0 -2 6 -9.5t6 -9.5q-2 -2 -3 -5l-2 -6v-16q0 -14 3.5 -23.5t8.5 -24.5q11 -41 27 -76t41 -72q8 -13 16.5 -16t20.5 -9q2 -2 9.5 -6t9.5 -6q39 -33 84 -51t97 -18q9 0 15 2.5t11.5 5.5t10.5 6t12 5h30 q16 2 31 7.5t29.5 11t29.5 10t31 4.5q0 -7 -0.5 -10.5t-2 -6.5t-4 -6.5t-6.5 -9.5q-15 -24 -28.5 -38.5t-28.5 -25.5t-33.5 -20.5t-42.5 -21.5q-7 -4 -11 -7.5t-8.5 -6.5t-10 -6t-14.5 -6q-4 -1 -11 -1t-14 -1.5t-13.5 -5t-9.5 -10.5h-66q-65 0 -119.5 13t-107.5 56 q-45 35 -73.5 86t-45.5 107q-2 2 -3 5q-2 6 -2 9q-3 5 -6 14t-5.5 18t-4.5 15.5t-2 7.5q-2 5 -3 19.5t-1 29.5t1 29t3 19z">
<glyph unicode="f" horiz-adv-x="664" d="M53 12q0 19 19 25.5t44.5 9.5t51 7.5t38.5 19.5q-2 8 -2 15v15q0 42 7 85t7 87v5q0 1 -2.5 8.5t-4.5 9.5v338q-7 24 -7 53v17t2 17q-2 9 -18 11.5t-29 2.5h-10q-22 0 -43 -7t-43 -7q-13 0 -17.5 9t-4.5 20q0 15 8.5 22t21 10t26.5 4t25 4q38 10 59.5 37.5t29.5 61.5 q-2 8 -2 26v40v40t2 27q1 7 5 27t9 41.5t10 41t8 26.5q-3 7 -3 17q0 24 15.5 45t24.5 39q1 1 2.5 6t3.5 10.5t3.5 10t2.5 5.5l7 7l13.5 13.5t14.5 14t10 8.5q0 2 5 9.5t7 9.5q13 16 33 31.5t42.5 29t45.5 24t42 16.5h18q61 8 121 16.5t123 8.5q20 0 32 -1t22 -4.5t19.5 -10 t25.5 -16.5t26.5 -16.5t17.5 -14.5t10 -19.5t3 -30.5q0 -18 -7 -35.5t-19.5 -31t-30 -21.5t-37.5 -8q-29 0 -50.5 14.5t-41 34t-39 38.5t-44.5 28q-14 5 -27.5 5.5t-27.5 0.5h-24h-47q-1 -2 -8 -4t-9 -2q-16 -5 -32 -11.5t-29.5 -15t-24 -20t-14.5 -27.5q-2 -5 -4.5 -16 t-5.5 -23t-5.5 -23.5t-4.5 -15.5q0 -10 -0.5 -30.5t-1 -47t-1 -55.5t-1 -55.5t-1.5 -47.5t-1 -31v-60v-61q3 -8 14 -9.5t22 -1.5h22q44 0 87.5 3t86.5 3q18 0 24.5 -13t6.5 -29q0 -5 -2.5 -13.5t-6 -17t-8.5 -15t-9 -6.5h-186q-11 0 -26.5 -6.5t-24.5 -11.5q0 -14 1 -49.5 t1 -76.5t-1 -76.5t-1 -49.5q0 -2 -1 -10.5t-2 -19t-2 -19.5t-1 -12v-3q0 -35 3 -69t3 -69q0 -32 -3 -63.5t-3 -63.5q0 -26 1 -46t5 -49q4 -9 20 -10.5t34 -3t33.5 -5.5t18.5 -18q1 -3 -1.5 -7.5t-6 -8.5t-6.5 -7t-4 -3h-29q-39 0 -77 4t-79 4t-82.5 -1t-82.5 -7q-1 0 -6 -1 t-10.5 -1.5t-10 -1.5t-5.5 -1h-3q-14 0 -28 4t-14 21z">
<glyph unicode="g" horiz-adv-x="1008" d="M297 575q0 -3 1.5 -12t3.5 -19.5t4 -19.5t2 -12q4 -17 6.5 -39.5t14.5 -35.5q0 -2 6.5 -9t15.5 -16l18 -18t15 -13q14 -12 35 -15t41 -3q25 0 51.5 13t48.5 33t36.5 45.5t17.5 51.5v8v24q1 1 3 7t4 13.5t3.5 14t1.5 8.5l3 15l4 20t3.5 18t1.5 9q2 33 -8.5 61t-29 52 t-42.5 44t-48 37h-5h-2q-4 -2 -13.5 -7t-11.5 -5q-5 -2 -9.5 -2h-8.5q-8 0 -12.5 1t-9.5 1q-11 0 -22 -7q-32 -18 -55 -45.5t-37.5 -60.5t-21.5 -68.5t-5 -68.5zM216 -279q0 -7 1.5 -22.5t4 -33.5t5.5 -33.5t7 -22.5q6 -12 19 -24.5t28.5 -25.5t31 -24.5t27.5 -20.5 q5 -4 13.5 -10t16.5 -12t14 -10t7 -4q28 -17 58.5 -21.5t62.5 -4.5q23 0 41.5 2.5t35 8t33 14t36.5 19.5q17 9 28.5 12.5t20.5 17.5q5 5 14 19.5t11 19.5q17 30 31 61.5t14 67.5q0 34 -12.5 63.5t-33.5 53t-50 40.5t-62 26q-2 0 -8.5 -0.5t-13.5 -0.5q-6 0 -8 1 q-2 0 -7.5 3.5t-12 7.5t-12 7.5t-7.5 3.5v2l-1 2q0 -1 -1 -2q-2 -2 -3 -2q-11 0 -38 -0.5t-57.5 -1.5t-58 -1.5t-37.5 -1.5q-2 0 -6 -2.5t-9 -6t-9.5 -6t-7.5 -2.5q-5 -1 -12 -1h-7q-2 0 -5 -0.5t-8 -4.5q-17 -14 -26 -27.5t-15 -27.5t-10 -30t-11 -35q-3 -8 -7.5 -13.5 t-4.5 -16.5zM35 -358q0 10 2 25.5t6 32.5t8 32.5t9 25.5q1 4 4.5 11.5t7.5 15t7.5 14.5t5.5 9q14 17 34 28.5t40 22.5q6 2 23.5 7t36 12t32.5 15.5t14 17.5v2q-12 16 -24 23.5t-23.5 11.5l-23 8t-22.5 12q-2 2 -12.5 10.5t-23.5 19.5l-26 22t-20 17q-2 2 -3 4q-1 1 -2 3 q-5 14 -8 25.5t-4.5 22.5t-1.5 22v25q0 42 20.5 82t55.5 66q1 1 8.5 5t17 9t20 10t16.5 8q7 4 19 4t23 1.5t19 6t8 17.5q0 9 -7 17.5t-17 15.5t-20.5 13.5t-17.5 12.5q-38 28 -60 74t-22 92q0 101 43 195q4 6 15 13.5t17 11.5q19 14 36.5 31t39.5 31q11 8 28.5 14t36.5 10.5 t37.5 8.5t33.5 9q35 -8 55.5 -10t31.5 -2q9 0 13.5 1t6.5 1q4 -2 9.5 -4.5t9.5 -2.5h2q5 0 15.5 -2t21.5 -4t20.5 -3.5t12.5 -1.5q23 -5 42 -19.5t35.5 -30t33 -27.5t34.5 -12q16 0 27.5 6t21.5 14.5t19 18.5t19 18q19 12 47.5 18.5t49.5 6.5q41 0 62.5 -25t21.5 -64 q0 -12 -6 -22.5t-15 -18t-20 -12t-21 -4.5h-5.5t-6.5 1l-8 2q-1 0 -5.5 2.5t-9.5 6t-9.5 6.5t-5.5 4q-2 0 -9.5 0.5t-16 1.5t-16 2t-9.5 2q-15 3 -28.5 11t-31.5 8q-5 0 -11 -1.5t-4 -12.5v-37q0 -30 6.5 -58.5t6.5 -58.5v-14q0 -1 -3 -12t-3 -13q-1 -4 -3.5 -19.5t-6 -33.5 t-6 -33.5t-3.5 -19.5q-3 -14 -11.5 -28t-19.5 -26t-23 -22.5t-21 -17.5q-2 -2 -5 -3q-2 -2 -4 -2.5t-3 -1.5q-21 -8 -40 -16.5t-38.5 -16t-40.5 -12.5t-46 -5h-8q-3 1 -9.5 3t-13.5 4t-12.5 4t-8.5 2h-170l-5 -4t-11 -10l-12 -12t-9 -10q-14 -16 -26 -37t-12 -41 q0 -16 7.5 -33.5t20.5 -32t28.5 -24t32.5 -9.5q2 1 5 3q6 4 7 4h3q8 0 17 -4l18 -8q7 0 13 1t12 1q46 0 89.5 -7.5t88.5 -7.5h19q3 0 9.5 1t13.5 2t13 2t8 1q1 0 6.5 -1.5t12.5 -3.5t13.5 -4t10.5 -4l21 -6t18 -6q2 0 7 -2t5 -5q2 0 7.5 -5.5t11.5 -12t11.5 -12.5t7.5 -7 q2 0 9 -2t10 -4l2 -2l3 -3q6 -6 14.5 -15.5t16.5 -18.5t13.5 -16l5.5 -7q2 -2 6.5 -12t7.5 -14q1 0 6 -5t5 -6q3 -3 7 -9t8.5 -11.5t7.5 -10t3 -5.5v-13v-30q1 -20 6 -39.5t5 -39.5q0 -56 -17.5 -103.5t-47 -87t-69 -72t-84.5 -58.5q-13 -9 -27 -11.5t-28 -8.5q-3 0 -10 -6 t-9 -6q-23 -8 -49 -9t-50 -3q-1 0 -6.5 -1t-12 -2.5t-12 -2.5t-6.5 -1q-6 0 -21.5 0.5t-32.5 1.5t-32 2.5t-20 2.5q-1 0 -7.5 1t-14.5 3l-16 4t-12 4q-17 4 -35 7t-36 6.5t-35 9t-32 14.5q-24 16 -36.5 30.5t-32.5 31.5q-18 16 -27.5 26t-15.5 20.5t-11.5 24t-14.5 37.5 q-1 1 -6 11t-5 14v8z">
<glyph unicode="h" horiz-adv-x="1074" d="M640 -12q-15 4 -26 10t-11 26q0 18 14 23t33.5 7.5t39.5 8t31 24.5q4 52 10 103.5t15 103.5v228q0 3 -1.5 11.5t-3 18.5t-4 19t-3.5 14q-9 33 -19 62t-26 51.5t-40 38.5t-59 24q-13 2 -24.5 7t-26.5 5h-10q-2 0 -12.5 -5t-12.5 -7q-11 -3 -26 -5.5t-30 -6t-28.5 -8.5 t-21.5 -12q-19 -18 -29 -43t-14.5 -52.5t-5.5 -54.5t-1 -50v-166q0 -3 -1 -11.5t-1.5 -18t-1.5 -17.5t-1 -10v-4v-1q0 -12 0.5 -41t1 -60.5t1.5 -60t2 -38.5q5 -11 16.5 -26t21.5 -20q5 -2 20.5 -5t31.5 -7.5t28.5 -10.5t12.5 -14t-5.5 -13.5t-13.5 -9t-16.5 -5.5t-13.5 -2 q-17 0 -31 6t-29 6q-8 0 -14.5 -3.5t-12.5 -3.5q-9 0 -14.5 2t-11.5 5t-14 5t-21 2q-24 0 -48 -3.5t-47 -3.5q-11 0 -18.5 3.5t-15.5 3.5q-17 0 -31 -3.5t-28 -3.5q-13 0 -27.5 2.5t-14.5 17.5q0 18 12.5 24.5t28.5 9.5t32 6.5t23 15.5q9 12 13.5 29t6.5 35t3 35.5t2 31.5 q0 1 3.5 8.5t3.5 9.5v2v5q0 2 -3.5 6t-3.5 6q-1 5 -2 17t-2 25.5t-2 26t-1 18.5q0 13 0.5 39.5t1.5 55t1.5 53t0.5 32.5l1 25v225q1 1 2.5 5.5t3 9.5t2.5 9.5t1 5.5v74v76q0 4 -2.5 16.5t-4.5 15.5v163q0 3 -0.5 11.5t-1.5 18.5t-2.5 19t-2.5 13q0 2 -2.5 9.5t-2.5 8.5 q0 2 -1 9t-2 15.5t-2 16t-1 10.5q-6 17 -24 23t-36.5 10.5t-33 13t-14.5 30.5q0 9 1.5 15.5t12.5 13.5q1 0 10.5 2.5t14.5 3.5q21 3 36 13.5t33 23.5q11 8 24 9t26 5q15 3 28 9t26.5 12.5t27.5 11t31 4.5q19 0 29.5 -10.5t15 -26t5 -33t0.5 -31.5v-5q-6 -66 -9.5 -133 t-3.5 -133q0 -14 3 -25.5t3 -24.5q0 -23 -3 -46t-3 -45v-25q0 -2 3 -15t3 -17q0 -2 -3 -12t-3 -11q0 -3 -1 -17t-1 -22t1 -21.5t1 -15.5t1.5 -8t4 -12.5t5.5 -11.5t7 -5q2 0 9.5 1.5t8.5 3.5l64 64q20 4 33 11.5t29 18.5q1 1 5 4.5t9.5 8t9.5 8.5t5 4q3 1 12 2t19.5 2 t19.5 2t11 1q17 2 30 7t27 5q15 0 31.5 -4t30.5 -8q52 -16 87.5 -42.5t58.5 -61.5t35.5 -78.5t18.5 -92.5v-224q0 -5 0.5 -17.5t1 -26t1.5 -26t2 -17.5v-19l-5 -206q0 -15 16 -20.5t34.5 -9t34.5 -10t16 -23.5q0 -13 -10.5 -20t-24 -10.5t-27 -4.5t-20.5 -1q-2 0 -9.5 -3.5 t-9.5 -3.5h-11h-14q-1 0 -5.5 3.5t-6.5 3.5h-62q-2 0 -10 1t-17.5 2t-18 2t-11.5 1h-131z">
<glyph unicode="i" horiz-adv-x="545" d="M171 1364q0 19 7 36.5t19 30.5t28.5 21t36.5 8q19 0 40 -6.5t39 -18.5t30 -29.5t12 -39.5q0 -30 -9 -50.5t-25 -33t-38.5 -18.5t-48.5 -6q-5 0 -18 1t-17 1q-26 20 -41 45.5t-15 58.5zM25 24q0 16 21 20.5t47.5 6t49.5 4t28 14.5q8 20 11 42t3 45q0 18 -1 36t-1 35v17 q2 45 7 89.5t6 91.5v242q5 11 6 19.5t1 19.5q0 14 -8 21t-19 10t-23 3.5t-19 2.5q-9 0 -19 2t-18.5 6.5t-14 11.5t-5.5 17t5 15.5t12.5 8t16 3.5t16.5 3q1 0 7 2t12 4.5t11.5 4.5t6.5 2q3 0 13 1t22 2t22 2t12 2q16 4 33.5 11t34.5 14t34.5 12t35.5 5h8q9 0 11 -5v-25 q0 -56 -8 -110t-8 -110q0 -22 4.5 -39.5t4.5 -36.5q0 -9 -0.5 -14.5t-4.5 -14.5q1 -78 -4 -156t-5 -156v-35q0 -26 1 -50.5t8 -50.5q6 -9 13 -13t15 -5.5t17 -2t20 -4.5q3 0 9 -2.5t13 -5.5t13.5 -6t10.5 -5l6 -5v-5q0 -5 -4.5 -8t-10 -4.5t-11 -2t-6.5 -0.5 q-97 2 -193 -2.5t-193 -4.5q-8 0 -17 0.5t-16.5 3.5t-13 9t-5.5 18z">
<glyph unicode="j" horiz-adv-x="475" d="M126 1344q0 15 4.5 28t9.5 27q7 22 13.5 34.5t16 19t24.5 8t40 1.5h18q1 0 5.5 -2t10.5 -5l12 -6t9 -6q26 -15 35 -38.5t9 -52.5q0 -23 -10 -39.5t-26 -28t-36.5 -17t-40.5 -5.5h-12q-14 5 -28.5 12t-26.5 17t-19.5 23t-7.5 30zM-321 -435q0 58 24 81t82 23h32 q6 -6 9 -9.5t5.5 -7t5.5 -8.5t10 -12q15 -18 29.5 -33t30.5 -27t35 -20.5t43 -13.5q3 -1 7 -2q2 -1 4.5 -1h3.5h3.5t4.5 1l6 2q2 1 7 4.5t10 7.5t9.5 8t4.5 5l7 3.5t10 6t9.5 6t5.5 3.5q26 18 42 49t24.5 67t11.5 72.5t3 64.5q0 11 -0.5 38.5t-0.5 58.5t-0.5 58.5t-0.5 38.5 v20q0 10 -1 35t-2 52.5t-1.5 52t-0.5 34.5q0 11 1 39t2 60t2 60.5t2 40.5q0 1 1 6.5t2.5 12t2.5 12t1 6.5q0 4 -5 12.5t-9 11.5q2 23 3 48t1 51q0 34 -2.5 67.5t-6.5 63.5q-11 14 -19.5 21t-23.5 18q-5 2 -15.5 5.5t-21 8t-19 10t-8.5 11.5v2q2 1 6 5l8 8t7 7.5t4 4.5 q11 7 27 12.5t33 9.5t32.5 7.5t26.5 7.5q29 10 57.5 23.5t58.5 13.5q32 0 40 -31v-48q0 -108 -3 -216t-3 -218q0 -134 3 -268t3 -268v-5q-2 -6 -7.5 -21.5t-11 -33.5t-10.5 -34t-7 -22q-6 -15 -16.5 -30t-23.5 -29t-26 -27.5t-24 -25.5q0 -2 -1.5 -7t-3.5 -5q0 -2 -2.5 -4.5 t-3.5 -2.5q-80 -62 -172.5 -89.5t-194.5 -27.5h-68q-17 7 -33 13.5t-28 16.5t-19.5 24t-7.5 35z">
<glyph unicode="k" horiz-adv-x="981" d="M546 7q-4 1 -4.5 5t-0.5 6q0 15 13 22t28 13.5t28 16.5t13 31q0 1 -0.5 8.5t-0.5 9.5q-3 4 -9 13.5t-13 20.5t-13 20.5t-9 14.5q-1 1 -3.5 6t-5.5 11.5t-5.5 12t-3.5 7.5q-1 1 -5.5 6.5t-9.5 12t-10 12t-7 6.5q-2 2 -6 9t-6 10q-2 2 -5.5 9l-7.5 15t-7 15.5t-4 10.5 q-1 2 -6.5 8t-12 13t-12 13.5t-6.5 9.5q-9 12 -16 24t-14 22.5t-16 20t-23 18.5q-4 4 -12.5 8t-10.5 4h-2q-2 0 -6.5 -3.5t-8.5 -8t-7 -9t-3 -7.5q-6 -37 -7 -73.5t-1 -73.5v-47v-24t0.5 -36t0.5 -36v-23v-3q0 -8 2.5 -22.5t4.5 -18.5q6 -16 23.5 -19.5t36 -6t32.5 -9 t14 -27.5v-7q-2 -5 -12.5 -13.5t-12.5 -11.5h-14q-24 0 -52.5 2.5t-51.5 4.5q-13 2 -25 7t-25 5h-7q-32 -7 -62 -9.5t-62 -2.5h-44q-10 6 -14 10.5t-4 14.5q0 15 9 23t21.5 12.5t26.5 6t23 2.5q7 5 16 17t9 20v144q5 5 6 8.5t1 11.5q0 33 -3.5 67.5t-3.5 69.5q0 12 1 19 t6 24v523q-1 5 -2.5 17.5t-2.5 26.5t-1.5 26t-0.5 17q0 2 1 8.5t2.5 14t2.5 13.5t1 8v48v46q0 1 -2 11t-4 22.5t-4.5 25.5t-2.5 21q-1 4 -2.5 11t-4.5 13t-7.5 10.5t-11.5 4.5h-68q-4 0 -9.5 3t-10 7.5t-8 9t-3.5 7.5q0 4 12 12.5t27 17t29.5 15t19.5 7.5q1 1 6.5 4 t11.5 6.5t11.5 6t7.5 2.5q16 4 31 11.5l30 15t31 13t34 5.5q10 0 16.5 -1t11 -3.5t9 -8t11.5 -14.5q4 -5 7 -7t5.5 -4t4.5 -5t4 -9v-54q0 -51 -3.5 -100t-3.5 -100q0 -15 3.5 -30t3.5 -30q0 -13 -3.5 -23.5t-3.5 -25.5q0 -30 3.5 -60.5t3.5 -62.5q0 -53 -11 -105.5 t-11 -105.5v-12q0 -11 1 -20.5t7 -18.5v-119q0 -9 4.5 -10.5t10.5 -1.5q7 0 19.5 6t25 14t24 17t17.5 14q0 1 5 9.5t7 8.5q0 2 8 7t10 5l8.5 8.5l11.5 11.5t10.5 11t4.5 7q2 1 6 7t8 12.5t7.5 12t4.5 5.5q4 4 13.5 14t20.5 21.5t20.5 21t13.5 12.5q5 13 10.5 25.5t5.5 25.5 q0 14 -14 21t-31.5 12.5t-31.5 13t-14 22.5q0 10 12 16.5t20 6.5h156q20 9 45.5 11.5t46.5 2.5q27 0 56.5 -3t51.5 -23v-6q0 -8 -5.5 -18t-13.5 -13q-27 -12 -58.5 -18.5t-60.5 -19.5q-3 -2 -7 -5q-6 -5 -11 -7q-3 -3 -14 -11t-23.5 -17.5t-24 -17.5t-14.5 -11 q-17 -11 -37 -25.5t-37 -30.5q0 -1 -5.5 -8.5t-7.5 -9.5q-2 -3 -8.5 -10t-14.5 -15t-15.5 -15t-10.5 -10l-7 -19q0 -1 4.5 -10l10.5 -21t12 -24.5t10 -20.5q2 0 8 -5t6 -6q1 0 3 -5t2 -9q23 -52 58.5 -99t67.5 -92q17 -26 32 -51t30 -48q2 -2 4.5 -6.5t2.5 -7.5 q4 -11 13 -28.5t20.5 -35t23.5 -32.5t23 -21q7 -5 22 -8.5t29.5 -8t25.5 -12.5t11 -23q0 -3 -1.5 -9t-3.5 -12t-6 -10.5t-8 -4.5l-154 10h-21q-26 0 -48 -0.5t-44 -0.5q-28 0 -57 1.5t-64 8.5z">
<glyph unicode="l" horiz-adv-x="525" d="M29 15q0 17 12 29h3q4 0 9 0.5t13 0.5h15.5t11.5 2q1 0 8 3.5t9 3.5h18q14 0 29 2.5t16 14.5l5 75v450q-4 14 -4.5 27t-0.5 25v27v39q2 43 8 91t4 89q0 6 -2 26t-4 43.5t-4 43.5t-2 25v43q0 29 2.5 56.5t2.5 57.5v36q0 4 -1.5 12.5t-3.5 18.5t-4 18.5t-2 12.5 q-13 18 -35 25.5t-43.5 13t-37 12.5t-15.5 24v12q4 8 23 15t42.5 12.5t45 9.5t31.5 7q27 6 53.5 18t52.5 19h7h20q2 1 5 3q4 1 7 4h10q15 0 24.5 -15t7.5 -29v-171v-172q0 -5 -1 -25t-1.5 -43.5t-1.5 -44t-1 -25.5q-2 -134 -2 -267.5t-5 -267.5q0 -2 -1 -9t-1.5 -14.5 t-1.5 -13.5t-1 -7v-88q0 -1 -1 -5.5t-2.5 -9.5t-2.5 -9.5t-1 -5.5q-1 -2 -1 -4v-6v-5q0 -2 1 -3q5 -43 7.5 -84t4.5 -84h69q4 -2 16.5 -5.5t26 -8t23.5 -10.5t10 -12v-3q-2 -2 -6.5 -3.5t-7.5 -1.5q-6 -1 -20 -3t-30 -4t-30 -4t-19 -2h-8q-5 0 -9.5 3t-9.5 3 q-71 0 -142.5 -9t-142.5 -9h-32q-7 5 -9.5 13t-2.5 17z">
<glyph unicode="m" horiz-adv-x="1589" d="M635 0q-11 5 -12.5 10.5t-1.5 14.5q0 21 12 29t27.5 12.5t29.5 10.5t19 24q0 3 1 8.5t2 11.5t2 10.5t1 6.5v47v116q0 4 1 20.5t1.5 35.5t1.5 35.5t1 20.5q0 2 1 10.5t1 13.5q0 4 -1 11.5t-1 10.5q0 2 -1 14t-1.5 25.5t-1.5 25.5t-1 15v62q-2 22 -11.5 45.5t-24.5 42.5 t-35 31t-43 12q-13 0 -19.5 -3t-15.5 -3q-11 0 -19.5 3t-20.5 3h-17q-6 -1 -18 -4.5t-24 -7.5t-21.5 -7.5t-12.5 -5.5l-8 -8l-16 -16t-18 -18.5t-15 -14.5q-10 -11 -19.5 -27.5t-9.5 -34.5v-29v-70q0 -1 -1.5 -6l-3 -10t-2.5 -9.5l-1 -4.5v-41q0 -82 5 -161t3 -163 q18 -21 42 -27.5t49 -6.5q11 0 20.5 1t18.5 1q6 -5 7 -10t1 -10q0 -9 -6 -16.5t-15 -13.5t-19 -9t-17 -3h-275q-8 -5 -15.5 -6t-15.5 -1h-13q-9 0 -19 0.5t-18.5 3.5t-14 9.5t-5.5 18.5q0 14 10 22.5t24.5 13t32 7t32 5.5t24.5 7.5t10 13.5v365q-5 11 -5.5 25.5t-0.5 31.5 v47q0 21 -1.5 42.5t-7 40.5t-15.5 35t-28 26q-7 4 -18.5 5t-22.5 3.5t-19 8t-8 19.5q0 8 1.5 10.5t11.5 10.5q23 18 49 30t50 26q3 1 10 5.5t15 9.5t15 10t10 7q7 4 17.5 12t21.5 15t21 12.5t18 5.5q19 0 27 -15.5t8 -33.5q0 -20 -3.5 -39t-3.5 -38v-7q1 -6 1.5 -14.5 t2.5 -16.5q1 -10 3 -19l13 -7q5 3 9 7l8 6t7 6q27 23 54 50.5t56.5 52t62.5 42.5t71 23q1 1 10 1q6 0 13 -0.5t9 -0.5q1 0 6 0.5t7 2.5h2q1 0 7 -2t12.5 -4.5l13 -5t9.5 -3.5q43 -16 68.5 -29t42.5 -30t30 -41t33 -63q3 -4 5 -4.5t9 -0.5q9 0 17.5 9.5t17 22t16.5 24.5 t16 18q27 21 53.5 40t54.5 33.5t58.5 23.5t65.5 9q28 0 54 -10l52 -20q1 0 12 -3t13 -4q22 -17 41 -52.5t33.5 -77.5t22.5 -83t9 -68v-144q0 -72 -2.5 -143.5t-2.5 -142.5v-52q4 -6 13.5 -14.5t18.5 -10.5q1 0 8.5 -0.5t15.5 -1.5t15.5 -2.5t8.5 -2.5q7 -1 17 -3.5t19 -7 t15 -11.5t6 -16q0 -12 -4 -17.5t-10.5 -8t-14 -3t-14.5 -2.5q-2 0 -10 -2.5t-10 -2.5h-4h-1q-2 0 -7 2.5t-7 2.5q-8 1 -29 2.5t-45 2.5t-45 1.5t-30 0.5q-2 0 -7.5 -1t-12 -2.5t-12 -2.5t-7.5 -1h-62h-62q-16 4 -24 12t-8 25q0 18 7.5 19.5t24.5 7.5q1 0 5 2l8 4t7.5 4 t4.5 2h7h15q7 0 14 0.5t13 2.5t10 6t3 11q1 11 2 40.5t2 62t2 62t1 40.5q1 51 3.5 101t2.5 101v13.5t-0.5 20t-0.5 20.5v14q-5 17 -8.5 31.5t-8 28t-10.5 27.5t-15 31q-13 21 -30.5 33t-38.5 17t-44 6t-45 1h-7q-20 -5 -40 -12t-39 -17.5t-35.5 -25t-28.5 -34.5 q-3 -5 -8 -15l-10 -20l-9 -18t-5 -9v-10q0 -33 4.5 -65.5t4.5 -65.5q0 -58 -4.5 -116t-4.5 -116v-35q0 -20 1 -39t6 -40q4 -17 15.5 -24t27.5 -10t33 -3.5t31 -3t23.5 -9t9.5 -21.5t-12 -28.5t-29 -13.5h-5l-6 2q-3 1 -6 3h-57q-4 0 -21.5 1t-37 2.5t-37 2.5t-21.5 1 q-11 0 -33.5 1t-49.5 1q-26 0 -48.5 -1t-31.5 -1z">
<glyph unicode="n" horiz-adv-x="1056" d="M47 25q-3 12 7.5 18t25 9.5t28.5 5t19 4.5q7 4 13.5 13.5t12 20.5t8.5 22.5t5 19.5q0 2 1 15t2 30l2 34t2 27v8q0 19 -3.5 39t-3.5 42q0 23 3.5 45.5t3.5 46.5v25q-1 4 -2 17.5t-2 29.5t-2 29.5t-1 17.5v73v28q0 4 -1 12.5t-2 18.5t-2 18.5t-2 12.5q-3 20 -16.5 25 t-29.5 5.5t-32 2t-23 16.5q8 12 16.5 19t18 11.5t20 8.5t23.5 11q1 1 6.5 5t11.5 8.5t11.5 8t7.5 4.5l11 5.5t19.5 9.5t19.5 10t12 7l6 6t7 5q1 1 5 2t9.5 1.5t10 1.5t5.5 2q3 0 10 9t9 9h5q11 0 19 -5t13 -13q4 -30 6.5 -63t6.5 -63h12h8q5 0 9.5 1t9.5 6q24 26 52.5 51.5 t61 46t68.5 33t75 12.5q21 0 37.5 -2t31 -5.5t28.5 -9.5t32 -14q2 0 10.5 -2.5t8.5 -3.5q1 0 3.5 -1t4.5 -2q3 -1 5 -2q28 -29 41.5 -49t20 -39t10.5 -42t14 -59q2 -10 4 -34.5t4 -52.5t4 -52.5t3 -34.5v-83v-92q0 -7 -1 -25.5t-2.5 -39.5t-2.5 -40t-1 -26q-1 -2 -4.5 -6.5 t-3.5 -7.5q0 -1 1 -5.5t2.5 -10t3 -9.5t1.5 -5v-57q1 -2 5 -6.5t9 -9.5l9.5 -9.5t7.5 -6.5q1 0 13 -2.5t17 -2.5q4 -1 13.5 -3.5t18.5 -6.5t15.5 -9.5t4.5 -12.5q-2 -4 -10 -11t-10 -7h-101q-2 1 -8.5 3t-8.5 3h-7q-44 0 -88.5 -6.5t-89.5 -6.5h-10q-9 0 -22 0.5t-24.5 2.5 t-19.5 6t-8 11q0 17 17 22.5t39 9.5t42.5 12t26.5 30v25q0 37 3 72.5t3 72.5v10q0 6 -0.5 12.5t-5.5 14.5v250q0 2 -1 10t-1.5 17.5t-1.5 18t-1 11.5q-3 28 -7.5 47.5t-14.5 34.5t-26 27.5t-41 26.5q-14 8 -30 13.5t-31 5.5q-45 0 -87 -5.5t-84 -26.5q-2 0 -8.5 -7.5 t-8.5 -9.5q-20 -17 -32 -30t-20 -39q0 -15 0.5 -53t0.5 -80q0 -41 -0.5 -79t-0.5 -52q0 -4 -1 -22.5t-1.5 -39.5t-1.5 -39.5t-1 -22.5v-30q0 -3 -3.5 -8t-3.5 -7v-2v-3q0 -2 2 -7.5t4 -11.5t4 -11.5t2 -6.5q0 -3 1.5 -11.5t2.5 -18t2 -17.5t1 -10q0 -5 0.5 -12t2 -14.5 t5 -14.5t10.5 -10q4 0 15.5 -0.5t23.5 -1.5t22.5 -1.5t14.5 -1.5q10 -2 21.5 -9t11.5 -18q0 -13 -12 -25t-23 -12h-5q-2 0 -10 1t-18 2.5t-18.5 2.5t-10.5 1h-235q-3 0 -11 0.5t-17 1.5t-17.5 2t-12.5 3q-6 1 -17.5 5t-13.5 13z">
<glyph unicode="o" horiz-adv-x="986" d="M242 420v-59q1 -8 4.5 -25t8.5 -35.5t10 -34.5t9 -22q1 -3 6.5 -11.5t12 -18t12 -18t6.5 -10.5t4.5 -9.5t8 -15.5t8 -15.5t4.5 -9.5q1 -1 4.5 -5t8 -8t8.5 -7.5t4 -4.5q8 -9 18 -25.5t21 -23.5q1 -2 12 -4.5t13 -3.5q20 -8 38.5 -12.5t42.5 -4.5q18 0 30 4.5t22.5 12.5 t21 18.5t25.5 21.5t21.5 25.5t16.5 28.5q9 15 20.5 29t21.5 28q4 6 5.5 10t2 7.5t1 8.5t3.5 13q1 0 4.5 6.5t7.5 15.5l8 18t7 15q1 2 2 5l2 4t1 3q2 6 4.5 18t4.5 24t3.5 21.5t1.5 11.5v66q0 52 -5.5 106t-25.5 104q-17 38 -35.5 71.5t-53.5 59.5l-13 6.5t-23.5 12t-23.5 12 t-14 6.5q-1 1 -5.5 4t-10 6t-10.5 5.5t-6 2.5q0 2 -5.5 2h-7.5q-38 0 -70.5 -16.5t-59 -42.5t-47 -58.5t-35.5 -65.5q-26 -57 -38 -120.5t-12 -126.5zM60 445q0 18 4 46t11 57.5t16.5 56.5t19.5 45q11 20 25.5 34.5t31.5 34.5q10 11 15 27t15 27q4 5 13.5 14.5t13.5 12.5 q2 1 8.5 3t8.5 2q13 6 23 14.5t19 17t18.5 17t21.5 15.5q42 23 93.5 30t98.5 7q13 0 22.5 -7.5t22.5 -11.5q2 -1 9 -2t15.5 -1.5t16 -1.5t10.5 -2q1 0 8.5 -2.5t9.5 -3.5l9 -4.5t15.5 -8t16 -8.5t9.5 -5q13 -5 31.5 -9.5t31.5 -13.5q2 -1 6.5 -6t9.5 -10.5t9.5 -10l5.5 -5.5 t5.5 -3.5t9.5 -6t10 -6.5t7 -4q30 -24 51.5 -60t35 -77.5t20 -84t6.5 -79.5v-28q-1 -10 -2.5 -27.5t-2.5 -34.5t-1.5 -30t-0.5 -14q0 -3 -4 -15.5t-9 -27.5t-10.5 -29.5t-8.5 -21.5q0 -2 -3 -7.5t-6 -12t-5.5 -12t-3.5 -7.5q0 -2 -3.5 -9t-3.5 -10q-3 -4 -12 -14.5 t-19 -22.5t-19 -23t-12 -15q-2 -2 -9.5 -7t-9.5 -5q-3 -5 -8 -5q-3 -4 -11.5 -11t-17.5 -14t-16.5 -13t-8.5 -7q-11 -7 -18.5 -7.5t-19.5 -4.5q-3 -2 -13.5 -7t-12.5 -5q-1 0 -7 -1.5t-13.5 -2.5t-14 -2.5t-8.5 -1.5q-4 0 -16 -5t-14 -7h-59h-44q-23 0 -45 0.5t-42 4.5 q-1 0 -5 2t-9.5 5t-9.5 5.5t-5 2.5t-6 0.5t-10.5 1.5t-10 2t-5.5 1t-9.5 6t-10.5 6q-2 2 -11.5 6t-13.5 6q-23 11 -46.5 28.5t-44 39.5t-37.5 46t-27 49q-1 4 -3.5 17t-2.5 15q-2 1 -7 9.5t-7 10.5q-9 17 -17 39.5t-14 46.5t-9.5 47.5t-3.5 42.5z">
<glyph unicode="p" horiz-adv-x="1035" d="M466 785h-35q-13 0 -26.5 -1t-25.5 -5.5t-21 -12.5t-14 -22l-3 -9l-4 -12l-3.5 -10.5t-1.5 -5.5v-512q0 -2 5 -11.5t7 -13.5q7 -11 13.5 -15.5t13 -6.5t14 -3.5t16.5 -6.5q14 -7 29 -17l30 -20t30 -18.5t30 -13.5h5q45 0 83.5 12.5t61.5 49.5q2 4 10.5 18t18.5 30t18 30 t10 18q0 1 5 9t7 9q2 4 6 11.5t8 15.5t7.5 14.5t4.5 7.5q3 7 4.5 21.5t3.5 28.5t6 25.5t10 13.5v55q1 1 2 6t1.5 10.5t1.5 10t2 5.5v4v1q-2 3 -3.5 10t-3.5 11l-4 6q-2 3 -3 5q-2 16 -3.5 29.5t-8.5 27.5q-4 9 -12 24.5t-16 30.5t-14.5 26.5t-7.5 13.5q-3 4 -11.5 13 t-18.5 18.5t-19 18.5t-13 12q-2 2 -10 6.5t-18 9.5t-19.5 9t-14.5 5q-8 3 -22.5 8.5t-29.5 10.5t-27.5 9t-14.5 4q-7 0 -14 1q-6 0 -12 0.5t-10 0.5zM19 -575q-12 3 -21.5 10t-9.5 22q0 7 9 17t17 10h106q2 0 11 11t14 18q2 2 4.5 14.5t2.5 17.5v326q0 2 2.5 14t2.5 16v3v4 q0 3 -1 10t-1.5 14.5t-1.5 14.5t-1 9v434q0 1 2 13t3 17q0 2 3.5 9.5t3.5 8.5v4v2q-2 4 -6 13t-6 13v237q0 3 -1.5 8t-4 11t-5 11t-4.5 7q-6 11 -21.5 16.5t-31.5 10t-28.5 11t-12.5 19.5q0 8 2.5 11t10.5 8q9 8 18.5 8.5t20.5 4.5q3 1 14 5.5t23.5 9.5t23.5 10t13 7 q16 6 32.5 13.5t33 14t33 11.5t32.5 5q24 0 30.5 -14t7.5 -31.5t2 -31.5t14 -14q1 0 4.5 1t5.5 1q18 17 44 30.5t54.5 24t56.5 19t52 15.5l6 2q3 1 5 3q1 0 6 -2l10 -4t9.5 -4t5.5 -2q29 -10 57.5 -15.5t56.5 -16.5q17 -6 29 -14t22.5 -17t22 -18.5t27.5 -19.5q1 -1 11 -2 t12 -3q2 -1 4.5 -9.5t3.5 -10.5q0 -2 5.5 -6t6.5 -6q3 -4 10 -13.5t7 -11.5q34 -62 58 -128t24 -137q0 -126 -49 -217.5t-151 -162.5q-1 0 -5.5 -2.5t-5.5 -2.5q-60 -22 -121.5 -39.5t-124.5 -17.5q-26 0 -51.5 3.5t-53.5 3.5h-32q-11 -9 -17.5 -23t-6.5 -28v-470 q0 -3 3.5 -7.5t8 -9.5t8 -9t4.5 -4q8 -4 21.5 -4.5t30.5 -0.5q19 0 40 -0.5t38 -4t28 -11.5t11 -23q0 -7 -5.5 -13.5t-12.5 -12t-15 -8.5t-12 -3q-15 0 -29 5t-26 7h-14h-35q-3 0 -15.5 1t-26 2t-25 2t-14.5 1h-296z">
<glyph unicode="q" horiz-adv-x="1069" d="M273 472v-8q0 -2 2 -9.5t4 -16t4 -16t2 -9.5q9 -45 17 -80t22 -65t37 -56.5t61 -53.5q2 -2 11.5 -6.5t13.5 -8.5q3 0 11 -2t10 -3q4 -3 12 -9.5t17 -14t16 -13.5t10 -7h10h27q3 0 11 -1t17.5 -1.5t17.5 -1.5t11 -1h7h5q2 0 12.5 1.5t12.5 3.5q4 3 13.5 11.5t20 19 t19 19.5t11.5 14q2 2 5 8t6 13t5 13t2 8v470q0 31 -21.5 59.5t-52 52t-63.5 41.5t-56 29q-4 1 -13.5 3t-13.5 2q-1 0 -2.5 -1t-3.5 -2q-3 -1 -5 -2q-15 -3 -26 -4t-21 -2.5t-20 -6t-21 -14.5q-2 -1 -7.5 -7.5t-11.5 -13.5t-11.5 -13.5t-7.5 -7.5q-2 -2 -7 -7.5t-11 -12 t-11.5 -12l-7.5 -7.5q-15 -18 -24 -39t-15 -44t-10 -46t-8 -45q-1 -5 -2.5 -17.5t-3.5 -26.5t-4 -26.5t-2 -17.5v-10zM585 -559q0 5 4.5 8t10.5 4.5t11 2t6 0.5t7 1l12 2t11.5 1.5t6.5 0.5q2 2 13 7t12 8h9h20q11 0 19.5 3t8.5 14v295q-5 17 -5.5 36t-0.5 37v26v64 q0 1 1 7.5t2 14t2 13.5t1 7t-1 7t-2 13t-2 13.5t-1 10.5t-3.5 20.5t-8.5 24.5h-3h-4q-6 -1 -17.5 -3t-22.5 -4t-19.5 -3.5t-9.5 -2.5q-1 0 -6.5 -3t-11.5 -6.5t-12 -6.5t-7 -3q-14 -5 -28.5 -5.5t-29.5 -0.5h-22q-110 0 -205.5 38t-164.5 125q-1 1 -6 6.5t-10.5 11.5 t-10 11.5t-5.5 7.5q-14 25 -25 57t-18 65.5t-10.5 67t-3.5 62.5q0 86 36.5 163t101.5 136q20 17 43 29.5t46 27.5q1 0 5 4t9 8.5t9.5 8t4.5 4.5q3 1 10.5 4t16.5 7t17.5 7.5t13.5 4.5q12 5 20 6t17 1h13t18 2q4 0 18 1t30 1.5t30 1.5t18 1h27q24 0 43.5 -7.5t40.5 -12.5 q14 -3 32.5 -6t38 -7.5t37.5 -11.5t30 -17q1 -2 5.5 -7t10 -10t10 -9.5t6.5 -5.5q1 0 5.5 -3.5t6.5 -3.5h3q15 0 19 14t6.5 30.5t7.5 30.5t22 14q18 0 22.5 -14t8.5 -31q0 -4 1 -13.5t2 -21t1.5 -21t0.5 -13.5v-576q0 -6 1 -20.5t2 -31.5t2 -32.5t1 -21.5v-2v-3 q0 -2 -1 -9.5t-2 -16t-2 -16t-1 -9.5v-100q0 -95 3 -188t3 -187v-62q7 -11 15 -21.5t22 -10.5q13 0 26.5 3.5t25.5 3.5q31 0 31 -32v-12q-3 -6 -13 -15.5t-13 -9.5h-201q-15 -5 -34 -6t-38 -1h-44h-76q-4 1 -12.5 3t-17.5 5.5t-15.5 8.5t-6.5 12z">
<glyph unicode="r" horiz-adv-x="763" d="M37 18q0 14 8 23.5t19.5 15.5t24.5 8.5t24 3.5h57q11 5 16 15.5t6.5 23.5t1.5 26.5t1 23.5q1 1 2 4l2 4t3 4t3.5 9t1.5 9v262q0 3 3.5 13t3.5 12v4q0 15 -3.5 30t-3.5 32q0 20 3.5 37.5t3.5 36.5v10q0 6 -1 16.5t-2.5 22t-2.5 20t-1 10.5q-3 21 -27 28t-51.5 11t-50 9.5 t-22.5 23.5q0 13 21 23.5t48 18.5t53 14t36 10q2 1 9 5t15 8t15.5 7.5t10.5 4.5q1 0 7.5 2t14 4.5t14 4.5t8.5 2l4.5 1.5t9.5 3.5l10 4t6 3h3h4q20 -8 28.5 -15.5t8.5 -31.5q0 -13 -2.5 -25.5t-2.5 -23.5v-18q0 -13 2.5 -23.5t13.5 -18.5h5q12 0 24.5 10t24.5 23.5t22.5 27 t18.5 21.5q25 20 52 35t55 34q3 -2 10 -2q11 0 26 3.5t26 3.5q16 0 33 -4.5t30.5 -14t22 -23.5t8.5 -32v-13q-3 -21 -4.5 -40.5t-7.5 -34.5t-20 -24t-42 -9h-8q-3 1 -9 2.5t-12 2.5t-10.5 1.5t-5.5 0.5q-1 1 -4.5 4t-7.5 6.5t-7.5 6.5t-4.5 3h-15h-37q-1 0 -7 1t-13.5 1.5 t-14 1.5t-7.5 1h-6q-15 0 -33.5 -3t-36.5 -10.5t-32 -19t-18 -29.5q2 -106 -2 -211t-4 -211q0 -9 -1 -23.5t-1 -31.5t1.5 -35t5.5 -33.5t11.5 -27t20.5 -15.5q4 0 14.5 1t23.5 1t23 -1t14 -1q17 -2 28 -10.5t11 -23.5q0 -14 -3 -21t-9 -9.5t-14.5 -3t-18.5 -1.5q-1 0 -7 -4 q-3 -2 -5 -3h-4q-40 0 -88 3t-91 11h-2q-10 0 -19 -3.5t-18 -3.5t-16.5 3.5t-15.5 3.5h-3q-28 -8 -57.5 -11t-58.5 -3h-14q-16 0 -34 4t-18 21z">
<glyph unicode="s" horiz-adv-x="702" d="M72 178v2q1 5 2 14l2 18t2 16.5t1 8.5l2.5 17.5t5.5 21t10 18t16 7.5q6 0 9 -1t7 -8q4 -11 5.5 -23.5t6.5 -24.5q0 -2 2.5 -6.5t4.5 -7.5q10 -21 22 -47.5t26.5 -51.5t33 -45.5t42.5 -28.5q2 -2 12 -2q9 0 19 1t13 1q1 0 11 -3.5t14 -3.5h7h5q31 6 56.5 17t43.5 28 t28 41.5t10 58.5v30q-2 4 -6.5 15.5t-9.5 24.5t-9.5 24t-6.5 15q-9 16 -22 27.5t-28 20t-31 15.5t-30 13q-5 0 -9 3q-3 1 -5 3q-1 2 -9 7t-9 5q-4 0 -17 2.5t-15 4.5q-4 2 -12.5 6t-18.5 9t-18.5 9.5t-12.5 7.5q-6 4 -17.5 11t-22 14t-19 12l-8.5 5q-16 11 -27.5 32.5 t-18.5 36.5q-2 6 -5 14l-6 16t-5 13.5t-2 6.5v111q0 2 2.5 9t3.5 11q4 7 11 21l14 28l12.5 25l6.5 13q7 12 17 19t20.5 13t20 12.5t16.5 16.5q4 1 13.5 3t21 4t21 4t13.5 2q2 0 9.5 3.5t8.5 3.5h32q2 1 5 2q2 1 4.5 2t4.5 1h10q32 0 53 -6t48 -19q1 0 8.5 -1.5t9.5 -3.5 q6 -3 11 -8t10 -10.5t10.5 -9.5t12.5 -4t13 4t11 9.5t10.5 9.5t13.5 4q24 0 32 -25v-36v-33q-1 -33 -3 -68.5t-15 -67.5q-2 -7 -5.5 -8t-8.5 -1q-9 0 -22 14.5t-24.5 34t-20.5 39.5t-11 32v11q-3 18 -12 29.5t-21.5 19.5t-27 14.5t-29.5 12.5q-1 0 -11 6t-14 7q-2 -2 -6 -3 q-3 -1 -6.5 -2t-5.5 -1q-29 -14 -53 -25t-41 -27t-27 -39.5t-10 -60.5q0 -25 11 -41.5t27.5 -28t37 -21t38.5 -19.5q19 -13 38 -25.5t41 -18.5q11 -3 25 -7t28 -9t27 -11t21 -12q53 -39 82.5 -95t29.5 -123q0 -38 -13 -76.5t-32 -73.5q-51 -69 -127 -99t-160 -30h-10 q-2 0 -9.5 3.5t-9.5 3.5q-5 1 -15.5 4t-21.5 6t-20.5 5.5t-12.5 2.5q-23 7 -44.5 13.5t-41.5 23.5q-3 2 -8.5 6t-11.5 9t-11 10.5t-6 11.5q0 1 -1 10t-2 21t-2 24.5t-2 20.5v3z">
<glyph unicode="t" horiz-adv-x="664" d="M148 354q0 85 6.5 170t6.5 173v22q-6 11 -20.5 16t-30 9.5t-27 10t-11.5 18.5v10l13.5 13.5t21 20.5t21 20.5t13.5 14.5q3 1 7.5 8t4.5 9q2 1 4.5 3.5t3.5 2.5q0 2 8 7t11 7l9 12t13 16.5t12.5 16t7.5 10.5q3 3 9.5 16.5t14 28.5t13.5 27.5t8 15.5l2.5 3.5t6 8t6.5 8 t4 5.5q2 6 3.5 13.5t3.5 14t7 11t14 4.5q10 0 16 -9t9 -21t3.5 -23.5t0.5 -16.5q0 -24 -4.5 -46.5t-4.5 -46.5q0 -23 5 -35.5t15 -18.5t26 -7t37 -1h37q8 9 19.5 11.5t22.5 2.5h16h37q6 -9 17.5 -10.5t22.5 -3t19.5 -5.5t8.5 -18v-84q0 -8 -11.5 -12.5t-26.5 -7t-28.5 -3.5 t-17.5 -1h-16q-4 0 -19.5 1t-33.5 2.5t-33.5 2.5t-18.5 1h-7q-1 0 -6.5 1t-12 1.5t-12 1.5t-6.5 1h-3q-13 0 -21 -8.5t-12.5 -20.5t-6.5 -24.5t-2 -20.5q-3 -41 -5 -69.5t-2 -64.5q0 -20 1 -35t6 -38v-257q0 -1 2.5 -11t2.5 -12q2 -4 7 -12t10 -17t9 -17t6 -11 q23 -33 54 -39.5t67 -6.5q17 0 40 3t40 11q2 2 9.5 7t9.5 5q0 1 4.5 1h6.5q11 0 18.5 -4.5t7.5 -18.5q0 -18 -12.5 -29.5t-24.5 -22.5q-23 -22 -47.5 -28t-51.5 -16h-138q-2 0 -12 2t-15 5q-29 11 -50.5 18t-43.5 24q-25 19 -40 47t-22.5 60t-9.5 66.5t-2 66.5v65z">
<glyph unicode="u" horiz-adv-x="1060" d="M714 -18v124q0 3 -0.5 8t-1.5 11t-2.5 11t-2.5 7h-5q-14 0 -27 -7.5t-25 -18.5t-22.5 -23t-19.5 -20q-4 -3 -12 -9.5t-16 -13.5t-14.5 -12.5t-7.5 -6.5t-5 -2t-8.5 -2t-8 -2l-3.5 -1q-3 -1 -13 -9t-13 -9q-3 -2 -15.5 -6.5t-27.5 -9t-28.5 -8t-17.5 -3.5q-58 0 -98.5 16 t-68.5 44t-44.5 66t-25.5 81t-12.5 90t-5.5 93q-4 6 -4.5 12t-0.5 13v13q0 29 6.5 58t6.5 56v5.5t-1 3.5q-5 32 -6 65t-1.5 66t-3 66.5t-8.5 66.5q-11 15 -34 18t-46 5t-40 9t-17 30v7q2 1 9 8t11 8h1h5q3 0 12.5 -1.5t11.5 -3.5h237q2 0 6.5 -2.5t6.5 -3.5q4 -3 11.5 -10.5 t7.5 -10.5v-536q0 -31 10.5 -57.5t28.5 -48.5t41.5 -39t50.5 -29q8 -3 19.5 -7.5t20.5 -4.5q30 0 62.5 6.5t60.5 17.5l12 6t11 7q3 0 11 2t9 5q1 1 3 2q1 1 2 1.5t2 1.5q26 36 31.5 77t10.5 86l1 4.5t2.5 10t2.5 10.5t1 7v28v69q1 6 3 26t4 43.5t4 43.5t2 25v42 q0 28 -3 53.5t-3 52.5v12.5t1 14.5q-5 6 -15 15.5t-17 10.5h-10h-27q-4 0 -17 2.5t-15 2.5q-5 0 -15 1t-23 1t-23 -1t-14 -1q-4 2 -14.5 9t-10.5 12v43l18 5q2 0 19 1t25 1q45 0 90.5 -2.5t90.5 -10.5q2 -1 9.5 -3t16 -4t16 -3.5t9.5 -1.5h3q15 0 31 3.5t30 3.5 q21 0 28 -16.5t7 -36.5v-5q-11 -101 -19.5 -196t-5.5 -197q-9 -24 -11.5 -50t-2.5 -54q0 -23 1 -45.5t1 -41.5v-96q3 -13 10.5 -21t17.5 -12.5t21.5 -6.5t22.5 -2q13 0 25 1.5t20 3.5q4 -2 8 -6.5t6 -8.5q0 -2 -1.5 -7t-3.5 -5q-3 -2 -10.5 -5.5t-15.5 -7t-15 -7t-10 -5.5 q-2 -1 -8.5 -1.5t-14 -1t-13.5 -1t-7 -1.5q-3 -1 -12 -5.5t-20 -10.5t-20 -10.5t-12 -5.5q-8 -4 -25.5 -10t-36.5 -12t-35.5 -10.5t-23.5 -4.5q-8 0 -14 5t-8 14z">
<glyph unicode="v" horiz-adv-x="882" d="M237 450q-2 2 -4 6t-5 6q0 1 -6 7l-5 5q-11 24 -17 50.5t-14 50.5q-4 10 -13 37t-18.5 57t-18.5 56.5t-13 37.5q-14 24 -30 41t-39 34q-2 3 -5 6q-6 6 -7 6q-6 1 -17.5 0.5t-23 1t-20 6.5t-8.5 17v5q9 9 18 11.5t19 2.5q8 0 15 -1t14 -1q17 0 30 8h92l14 -8h230 q9 0 11 -5t2 -12q0 -10 -5.5 -17t-14.5 -15q-9 -9 -24 -12t-28.5 -6.5t-23.5 -11.5t-10 -28v-4q12 -57 33.5 -110.5t40.5 -107.5q7 -18 10.5 -38t8.5 -38q5 -19 13.5 -37.5t16.5 -36.5q2 -1 4.5 -8.5t2.5 -11.5q10 -35 24.5 -69t32.5 -69l5 -5h5h2q1 0 3 2.5t3 2.5 q10 21 21 47t21.5 53t19 53.5t14.5 48.5q1 2 2.5 11.5t3.5 21.5t3.5 22.5t2.5 13.5q0 2 2.5 8.5t2.5 8.5q20 39 33 77.5t24 80.5q8 26 17.5 49.5t9.5 54.5q0 15 -19.5 20.5t-43.5 10t-43.5 12t-19.5 27.5q1 2 2 5q2 6 3 7q1 2 6.5 9t6.5 11h41q28 0 54.5 -4t52.5 -4 q30 0 58.5 4t57.5 4q7 0 17 -1.5t19.5 -5t16.5 -10t7 -15.5q0 -13 -17.5 -22.5t-40 -18t-44 -16.5t-29.5 -18q-11 -15 -17.5 -34t-12 -39.5t-9.5 -40.5t-9 -38q-18 -54 -40.5 -105.5t-42.5 -105.5q-29 -81 -64.5 -159t-66.5 -160l-5.5 -16.5t-10 -29.5t-9.5 -30t-5 -17 q-8 -20 -24 -38.5t-40 -18.5q-17 0 -24 7.5t-18 24.5q-8 13 -9 20t-6 24q-28 105 -62.5 203t-66.5 203z">
<glyph unicode="w" horiz-adv-x="1262" d="M34 867q0 11 11 21t20 14h40h52q33 0 66.5 -1t66.5 -6q0 -1 6 -3.5t7 -2.5l2 -2l1 1q1 0 1 0.5t1 0.5q5 2 9 3q8 2 11 3h2q4 0 10 -3t11.5 -7.5t9 -10t3.5 -9.5q-3 -16 -10 -24t-14.5 -15.5t-13.5 -18.5t-6 -33q0 -13 1.5 -30.5t4 -36.5t6 -36.5t8.5 -30.5q0 -4 5 -16 t5 -16q13 -32 15 -63t10 -61q2 -5 9 -23t14.5 -38t13.5 -37t7 -21q2 -2 4.5 -15t2.5 -17l3.5 -7l5.5 -11t6 -11t3 -7q1 -1 3 -1h2h1q1 0 1 1q2 0 7 5t5 9q8 45 23.5 87.5t33.5 85.5q10 24 22 50t22.5 52t17.5 53t7 53v24q0 15 -1 31.5t-6 30.5q-6 18 -23 30.5t-35.5 23 t-33 21t-14.5 22.5q0 10 9 16.5t21 10.5t24.5 5.5t18.5 1.5q34 0 67.5 -4.5t68.5 -4.5h14.5h22t21.5 0.5t14 1.5q2 0 9 2.5t9 4.5h2q11 0 21.5 -0.5t19 -3.5t14 -10t5.5 -20q0 -19 -10 -23.5t-21.5 -8.5t-21.5 -14t-10 -39v-11q0 -4 1 -8q0 -2 1.5 -8.5t4 -14t4.5 -14 t4 -7.5q19 -79 43 -154.5t56 -152.5q6 -13 9.5 -27.5t8.5 -28.5t12.5 -26.5t19.5 -21.5q3 4 6.5 13.5t7 20l6.5 19.5t5 14v19v6q0 4 5.5 14t6.5 11q18 48 22.5 94.5t13.5 94.5q10 40 18 78.5t8 79.5q0 23 -11 35t-24 20t-24 16.5t-11 25.5q0 11 9 15.5t21 7t24.5 3.5t20.5 6 h76h74q9 -1 22 -1.5t27 -2.5t26 -7t19 -14v-5q0 -9 -9.5 -19.5t-15.5 -14.5q-3 -1 -12 -5.5t-19.5 -9.5t-19.5 -9.5l-11 -5.5q-41 -31 -63.5 -73.5t-37.5 -89.5q0 -2 -0.5 -7.5t-1.5 -11.5t-1.5 -11.5t-1.5 -6.5q0 -2 -2.5 -7.5t-6 -12t-6.5 -12t-4 -7.5l-1 -4.5t-2 -10 t-2 -10t-1 -5.5q-8 -38 -22.5 -73t-28.5 -71q0 -2 -2 -6.5t-4 -5.5q0 -1 -2.5 -4.5t-6 -7.5t-6.5 -8t-4 -5v-22v-10q0 -2 -2.5 -9.5t-6 -17t-6 -17.5t-2.5 -10q-15 -54 -31.5 -106t-30.5 -106q-2 -2 -4.5 -12.5t-2.5 -12.5q0 -1 -5 -4t-11 -6.5t-12 -7.5t-9 -7h-3 q-24 0 -36.5 14.5t-17.5 35t-6.5 43t-4.5 38.5q-2 7 -4.5 18t-5.5 22.5t-5.5 19.5t-3.5 9l-7 6q-2 5 -7 20t-11 32t-11 32t-8 21q-8 21 -18 44.5t-19 47.5t-15 48.5t-6 48.5v11t1 11q-6 5 -10.5 13.5t-10 17t-12 14.5t-15.5 6q-5 0 -7.5 -1t-6.5 -6q-19 -33 -30 -70.5 t-25 -72.5q-11 -29 -27 -59t-30 -60q-16 -33 -30.5 -69.5t-25.5 -71.5q-6 -24 -15.5 -50.5t-16.5 -50.5q-3 -11 -5 -24.5t-6.5 -25t-13.5 -19t-25 -7.5q-15 0 -26 12.5t-15 26.5q-2 2 -4 9.5t-2 8.5q-1 1 -2 8.5t-2 16.5t-2 16.5t-1 9.5q-1 2 -4 10t-6 17t-5.5 17.5 t-2.5 10.5q-1 3 -3 12t-4 19.5t-3.5 19.5t-1.5 11q-2 5 -5.5 17.5t-7.5 26.5t-7.5 26.5t-4.5 17.5q-2 2 -5 9.5t-6 15.5t-5.5 15t-2.5 9q-1 3 -4 13.5t-6 23l-6 25t-4 18.5q-8 39 -20.5 76t-23.5 75q-2 8 -6 21.5t-8.5 27.5t-7.5 25t-3 14v25q-2 15 -9.5 25t-13.5 24 q-3 4 -7.5 19t-6.5 19q-3 2 -4 7q-2 3 -3 5l-67 44q-2 2 -3 5q-3 4 -4 8v2z">
<glyph unicode="x" horiz-adv-x="909" d="M374 766q2 0 4 -7.5t5 -17.5q6 -21 17 -40.5t23.5 -39t25 -38.5t21.5 -38h12q26 0 43.5 20t25.5 43q0 1 2 7.5t3.5 14t3.5 14t2 8.5l9 9t14.5 15.5t13.5 15.5t7 9q5 6 7 17t2 20q0 14 -12 21t-27 12.5t-27 13t-12 23.5q0 14 10.5 29t28.5 15h175q12 4 22.5 4.5t24.5 0.5 h13q14 0 29.5 -3t15.5 -17q0 -17 -9 -30t-22 -23.5t-28 -18.5t-28 -14q-1 0 -6.5 -2t-11.5 -3.5t-12 -3.5t-7 -2l-7 -7q-5 -7 -14 -18.5t-11 -13.5q0 -1 -3.5 -7.5t-7.5 -14t-8 -14t-6 -8.5q-1 -1 -5 -5.5t-9.5 -9.5t-10 -9.5l-5.5 -5.5q-3 -2 -10 -15t-9 -17 q-15 -17 -30 -32.5t-29 -31.5t-26.5 -34t-21.5 -40q2 -1 5 -6t5.5 -11t5 -11.5t2.5 -8.5q11 -20 25.5 -34.5t25.5 -32.5q2 -2 7.5 -11t12 -19.5t12 -19.5t6.5 -12q17 -28 30 -61t32 -58q2 -2 12.5 -9t13.5 -10q7 -14 11 -22.5t7 -13.5t5 -7t7 -7.5t10 -11.5t9.5 -11.5 t5.5 -6.5l7 -7t8 -8.5t7 -7.5l3 -3q1 0 7 -1l12 -2t11.5 -2t6.5 -1q17 -4 34 -14.5t17 -29.5q0 -13 -4 -21t-15 -16h-65q-55 0 -108 4t-109 3h-2q-4 0 -14.5 -2t-17.5 -2h-13h-9.5t-10.5 2q-2 3 -3 6q-2 2 -2.5 4t-1.5 3v6q0 7 9 11.5t20.5 10t20.5 13.5t9 22q0 2 -2 4l-2 2 q0 4 -2 11t-3.5 14t-3.5 12.5t-2 6.5q-2 4 -10 18.5t-18 31.5t-18.5 31.5t-10.5 19.5q-5 9 -11.5 22t-14.5 26.5t-17 25t-18 18.5q-29 -26 -52 -58.5t-40 -65.5q-2 -1 -4.5 -6.5t-5.5 -12.5t-5.5 -14t-4.5 -11q-4 -9 -9.5 -16.5t-10 -15t-8 -16t-3.5 -19.5q0 -5 5 -11.5 t11.5 -13.5t14 -12.5t13.5 -7.5h18q11 -2 21.5 -11.5t10.5 -20.5t-12 -17.5t-23 -6.5h-8q-63 7 -125.5 8.5t-125.5 3.5q-9 1 -17 1t-14 2t-10 6.5t-4 15.5q0 13 7.5 21t19 13t23.5 8.5t21 8.5q37 16 61 34t43 39.5t37.5 46t44.5 54.5l19 19q1 0 6.5 3.5t12 7.5t12 8t7.5 6 q1 5 2 9q2 7 5 9q1 3 5 12t8.5 19t9 19t7.5 13v13q-9 30 -25.5 58.5t-36 56t-40 54.5t-36.5 53q-1 2 -3 9.5t-2 8.5q-21 45 -44 80.5t-45 74.5q-5 6 -8 11.5t-3 13.5q-3 1 -10.5 2.5t-15.5 3.5t-15 4t-10 4q-6 1 -18 4t-24.5 7.5t-22 11t-9.5 15.5v5l2 2q3 3 5 3q4 4 13 9 t10 5h177q2 -3 13.5 -5t16.5 -2q2 0 9.5 3.5t9.5 3.5h25q25 0 46.5 -1t47.5 -6q8 -2 10 -4t2 -6v-9q0 -11 -5.5 -18t-13.5 -11t-18 -5.5t-19 -1.5q0 -2 -0.5 -3t-0.5 -3v-3v-8q0 -2 1 -4q0 -1 2 -6t5 -11l5.5 -11t2.5 -7z">
<glyph unicode="y" horiz-adv-x="901" d="M58 -489q0 18 4.5 36t14.5 33t25 24.5t35 9.5q10 0 22.5 -4t25 -9t24 -9t20.5 -4q27 0 46.5 19.5t33.5 47t23 56.5t17 47q11 22 22.5 47t20.5 51t15 52.5t6 52.5q0 21 -5.5 41t-14.5 38.5t-19 36.5t-19 36q0 2 -1.5 7.5t-3.5 11.5t-3.5 11.5t-1.5 7.5q-1 2 -6 11t-7 14 q-1 1 -4.5 7.5t-8 13.5t-8 13.5t-4.5 9.5q-11 20 -16.5 45.5t-14.5 46.5q-34 78 -64 156.5t-62 156.5q-17 45 -31 91t-31 90q-7 17 -21.5 23.5t-29 11t-25.5 11t-11 23.5t10.5 29.5t21.5 21.5h20h24q1 -2 11 -4.5t14 -2.5q7 -1 25.5 -3t39 -4t39 -3.5t25.5 -1.5q28 8 56 10 t58 2h42q3 -2 10 -6t9 -6q0 -1 0.5 -5t0.5 -8q0 -26 -16 -32.5t-35 -9t-35 -9.5t-16 -33q0 -4 1 -6q0 -2 1 -4q1 -6 3.5 -17.5t5.5 -23.5t6 -22t5 -13q1 -5 8 -23t15.5 -39t15.5 -39t8 -23q1 -1 2.5 -5t2.5 -9.5t1.5 -10t0.5 -5.5q10 -31 22.5 -60.5t20.5 -57.5q0 -2 2.5 -7 t4.5 -7q1 -1 4.5 -7.5t8 -14t8.5 -14t4 -7.5q4 -9 9.5 -26t13 -33.5t16.5 -29t20 -12.5q17 0 30 15.5t23.5 39t18.5 53t13.5 57t9.5 50.5t7 35q3 2 8.5 12.5t5.5 13.5v25q2 1 7 9t5 9q17 31 22.5 66t15.5 64q1 2 3 7l4 10t3.5 9.5l1.5 4.5v16q0 28 -7.5 39.5t-20.5 15t-30 3 t-36 2.5q-4 1 -11 4.5t-14 9t-12 12.5t-5 13q0 5 5 11.5t12 12t14 9.5t11 4h87q23 -3 37.5 -5t24 -3t14.5 -1h10h12q17 0 30 4.5t27 4.5q7 0 21 -3t28 -9t24.5 -14.5t10.5 -19.5q0 -14 -4 -20t-11 -9t-16 -4t-19 -4q-23 -8 -41.5 -15.5t-32.5 -27.5q-2 -6 -6 -20t-9.5 -29.5 t-10 -29.5t-6.5 -20q-2 -3 -6.5 -14.5t-10 -24.5t-9.5 -23.5t-5 -13.5q-1 -2 -3 -10t-4 -17.5t-3.5 -17.5t-2.5 -10q-13 -41 -30.5 -76.5t-31.5 -73.5q0 -2 -2.5 -13t-4.5 -12q-1 -3 -5.5 -12t-10.5 -20t-10.5 -20t-5.5 -12q0 -1 -0.5 -7.5t-1.5 -14t-2.5 -14t-2.5 -8.5 q0 -1 -8 -9t-10 -9q0 -1 -1.5 -6.5t-3.5 -11.5t-4 -11.5t-3 -5.5q-25 -74 -45.5 -147t-46.5 -142q-17 -41 -33 -84.5t-38 -85.5q-23 -45 -44 -92.5t-47.5 -91t-61.5 -81.5t-84 -64q-6 -4 -20 -10.5t-17 -8.5h-6q-14 0 -29 7.5t-27.5 19.5t-21 27t-8.5 30z">
<glyph unicode="z" horiz-adv-x="991" d="M95 7q-12 4 -15 9t-3 19v15q0 2 4.5 8.5t8.5 10.5q16 20 26 39.5t23 41.5q13 20 28 41.5t29 40.5q4 5 9 14t11 19.5t12 20t12 15.5q8 8 17 11t13 12q1 2 4 8.5t6 14t6 14t4 7.5q0 3 2 5q1 1 3 2q23 30 36.5 59.5t32.5 61.5q27 43 57.5 82.5t62.5 80.5q17 20 24 45t21 49 q4 7 11 17t14.5 21t13 22.5t5.5 21.5q0 5 -7.5 9t-17.5 7t-20.5 5t-15.5 2h-8q-3 0 -16.5 -3t-17.5 -3q-3 0 -15 1t-27 2t-28 2t-17 1q-8 0 -13.5 -0.5t-10.5 -0.5q-6 0 -11.5 1.5t-13.5 6.5h-59h-60q-14 -1 -29 -11.5t-31 -25.5t-32 -33t-30 -33t-26 -25t-20 -10q-5 0 -7 4 t-2 8t1 6q0 2 1 3q0 16 4.5 25t7.5 23q0 3 2 15t4 25.5t4 25.5t3 15q0 2 2.5 6t2.5 6q2 4 4.5 11t4.5 14t3.5 12.5t1.5 7.5q0 4 1 14.5t2 22.5t2 22.5t1 14.5q8 14 19 25.5t28 11.5q7 0 11 -5t6.5 -12t3 -14.5t0.5 -12.5q0 -3 1 -10t2 -14.5t2 -14t1 -9.5q5 -5 13 -11t13 -8 h75q13 0 44 -1t66 -2t66 -2t43 -2q2 -1 9.5 -3.5t10.5 -2.5h69q4 0 13.5 -0.5t20.5 -1.5t20.5 -2.5t13.5 -2.5q0 -2 8.5 -7t10.5 -5q1 0 5.5 1.5t9.5 3.5l10 4t7 3q1 1 5 2.5t8 2.5t7.5 1.5t4.5 0.5h50h49q11 0 17.5 -5.5t9.5 -13t4 -17t1 -16.5v-24l-10 -12q-4 -5 -8.5 -10 t-6.5 -8q-19 -23 -41.5 -44.5t-39.5 -43.5q-14 -17 -22.5 -40.5t-20.5 -41.5q-2 -1 -7 -5.5t-10.5 -10t-10 -9.5t-4.5 -5q-1 -2 -3.5 -7.5t-6 -12t-6 -12.5t-3.5 -7q-8 -14 -19 -25t-18 -23q-2 -3 -6 -10.5t-8 -16.5t-7 -16t-4 -8q-2 -4 -10 -14t-8 -13q-12 -13 -23.5 -34 t-22.5 -35q-1 0 -5.5 -4.5l-10 -10l-10.5 -10.5t-6 -7q-1 0 -4 -5.5t-6 -12t-6 -12.5t-4 -7q-14 -27 -32 -56.5t-35 -55.5q-6 -9 -19 -23t-25.5 -30t-22 -31.5t-9.5 -28.5q0 -6 2 -9.5t10 -8.5q9 -1 33.5 -3.5t51.5 -6t51.5 -6t34.5 -3.5h2h5q22 3 49 11t50 8q3 0 13.5 -1 t23.5 -2.5t24.5 -2.5t14.5 -1h7h5q2 0 9 2.5t11 4.5q11 8 20 14t16.5 12t14 12t14.5 14q1 1 4 3.5t6.5 5.5t7 5.5t4.5 2.5q6 4 10.5 12t7.5 17t5.5 18t6.5 15q2 3 5.5 8.5t7.5 11.5t7.5 11t5.5 6q4 6 13 18t19.5 24t21.5 21t18 9q9 0 12 -7.5t3 -15.5v-10q-1 -5 -2 -13 l-2 -16t-2 -14.5t-1 -7.5q0 -2 -6 -11.5t-6 -13.5q0 -3 -2 -12t-3.5 -19.5t-3.5 -19.5t-2 -11t-5 -6.5t-7 -7.5v-87q0 -1 -4.5 -5t-10.5 -9t-13 -9.5t-11 -6.5q-4 -3 -13.5 -5t-11.5 -2h-69q-57 0 -113 -1.5t-112 -5.5q-14 4 -22.5 5.5t-19.5 1.5q-9 0 -17.5 -3.5 t-19.5 -3.5h-10q-93 8 -184 9t-186 5z">
<glyph unicode="{" horiz-adv-x="695" d="M279 -242q0 43 11.5 79.5t28.5 68.5t37.5 62t37.5 62t28.5 67t11.5 77q0 50 -18.5 92t-48.5 76.5t-69 61.5t-81 46q-11 5 -38 9.5t-55.5 11t-50.5 15.5t-22 24q0 7 5 12.5t12 9t15.5 5.5t15.5 3q1 1 6.5 1h11.5t11 -0.5t7 -0.5q23 5 53.5 15t60.5 24t55.5 31.5t39.5 38.5 q2 4 10.5 19t18.5 32.5t19.5 34t13.5 23.5q12 21 11 44t-1 46q0 16 0.5 34t-1 36t-5.5 35t-12 32q-20 35 -41 63.5t-38 57.5t-28.5 61.5t-11.5 75.5q0 57 23.5 107t63.5 87.5t91.5 59.5t107.5 22q26 0 43 -14.5t17 -42.5q0 -9 -2 -20t-6.5 -20t-12.5 -15t-20 -6q-17 0 -32 5 t-32 5q-34 0 -66 -11t-57 -31.5t-40 -50.5t-15 -67q0 -21 10.5 -42.5t25 -42t30 -39t26.5 -34.5l3.5 -7t6 -11t6 -11.5t3.5 -6.5t4.5 -6t8 -11t8.5 -11.5t5 -6.5l10 -15l12 -18t10 -15.5t5 -7.5q1 -2 2 -12.5t2 -23t2.5 -23t2.5 -12.5q0 -2 1 -7t2.5 -11.5t3 -12t1.5 -6.5 q0 -2 1 -14.5t1 -18.5q0 -41 -14 -79.5t-36.5 -72t-52.5 -62.5t-61 -52q-12 -8 -24.5 -14.5t-24.5 -13.5t-23 -15.5t-18 -20.5q1 -5 15.5 -10t33.5 -11t38 -14t30 -18q6 -5 20.5 -19t30.5 -30t30 -30.5t19 -20.5q23 -42 34 -90t11 -95q0 -51 -16.5 -103.5t-47.5 -92.5 q-23 -29 -47 -55.5t-44 -55.5t-33 -62t-13 -73v-9.5t2 -6.5q5 -23 14 -45t23 -39t34 -28.5t46 -14.5q7 -1 25 -1.5t38.5 -0.5t38.5 0.5t25 1.5q15 -5 16.5 -17t1.5 -24v-23q-2 3 -8.5 6.5t-9.5 3.5q-2 0 -6 -3.5t-4 -6.5q0 -2 5 -9t5 -9t-3.5 -5t-6.5 -3h-35h-24.5t-20 1 t-20 2.5t-25.5 4.5q-2 2 -8.5 5t-10.5 5q-71 40 -113 107.5t-42 150.5z">
<glyph unicode="|" horiz-adv-x="466" d="M184 319q2 4 5.5 12.5t4.5 11.5v3v3q-1 2 -5.5 7t-4.5 7v35q0 35 5 67t5 64q0 13 -1 21.5t-9 19.5v92q0 56 5 110.5t5 112.5v61q0 4 -2 24t-3.5 43.5t-3 44.5t-1.5 27v131q0 6 -1 20t-1.5 30.5t-1.5 30.5t-1 20q-1 2 -2.5 7.5t-2.5 12t-2 12t-1 7.5v1q0 32 18.5 53 t48.5 21q34 0 45.5 -20t11.5 -50q0 -26 -4 -48.5t-18 -44.5v-107q0 -56 4.5 -110.5t4.5 -111.5q0 -32 -4.5 -58.5t-4.5 -57.5q0 -19 1 -31t8 -31v-252l5 -12v-89q-2 -2 -3.5 -7.5t-1.5 -7.5v-13v-37q-2 -3 -5.5 -15t-3.5 -14v-17q0 -11 1 -17.5t8 -19.5v-68v-27 q0 -22 -2 -44t-7 -44v-450q9 -9 11.5 -22t2.5 -28v-22q0 -18 -15 -31t-32 -13q-8 0 -17 1t-15 8q-5 2 -14.5 10.5t-9.5 10.5v778z">
<glyph unicode="}" horiz-adv-x="677" d="M54 -452q0 21 12.5 28.5t29.5 9t36 -0.5t31 0q27 1 57 12t55.5 29.5t42.5 43.5t17 56q0 42 -12 73.5t-31.5 59.5t-43.5 55.5t-48 59.5q-23 29 -28 65t-9 70q0 2 -1.5 10t-3 17.5t-2.5 17.5t-1 11q0 2 1 12.5t2.5 23t2.5 25t2 18.5q2 8 5 21.5t3 15.5q3 4 11.5 16.5 t18.5 26.5t19.5 27.5t14.5 19.5q2 3 7.5 9t11.5 11.5t11 10t7 6.5q4 2 20 11.5t34 20.5t34 20.5t20 11.5q3 2 10 8.5t9 9.5v4q0 8 -7 13t-16 9t-18 6.5t-13 4.5q-5 1 -12.5 4t-15 5.5t-13 4.5t-6.5 2q-2 3 -9.5 9t-16 13t-16.5 13.5t-11 9.5q-10 11 -26.5 34.5t-32.5 50 t-28 51t-13 37.5v63q0 26 -0.5 51.5t10.5 48.5q12 28 24.5 53.5t27 49.5t30.5 47.5t35 48.5q2 3 10 12.5t17.5 20t17.5 19.5t10 12q0 2 3 12.5t5 15.5q1 1 2 9t2.5 18t3 20.5t2.5 16.5v4v4q-5 21 -13 44t-21 42.5t-31.5 33t-44.5 15.5q-7 1 -25 1h-38h-37.5t-24.5 -1 l-7.5 7.5t-11.5 11t-11.5 11t-6.5 7.5v4q0 18 7.5 29t19 18t25.5 9.5t28 2.5q34 0 61.5 -9.5t51 -25.5t44.5 -37.5t43 -45.5q64 -67 64 -160q0 -54 -19.5 -99t-44.5 -94q-12 -24 -30.5 -45.5t-32.5 -44.5q-3 -5 -7.5 -14l-9 -18t-7.5 -15.5t-3 -7.5v-154q2 -3 4 -7 q4 -8 5 -11q10 -17 20.5 -37t23 -40.5t26.5 -38.5t30 -30q1 -1 8 -3t14.5 -5t14 -5t8.5 -3q2 -2 13.5 -9t13.5 -9q3 -2 8.5 -5.5t11.5 -6.5t10.5 -5t5.5 -2q3 -1 12.5 -2t20 -2.5t20 -2.5t11.5 -1q6 -2 19.5 -4.5t27.5 -7t24.5 -11.5t10.5 -18t-24.5 -21t-56.5 -18.5 t-63.5 -16.5t-46.5 -14q-18 -6 -34.5 -19t-28.5 -26q-7 -5 -17.5 -15t-20.5 -20t-17.5 -18.5t-8.5 -9.5q-2 -4 -7.5 -18t-11.5 -31.5t-11 -34t-6 -25.5q0 -1 -1 -12.5t-2.5 -27t-3 -32t-2.5 -26.5v-10q0 -35 15.5 -66t36.5 -61t42.5 -59t32.5 -58q8 -22 8.5 -54.5t0.5 -55.5 q0 -46 -10 -77.5t-28.5 -55.5t-46 -45.5t-61.5 -47.5q-2 0 -9 -8t-9 -10q-19 -11 -42.5 -9.5t-43.5 1.5h-58q-18 14 -27.5 27.5t-9.5 35.5z">
<glyph unicode="~" horiz-adv-x="850" d="M91 504q0 19 8.5 37t22.5 37q5 6 11.5 10.5t11.5 9.5q11 14 20.5 20t26.5 12q13 5 24.5 9t19.5 8q26 13 53.5 15.5t55.5 2.5q19 0 36.5 -3t34.5 -8q5 -2 11 -7t12 -5h8q7 0 16 -3t18 -7t17.5 -8t14.5 -6q5 -1 9.5 -3.5t8.5 -4.5q9 -5 21 -5q6 0 12 0.5t13 0.5 q26 0 51.5 12t49.5 42q8 11 21.5 24t21.5 27q3 5 5 6.5t7 1.5q29 0 29 -29q0 -23 -7 -51.5t-20 -45.5q-7 -8 -19 -24.5t-32 -27.5q-11 -7 -27 -14t-32 -12t-29 -8.5t-16 -4.5q-11 -1 -20 -2.5t-18 -2.5t-19 -2t-23 -1q-29 0 -52 3.5t-43 3.5q-8 0 -14 3.5t-12 7.5 q-9 5 -20 8.5t-24 8.5q-9 3 -20 8.5t-22 5.5q-7 0 -10 -2h-5q-5 0 -9.5 1t-9.5 1q-13 0 -23.5 -2.5t-21.5 -4.5q-11 0 -23.5 -4.5t-20.5 -12.5q-9 -9 -14.5 -13t-10.5 -15q-4 -9 -11.5 -19t-13.5 -10h-12q-5 0 -8.5 2t-4.5 10q-2 10 -3 15.5t-1 14.5z">
<glyph unicode="&#xa1;" horiz-adv-x="567" d="M444 195v-27l-4 -6q-2 -4 -2 -5q-1 -1 -1 -2q-5 -24 -7.5 -41.5t-8 -32.5t-17 -28t-34.5 -28q-11 -7 -18.5 -11.5t-14.5 -7.5t-15 -4.5t-19 -1.5q-19 0 -35 3.5t-34 9.5q-4 3 -13 12l-19 19t-18.5 19t-11.5 13q-3 3 -6 9.5t-5.5 13.5t-4.5 14t-2 11v150q15 39 17 77t6 77 q2 24 9 49t11 51v50q0 6 2.5 27t6 45t6.5 44t4 25q0 13 3 44t6 66t5.5 65.5t3.5 42.5q3 13 11 29.5t14 28.5h9q12 0 20.5 -6t13.5 -15.5t7.5 -20.5t3.5 -21q5 -18 7.5 -38.5t4 -42t3 -42.5t4.5 -40q10 -45 19.5 -91t18.5 -93q1 -5 2.5 -21.5t3.5 -35t3.5 -35.5t2.5 -21 q2 -17 9 -31t9 -29q1 -3 2 -10.5t2 -16t2 -16t1 -8.5q0 -3 3 -7l4 -6q9 -23 11 -46t7 -47q0 -2 2 -7.5t4 -11.5t4 -11.5t2 -7.5v-22zM407 1366q0 -27 -8 -52.5t-23 -46t-37.5 -32.5t-52.5 -12q-26 0 -49.5 9.5t-40.5 26.5t-27 40.5t-10 51.5t11.5 49.5t30.5 35.5t43.5 21.5 t50.5 7.5q19 0 39 -8t36.5 -21.5t26.5 -31.5t10 -38z">
<glyph unicode="&#xa2;" horiz-adv-x="874" d="M285 349q20 -60 56 -115.5t87 -92.5v427q0 34 5 67t5 67v37q-1 2 -2.5 12.5t-3 23.5l-3 26t-1.5 19q-39 -22 -69 -57t-50.5 -77t-31 -88t-10.5 -89q0 -38 3.5 -80t14.5 -80zM428 0h-37q-21 11 -46 20.5t-48 23.5q-45 28 -84.5 61t-64.5 81q-11 22 -23 48t-22.5 53.5 t-17 55t-6.5 53.5q0 37 3.5 76t12.5 77t23.5 73t35.5 65q2 2 10 9.5t10 9.5q1 1 3.5 5t5.5 8t5.5 7.5t2.5 4.5q6 6 21 21.5t32 32.5t32 31.5t21 20.5q2 2 7 4t6 2q2 1 9.5 3t16 4t16 4t9.5 3q2 0 9.5 6t8.5 6q11 6 23 9t26 6v18q0 3 -0.5 11.5t-1 18.5t-1 18.5t-0.5 12.5 q-3 1 -5 10.5t-2 10.5q0 20 15.5 31t41.5 11q29 0 38 -9.5t9 -28.5q0 -15 -2 -29t-15 -27v-38q20 1 38.5 3t35.5 3q39 0 79.5 -7t77.5 -18q27 -17 45 -43t18 -61q0 -12 -6 -24.5t-16 -22.5t-22 -16.5t-25 -6.5q-15 0 -29.5 2.5t-27.5 10.5l-3.5 3.5l-8 8t-8.5 8t-5 4.5 q-1 0 -5.5 3t-10 6t-9.5 5.5t-5 3.5t-4 6t-6.5 10t-6.5 10t-3 6q-15 23 -40 36.5t-53 17.5q3 -27 6 -53.5t3 -54.5v-65q0 -8 -2 -14.5t-2 -12.5q0 -4 0.5 -7t3.5 -7v-151l3 -7l-3 -184q0 -17 -1 -34t-8 -34v-116q17 -5 33.5 -7.5t35.5 -2.5h10t12 1q7 0 14 1q16 1 35.5 10 t38.5 19.5t36.5 19t28.5 8.5q0 -21 -11 -38t-28 -32q-50 -42 -98 -59.5t-107 -21.5v-52q5 -2 6 -7t1 -10v-13v-14q0 -10 -10 -17.5t-25 -7.5h-12q-3 0 -9 1.5t-12 3.5t-11 5.5t-5 6.5v104z">
<glyph unicode="&#xa3;" horiz-adv-x="1379" d="M484 242v32q0 2 -5 6t-7 4q-3 1 -11 3t-16.5 3.5t-16 3.5t-10.5 3h-129q-23 7 -28.5 15.5t-5.5 30.5v17q0 8 2 16.5t10 14.5q3 3 9 8t12.5 10.5t12.5 10t8 5.5q7 2 26 5.5t39.5 7t38.5 6t25 3.5h25h9q1 0 6.5 3.5t12 9t13.5 11t12 8.5q4 2 12 10t8 10q4 7 12 23.5 t16.5 33.5l16 32t10.5 20q1 3 4.5 16t7.5 27t7.5 27t4.5 16t5.5 12.5t9.5 20.5t9 20.5t4 11.5q3 6 11 29.5t17 51.5t17 51.5t11 29.5q0 2 4.5 12t9.5 21.5t10 21t6 10.5q9 19 15.5 35t12.5 30.5t13 30t16 34.5q5 10 14 25.5t19 31t18 29.5t11 21q2 3 8.5 12.5t14 20t14 20.5 t9.5 13q0 2 3 8t6.5 13.5t7 13.5t4.5 8q11 20 32 43t39 46q4 4 12.5 13.5t19 21t21 22.5t16.5 17q1 2 9.5 5.5t10.5 4.5q2 0 7 5t6 5q15 12 27 21.5t25.5 18.5t29.5 18.5t38 20.5q29 11 55.5 15t50.5 4q27 0 54 -3t55 -7q14 -9 26 -18q11 -8 21 -15.5t17 -12.5q1 0 4.5 -4 t5.5 -6q6 -7 15 -17t18 -21q11 -12 22 -26v-21q0 -22 -1 -38t-9 -38q-5 -9 -24.5 -19t-42.5 -17.5t-45 -12.5t-31 -5q-23 0 -40.5 15t-33.5 33t-31.5 34t-33.5 19q-1 0 -6 1t-11.5 2.5l-13 3t-10.5 1.5q-3 0 -8.5 -1.5l-11 -3t-10 -2.5t-5.5 -1t-5.5 -3t-10 -6.5t-10.5 -7.5 t-6 -5q-16 -9 -31 -28.5t-29 -42t-26 -44.5t-21 -38q-6 -11 -16 -29.5t-20.5 -37.5t-18.5 -34.5t-9 -19.5q-8 -14 -12 -25.5t-7 -22.5t-6 -24t-7 -30q0 -1 -1.5 -8t-4 -15.5t-4.5 -16t-3 -9.5q-1 -1 -3.5 -9t-5.5 -17.5t-5.5 -17.5t-2.5 -10q-1 -1 -3 -5.5t-4 -10 t-4.5 -10.5t-3.5 -6q-24 -43 -36 -84t-30 -87q-19 -53 -36.5 -105t-17.5 -110v-12q0 -8 2 -15t10 -8h64q22 0 39.5 2t34 4l33 4t37.5 2q7 0 18.5 0.5t22.5 0.5q8 0 15.5 -0.5t12.5 -2.5q17 -7 21 -21t4 -31q0 -19 -4.5 -41t-21.5 -30q-5 -2 -21.5 -2.5t-34.5 -0.5h-40 q-54 0 -112 -6t-110 -23q-8 -2 -16.5 -9.5t-15.5 -16.5t-13 -18.5t-10 -15.5q-3 -3 -11 -19t-17 -34.5t-17 -35t-11 -20.5q-9 -18 -21 -37.5t-21 -36.5q-1 -5 -10 -21t-20.5 -34t-21 -33.5t-12.5 -19.5q0 -3 -4.5 -14.5t-10 -24t-10 -23.5t-5.5 -13q-2 -5 -6.5 -12t-9.5 -14 t-9 -12.5t-5 -7.5q-11 -13 -23 -26t-12 -33v-3q0 -2 3 -2q15 -21 38.5 -35t52.5 -18q2 0 10 -1t18 -3t20.5 -4t18.5 -4q19 -5 29.5 -6t19 -2t19 -3.5t28.5 -8.5q6 -1 23 -3t36 -4t36.5 -3.5t23.5 -1.5h37q44 0 81 3.5t67.5 15.5t56 35.5t45.5 63.5q8 15 10 31.5t2 33.5v15 q0 25 -6.5 44t-16.5 36t-23 33t-26 35q-5 6 -12.5 17t-14.5 21.5t-12 18.5t-5 9q-1 4 -1 8q-1 3 -1 5.5v4.5q0 17 3 27t21 10q2 0 6 -2q2 -1 4 -1q2 -1 10 -6t18.5 -11.5t20.5 -13.5t16 -11q0 -1 4 -5.5t9.5 -10l10 -10l5.5 -5.5q4 -7 13 -19.5t18.5 -26t17 -25.5t10.5 -19 q6 -18 11.5 -42.5t5.5 -33.5q0 -6 0.5 -16.5t1 -20.5t1 -18t0.5 -10q-1 -10 -4 -25t-7 -30t-9 -28.5t-9 -21.5q-4 -7 -12.5 -18.5t-17.5 -23t-16.5 -21t-10.5 -12.5q-14 -14 -21 -23t-14 -17.5t-16.5 -18t-27.5 -24.5q-4 -4 -22 -16t-38 -20q-19 -8 -36.5 -13t-40.5 -11 q-23 -2 -47 -3.5t-47 -1.5q-20 0 -40 2t-39 8q-3 0 -11 1t-18 2.5t-19.5 3t-15.5 1.5q-37 9 -70 23.5t-66 28.5t-67.5 24t-73.5 10q-3 0 -7 -0.5t-8 -0.5q-4 -1 -9 -1q-2 0 -7.5 -6.5t-11.5 -14t-11 -14t-5 -7.5q-29 -42 -67 -69.5t-90 -27.5h-25q-2 1 -8.5 4t-13.5 6.5 t-13.5 6.5t-9.5 5q-3 3 -8.5 7.5t-10.5 9.5t-9 9.5t-4 6.5q-8 30 -8 56q0 25 8 52q0 1 4 5l9 9t10.5 10t8.5 8q6 4 16 10.5t20 13.5t18.5 12t10.5 6q3 2 16 4t28 4t28 3t16 1q1 1 9.5 5.5t10.5 4.5q2 1 10 4t17 6.5t17 7t10 5.5q1 0 5 8l6 12q17 41 33.5 80.5t30.5 81.5 q11 30 17 60t15 59q15 42 30.5 81t15.5 82z">
<glyph unicode="&#xa4;" horiz-adv-x="1056" d="M132 338q0 9 13 29.5t30.5 42t35.5 39.5t27 23v14q0 1 3.5 9t3.5 12q-3 16 -10.5 33t-15 35t-13 37.5t-5.5 42.5v64q5 6 13 24t15.5 39t12.5 39.5t5 26.5q0 10 -10 23t-23.5 26.5t-26.5 26t-19 20.5q-3 1 -10 9t-15.5 18t-16 19t-10.5 13q8 32 32.5 46t51.5 14 q10 0 16.5 -4.5t12.5 -10t12.5 -10t16.5 -5.5q6 -13 14.5 -28t19.5 -27.5t25 -21t31 -8.5h11q19 7 41 17t45.5 19t46.5 15t45 6h15q11 0 12 -2q4 -6 24.5 -15t46 -16.5t48.5 -13t32 -5.5q14 0 25 5.5t20 13t17 16.5t16 15l70 64h27q3 0 8 -4.5t10.5 -11.5t10 -14t6.5 -11 q0 -1 1 -13t1 -17l-2 -28q-2 -6 -9 -10t-15 -7.5t-16 -8t-12 -10.5q-4 -2 -13.5 -13t-19.5 -23.5t-18 -25t-9 -17.5v-1q0 -17 9.5 -34t20.5 -35t20.5 -37t9.5 -40l-10 -93q-2 0 -5.5 -8.5t-6.5 -19.5t-6 -21t-4 -13q-8 -8 -13 -11.5t-7 -5.5q-5 -5 -5 -15q0 -9 1 -19.5 t3.5 -20t5.5 -15.5t7 -5l30 -14q8 -6 17 -16.5t17.5 -23.5t16 -27t13.5 -27q9 -6 9 -12q0 -9 -6 -19.5t-15.5 -19t-20 -14t-19.5 -5.5q-5 2 -12 4t-14 4.5t-11.5 4t-4.5 2.5l-96 90q-4 2 -10.5 5.5t-12.5 3.5h-2q-21 -4 -39.5 -12.5t-38.5 -17.5t-41.5 -15.5t-48.5 -6.5 q-5 0 -9 1t-8 7h-10q-45 0 -78 9t-60 20q-10 4 -14 8t-6 7t-5 5t-10 2q-9 0 -25 -19t-37.5 -41.5t-47 -41.5t-54.5 -19q-20 4 -34 19.5t-14 37.5zM408 502l22 -22q17 -5 34 -9q14 -4 28.5 -7t23.5 -5h18q66 0 111 24.5t77 82.5q3 4 8.5 12t12.5 17.5t12.5 18.5t8.5 14l-7 44 l7 37v10q-8 21 -18 36.5t-20.5 29l-21 27t-19.5 30.5q-2 1 -4.5 3.5t-3.5 2.5q-16 3 -28.5 8t-25 12t-26.5 15t-33 16q-11 -2 -33.5 -6t-46.5 -9t-45.5 -9t-30.5 -6q-15 -13 -27.5 -31.5t-31.5 -29.5l-47 -102v-86q5 -4 16 -19t22 -33t19.5 -34.5t8.5 -22.5z">
<glyph unicode="&#xa5;" horiz-adv-x="1540" d="M434 20q0 23 18 39.5t39 16.5q1 0 5 -1t9 -2l10 -2t8 -2q2 0 9 -3.5t10 -3.5h5q19 5 38 8.5t35 11t25.5 21.5t8.5 41l-3 187l-2 17v79h-10h-20q-12 0 -14 1h-16h-7q-17 2 -30 3t-16 1h-63h-68q-1 0 -8 1.5t-15.5 4t-16.5 4.5l-12 3q-6 3 -9.5 10t-5 15t-1.5 15.5v11.5 q0 19 3.5 37t16.5 27q13 8 30.5 10t34.5 2h17q22 0 41.5 -2.5t40.5 -2.5h26h35h27t28 2q2 7 3.5 16.5t3 18.5t2.5 15.5t1 7.5q0 4 -2.5 17.5t-3.5 14.5l-4 17q-8 2 -18.5 2.5t-14.5 2.5q-5 0 -7 2q-17 0 -30 0.5t-15 0.5h-15t-25.5 -0.5t-25.5 -0.5h-15h-67h-8.5h-15 t-16.5 0.5t-12 0.5q-13 3 -15 12.5t-2 13.5t-1 7.5t-1 7.5q0 7 5 10q17 6 36.5 8t39.5 2h23q22 0 41.5 -1t41.5 -1h25q5 0 22 1t38 3q-6 14 -9 28.5t-11 28.5q-5 4 -16 14.5t-23 23.5t-22 24.5t-14 17.5q-18 22 -31.5 51.5t-31.5 54.5q-14 23 -30.5 43.5t-29.5 42.5 q-2 3 -5.5 10t-7 15t-7 15t-5.5 10q-8 17 -19 33.5t-24 32t-26.5 30t-24.5 29.5l-10 15t-17.5 26t-17.5 26t-11 15l-3 3q-1 1 -3 2q-3 0 -7 3q-3 2 -5 4l-7.5 7.5t-12 11.5t-12 11t-7.5 7q-11 10 -28 12.5t-33 6t-27 12t-11 29.5q0 2 -1 6t-1 8q0 10 9 13q5 1 19 3t30 4 t30 4t20 2h18q2 0 9.5 -3t9.5 -3h82q19 -2 37.5 -7t39.5 -5q17 0 32 1.5t32 3.5q2 0 7 3q3 2 5 4h12q32 0 59.5 -7t59.5 -7q5 0 10 1t10 1q9 -5 9 -13q0 -16 -17 -23.5t-38 -15t-38 -18t-17 -31.5v-18q1 0 4 -4t7 -9t8 -10.5t7 -8.5q20 -22 31.5 -48t30.5 -51l7.5 -7.5 t12 -11.5t12 -11.5l6.5 -6.5q2 0 3.5 -9t1.5 -11q18 -28 34 -52.5t35 -52.5q3 -2 7 -9t7 -9q0 -1 2 -7q1 -3 3 -5q1 -2 5 -6l8 -8t7.5 -7t4.5 -4q1 -2 3 -7l4 -10t4 -9.5t2 -5.5q4 -10 16 -30t25.5 -39.5t26.5 -34t20 -14.5q13 0 28.5 3t21.5 16q39 67 71.5 137.5 t64.5 141.5q8 18 22 39t27.5 43t23.5 44t10 42q0 14 -7.5 25t-19 19t-25 14t-24.5 11q-1 1 -6.5 2t-12 2t-12 1.5t-6.5 0.5q-9 2 -29 5.5t-40.5 9t-36 13t-15.5 16.5q0 2 1 4q0 1 1 3l32 30h161q28 -2 54.5 -7t52.5 -5h22q3 0 13.5 1t22.5 2.5t21.5 2.5t11.5 1h76 q28 2 53.5 7t52.5 5h25q9 -7 13.5 -15t4.5 -21q0 -20 -11.5 -28t-27 -11t-32.5 -3t-28 -3q-1 0 -8 -2.5t-16 -5.5l-18 -6t-15 -4q-2 -3 -14 -8t-16 -6q-11 -5 -19.5 -12.5t-15.5 -17.5l-14 -20t-15 -19q-1 -1 -6 -6.5t-11.5 -11.5t-12 -12t-7.5 -7q-20 -24 -34 -52t-33 -54 q-2 -2 -10.5 -11t-18 -19.5t-18 -19.5t-9.5 -12q-5 -6 -15 -22.5t-21 -35.5t-20 -35.5t-12 -23.5q-14 -12 -22.5 -22t-15 -19.5t-14 -19t-17.5 -20.5l-7.5 -7.5l-12 -12l-12 -12t-5.5 -7.5q-3 -6 -5 -24t-2 -29v-9v-47q17 0 29 1t16 1t14.5 -0.5t21.5 -0.5t20.5 -0.5 t11.5 -0.5h30q6 0 12 1q5 0 10 0.5t8 0.5t8 -0.5t10 -0.5q5 -1 12 -1l20 2h39q10 0 23 -1.5t21 -5.5t9.5 -8t5.5 -12q2 0 2 -3.5v-4.5q0 -21 -19 -29q-11 -5 -26 -6t-33 -1h-28h-44q-1 0 -5.5 0.5t-9.5 0.5t-9.5 0.5t-5.5 0.5h-84q-13 0 -22 1t-14 1h-23v-116q17 1 29.5 2 t17.5 1q4 0 14.5 -0.5t21.5 -1t20 -1t11 -0.5h6t10 0.5t9.5 0.5h4.5q6 0 12 1q5 0 10 0.5t9 0.5q3 0 8 -0.5t10 -0.5q5 -1 12 -1h20q4 -1 8.5 -1h6.5q7 0 12 0.5t12 0.5q20 0 36 -11.5t23 -40.5q1 0 1 -7v-9q0 -22 -6.5 -35t-17.5 -19.5t-25.5 -8t-30.5 -1.5h-26l-43 -2 q-3 0 -15.5 1t-15.5 1q-5 0 -31.5 -1t-52.5 -1q-12 0 -21.5 1t-13.5 1h-27q0 -14 -1 -31t-2 -33t-1.5 -28t-0.5 -16v-5q0 -4 3.5 -13.5t3.5 -11.5q0 -4 -3.5 -17t-3.5 -15v-30q0 -5 1 -19.5t2.5 -31.5t2.5 -31.5t1 -18.5v-27v-10q0 -2 4.5 -7.5t7.5 -5.5q1 -1 6 -2t11 -1.5 l12 -1t9 -0.5q5 -2 20 -3t32 -2t32.5 -1.5t21.5 -0.5q15 -5 23.5 -18.5t8.5 -30.5q0 -12 -7 -18.5t-17.5 -9.5t-22 -3.5t-20.5 -0.5q-12 0 -20 2t-15 4t-13.5 4t-15.5 2q-2 0 -8.5 -1t-14 -2.5t-14 -2.5t-8.5 -1h-10q-9 0 -19 3.5t-20 3.5q-84 0 -167 -9t-167 -9h-31 q-21 0 -38 6t-17 32z">
<glyph unicode="&#xa6;" horiz-adv-x="454" d="M202 -480q-5 2 -14.5 10.5t-9.5 10.5v686q13 15 26.5 17.5t27.5 4.5h5q11 0 21.5 -4.5t17.5 -17.5v-62q0 -22 -2 -44t-7 -44v-450q9 -9 11.5 -22t2.5 -28v-22q0 -18 -15 -31t-32 -13q-8 0 -17 1t-15 8zM276 717q-11 -8 -20.5 -11.5t-26.5 -3.5q-14 0 -26.5 6t-22.5 23 q2 39 5 76.5t3 77.5v61q0 4 -2 24t-3.5 43.5t-3 44.5t-1.5 27v131q0 6 -1 20t-1.5 30.5t-1.5 30.5t-1 20q-1 2 -2.5 7.5t-2.5 12t-2 12t-1 7.5v1q0 32 18.5 53t48.5 21q34 0 45.5 -20t11.5 -50q0 -26 -4 -48.5t-18 -44.5v-107q0 -56 4.5 -110.5t4.5 -111.5q0 -32 -4.5 -58.5 t-4.5 -57.5q0 -19 1 -31t8 -31v-44z">
<glyph unicode="&#xa7;" horiz-adv-x="880" d="M300 600q12 -22 16.5 -46.5t13.5 -47.5q15 -35 31 -71.5t33 -71.5q0 -2 1.5 -6.5t3.5 -7.5q0 -1 5.5 -5.5t7.5 -5.5q26 -47 47.5 -96.5t50.5 -97.5q17 -25 25 -53.5t12 -56.5q2 -4 3.5 -16t9.5 -16q3 2 7.5 6t9 9t8.5 9.5t5 7.5q9 8 10.5 20.5t3.5 22.5q1 2 6 11.5 t5 12.5q1 1 2.5 10t2.5 21t1.5 24t0.5 19v10q0 22 -3.5 52t-10 61t-16 60t-20.5 49q0 1 -8.5 8.5t-10.5 9.5v12q0 6 -2 18t-4 14q-1 2 -5.5 12t-10 22t-11.5 23.5t-10 17.5q-9 20 -22.5 37t-21.5 37q-11 31 -18.5 59t-28.5 54q-2 1 -11 9t-9 9q-9 13 -17 38.5t-17 50.5 t-21 43.5t-29 18.5l-4 -3q-11 -8 -15.5 -16.5t-5.5 -18.5t-1 -21t-3 -23q0 -1 -1 -3l-2 -4q-1 -3 -2 -5q0 -1 -1.5 -14t-1.5 -19v-7.5t1 -9.5l2 -12q1 -9 3 -29.5t5 -43t6 -43t5 -28.5zM86 -249l-5 -5h5v5zM56 -208q0 7 1 23t5 32.5t11.5 29t21.5 12.5q19 0 37.5 -14 t29.5 -23q3 -3 14 -14.5t23.5 -24l23.5 -23.5t14 -13q9 -9 13 -10.5t14 -1.5h10q6 0 15 2l18 4t15.5 3.5t7.5 2.5l64 63q4 5 6.5 13.5t3.5 18.5t1 19.5v16.5v21.5t-1 18.5t-3.5 19t-6.5 23q-3 0 -8.5 5t-5.5 7q-1 0 -3 4.5t-2 8.5q-11 26 -23 51t-27 47q-2 1 -10.5 8.5 t-8.5 9.5q-25 32 -44.5 70.5t-37.5 74.5q-14 25 -18 48.5t-12 50.5q-2 2 -5 8.5t-6.5 14t-6 13.5t-2.5 7q-9 33 -9 66t-10 65v207q8 13 11 27.5t4.5 30t3 30.5t6.5 30q1 3 5.5 12t9.5 19.5t10 19t7 11.5q0 1 2.5 9.5t4.5 8.5q1 6 5.5 16.5t9.5 21t9.5 19.5t5.5 12q3 6 8 8 t10.5 3.5t10.5 2.5t8 5q0 1 2.5 12t4.5 13q17 38 39 63t55 49q11 9 17.5 21.5t19.5 22.5q21 17 45.5 33.5t51 30t54.5 22t57 8.5q28 0 61 -2.5t61.5 -13.5t48 -33t19.5 -60t-20.5 -62t-60.5 -24q-32 0 -50 16t-33 34.5t-32.5 34.5t-48.5 16q-8 0 -18.5 -8t-16.5 -10 q-2 -2 -7.5 -4.5t-12 -5.5t-12 -5.5t-7.5 -3.5q-1 -2 -2 -3q-1 -2 -3 -4q-7 -10 -16 -22.5t-16.5 -26.5t-13 -28.5t-5.5 -27.5q0 -27 7.5 -52t19.5 -48t26.5 -45t27.5 -44q2 0 4.5 -4.5t2.5 -6.5q15 -35 36.5 -66t38.5 -64q1 -3 5 -10t8 -15l7.5 -15t5.5 -10q1 -4 7 -18.5 t13.5 -31.5t14 -32t8.5 -19q1 -2 4.5 -9.5t7.5 -15.5t7.5 -15.5t4.5 -8.5q9 -19 13.5 -47t6.5 -47q1 -15 3 -40l4 -50t3.5 -44t1.5 -22q0 -35 -6 -68t-16 -64.5t-22.5 -63t-24.5 -64.5q-7 -19 -14 -33t-15.5 -26t-18 -24.5t-21.5 -29.5q-1 -3 -5 -10.5t-9.5 -15.5t-10 -15 t-5.5 -9q-2 -2 -6.5 -5.5t-10 -8t-10 -8t-5.5 -4.5q-28 -25 -55.5 -50.5t-60.5 -43.5q-2 0 -11.5 -3.5t-21.5 -8.5l-24 -10t-19 -8q-17 -6 -35 -9t-34 -9h-137q-18 0 -32.5 7.5t-25.5 20.5t-17 28.5t-6 32.5z">
<glyph unicode="&#xa8;" horiz-adv-x="950" d="M590 1214q2 38 28.5 64.5t60.5 26.5q27 0 39.5 -4t27.5 -13q12 -6 23 -26.5t11 -35.5t-6.5 -31.5t-16.5 -29.5q-17 -20 -29 -28t-35 -8h-5q-12 0 -29 5t-32 15.5t-26 26.5t-11 38zM382 1218q0 -40 -20 -61t-54 -30h-17q-17 0 -35 5.5t-30 16.5q-13 11 -17.5 24t-6.5 29 q0 12 3 29t9 24q17 23 34 35.5t43 12.5q42 0 66.5 -20.5t24.5 -64.5z">
</font>
</defs>
</svg>
